G04 Layer_Physical_Order=2*
G04 Layer_Color=16711680*
%FSLAX43Y43*%
%MOMM*%
G71*
G01*
G75*
%ADD10C,0.700*%
%ADD11C,4.000*%
%ADD12C,1.600*%
%ADD13O,1.524X3.048*%
%ADD14R,1.500X1.500*%
%ADD15C,1.500*%
%ADD16R,1.600X1.600*%
%ADD17C,1.600*%
%ADD18R,1.600X1.600*%
%ADD19C,1.880*%
G36*
X51253Y79441D02*
X51216Y79422D01*
X50866Y79134D01*
X50578Y78784D01*
X50365Y78384D01*
X50233Y77951D01*
X50189Y77500D01*
X50233Y77049D01*
X50365Y76616D01*
X50578Y76216D01*
X50866Y75866D01*
X51216Y75578D01*
X51616Y75365D01*
X52049Y75233D01*
X52500Y75189D01*
X52951Y75233D01*
X53384Y75365D01*
X53784Y75578D01*
X54134Y75866D01*
X54422Y76216D01*
X54441Y76253D01*
X54565Y76222D01*
Y3778D01*
X54441Y3747D01*
X54422Y3784D01*
X54134Y4134D01*
X53784Y4422D01*
X53384Y4635D01*
X52951Y4767D01*
X52500Y4811D01*
X52049Y4767D01*
X51616Y4635D01*
X51216Y4422D01*
X50866Y4134D01*
X50578Y3784D01*
X50365Y3384D01*
X50233Y2951D01*
X50189Y2500D01*
X50233Y2049D01*
X50365Y1616D01*
X50578Y1216D01*
X50866Y866D01*
X51216Y578D01*
X51253Y559D01*
X51222Y435D01*
X3778D01*
X3747Y559D01*
X3784Y578D01*
X4134Y866D01*
X4422Y1216D01*
X4635Y1616D01*
X4767Y2049D01*
X4811Y2500D01*
X4767Y2951D01*
X4635Y3384D01*
X4422Y3784D01*
X4134Y4134D01*
X3784Y4422D01*
X3384Y4635D01*
X2951Y4767D01*
X2500Y4811D01*
X2049Y4767D01*
X1616Y4635D01*
X1216Y4422D01*
X866Y4134D01*
X578Y3784D01*
X559Y3747D01*
X435Y3778D01*
Y49532D01*
X553Y49581D01*
X1154Y48979D01*
Y35931D01*
X1177Y35761D01*
X1242Y35603D01*
X1346Y35467D01*
X4059Y32754D01*
Y15807D01*
X4082Y15638D01*
X4147Y15480D01*
X4251Y15344D01*
X7869Y11726D01*
Y9432D01*
X5886Y7449D01*
X5782Y7313D01*
X5717Y7155D01*
X5694Y6985D01*
Y6678D01*
X5593Y6599D01*
X5422Y6378D01*
X5315Y6119D01*
X5279Y5842D01*
Y4318D01*
X5315Y4041D01*
X5422Y3782D01*
X5593Y3561D01*
X5814Y3390D01*
X6073Y3283D01*
X6350Y3247D01*
X6627Y3283D01*
X6886Y3390D01*
X7107Y3561D01*
X7278Y3782D01*
X7385Y4041D01*
X7421Y4318D01*
Y5842D01*
X7385Y6119D01*
X7278Y6378D01*
X7107Y6599D01*
X7083Y6618D01*
X7073Y6781D01*
X8144Y7852D01*
X8248Y7794D01*
X8256Y7784D01*
X8234Y7620D01*
Y6678D01*
X8133Y6599D01*
X7962Y6378D01*
X7855Y6119D01*
X7819Y5842D01*
Y4318D01*
X7855Y4041D01*
X7962Y3782D01*
X8133Y3561D01*
X8354Y3390D01*
X8613Y3283D01*
X8890Y3247D01*
X9167Y3283D01*
X9426Y3390D01*
X9647Y3561D01*
X9818Y3782D01*
X9925Y4041D01*
X9961Y4318D01*
Y5842D01*
X9925Y6119D01*
X9818Y6378D01*
X9647Y6599D01*
X9546Y6678D01*
Y7348D01*
X9843Y7645D01*
X9997Y7620D01*
X10061Y7535D01*
X10788Y6809D01*
X10780Y6682D01*
X10673Y6599D01*
X10502Y6378D01*
X10395Y6119D01*
X10359Y5842D01*
Y4318D01*
X10395Y4041D01*
X10502Y3782D01*
X10673Y3561D01*
X10894Y3390D01*
X11153Y3283D01*
X11430Y3247D01*
X11707Y3283D01*
X11966Y3390D01*
X12187Y3561D01*
X12358Y3782D01*
X12465Y4041D01*
X12501Y4318D01*
Y5842D01*
X12465Y6119D01*
X12358Y6378D01*
X12195Y6590D01*
Y6985D01*
X12172Y7155D01*
X12107Y7313D01*
X12003Y7449D01*
X11181Y8271D01*
Y8776D01*
X11298Y8825D01*
X13314Y6808D01*
Y6678D01*
X13213Y6599D01*
X13042Y6378D01*
X12935Y6119D01*
X12899Y5842D01*
Y4318D01*
X12935Y4041D01*
X13042Y3782D01*
X13213Y3561D01*
X13434Y3390D01*
X13693Y3283D01*
X13970Y3247D01*
X14247Y3283D01*
X14506Y3390D01*
X14727Y3561D01*
X14898Y3782D01*
X15005Y4041D01*
X15041Y4318D01*
Y5842D01*
X15005Y6119D01*
X14898Y6378D01*
X14727Y6599D01*
X14626Y6678D01*
Y7080D01*
X14603Y7250D01*
X14538Y7408D01*
X14434Y7544D01*
X12181Y9797D01*
Y13240D01*
X12158Y13410D01*
X12093Y13568D01*
X11989Y13704D01*
X9546Y16147D01*
Y23248D01*
X9591Y23294D01*
X10570D01*
X10687Y23317D01*
X10786Y23384D01*
X10853Y23483D01*
X10876Y23600D01*
Y25200D01*
X10853Y25317D01*
X10786Y25416D01*
X10687Y25483D01*
X10570Y25506D01*
X8970D01*
X8853Y25483D01*
X8754Y25416D01*
X8687Y25317D01*
X8664Y25200D01*
Y24221D01*
X8565Y24122D01*
X8403Y24140D01*
X8354Y24204D01*
X8318Y24239D01*
X8339Y24400D01*
X8302Y24687D01*
X8191Y24955D01*
X8015Y25185D01*
X7785Y25361D01*
X7517Y25472D01*
X7230Y25509D01*
X6943Y25472D01*
X6675Y25361D01*
X6498Y25225D01*
X6371Y25287D01*
Y33106D01*
X6488Y33154D01*
X18029Y21613D01*
Y8941D01*
X16046Y6958D01*
X15942Y6822D01*
X15895Y6709D01*
X15753Y6599D01*
X15582Y6378D01*
X15475Y6119D01*
X15439Y5842D01*
Y4318D01*
X15475Y4041D01*
X15582Y3782D01*
X15753Y3561D01*
X15974Y3390D01*
X16233Y3283D01*
X16510Y3247D01*
X16787Y3283D01*
X17046Y3390D01*
X17267Y3561D01*
X17438Y3782D01*
X17545Y4041D01*
X17581Y4318D01*
Y5842D01*
X17545Y6119D01*
X17438Y6378D01*
X17387Y6444D01*
X18277Y7334D01*
X18394Y7286D01*
Y6678D01*
X18293Y6599D01*
X18122Y6378D01*
X18015Y6119D01*
X17979Y5842D01*
Y4318D01*
X18015Y4041D01*
X18122Y3782D01*
X18293Y3561D01*
X18514Y3390D01*
X18773Y3283D01*
X19050Y3247D01*
X19327Y3283D01*
X19586Y3390D01*
X19807Y3561D01*
X19978Y3782D01*
X20085Y4041D01*
X20121Y4318D01*
Y5842D01*
X20085Y6119D01*
X19978Y6378D01*
X19807Y6599D01*
X19706Y6678D01*
Y7348D01*
X20149Y7791D01*
X20219Y7884D01*
X20370Y7913D01*
X20934Y7348D01*
Y6678D01*
X20833Y6599D01*
X20662Y6378D01*
X20555Y6119D01*
X20519Y5842D01*
Y4318D01*
X20555Y4041D01*
X20662Y3782D01*
X20833Y3561D01*
X21054Y3390D01*
X21313Y3283D01*
X21590Y3247D01*
X21867Y3283D01*
X22126Y3390D01*
X22347Y3561D01*
X22518Y3782D01*
X22625Y4041D01*
X22661Y4318D01*
Y5842D01*
X22625Y6119D01*
X22518Y6378D01*
X22347Y6599D01*
X22246Y6678D01*
Y7286D01*
X22363Y7334D01*
X23253Y6444D01*
X23202Y6378D01*
X23095Y6119D01*
X23059Y5842D01*
Y4318D01*
X23095Y4041D01*
X23202Y3782D01*
X23373Y3561D01*
X23594Y3390D01*
X23853Y3283D01*
X24130Y3247D01*
X24407Y3283D01*
X24666Y3390D01*
X24887Y3561D01*
X25058Y3782D01*
X25165Y4041D01*
X25201Y4318D01*
Y5842D01*
X25165Y6119D01*
X25058Y6378D01*
X24887Y6599D01*
X24745Y6709D01*
X24698Y6822D01*
X24594Y6958D01*
X22341Y9211D01*
Y23127D01*
X22318Y23297D01*
X22253Y23455D01*
X22149Y23591D01*
X10426Y35314D01*
Y38894D01*
X10570D01*
X10687Y38917D01*
X10786Y38984D01*
X10853Y39083D01*
X10876Y39200D01*
Y40800D01*
X10853Y40917D01*
X10786Y41016D01*
X10687Y41083D01*
X10570Y41106D01*
X8970D01*
X8853Y41083D01*
X8754Y41016D01*
X8687Y40917D01*
X8664Y40800D01*
Y39200D01*
X8687Y39083D01*
X8754Y38984D01*
X8853Y38917D01*
X8970Y38894D01*
X9114D01*
Y35377D01*
X8997Y35328D01*
X7886Y36439D01*
Y39117D01*
X8015Y39215D01*
X8191Y39445D01*
X8302Y39713D01*
X8339Y40000D01*
X8302Y40287D01*
X8191Y40555D01*
X8015Y40785D01*
X7785Y40961D01*
X7517Y41072D01*
X7230Y41109D01*
X6943Y41072D01*
X6675Y40961D01*
X6445Y40785D01*
X6269Y40555D01*
X6158Y40287D01*
X6121Y40000D01*
X6158Y39713D01*
X6269Y39445D01*
X6445Y39215D01*
X6574Y39117D01*
Y36502D01*
X6457Y36454D01*
X5466Y37445D01*
Y50159D01*
X5583Y50207D01*
X13489Y42301D01*
Y35587D01*
X13512Y35418D01*
X13577Y35260D01*
X13681Y35124D01*
X27459Y21346D01*
Y8702D01*
X26206Y7449D01*
X26102Y7313D01*
X26037Y7155D01*
X26014Y6985D01*
Y6678D01*
X25913Y6599D01*
X25742Y6378D01*
X25635Y6119D01*
X25599Y5842D01*
Y4318D01*
X25635Y4041D01*
X25742Y3782D01*
X25913Y3561D01*
X26134Y3390D01*
X26393Y3283D01*
X26670Y3247D01*
X26947Y3283D01*
X27206Y3390D01*
X27427Y3561D01*
X27598Y3782D01*
X27705Y4041D01*
X27741Y4318D01*
Y5842D01*
X27705Y6119D01*
X27598Y6378D01*
X27427Y6599D01*
X27403Y6618D01*
X27393Y6781D01*
X28342Y7730D01*
X28459Y7681D01*
Y6605D01*
X28453Y6599D01*
X28282Y6378D01*
X28175Y6119D01*
X28139Y5842D01*
Y4318D01*
X28175Y4041D01*
X28282Y3782D01*
X28453Y3561D01*
X28674Y3390D01*
X28933Y3283D01*
X29210Y3247D01*
X29487Y3283D01*
X29746Y3390D01*
X29967Y3561D01*
X30138Y3782D01*
X30245Y4041D01*
X30281Y4318D01*
Y5842D01*
X30245Y6119D01*
X30138Y6378D01*
X29967Y6599D01*
X29771Y6750D01*
Y7236D01*
X29888Y7285D01*
X30814Y6358D01*
X30715Y6119D01*
X30679Y5842D01*
Y4318D01*
X30715Y4041D01*
X30822Y3782D01*
X30993Y3561D01*
X31214Y3390D01*
X31473Y3283D01*
X31750Y3247D01*
X32027Y3283D01*
X32286Y3390D01*
X32507Y3561D01*
X32678Y3782D01*
X32785Y4041D01*
X32821Y4318D01*
Y5675D01*
X32938Y5723D01*
X33219Y5443D01*
Y4318D01*
X33255Y4041D01*
X33362Y3782D01*
X33533Y3561D01*
X33754Y3390D01*
X34013Y3283D01*
X34290Y3247D01*
X34567Y3283D01*
X34826Y3390D01*
X35047Y3561D01*
X35218Y3782D01*
X35325Y4041D01*
X35361Y4318D01*
Y5842D01*
X35325Y6119D01*
X35218Y6378D01*
X35047Y6599D01*
X34826Y6770D01*
X34662Y6837D01*
X34687Y6964D01*
X35288D01*
X37029Y5224D01*
Y4318D01*
X37065Y4041D01*
X37172Y3782D01*
X37343Y3561D01*
X37564Y3390D01*
X37823Y3283D01*
X38100Y3247D01*
X38377Y3283D01*
X38636Y3390D01*
X38857Y3561D01*
X39028Y3782D01*
X39135Y4041D01*
X39171Y4318D01*
Y5787D01*
X39298Y5840D01*
X39569Y5569D01*
Y4318D01*
X39605Y4041D01*
X39712Y3782D01*
X39883Y3561D01*
X40104Y3390D01*
X40363Y3283D01*
X40640Y3247D01*
X40917Y3283D01*
X41176Y3390D01*
X41397Y3561D01*
X41568Y3782D01*
X41675Y4041D01*
X41711Y4318D01*
Y5675D01*
X41828Y5723D01*
X42109Y5443D01*
Y4318D01*
X42145Y4041D01*
X42252Y3782D01*
X42423Y3561D01*
X42644Y3390D01*
X42903Y3283D01*
X43180Y3247D01*
X43457Y3283D01*
X43716Y3390D01*
X43937Y3561D01*
X44108Y3782D01*
X44215Y4041D01*
X44251Y4318D01*
Y5842D01*
X44216Y6113D01*
X44224Y6122D01*
X44334Y6174D01*
X44651Y5857D01*
X44649Y5842D01*
Y5330D01*
X45470D01*
Y6892D01*
X44476Y7886D01*
X44481Y8014D01*
X44600Y8105D01*
X44776Y8335D01*
X44887Y8603D01*
X44892Y8640D01*
X43815D01*
X42738D01*
X42743Y8603D01*
X42854Y8335D01*
X43030Y8105D01*
X43159Y8007D01*
Y7620D01*
X43182Y7450D01*
X43247Y7292D01*
X43351Y7156D01*
X43512Y6996D01*
X43460Y6886D01*
X43451Y6878D01*
X43180Y6913D01*
X42903Y6877D01*
X42644Y6770D01*
X42640Y6766D01*
X41661Y7745D01*
X41686Y7870D01*
X41830Y7929D01*
X42060Y8105D01*
X42236Y8335D01*
X42347Y8603D01*
X42384Y8890D01*
X42347Y9177D01*
X42236Y9445D01*
X42060Y9675D01*
X41941Y9766D01*
X41936Y9894D01*
X44722Y12679D01*
X49917D01*
X50015Y12550D01*
X50245Y12374D01*
X50513Y12263D01*
X50800Y12226D01*
X51087Y12263D01*
X51355Y12374D01*
X51585Y12550D01*
X51761Y12780D01*
X51872Y13048D01*
X51909Y13335D01*
X51872Y13622D01*
X51761Y13890D01*
X51592Y14110D01*
X51594Y14121D01*
X51700Y14203D01*
X51783Y14168D01*
X52070Y14131D01*
X52357Y14168D01*
X52625Y14279D01*
X52855Y14455D01*
X53031Y14685D01*
X53142Y14953D01*
X53179Y15240D01*
X53142Y15527D01*
X53031Y15795D01*
X52855Y16025D01*
X52645Y16185D01*
X52638Y16203D01*
X52534Y16339D01*
X51264Y17609D01*
X51128Y17713D01*
X50970Y17778D01*
X50800Y17801D01*
X47262D01*
X47016Y18046D01*
X47021Y18174D01*
X47140Y18265D01*
X47316Y18495D01*
X47427Y18763D01*
X47464Y19050D01*
X47427Y19337D01*
X47316Y19605D01*
X47140Y19835D01*
X46910Y20011D01*
X46642Y20122D01*
X46355Y20159D01*
X46068Y20122D01*
X45800Y20011D01*
X45570Y19835D01*
X45394Y19605D01*
X45283Y19337D01*
X45246Y19050D01*
X45283Y18763D01*
X45394Y18495D01*
X45570Y18265D01*
X45699Y18167D01*
Y17780D01*
X45722Y17610D01*
X45787Y17452D01*
X45891Y17316D01*
X46526Y16681D01*
X46662Y16577D01*
X46820Y16512D01*
X46990Y16489D01*
X50528D01*
X51159Y15859D01*
X51109Y15795D01*
X50998Y15527D01*
X50961Y15240D01*
X50998Y14953D01*
X51109Y14685D01*
X51278Y14465D01*
X51276Y14454D01*
X51170Y14372D01*
X51087Y14407D01*
X50800Y14444D01*
X50513Y14407D01*
X50430Y14372D01*
X50324Y14454D01*
X50322Y14465D01*
X50491Y14685D01*
X50602Y14953D01*
X50639Y15240D01*
X50602Y15527D01*
X50491Y15795D01*
X50315Y16025D01*
X50085Y16201D01*
X49817Y16312D01*
X49530Y16349D01*
X49243Y16312D01*
X48975Y16201D01*
X48745Y16025D01*
X48647Y15896D01*
X46627D01*
X44476Y18046D01*
X44481Y18174D01*
X44600Y18265D01*
X44776Y18495D01*
X44887Y18763D01*
X44924Y19050D01*
X44887Y19337D01*
X44776Y19605D01*
X44600Y19835D01*
X44370Y20011D01*
X44102Y20122D01*
X43815Y20159D01*
X43528Y20122D01*
X43260Y20011D01*
X43030Y19835D01*
X42854Y19605D01*
X42743Y19337D01*
X42706Y19050D01*
X42743Y18763D01*
X42854Y18495D01*
X43030Y18265D01*
X43159Y18167D01*
Y17780D01*
X43182Y17610D01*
X43247Y17452D01*
X43351Y17316D01*
X45891Y14776D01*
X46027Y14672D01*
X46185Y14607D01*
X46355Y14584D01*
X48647D01*
X48745Y14455D01*
X48975Y14279D01*
X49243Y14168D01*
X49530Y14131D01*
X49817Y14168D01*
X49900Y14203D01*
X50006Y14121D01*
X50008Y14110D01*
X49917Y13991D01*
X44450D01*
X44280Y13968D01*
X44122Y13903D01*
X43986Y13799D01*
X40811Y10624D01*
X40707Y10488D01*
X40642Y10330D01*
X40619Y10160D01*
Y9773D01*
X40490Y9675D01*
X40314Y9445D01*
X40203Y9177D01*
X40166Y8890D01*
X40203Y8603D01*
X40314Y8335D01*
X40328Y8317D01*
X40274Y8179D01*
X40234Y8172D01*
X38948Y9458D01*
X39061Y9605D01*
X39172Y9873D01*
X39209Y10160D01*
X39172Y10447D01*
X39061Y10715D01*
X38885Y10945D01*
X38655Y11121D01*
X38387Y11232D01*
X38100Y11269D01*
X37813Y11232D01*
X37545Y11121D01*
X37315Y10945D01*
X37139Y10715D01*
X37028Y10447D01*
X36991Y10160D01*
X37028Y9873D01*
X37139Y9605D01*
X37315Y9375D01*
X37459Y9265D01*
X37467Y9210D01*
X37532Y9052D01*
X37543Y9038D01*
X37480Y8911D01*
X36611D01*
X36300Y9221D01*
X36309Y9348D01*
X36345Y9375D01*
X36521Y9605D01*
X36632Y9873D01*
X36669Y10160D01*
X36632Y10447D01*
X36521Y10715D01*
X36345Y10945D01*
X36115Y11121D01*
X35847Y11232D01*
X35560Y11269D01*
X35273Y11232D01*
X35005Y11121D01*
X34775Y10945D01*
X34599Y10715D01*
X34488Y10447D01*
X34451Y10160D01*
X34488Y9873D01*
X34599Y9605D01*
X34775Y9375D01*
X34904Y9277D01*
Y9034D01*
X34927Y8865D01*
X34992Y8706D01*
X35096Y8571D01*
X35274Y8393D01*
X35225Y8276D01*
X34562D01*
X33681Y9156D01*
X33686Y9284D01*
X33805Y9375D01*
X33981Y9605D01*
X34092Y9873D01*
X34129Y10160D01*
X34092Y10447D01*
X33981Y10715D01*
X33805Y10945D01*
X33575Y11121D01*
X33307Y11232D01*
X33020Y11269D01*
X32733Y11232D01*
X32465Y11121D01*
X32235Y10945D01*
X32059Y10715D01*
X31948Y10447D01*
X31911Y10160D01*
X31948Y9873D01*
X32059Y9605D01*
X32235Y9375D01*
X32364Y9277D01*
Y8890D01*
X32387Y8720D01*
X32452Y8562D01*
X32556Y8426D01*
X33826Y7156D01*
X33962Y7052D01*
X34020Y6894D01*
X34013Y6877D01*
X33754Y6770D01*
X33750Y6766D01*
X31771Y8745D01*
Y22860D01*
X31748Y23030D01*
X31683Y23188D01*
X31579Y23324D01*
X17801Y37102D01*
Y43815D01*
X17778Y43985D01*
X17713Y44143D01*
X17609Y44279D01*
X10426Y51462D01*
Y54494D01*
X10570D01*
X10687Y54517D01*
X10786Y54584D01*
X10853Y54683D01*
X10876Y54800D01*
Y56400D01*
X10953Y56494D01*
X11158D01*
X18586Y49066D01*
X18722Y48962D01*
X18880Y48897D01*
X19050Y48874D01*
X36974D01*
X37144Y48897D01*
X37302Y48962D01*
X37438Y49066D01*
X43316Y54944D01*
X44124D01*
Y54800D01*
X44147Y54683D01*
X44214Y54584D01*
X44313Y54517D01*
X44430Y54494D01*
X46030D01*
X46147Y54517D01*
X46246Y54584D01*
X46313Y54683D01*
X46336Y54800D01*
Y56400D01*
X46313Y56517D01*
X46246Y56616D01*
X46147Y56683D01*
X46030Y56706D01*
X44430D01*
X44313Y56683D01*
X44214Y56616D01*
X44147Y56517D01*
X44124Y56400D01*
Y56256D01*
X43379D01*
X43330Y56373D01*
X44087Y57129D01*
X46083D01*
X46917Y56296D01*
X46809Y56155D01*
X46698Y55887D01*
X46661Y55600D01*
X46698Y55313D01*
X46809Y55045D01*
X46985Y54815D01*
X47215Y54639D01*
X47483Y54528D01*
X47770Y54491D01*
X48057Y54528D01*
X48325Y54639D01*
X48555Y54815D01*
X48731Y55045D01*
X48747Y55085D01*
X48874Y55060D01*
Y47897D01*
X44766Y43789D01*
X44662Y43653D01*
X44597Y43495D01*
X44574Y43325D01*
Y41106D01*
X44430D01*
X44313Y41083D01*
X44214Y41016D01*
X44147Y40917D01*
X44124Y40800D01*
Y39200D01*
X44147Y39083D01*
X44214Y38984D01*
X44313Y38917D01*
X44430Y38894D01*
X46030D01*
X46147Y38917D01*
X46246Y38984D01*
X46313Y39083D01*
X46336Y39200D01*
Y40800D01*
X46313Y40917D01*
X46246Y41016D01*
X46147Y41083D01*
X46030Y41106D01*
X45886D01*
Y43053D01*
X46997Y44165D01*
X47114Y44116D01*
Y40883D01*
X46985Y40785D01*
X46809Y40555D01*
X46698Y40287D01*
X46661Y40000D01*
X46698Y39713D01*
X46809Y39445D01*
X46985Y39215D01*
X47215Y39039D01*
X47483Y38928D01*
X47770Y38891D01*
X48057Y38928D01*
X48325Y39039D01*
X48555Y39215D01*
X48731Y39445D01*
X48842Y39713D01*
X48879Y40000D01*
X48842Y40287D01*
X48731Y40555D01*
X48555Y40785D01*
X48426Y40883D01*
Y44179D01*
X49392Y45146D01*
X49509Y45097D01*
Y35197D01*
X44766Y30454D01*
X44662Y30318D01*
X44597Y30160D01*
X44574Y29990D01*
Y25506D01*
X44430D01*
X44313Y25483D01*
X44214Y25416D01*
X44147Y25317D01*
X44124Y25200D01*
Y23600D01*
X44147Y23483D01*
X44214Y23384D01*
X44313Y23317D01*
X44430Y23294D01*
X46030D01*
X46147Y23317D01*
X46246Y23384D01*
X46313Y23483D01*
X46336Y23600D01*
Y25200D01*
X46313Y25317D01*
X46246Y25416D01*
X46147Y25483D01*
X46030Y25506D01*
X45886D01*
Y29718D01*
X46997Y30830D01*
X47114Y30781D01*
Y25283D01*
X46985Y25185D01*
X46809Y24955D01*
X46698Y24687D01*
X46661Y24400D01*
X46698Y24113D01*
X46809Y23845D01*
X46985Y23615D01*
X47215Y23439D01*
X47483Y23328D01*
X47770Y23291D01*
X48057Y23328D01*
X48325Y23439D01*
X48555Y23615D01*
X48731Y23845D01*
X48842Y24113D01*
X48879Y24400D01*
X48842Y24687D01*
X48731Y24955D01*
X48555Y25185D01*
X48426Y25283D01*
Y30844D01*
X51629Y34047D01*
X51733Y34183D01*
X51798Y34341D01*
X51821Y34511D01*
Y44543D01*
X52994Y45716D01*
X53098Y45852D01*
X53163Y46010D01*
X53186Y46180D01*
Y57758D01*
X53163Y57927D01*
X53098Y58085D01*
X52994Y58221D01*
X48966Y62249D01*
X48830Y62353D01*
X48672Y62418D01*
X48503Y62441D01*
X42158D01*
X41988Y62418D01*
X41830Y62353D01*
X41695Y62249D01*
X34632Y55186D01*
X21393D01*
X13965Y62614D01*
X13829Y62718D01*
X13671Y62783D01*
X13501Y62806D01*
X4658D01*
X4489Y62783D01*
X4331Y62718D01*
X4195Y62614D01*
X553Y58972D01*
X435Y59020D01*
Y76222D01*
X559Y76253D01*
X578Y76216D01*
X866Y75866D01*
X1216Y75578D01*
X1616Y75365D01*
X2049Y75233D01*
X2500Y75189D01*
X2951Y75233D01*
X3384Y75365D01*
X3784Y75578D01*
X4134Y75866D01*
X4422Y76216D01*
X4635Y76616D01*
X4767Y77049D01*
X4811Y77500D01*
X4767Y77951D01*
X4635Y78384D01*
X4422Y78784D01*
X4134Y79134D01*
X3784Y79422D01*
X3747Y79441D01*
X3778Y79565D01*
X51222D01*
X51253Y79441D01*
D02*
G37*
%LPC*%
G36*
X23440Y39750D02*
X22472D01*
X22482Y39676D01*
X22607Y39375D01*
X22806Y39116D01*
X23065Y38917D01*
X23366Y38792D01*
X23440Y38782D01*
Y39750D01*
D02*
G37*
G36*
X31310Y41250D02*
X30986Y41208D01*
X30685Y41083D01*
X30426Y40884D01*
X30227Y40625D01*
X30102Y40324D01*
X30059Y40000D01*
X30102Y39676D01*
X30227Y39375D01*
X30426Y39116D01*
X30685Y38917D01*
X30986Y38792D01*
X31310Y38750D01*
X31634Y38792D01*
X31935Y38917D01*
X32194Y39116D01*
X32393Y39375D01*
X32518Y39676D01*
X32561Y40000D01*
X32518Y40324D01*
X32393Y40625D01*
X32194Y40884D01*
X31935Y41083D01*
X31634Y41208D01*
X31310Y41250D01*
D02*
G37*
G36*
X24908Y39750D02*
X23940D01*
Y38782D01*
X24014Y38792D01*
X24315Y38917D01*
X24574Y39116D01*
X24773Y39375D01*
X24898Y39676D01*
X24908Y39750D01*
D02*
G37*
G36*
X23940Y41218D02*
Y40250D01*
X24908D01*
X24898Y40324D01*
X24773Y40625D01*
X24574Y40884D01*
X24315Y41083D01*
X24014Y41208D01*
X23940Y41218D01*
D02*
G37*
G36*
X23440D02*
X23366Y41208D01*
X23065Y41083D01*
X22806Y40884D01*
X22607Y40625D01*
X22482Y40324D01*
X22472Y40250D01*
X23440D01*
Y41218D01*
D02*
G37*
G36*
X41275Y20159D02*
X40988Y20122D01*
X40720Y20011D01*
X40490Y19835D01*
X40314Y19605D01*
X40203Y19337D01*
X40166Y19050D01*
X40187Y18889D01*
X39733Y18436D01*
X38983D01*
X38885Y18565D01*
X38655Y18741D01*
X38387Y18852D01*
X38100Y18889D01*
X37813Y18852D01*
X37545Y18741D01*
X37315Y18565D01*
X37217Y18436D01*
X36443D01*
X36345Y18565D01*
X36115Y18741D01*
X35847Y18852D01*
X35560Y18889D01*
X35273Y18852D01*
X35005Y18741D01*
X34775Y18565D01*
X34677Y18436D01*
X33903D01*
X33805Y18565D01*
X33575Y18741D01*
X33307Y18852D01*
X33020Y18889D01*
X32733Y18852D01*
X32465Y18741D01*
X32235Y18565D01*
X32059Y18335D01*
X31948Y18067D01*
X31911Y17780D01*
X31948Y17493D01*
X32059Y17225D01*
X32235Y16995D01*
X32465Y16819D01*
X32733Y16708D01*
X33020Y16671D01*
X33307Y16708D01*
X33575Y16819D01*
X33805Y16995D01*
X33903Y17124D01*
X34677D01*
X34775Y16995D01*
X35005Y16819D01*
X35273Y16708D01*
X35560Y16671D01*
X35847Y16708D01*
X36115Y16819D01*
X36345Y16995D01*
X36443Y17124D01*
X37217D01*
X37315Y16995D01*
X37545Y16819D01*
X37813Y16708D01*
X38100Y16671D01*
X38387Y16708D01*
X38655Y16819D01*
X38885Y16995D01*
X38983Y17124D01*
X40005D01*
X40175Y17147D01*
X40333Y17212D01*
X40469Y17316D01*
X41114Y17962D01*
X41275Y17941D01*
X41562Y17978D01*
X41830Y18089D01*
X42060Y18265D01*
X42236Y18495D01*
X42347Y18763D01*
X42384Y19050D01*
X42347Y19337D01*
X42236Y19605D01*
X42060Y19835D01*
X41830Y20011D01*
X41562Y20122D01*
X41275Y20159D01*
D02*
G37*
G36*
X46791Y4830D02*
X45970D01*
Y3280D01*
X45997Y3283D01*
X46256Y3390D01*
X46477Y3561D01*
X46648Y3782D01*
X46755Y4041D01*
X46791Y4318D01*
Y4830D01*
D02*
G37*
G36*
X45470D02*
X44649D01*
Y4318D01*
X44685Y4041D01*
X44792Y3782D01*
X44963Y3561D01*
X45184Y3390D01*
X45443Y3283D01*
X45470Y3280D01*
Y4830D01*
D02*
G37*
G36*
X46355Y9999D02*
X46068Y9962D01*
X45800Y9851D01*
X45570Y9675D01*
X45394Y9445D01*
X45283Y9177D01*
X45246Y8890D01*
X45283Y8603D01*
X45394Y8335D01*
X45570Y8105D01*
X45699Y8007D01*
Y7620D01*
X45722Y7450D01*
X45787Y7292D01*
X45891Y7156D01*
X46052Y6996D01*
X46000Y6886D01*
X45991Y6878D01*
X45970Y6880D01*
Y5330D01*
X46791D01*
Y5842D01*
X46756Y6113D01*
X46764Y6122D01*
X46874Y6174D01*
X47191Y5857D01*
X47189Y5842D01*
Y4318D01*
X47225Y4041D01*
X47332Y3782D01*
X47503Y3561D01*
X47724Y3390D01*
X47983Y3283D01*
X48260Y3247D01*
X48537Y3283D01*
X48796Y3390D01*
X49017Y3561D01*
X49188Y3782D01*
X49295Y4041D01*
X49331Y4318D01*
Y5842D01*
X49295Y6119D01*
X49188Y6378D01*
X49017Y6599D01*
X48796Y6770D01*
X48537Y6877D01*
X48260Y6913D01*
X48021Y6882D01*
X47016Y7886D01*
X47021Y8014D01*
X47140Y8105D01*
X47316Y8335D01*
X47427Y8603D01*
X47464Y8890D01*
X47427Y9177D01*
X47316Y9445D01*
X47140Y9675D01*
X46910Y9851D01*
X46642Y9962D01*
X46355Y9999D01*
D02*
G37*
G36*
X44065Y9967D02*
Y9140D01*
X44892D01*
X44887Y9177D01*
X44776Y9445D01*
X44600Y9675D01*
X44370Y9851D01*
X44102Y9962D01*
X44065Y9967D01*
D02*
G37*
G36*
X43565D02*
X43528Y9962D01*
X43260Y9851D01*
X43030Y9675D01*
X42854Y9445D01*
X42743Y9177D01*
X42738Y9140D01*
X43565D01*
Y9967D01*
D02*
G37*
G36*
X19300Y65847D02*
Y65020D01*
X20127D01*
X20122Y65057D01*
X20011Y65325D01*
X19835Y65555D01*
X19605Y65731D01*
X19337Y65842D01*
X19300Y65847D01*
D02*
G37*
G36*
X18800D02*
X18763Y65842D01*
X18495Y65731D01*
X18265Y65555D01*
X18089Y65325D01*
X17978Y65057D01*
X17973Y65020D01*
X18800D01*
Y65847D01*
D02*
G37*
G36*
X31750Y70909D02*
X31476Y70873D01*
X31220Y70767D01*
X31001Y70599D01*
X30833Y70380D01*
X30727Y70124D01*
X30691Y69850D01*
X30727Y69576D01*
X30833Y69320D01*
X31001Y69101D01*
X31220Y68933D01*
X31476Y68827D01*
X31750Y68791D01*
X32024Y68827D01*
X32280Y68933D01*
X32499Y69101D01*
X32667Y69320D01*
X32773Y69576D01*
X32809Y69850D01*
X32773Y70124D01*
X32667Y70380D01*
X32499Y70599D01*
X32280Y70767D01*
X32024Y70873D01*
X31750Y70909D01*
D02*
G37*
G36*
X33020Y76039D02*
X32733Y76002D01*
X32465Y75891D01*
X32235Y75715D01*
X32137Y75586D01*
X30480D01*
X30310Y75563D01*
X30152Y75498D01*
X30016Y75394D01*
X29381Y74759D01*
X29277Y74623D01*
X29212Y74465D01*
X29189Y74295D01*
Y73932D01*
X28303Y73046D01*
X27305D01*
X27135Y73023D01*
X26977Y72958D01*
X26841Y72854D01*
X26670Y72682D01*
X26499Y72854D01*
X26363Y72958D01*
X26205Y73023D01*
X26035Y73046D01*
X23743D01*
X23645Y73175D01*
X23415Y73351D01*
X23147Y73462D01*
X22860Y73499D01*
X22573Y73462D01*
X22305Y73351D01*
X22075Y73175D01*
X21899Y72945D01*
X21788Y72677D01*
X21751Y72390D01*
X21788Y72103D01*
X21899Y71835D01*
X22075Y71605D01*
X22305Y71429D01*
X22573Y71318D01*
X22860Y71281D01*
X23147Y71318D01*
X23415Y71429D01*
X23645Y71605D01*
X23743Y71734D01*
X25763D01*
X26014Y71483D01*
Y70670D01*
X25921Y70599D01*
X25753Y70380D01*
X25647Y70124D01*
X25611Y69850D01*
X25647Y69576D01*
X25753Y69320D01*
X25921Y69101D01*
X26140Y68933D01*
X26396Y68827D01*
X26670Y68791D01*
X26944Y68827D01*
X27200Y68933D01*
X27419Y69101D01*
X27587Y69320D01*
X27693Y69576D01*
X27729Y69850D01*
X27693Y70124D01*
X27587Y70380D01*
X27419Y70599D01*
X27326Y70670D01*
Y71483D01*
X27577Y71734D01*
X28575D01*
X28739Y71756D01*
X28749Y71748D01*
X28807Y71644D01*
X28746Y71584D01*
X28642Y71448D01*
X28577Y71290D01*
X28554Y71120D01*
Y70670D01*
X28461Y70599D01*
X28293Y70380D01*
X28187Y70124D01*
X28151Y69850D01*
X28187Y69576D01*
X28293Y69320D01*
X28461Y69101D01*
X28554Y69030D01*
Y67582D01*
X27940Y66967D01*
X27134Y67774D01*
X26998Y67878D01*
X26840Y67943D01*
X26670Y67966D01*
X20156D01*
Y68110D01*
X20133Y68227D01*
X20066Y68326D01*
X19967Y68393D01*
X19850Y68416D01*
X18250D01*
X18133Y68393D01*
X18034Y68326D01*
X17967Y68227D01*
X17944Y68110D01*
Y66510D01*
X17967Y66393D01*
X18034Y66294D01*
X18133Y66227D01*
X18250Y66204D01*
X19850D01*
X19967Y66227D01*
X20066Y66294D01*
X20133Y66393D01*
X20156Y66510D01*
Y66654D01*
X26398D01*
X27013Y66040D01*
X26206Y65234D01*
X26102Y65098D01*
X26037Y64940D01*
X26014Y64770D01*
Y63050D01*
X25921Y62979D01*
X25753Y62760D01*
X25647Y62504D01*
X25611Y62230D01*
X25647Y61956D01*
X25753Y61700D01*
X25921Y61481D01*
X26140Y61313D01*
X26396Y61207D01*
X26670Y61171D01*
X26944Y61207D01*
X27200Y61313D01*
X27419Y61481D01*
X27587Y61700D01*
X27693Y61956D01*
X27729Y62230D01*
X27693Y62504D01*
X27587Y62760D01*
X27419Y62979D01*
X27326Y63050D01*
Y64498D01*
X28404Y65576D01*
X28404Y65576D01*
X28404Y65576D01*
X29674Y66846D01*
X29778Y66982D01*
X29843Y67140D01*
X29866Y67310D01*
Y69030D01*
X29959Y69101D01*
X30127Y69320D01*
X30233Y69576D01*
X30269Y69850D01*
X30233Y70124D01*
X30127Y70380D01*
X29959Y70599D01*
X29866Y70670D01*
Y70848D01*
X30752Y71734D01*
X32137D01*
X32235Y71605D01*
X32465Y71429D01*
X32733Y71318D01*
X33020Y71281D01*
X33307Y71318D01*
X33575Y71429D01*
X33805Y71605D01*
X33981Y71835D01*
X34092Y72103D01*
X34129Y72390D01*
X34092Y72677D01*
X33981Y72945D01*
X33805Y73175D01*
X33575Y73351D01*
X33307Y73462D01*
X33020Y73499D01*
X32733Y73462D01*
X32465Y73351D01*
X32235Y73175D01*
X32137Y73046D01*
X30480D01*
X30316Y73024D01*
X30306Y73032D01*
X30248Y73136D01*
X30309Y73196D01*
X30413Y73332D01*
X30478Y73490D01*
X30501Y73660D01*
Y74023D01*
X30752Y74274D01*
X32137D01*
X32235Y74145D01*
X32465Y73969D01*
X32733Y73858D01*
X33020Y73821D01*
X33307Y73858D01*
X33575Y73969D01*
X33805Y74145D01*
X33981Y74375D01*
X34092Y74643D01*
X34129Y74930D01*
X34092Y75217D01*
X33981Y75485D01*
X33805Y75715D01*
X33575Y75891D01*
X33307Y76002D01*
X33020Y76039D01*
D02*
G37*
G36*
X22860D02*
X22573Y76002D01*
X22305Y75891D01*
X22075Y75715D01*
X21977Y75586D01*
X20955D01*
X20785Y75563D01*
X20627Y75498D01*
X20491Y75394D01*
X19856Y74759D01*
X19752Y74623D01*
X19687Y74465D01*
X19664Y74295D01*
Y71755D01*
X19687Y71585D01*
X19752Y71427D01*
X19856Y71291D01*
X21761Y69386D01*
X21897Y69282D01*
X22055Y69217D01*
X22225Y69194D01*
X23310D01*
X23381Y69101D01*
X23600Y68933D01*
X23856Y68827D01*
X24130Y68791D01*
X24404Y68827D01*
X24660Y68933D01*
X24879Y69101D01*
X25047Y69320D01*
X25153Y69576D01*
X25189Y69850D01*
X25153Y70124D01*
X25047Y70380D01*
X24879Y70599D01*
X24660Y70767D01*
X24404Y70873D01*
X24130Y70909D01*
X23856Y70873D01*
X23600Y70767D01*
X23381Y70599D01*
X23310Y70506D01*
X22497D01*
X20976Y72027D01*
Y74023D01*
X21227Y74274D01*
X21977D01*
X22075Y74145D01*
X22305Y73969D01*
X22573Y73858D01*
X22860Y73821D01*
X23147Y73858D01*
X23415Y73969D01*
X23645Y74145D01*
X23821Y74375D01*
X23932Y74643D01*
X23969Y74930D01*
X23932Y75217D01*
X23821Y75485D01*
X23645Y75715D01*
X23415Y75891D01*
X23147Y76002D01*
X22860Y76039D01*
D02*
G37*
G36*
X18800Y64520D02*
X17973D01*
X17978Y64483D01*
X18089Y64215D01*
X18265Y63985D01*
X18495Y63809D01*
X18763Y63698D01*
X18800Y63693D01*
Y64520D01*
D02*
G37*
G36*
X31750Y63289D02*
X31476Y63253D01*
X31220Y63147D01*
X31001Y62979D01*
X30833Y62760D01*
X30727Y62504D01*
X30691Y62230D01*
X30727Y61956D01*
X30833Y61700D01*
X31001Y61481D01*
X31220Y61313D01*
X31476Y61207D01*
X31750Y61171D01*
X32024Y61207D01*
X32280Y61313D01*
X32499Y61481D01*
X32667Y61700D01*
X32773Y61956D01*
X32809Y62230D01*
X32773Y62504D01*
X32667Y62760D01*
X32499Y62979D01*
X32280Y63147D01*
X32024Y63253D01*
X31750Y63289D01*
D02*
G37*
G36*
X29210D02*
X28936Y63253D01*
X28680Y63147D01*
X28461Y62979D01*
X28293Y62760D01*
X28187Y62504D01*
X28151Y62230D01*
X28187Y61956D01*
X28293Y61700D01*
X28461Y61481D01*
X28680Y61313D01*
X28936Y61207D01*
X29210Y61171D01*
X29484Y61207D01*
X29740Y61313D01*
X29959Y61481D01*
X30127Y61700D01*
X30233Y61956D01*
X30269Y62230D01*
X30233Y62504D01*
X30127Y62760D01*
X29959Y62979D01*
X29740Y63147D01*
X29484Y63253D01*
X29210Y63289D01*
D02*
G37*
G36*
X20227Y64520D02*
X19300D01*
Y63593D01*
X21126Y61766D01*
X21262Y61662D01*
X21420Y61597D01*
X21590Y61574D01*
X23074D01*
Y61480D01*
X23097Y61363D01*
X23164Y61264D01*
X23263Y61197D01*
X23380Y61174D01*
X23880D01*
Y62230D01*
Y63286D01*
X23380D01*
X23263Y63263D01*
X23164Y63196D01*
X23097Y63097D01*
X23074Y62980D01*
Y62886D01*
X21862D01*
X20227Y64520D01*
D02*
G37*
G36*
X24880Y63286D02*
X24380D01*
Y62480D01*
X25186D01*
Y62980D01*
X25163Y63097D01*
X25096Y63196D01*
X24997Y63263D01*
X24880Y63286D01*
D02*
G37*
G36*
X25186Y61980D02*
X24380D01*
Y61174D01*
X24880D01*
X24997Y61197D01*
X25096Y61264D01*
X25163Y61363D01*
X25186Y61480D01*
Y61980D01*
D02*
G37*
%LPD*%
D10*
X38100Y9379D02*
X40039Y7440D01*
X41039D01*
X43180Y5299D01*
Y5080D02*
Y5299D01*
X40640Y5080D02*
Y5425D01*
X38100Y9379D02*
Y10160D01*
X33020Y8890D02*
Y10160D01*
Y8890D02*
X34290Y7620D01*
X35560D01*
X38100Y5080D01*
X37810Y8255D02*
X40640Y5425D01*
X36339Y8255D02*
X37810D01*
X33020Y17780D02*
X35560D01*
X38100D01*
X40005D01*
X41275Y19050D01*
X43815Y7620D02*
Y8890D01*
Y7620D02*
X45720Y5715D01*
Y5080D02*
Y5715D01*
X46355Y7620D02*
Y8890D01*
Y7620D02*
X48260Y5715D01*
Y5080D02*
Y5715D01*
X46355Y17780D02*
X46990Y17145D01*
X46355Y17780D02*
Y19050D01*
X50800Y17145D02*
X52070Y15875D01*
Y15240D02*
Y15875D01*
X46990Y17145D02*
X50800D01*
X43815Y17780D02*
X46355Y15240D01*
X43815Y17780D02*
Y19050D01*
X46355Y15240D02*
X49530D01*
X11430Y5080D02*
X11539Y5189D01*
X7230Y36168D02*
Y40000D01*
X35560Y9034D02*
Y10160D01*
Y9034D02*
X36339Y8255D01*
X17145Y36830D02*
Y43815D01*
X34290Y5080D02*
Y5299D01*
X17145Y36830D02*
X31115Y22860D01*
Y8474D02*
X34290Y5299D01*
X31115Y8474D02*
Y22860D01*
X31750Y5080D02*
Y6350D01*
X30115Y7985D02*
X31750Y6350D01*
X16145Y36416D02*
X30115Y22446D01*
Y7985D02*
Y22446D01*
X16145Y36416D02*
Y43401D01*
X29115Y5175D02*
X29210Y5080D01*
X29115Y5175D02*
Y22032D01*
X15145Y36002D02*
X29115Y22032D01*
X15145Y36002D02*
Y42987D01*
X14145Y35587D02*
Y42572D01*
X9770Y51190D02*
X17145Y43815D01*
X9770Y51190D02*
Y55600D01*
X7230Y52316D02*
Y55600D01*
Y52316D02*
X16145Y43401D01*
X5777Y52355D02*
X15145Y42987D01*
X4777Y51940D02*
X14145Y42572D01*
X5777Y52355D02*
Y56198D01*
X45230Y24400D02*
Y29990D01*
X8890Y23520D02*
X9770Y24400D01*
X7230D02*
X7890Y23740D01*
X5777Y56198D02*
X6729Y57150D01*
X11430D01*
X3777Y57026D02*
X5901Y59150D01*
X12258D01*
X47770Y55600D02*
Y56370D01*
X46355Y57785D02*
X47770Y56370D01*
X43815Y57785D02*
X46355D01*
X45230Y40000D02*
Y43325D01*
X47770Y40000D02*
Y44451D01*
X5487Y60150D02*
X12673D01*
X2777Y57440D02*
X5487Y60150D01*
X47770Y44451D02*
X50530Y47211D01*
X45230Y43325D02*
X49530Y47625D01*
X50530Y47211D02*
Y56929D01*
X49530Y47625D02*
Y56515D01*
X2810Y36345D02*
X5715Y33440D01*
X1810Y35931D02*
X4715Y33026D01*
X2777Y51112D02*
Y57440D01*
X3777Y51526D02*
Y57026D01*
X6315Y58150D02*
X11844D01*
X4777Y56612D02*
X6315Y58150D01*
X4777Y51940D02*
Y56612D01*
X11430Y57150D02*
X19050Y49530D01*
X11844Y58150D02*
X19464Y50530D01*
X12258Y59150D02*
X19878Y51530D01*
X12673Y60150D02*
X20293Y52530D01*
X1777Y57854D02*
X5073Y61150D01*
X13087D01*
X20707Y53530D01*
X42572Y60785D02*
X48088D01*
X51530Y57343D01*
Y46797D02*
Y57343D01*
X50165Y45432D02*
X51530Y46797D01*
X50165Y34925D02*
Y45432D01*
X45230Y29990D02*
X50165Y34925D01*
X777Y58269D02*
X4658Y62150D01*
X13501D01*
X21121Y54530D01*
X43401Y58785D02*
X47260D01*
X49530Y56515D01*
X42987Y59785D02*
X47674D01*
X50530Y56929D01*
X42158Y61785D02*
X48503D01*
X52530Y57758D01*
Y46180D02*
Y57758D01*
X51165Y44815D02*
X52530Y46180D01*
X51165Y34511D02*
Y44815D01*
X47770Y31116D02*
X51165Y34511D01*
X47770Y24400D02*
Y31116D01*
X21121Y54530D02*
X34903D01*
X42158Y61785D01*
X20707Y53530D02*
X35317D01*
X42572Y60785D01*
X35732Y52530D02*
X42987Y59785D01*
X20293Y52530D02*
X35732D01*
X36146Y51530D02*
X43401Y58785D01*
X19878Y51530D02*
X36146D01*
X19464Y50530D02*
X36560D01*
X43815Y57785D01*
X43044Y55600D02*
X45230D01*
X19050Y49530D02*
X36974D01*
X43044Y55600D01*
X9770Y35042D02*
Y40000D01*
X3810Y36759D02*
Y50079D01*
X2777Y51112D02*
X3810Y50079D01*
X777Y50284D02*
Y58269D01*
Y50284D02*
X1810Y49251D01*
Y35931D02*
Y49251D01*
X2810Y36345D02*
Y49665D01*
X1777Y50698D02*
X2810Y49665D01*
X1777Y50698D02*
Y57854D01*
X3777Y51526D02*
X4810Y50493D01*
Y37174D02*
Y50493D01*
X28115Y8430D02*
Y21617D01*
X26670Y6985D02*
X28115Y8430D01*
X26670Y5080D02*
Y6985D01*
X14145Y35587D02*
X28115Y21617D01*
X19050Y7620D02*
X19685Y8255D01*
Y22299D01*
X4810Y37174D02*
X19685Y22299D01*
X19050Y5080D02*
Y7620D01*
X20685Y8525D02*
X21590Y7620D01*
X20685Y8525D02*
Y22713D01*
X21590Y5080D02*
Y7620D01*
X7230Y36168D02*
X20685Y22713D01*
X18685Y8669D02*
Y21884D01*
X16510Y6494D02*
X18685Y8669D01*
X16510Y5080D02*
Y6494D01*
X3810Y36759D02*
X18685Y21884D01*
X21685Y8939D02*
Y23127D01*
Y8939D02*
X24130Y6494D01*
Y5080D02*
Y6494D01*
X9770Y35042D02*
X21685Y23127D01*
X5715Y16222D02*
Y33440D01*
X8890Y5080D02*
Y7620D01*
X9525Y8255D01*
Y12412D01*
X5715Y16222D02*
X9525Y12412D01*
X10525Y7999D02*
X11539Y6985D01*
Y5189D02*
Y6985D01*
X8890Y15875D02*
Y23520D01*
X10525Y7999D02*
Y12826D01*
X7890Y15461D02*
X10525Y12826D01*
X7890Y15461D02*
Y23740D01*
X4715Y15807D02*
Y33026D01*
Y15807D02*
X8525Y11997D01*
Y9160D02*
Y11997D01*
X6350Y6985D02*
X8525Y9160D01*
X6350Y5080D02*
Y6985D01*
X11525Y9525D02*
Y13240D01*
Y9525D02*
X13970Y7080D01*
Y5080D02*
Y7080D01*
X8890Y15875D02*
X11525Y13240D01*
X22860Y72390D02*
X26035D01*
X26670Y71755D01*
Y69850D02*
Y71755D01*
X30480Y74930D02*
X33020D01*
X29845Y74295D02*
X30480Y74930D01*
X29845Y73660D02*
Y74295D01*
X28575Y72390D02*
X29845Y73660D01*
X27305Y72390D02*
X28575D01*
X26670Y71755D02*
X27305Y72390D01*
X19050Y64770D02*
X21590Y62230D01*
X24130D01*
X29210Y67310D02*
Y69850D01*
X26670Y62230D02*
Y64770D01*
X19050Y67310D02*
X26670D01*
X27940Y66040D01*
X26670Y64770D02*
X27940Y66040D01*
X29210Y67310D01*
X30480Y72390D02*
X33020D01*
X29210Y71120D02*
X30480Y72390D01*
X29210Y69850D02*
Y71120D01*
X20955Y74930D02*
X22860D01*
X20320Y74295D02*
X20955Y74930D01*
X20320Y71755D02*
Y74295D01*
Y71755D02*
X22225Y69850D01*
X24130D01*
X41275Y8890D02*
Y10160D01*
X44450Y13335D01*
X50800D01*
D11*
X52500Y2500D02*
D03*
X2500D02*
D03*
Y77500D02*
D03*
X52500D02*
D03*
D12*
X38100Y10160D02*
D03*
Y17780D02*
D03*
X35560Y10160D02*
D03*
Y17780D02*
D03*
X33020Y10160D02*
D03*
Y17780D02*
D03*
X52070Y15240D02*
D03*
X50800Y13335D02*
D03*
X49530Y15240D02*
D03*
X33020Y74930D02*
D03*
X22860D02*
D03*
X33020Y72390D02*
D03*
X22860D02*
D03*
X7230Y55600D02*
D03*
Y40000D02*
D03*
Y24400D02*
D03*
X47770Y55600D02*
D03*
Y40000D02*
D03*
Y24400D02*
D03*
X41275Y19050D02*
D03*
Y8890D02*
D03*
X43815D02*
D03*
Y19050D02*
D03*
X46355D02*
D03*
Y8890D02*
D03*
D13*
X38100Y5080D02*
D03*
X40640D02*
D03*
X43180D02*
D03*
X45720D02*
D03*
X48260D02*
D03*
X16510D02*
D03*
X19050D02*
D03*
X21590D02*
D03*
X13970D02*
D03*
X24130D02*
D03*
X26670D02*
D03*
X6350D02*
D03*
X8890D02*
D03*
X11430D02*
D03*
X29210D02*
D03*
X31750D02*
D03*
X34290D02*
D03*
D14*
X24130Y62230D02*
D03*
D15*
X26670D02*
D03*
X29210D02*
D03*
X31750D02*
D03*
X24130Y69850D02*
D03*
X26670D02*
D03*
X29210D02*
D03*
X31750D02*
D03*
D16*
X19050Y67310D02*
D03*
D17*
Y64770D02*
D03*
D18*
X9770Y55600D02*
D03*
Y40000D02*
D03*
Y24400D02*
D03*
X45230Y55600D02*
D03*
Y40000D02*
D03*
Y24400D02*
D03*
D19*
X31310Y40000D02*
D03*
X23690D02*
D03*
M02*
