G04 Layer_Physical_Order=1*
G04 Layer_Color=255*
%FSLAX43Y43*%
%MOMM*%
G71*
G01*
G75*
%ADD10C,0.700*%
%ADD11C,4.000*%
%ADD12C,1.600*%
%ADD13O,1.524X3.048*%
%ADD14R,1.500X1.500*%
%ADD15C,1.500*%
%ADD16R,1.600X1.600*%
%ADD17C,1.600*%
%ADD18R,1.600X1.600*%
%ADD19C,1.880*%
G36*
X51253Y79441D02*
X51216Y79422D01*
X50866Y79134D01*
X50578Y78784D01*
X50365Y78384D01*
X50233Y77951D01*
X50189Y77500D01*
X50233Y77049D01*
X50365Y76616D01*
X50578Y76216D01*
X50866Y75866D01*
X51216Y75578D01*
X51616Y75365D01*
X52049Y75233D01*
X52500Y75189D01*
X52951Y75233D01*
X53384Y75365D01*
X53784Y75578D01*
X54134Y75866D01*
X54422Y76216D01*
X54441Y76253D01*
X54565Y76222D01*
Y3778D01*
X54441Y3747D01*
X54422Y3784D01*
X54134Y4134D01*
X53784Y4422D01*
X53384Y4635D01*
X52951Y4767D01*
X52500Y4811D01*
X52049Y4767D01*
X51616Y4635D01*
X51216Y4422D01*
X50866Y4134D01*
X50578Y3784D01*
X50365Y3384D01*
X50233Y2951D01*
X50189Y2500D01*
X50233Y2049D01*
X50365Y1616D01*
X50578Y1216D01*
X50866Y866D01*
X51216Y578D01*
X51253Y559D01*
X51222Y435D01*
X3778D01*
X3747Y559D01*
X3784Y578D01*
X4134Y866D01*
X4422Y1216D01*
X4635Y1616D01*
X4767Y2049D01*
X4811Y2500D01*
X4767Y2951D01*
X4635Y3384D01*
X4422Y3784D01*
X4134Y4134D01*
X3784Y4422D01*
X3384Y4635D01*
X2951Y4767D01*
X2500Y4811D01*
X2049Y4767D01*
X1616Y4635D01*
X1216Y4422D01*
X866Y4134D01*
X578Y3784D01*
X559Y3747D01*
X435Y3778D01*
Y76222D01*
X559Y76253D01*
X578Y76216D01*
X866Y75866D01*
X1216Y75578D01*
X1616Y75365D01*
X2049Y75233D01*
X2500Y75189D01*
X2951Y75233D01*
X3384Y75365D01*
X3784Y75578D01*
X4134Y75866D01*
X4422Y76216D01*
X4635Y76616D01*
X4767Y77049D01*
X4811Y77500D01*
X4767Y77951D01*
X4635Y78384D01*
X4422Y78784D01*
X4134Y79134D01*
X3784Y79422D01*
X3747Y79441D01*
X3778Y79565D01*
X51222D01*
X51253Y79441D01*
D02*
G37*
%LPC*%
G36*
X43565Y8640D02*
X42738D01*
X42743Y8603D01*
X42854Y8335D01*
X43030Y8105D01*
X43260Y7929D01*
X43528Y7818D01*
X43565Y7813D01*
Y8640D01*
D02*
G37*
G36*
X39370Y78126D02*
X25400D01*
X25230Y78103D01*
X25072Y78038D01*
X24936Y77934D01*
X23021Y76018D01*
X22860Y76039D01*
X22573Y76002D01*
X22305Y75891D01*
X22075Y75715D01*
X21899Y75485D01*
X21788Y75217D01*
X21751Y74930D01*
X21788Y74643D01*
X21899Y74375D01*
X22075Y74145D01*
X22305Y73969D01*
X22573Y73858D01*
X22860Y73821D01*
X23147Y73858D01*
X23415Y73969D01*
X23645Y74145D01*
X23821Y74375D01*
X23932Y74643D01*
X23969Y74930D01*
X23948Y75091D01*
X25672Y76814D01*
X39098D01*
X50144Y65768D01*
Y19957D01*
X45891Y15704D01*
X45787Y15568D01*
X45722Y15410D01*
X45699Y15240D01*
Y9773D01*
X45570Y9675D01*
X45394Y9445D01*
X45283Y9177D01*
X45246Y8890D01*
X45283Y8603D01*
X45394Y8335D01*
X45570Y8105D01*
X45800Y7929D01*
X46068Y7818D01*
X46355Y7781D01*
X46642Y7818D01*
X46910Y7929D01*
X47140Y8105D01*
X47316Y8335D01*
X47427Y8603D01*
X47464Y8890D01*
X47427Y9177D01*
X47316Y9445D01*
X47140Y9675D01*
X47011Y9773D01*
Y14968D01*
X51264Y19221D01*
X51368Y19357D01*
X51433Y19515D01*
X51456Y19685D01*
Y66040D01*
X51433Y66210D01*
X51368Y66368D01*
X51264Y66504D01*
X39834Y77934D01*
X39698Y78038D01*
X39540Y78103D01*
X39370Y78126D01*
D02*
G37*
G36*
X33020Y11269D02*
X32733Y11232D01*
X32465Y11121D01*
X32235Y10945D01*
X32059Y10715D01*
X31948Y10447D01*
X31911Y10160D01*
X31948Y9873D01*
X32059Y9605D01*
X32235Y9375D01*
X32465Y9199D01*
X32733Y9088D01*
X33020Y9051D01*
X33307Y9088D01*
X33575Y9199D01*
X33805Y9375D01*
X33981Y9605D01*
X34092Y9873D01*
X34129Y10160D01*
X34092Y10447D01*
X33981Y10715D01*
X33805Y10945D01*
X33575Y11121D01*
X33307Y11232D01*
X33020Y11269D01*
D02*
G37*
G36*
X44892Y8640D02*
X44065D01*
Y7813D01*
X44102Y7818D01*
X44370Y7929D01*
X44600Y8105D01*
X44776Y8335D01*
X44887Y8603D01*
X44892Y8640D01*
D02*
G37*
G36*
X45470Y6880D02*
X45443Y6877D01*
X45184Y6770D01*
X44963Y6599D01*
X44792Y6378D01*
X44685Y6119D01*
X44649Y5842D01*
Y5330D01*
X45470D01*
Y6880D01*
D02*
G37*
G36*
X46791Y4830D02*
X45970D01*
Y3280D01*
X45997Y3283D01*
X46256Y3390D01*
X46477Y3561D01*
X46648Y3782D01*
X46755Y4041D01*
X46791Y4318D01*
Y4830D01*
D02*
G37*
G36*
X41275Y9999D02*
X40988Y9962D01*
X40720Y9851D01*
X40490Y9675D01*
X40314Y9445D01*
X40203Y9177D01*
X40166Y8890D01*
X40203Y8603D01*
X40314Y8335D01*
X40490Y8105D01*
X40720Y7929D01*
X40988Y7818D01*
X41275Y7781D01*
X41562Y7818D01*
X41830Y7929D01*
X42060Y8105D01*
X42236Y8335D01*
X42347Y8603D01*
X42384Y8890D01*
X42347Y9177D01*
X42236Y9445D01*
X42060Y9675D01*
X41830Y9851D01*
X41562Y9962D01*
X41275Y9999D01*
D02*
G37*
G36*
X45970Y6880D02*
Y5330D01*
X46791D01*
Y5842D01*
X46755Y6119D01*
X46648Y6378D01*
X46477Y6599D01*
X46256Y6770D01*
X45997Y6877D01*
X45970Y6880D01*
D02*
G37*
G36*
X35560Y11269D02*
X35273Y11232D01*
X35005Y11121D01*
X34775Y10945D01*
X34599Y10715D01*
X34488Y10447D01*
X34451Y10160D01*
X34488Y9873D01*
X34599Y9605D01*
X34775Y9375D01*
X35005Y9199D01*
X35273Y9088D01*
X35560Y9051D01*
X35847Y9088D01*
X36115Y9199D01*
X36345Y9375D01*
X36521Y9605D01*
X36632Y9873D01*
X36669Y10160D01*
X36632Y10447D01*
X36521Y10715D01*
X36345Y10945D01*
X36115Y11121D01*
X35847Y11232D01*
X35560Y11269D01*
D02*
G37*
G36*
Y18889D02*
X35273Y18852D01*
X35005Y18741D01*
X34775Y18565D01*
X34599Y18335D01*
X34488Y18067D01*
X34451Y17780D01*
X34488Y17493D01*
X34599Y17225D01*
X34775Y16995D01*
X35005Y16819D01*
X35273Y16708D01*
X35560Y16671D01*
X35847Y16708D01*
X36115Y16819D01*
X36345Y16995D01*
X36521Y17225D01*
X36632Y17493D01*
X36669Y17780D01*
X36632Y18067D01*
X36521Y18335D01*
X36345Y18565D01*
X36115Y18741D01*
X35847Y18852D01*
X35560Y18889D01*
D02*
G37*
G36*
X33020D02*
X32733Y18852D01*
X32465Y18741D01*
X32235Y18565D01*
X32059Y18335D01*
X31948Y18067D01*
X31911Y17780D01*
X31948Y17493D01*
X32059Y17225D01*
X32235Y16995D01*
X32465Y16819D01*
X32733Y16708D01*
X33020Y16671D01*
X33307Y16708D01*
X33575Y16819D01*
X33805Y16995D01*
X33981Y17225D01*
X34092Y17493D01*
X34129Y17780D01*
X34092Y18067D01*
X33981Y18335D01*
X33805Y18565D01*
X33575Y18741D01*
X33307Y18852D01*
X33020Y18889D01*
D02*
G37*
G36*
X41275Y20159D02*
X40988Y20122D01*
X40720Y20011D01*
X40490Y19835D01*
X40314Y19605D01*
X40203Y19337D01*
X40166Y19050D01*
X40203Y18763D01*
X40314Y18495D01*
X40490Y18265D01*
X40720Y18089D01*
X40988Y17978D01*
X41275Y17941D01*
X41562Y17978D01*
X41830Y18089D01*
X42060Y18265D01*
X42236Y18495D01*
X42347Y18763D01*
X42384Y19050D01*
X42347Y19337D01*
X42236Y19605D01*
X42060Y19835D01*
X41830Y20011D01*
X41562Y20122D01*
X41275Y20159D01*
D02*
G37*
G36*
X38100Y18889D02*
X37813Y18852D01*
X37545Y18741D01*
X37315Y18565D01*
X37139Y18335D01*
X37028Y18067D01*
X36991Y17780D01*
X37028Y17493D01*
X37139Y17225D01*
X37315Y16995D01*
X37545Y16819D01*
X37813Y16708D01*
X38100Y16671D01*
X38387Y16708D01*
X38655Y16819D01*
X38885Y16995D01*
X39061Y17225D01*
X39172Y17493D01*
X39209Y17780D01*
X39172Y18067D01*
X39061Y18335D01*
X38885Y18565D01*
X38655Y18741D01*
X38387Y18852D01*
X38100Y18889D01*
D02*
G37*
G36*
X43565Y9967D02*
X43528Y9962D01*
X43260Y9851D01*
X43030Y9675D01*
X42854Y9445D01*
X42743Y9177D01*
X42738Y9140D01*
X43565D01*
Y9967D01*
D02*
G37*
G36*
X38100Y11269D02*
X37813Y11232D01*
X37545Y11121D01*
X37315Y10945D01*
X37139Y10715D01*
X37028Y10447D01*
X36991Y10160D01*
X37028Y9873D01*
X37139Y9605D01*
X37315Y9375D01*
X37545Y9199D01*
X37813Y9088D01*
X38100Y9051D01*
X38387Y9088D01*
X38655Y9199D01*
X38885Y9375D01*
X39061Y9605D01*
X39172Y9873D01*
X39209Y10160D01*
X39172Y10447D01*
X39061Y10715D01*
X38885Y10945D01*
X38655Y11121D01*
X38387Y11232D01*
X38100Y11269D01*
D02*
G37*
G36*
X52070Y16349D02*
X51783Y16312D01*
X51515Y16201D01*
X51285Y16025D01*
X51109Y15795D01*
X50998Y15527D01*
X50961Y15240D01*
X50998Y14953D01*
X51109Y14685D01*
X51278Y14465D01*
X51276Y14454D01*
X51170Y14372D01*
X51087Y14407D01*
X50800Y14444D01*
X50513Y14407D01*
X50430Y14372D01*
X50324Y14454D01*
X50322Y14465D01*
X50491Y14685D01*
X50602Y14953D01*
X50639Y15240D01*
X50602Y15527D01*
X50491Y15795D01*
X50315Y16025D01*
X50085Y16201D01*
X49817Y16312D01*
X49530Y16349D01*
X49243Y16312D01*
X48975Y16201D01*
X48745Y16025D01*
X48569Y15795D01*
X48458Y15527D01*
X48421Y15240D01*
X48458Y14953D01*
X48569Y14685D01*
X48745Y14455D01*
X48975Y14279D01*
X49243Y14168D01*
X49530Y14131D01*
X49817Y14168D01*
X49900Y14203D01*
X50006Y14121D01*
X50008Y14110D01*
X49839Y13890D01*
X49728Y13622D01*
X49691Y13335D01*
X49728Y13048D01*
X49839Y12780D01*
X50015Y12550D01*
X50245Y12374D01*
X50513Y12263D01*
X50800Y12226D01*
X51087Y12263D01*
X51355Y12374D01*
X51585Y12550D01*
X51761Y12780D01*
X51872Y13048D01*
X51909Y13335D01*
X51872Y13622D01*
X51761Y13890D01*
X51592Y14110D01*
X51594Y14121D01*
X51700Y14203D01*
X51783Y14168D01*
X52070Y14131D01*
X52357Y14168D01*
X52625Y14279D01*
X52855Y14455D01*
X53031Y14685D01*
X53142Y14953D01*
X53179Y15240D01*
X53142Y15527D01*
X53031Y15795D01*
X52855Y16025D01*
X52625Y16201D01*
X52357Y16312D01*
X52070Y16349D01*
D02*
G37*
G36*
X44065Y9967D02*
Y9140D01*
X44892D01*
X44887Y9177D01*
X44776Y9445D01*
X44600Y9675D01*
X44370Y9851D01*
X44102Y9962D01*
X44065Y9967D01*
D02*
G37*
G36*
X19050Y6913D02*
X18773Y6877D01*
X18514Y6770D01*
X18293Y6599D01*
X18122Y6378D01*
X18015Y6119D01*
X17979Y5842D01*
Y4318D01*
X18015Y4041D01*
X18122Y3782D01*
X18293Y3561D01*
X18514Y3390D01*
X18773Y3283D01*
X19050Y3247D01*
X19327Y3283D01*
X19586Y3390D01*
X19807Y3561D01*
X19978Y3782D01*
X20085Y4041D01*
X20121Y4318D01*
Y5842D01*
X20085Y6119D01*
X19978Y6378D01*
X19807Y6599D01*
X19586Y6770D01*
X19327Y6877D01*
X19050Y6913D01*
D02*
G37*
G36*
X16510D02*
X16233Y6877D01*
X15974Y6770D01*
X15753Y6599D01*
X15582Y6378D01*
X15475Y6119D01*
X15439Y5842D01*
Y4318D01*
X15475Y4041D01*
X15582Y3782D01*
X15753Y3561D01*
X15974Y3390D01*
X16233Y3283D01*
X16510Y3247D01*
X16787Y3283D01*
X17046Y3390D01*
X17267Y3561D01*
X17438Y3782D01*
X17545Y4041D01*
X17581Y4318D01*
Y5842D01*
X17545Y6119D01*
X17438Y6378D01*
X17267Y6599D01*
X17046Y6770D01*
X16787Y6877D01*
X16510Y6913D01*
D02*
G37*
G36*
X24130D02*
X23853Y6877D01*
X23594Y6770D01*
X23373Y6599D01*
X23202Y6378D01*
X23095Y6119D01*
X23059Y5842D01*
Y4318D01*
X23095Y4041D01*
X23202Y3782D01*
X23373Y3561D01*
X23594Y3390D01*
X23853Y3283D01*
X24130Y3247D01*
X24407Y3283D01*
X24666Y3390D01*
X24887Y3561D01*
X25058Y3782D01*
X25165Y4041D01*
X25201Y4318D01*
Y5842D01*
X25165Y6119D01*
X25058Y6378D01*
X24887Y6599D01*
X24666Y6770D01*
X24407Y6877D01*
X24130Y6913D01*
D02*
G37*
G36*
X21590D02*
X21313Y6877D01*
X21054Y6770D01*
X20833Y6599D01*
X20662Y6378D01*
X20555Y6119D01*
X20519Y5842D01*
Y4318D01*
X20555Y4041D01*
X20662Y3782D01*
X20833Y3561D01*
X21054Y3390D01*
X21313Y3283D01*
X21590Y3247D01*
X21867Y3283D01*
X22126Y3390D01*
X22347Y3561D01*
X22518Y3782D01*
X22625Y4041D01*
X22661Y4318D01*
Y5842D01*
X22625Y6119D01*
X22518Y6378D01*
X22347Y6599D01*
X22126Y6770D01*
X21867Y6877D01*
X21590Y6913D01*
D02*
G37*
G36*
X8890D02*
X8613Y6877D01*
X8354Y6770D01*
X8133Y6599D01*
X7962Y6378D01*
X7855Y6119D01*
X7819Y5842D01*
Y4318D01*
X7855Y4041D01*
X7962Y3782D01*
X8133Y3561D01*
X8354Y3390D01*
X8613Y3283D01*
X8890Y3247D01*
X9167Y3283D01*
X9426Y3390D01*
X9647Y3561D01*
X9818Y3782D01*
X9925Y4041D01*
X9961Y4318D01*
Y5842D01*
X9925Y6119D01*
X9818Y6378D01*
X9647Y6599D01*
X9426Y6770D01*
X9167Y6877D01*
X8890Y6913D01*
D02*
G37*
G36*
X6350D02*
X6073Y6877D01*
X5814Y6770D01*
X5593Y6599D01*
X5422Y6378D01*
X5315Y6119D01*
X5279Y5842D01*
Y4318D01*
X5315Y4041D01*
X5422Y3782D01*
X5593Y3561D01*
X5814Y3390D01*
X6073Y3283D01*
X6350Y3247D01*
X6627Y3283D01*
X6886Y3390D01*
X7107Y3561D01*
X7278Y3782D01*
X7385Y4041D01*
X7421Y4318D01*
Y5842D01*
X7385Y6119D01*
X7278Y6378D01*
X7107Y6599D01*
X6886Y6770D01*
X6627Y6877D01*
X6350Y6913D01*
D02*
G37*
G36*
X13970D02*
X13693Y6877D01*
X13434Y6770D01*
X13213Y6599D01*
X13042Y6378D01*
X12935Y6119D01*
X12899Y5842D01*
Y4318D01*
X12935Y4041D01*
X13042Y3782D01*
X13213Y3561D01*
X13434Y3390D01*
X13693Y3283D01*
X13970Y3247D01*
X14247Y3283D01*
X14506Y3390D01*
X14727Y3561D01*
X14898Y3782D01*
X15005Y4041D01*
X15041Y4318D01*
Y5842D01*
X15005Y6119D01*
X14898Y6378D01*
X14727Y6599D01*
X14506Y6770D01*
X14247Y6877D01*
X13970Y6913D01*
D02*
G37*
G36*
X11430D02*
X11153Y6877D01*
X10894Y6770D01*
X10673Y6599D01*
X10502Y6378D01*
X10395Y6119D01*
X10359Y5842D01*
Y4318D01*
X10395Y4041D01*
X10502Y3782D01*
X10673Y3561D01*
X10894Y3390D01*
X11153Y3283D01*
X11430Y3247D01*
X11707Y3283D01*
X11966Y3390D01*
X12187Y3561D01*
X12358Y3782D01*
X12465Y4041D01*
X12501Y4318D01*
Y5842D01*
X12465Y6119D01*
X12358Y6378D01*
X12187Y6599D01*
X11966Y6770D01*
X11707Y6877D01*
X11430Y6913D01*
D02*
G37*
G36*
X26670D02*
X26393Y6877D01*
X26134Y6770D01*
X25913Y6599D01*
X25742Y6378D01*
X25635Y6119D01*
X25599Y5842D01*
Y4318D01*
X25635Y4041D01*
X25742Y3782D01*
X25913Y3561D01*
X26134Y3390D01*
X26393Y3283D01*
X26670Y3247D01*
X26947Y3283D01*
X27206Y3390D01*
X27427Y3561D01*
X27598Y3782D01*
X27705Y4041D01*
X27741Y4318D01*
Y5842D01*
X27705Y6119D01*
X27598Y6378D01*
X27427Y6599D01*
X27206Y6770D01*
X26947Y6877D01*
X26670Y6913D01*
D02*
G37*
G36*
X43180D02*
X42903Y6877D01*
X42644Y6770D01*
X42423Y6599D01*
X42252Y6378D01*
X42145Y6119D01*
X42109Y5842D01*
Y4318D01*
X42145Y4041D01*
X42252Y3782D01*
X42423Y3561D01*
X42644Y3390D01*
X42903Y3283D01*
X43180Y3247D01*
X43457Y3283D01*
X43716Y3390D01*
X43937Y3561D01*
X44108Y3782D01*
X44215Y4041D01*
X44251Y4318D01*
Y5842D01*
X44215Y6119D01*
X44108Y6378D01*
X43937Y6599D01*
X43716Y6770D01*
X43457Y6877D01*
X43180Y6913D01*
D02*
G37*
G36*
X40640D02*
X40363Y6877D01*
X40104Y6770D01*
X39883Y6599D01*
X39712Y6378D01*
X39605Y6119D01*
X39569Y5842D01*
Y4318D01*
X39605Y4041D01*
X39712Y3782D01*
X39883Y3561D01*
X40104Y3390D01*
X40363Y3283D01*
X40640Y3247D01*
X40917Y3283D01*
X41176Y3390D01*
X41397Y3561D01*
X41568Y3782D01*
X41675Y4041D01*
X41711Y4318D01*
Y5842D01*
X41675Y6119D01*
X41568Y6378D01*
X41397Y6599D01*
X41176Y6770D01*
X40917Y6877D01*
X40640Y6913D01*
D02*
G37*
G36*
X45470Y4830D02*
X44649D01*
Y4318D01*
X44685Y4041D01*
X44792Y3782D01*
X44963Y3561D01*
X45184Y3390D01*
X45443Y3283D01*
X45470Y3280D01*
Y4830D01*
D02*
G37*
G36*
X48260Y6913D02*
X47983Y6877D01*
X47724Y6770D01*
X47503Y6599D01*
X47332Y6378D01*
X47225Y6119D01*
X47189Y5842D01*
Y4318D01*
X47225Y4041D01*
X47332Y3782D01*
X47503Y3561D01*
X47724Y3390D01*
X47983Y3283D01*
X48260Y3247D01*
X48537Y3283D01*
X48796Y3390D01*
X49017Y3561D01*
X49188Y3782D01*
X49295Y4041D01*
X49331Y4318D01*
Y5842D01*
X49295Y6119D01*
X49188Y6378D01*
X49017Y6599D01*
X48796Y6770D01*
X48537Y6877D01*
X48260Y6913D01*
D02*
G37*
G36*
X31750D02*
X31473Y6877D01*
X31214Y6770D01*
X30993Y6599D01*
X30822Y6378D01*
X30715Y6119D01*
X30679Y5842D01*
Y4318D01*
X30715Y4041D01*
X30822Y3782D01*
X30993Y3561D01*
X31214Y3390D01*
X31473Y3283D01*
X31750Y3247D01*
X32027Y3283D01*
X32286Y3390D01*
X32507Y3561D01*
X32678Y3782D01*
X32785Y4041D01*
X32821Y4318D01*
Y5842D01*
X32785Y6119D01*
X32678Y6378D01*
X32507Y6599D01*
X32286Y6770D01*
X32027Y6877D01*
X31750Y6913D01*
D02*
G37*
G36*
X29210D02*
X28933Y6877D01*
X28674Y6770D01*
X28453Y6599D01*
X28282Y6378D01*
X28175Y6119D01*
X28139Y5842D01*
Y4318D01*
X28175Y4041D01*
X28282Y3782D01*
X28453Y3561D01*
X28674Y3390D01*
X28933Y3283D01*
X29210Y3247D01*
X29487Y3283D01*
X29746Y3390D01*
X29967Y3561D01*
X30138Y3782D01*
X30245Y4041D01*
X30281Y4318D01*
Y5842D01*
X30245Y6119D01*
X30138Y6378D01*
X29967Y6599D01*
X29746Y6770D01*
X29487Y6877D01*
X29210Y6913D01*
D02*
G37*
G36*
X38100D02*
X37823Y6877D01*
X37564Y6770D01*
X37343Y6599D01*
X37172Y6378D01*
X37065Y6119D01*
X37029Y5842D01*
Y4318D01*
X37065Y4041D01*
X37172Y3782D01*
X37343Y3561D01*
X37564Y3390D01*
X37823Y3283D01*
X38100Y3247D01*
X38377Y3283D01*
X38636Y3390D01*
X38857Y3561D01*
X39028Y3782D01*
X39135Y4041D01*
X39171Y4318D01*
Y5842D01*
X39135Y6119D01*
X39028Y6378D01*
X38857Y6599D01*
X38636Y6770D01*
X38377Y6877D01*
X38100Y6913D01*
D02*
G37*
G36*
X34290D02*
X34013Y6877D01*
X33754Y6770D01*
X33533Y6599D01*
X33362Y6378D01*
X33255Y6119D01*
X33219Y5842D01*
Y4318D01*
X33255Y4041D01*
X33362Y3782D01*
X33533Y3561D01*
X33754Y3390D01*
X34013Y3283D01*
X34290Y3247D01*
X34567Y3283D01*
X34826Y3390D01*
X35047Y3561D01*
X35218Y3782D01*
X35325Y4041D01*
X35361Y4318D01*
Y5842D01*
X35325Y6119D01*
X35218Y6378D01*
X35047Y6599D01*
X34826Y6770D01*
X34567Y6877D01*
X34290Y6913D01*
D02*
G37*
G36*
X46355Y20159D02*
X46068Y20122D01*
X45800Y20011D01*
X45570Y19835D01*
X45394Y19605D01*
X45283Y19337D01*
X45246Y19050D01*
X45283Y18763D01*
X45394Y18495D01*
X45570Y18265D01*
X45800Y18089D01*
X46068Y17978D01*
X46355Y17941D01*
X46642Y17978D01*
X46910Y18089D01*
X47140Y18265D01*
X47316Y18495D01*
X47427Y18763D01*
X47464Y19050D01*
X47427Y19337D01*
X47316Y19605D01*
X47140Y19835D01*
X46910Y20011D01*
X46642Y20122D01*
X46355Y20159D01*
D02*
G37*
G36*
X18800Y64520D02*
X17973D01*
X17978Y64483D01*
X18089Y64215D01*
X18265Y63985D01*
X18495Y63809D01*
X18763Y63698D01*
X18800Y63693D01*
Y64520D01*
D02*
G37*
G36*
X24880Y63286D02*
X24380D01*
Y62480D01*
X25186D01*
Y62980D01*
X25163Y63097D01*
X25096Y63196D01*
X24997Y63263D01*
X24880Y63286D01*
D02*
G37*
G36*
X18800Y65847D02*
X18763Y65842D01*
X18495Y65731D01*
X18265Y65555D01*
X18089Y65325D01*
X17978Y65057D01*
X17973Y65020D01*
X18800D01*
Y65847D01*
D02*
G37*
G36*
X20127Y64520D02*
X19300D01*
Y63693D01*
X19337Y63698D01*
X19605Y63809D01*
X19835Y63985D01*
X20011Y64215D01*
X20122Y64483D01*
X20127Y64520D01*
D02*
G37*
G36*
X23880Y61980D02*
X23074D01*
Y61480D01*
X23097Y61363D01*
X23164Y61264D01*
X23263Y61197D01*
X23380Y61174D01*
X23880D01*
Y61980D01*
D02*
G37*
G36*
X26670Y63289D02*
X26396Y63253D01*
X26140Y63147D01*
X25921Y62979D01*
X25753Y62760D01*
X25647Y62504D01*
X25611Y62230D01*
X25647Y61956D01*
X25753Y61700D01*
X25921Y61481D01*
X26140Y61313D01*
X26396Y61207D01*
X26670Y61171D01*
X26944Y61207D01*
X27200Y61313D01*
X27419Y61481D01*
X27587Y61700D01*
X27693Y61956D01*
X27729Y62230D01*
X27693Y62504D01*
X27587Y62760D01*
X27419Y62979D01*
X27200Y63147D01*
X26944Y63253D01*
X26670Y63289D01*
D02*
G37*
G36*
X23880Y63286D02*
X23380D01*
X23263Y63263D01*
X23164Y63196D01*
X23097Y63097D01*
X23074Y62980D01*
Y62480D01*
X23880D01*
Y63286D01*
D02*
G37*
G36*
X25186Y61980D02*
X24380D01*
Y61174D01*
X24880D01*
X24997Y61197D01*
X25096Y61264D01*
X25163Y61363D01*
X25186Y61480D01*
Y61980D01*
D02*
G37*
G36*
X19300Y65847D02*
Y65020D01*
X20127D01*
X20122Y65057D01*
X20011Y65325D01*
X19835Y65555D01*
X19605Y65731D01*
X19337Y65842D01*
X19300Y65847D01*
D02*
G37*
G36*
X22860Y73499D02*
X22573Y73462D01*
X22305Y73351D01*
X22075Y73175D01*
X21899Y72945D01*
X21788Y72677D01*
X21751Y72390D01*
X21788Y72103D01*
X21899Y71835D01*
X22075Y71605D01*
X22305Y71429D01*
X22573Y71318D01*
X22860Y71281D01*
X23147Y71318D01*
X23415Y71429D01*
X23645Y71605D01*
X23821Y71835D01*
X23932Y72103D01*
X23969Y72390D01*
X23932Y72677D01*
X23821Y72945D01*
X23645Y73175D01*
X23415Y73351D01*
X23147Y73462D01*
X22860Y73499D01*
D02*
G37*
G36*
X31750Y70909D02*
X31476Y70873D01*
X31220Y70767D01*
X31001Y70599D01*
X30833Y70380D01*
X30727Y70124D01*
X30691Y69850D01*
X30727Y69576D01*
X30833Y69320D01*
X31001Y69101D01*
X31220Y68933D01*
X31476Y68827D01*
X31750Y68791D01*
X32024Y68827D01*
X32280Y68933D01*
X32499Y69101D01*
X32667Y69320D01*
X32773Y69576D01*
X32809Y69850D01*
X32773Y70124D01*
X32667Y70380D01*
X32499Y70599D01*
X32280Y70767D01*
X32024Y70873D01*
X31750Y70909D01*
D02*
G37*
G36*
X33020Y76039D02*
X32733Y76002D01*
X32465Y75891D01*
X32235Y75715D01*
X32059Y75485D01*
X31948Y75217D01*
X31911Y74930D01*
X31948Y74643D01*
X32059Y74375D01*
X32235Y74145D01*
X32465Y73969D01*
X32733Y73858D01*
X33020Y73821D01*
X33307Y73858D01*
X33575Y73969D01*
X33805Y74145D01*
X33981Y74375D01*
X34092Y74643D01*
X34129Y74930D01*
X34092Y75217D01*
X33981Y75485D01*
X33805Y75715D01*
X33575Y75891D01*
X33307Y76002D01*
X33020Y76039D01*
D02*
G37*
G36*
Y73499D02*
X32733Y73462D01*
X32465Y73351D01*
X32235Y73175D01*
X32059Y72945D01*
X31948Y72677D01*
X31911Y72390D01*
X31948Y72103D01*
X32059Y71835D01*
X32235Y71605D01*
X32465Y71429D01*
X32733Y71318D01*
X33020Y71281D01*
X33307Y71318D01*
X33575Y71429D01*
X33805Y71605D01*
X33981Y71835D01*
X34092Y72103D01*
X34129Y72390D01*
X34092Y72677D01*
X33981Y72945D01*
X33805Y73175D01*
X33575Y73351D01*
X33307Y73462D01*
X33020Y73499D01*
D02*
G37*
G36*
X24130Y70909D02*
X23856Y70873D01*
X23600Y70767D01*
X23381Y70599D01*
X23213Y70380D01*
X23107Y70124D01*
X23071Y69850D01*
X23107Y69576D01*
X23213Y69320D01*
X23381Y69101D01*
X23600Y68933D01*
X23856Y68827D01*
X24130Y68791D01*
X24404Y68827D01*
X24660Y68933D01*
X24879Y69101D01*
X25047Y69320D01*
X25153Y69576D01*
X25189Y69850D01*
X25153Y70124D01*
X25047Y70380D01*
X24879Y70599D01*
X24660Y70767D01*
X24404Y70873D01*
X24130Y70909D01*
D02*
G37*
G36*
X19850Y68416D02*
X18250D01*
X18133Y68393D01*
X18034Y68326D01*
X17967Y68227D01*
X17944Y68110D01*
Y66510D01*
X17967Y66393D01*
X18034Y66294D01*
X18133Y66227D01*
X18250Y66204D01*
X19850D01*
X19967Y66227D01*
X20066Y66294D01*
X20133Y66393D01*
X20156Y66510D01*
Y68110D01*
X20133Y68227D01*
X20066Y68326D01*
X19967Y68393D01*
X19850Y68416D01*
D02*
G37*
G36*
X29210Y70909D02*
X28936Y70873D01*
X28680Y70767D01*
X28461Y70599D01*
X28293Y70380D01*
X28187Y70124D01*
X28151Y69850D01*
X28187Y69576D01*
X28293Y69320D01*
X28461Y69101D01*
X28680Y68933D01*
X28936Y68827D01*
X29210Y68791D01*
X29484Y68827D01*
X29740Y68933D01*
X29959Y69101D01*
X30127Y69320D01*
X30233Y69576D01*
X30269Y69850D01*
X30233Y70124D01*
X30127Y70380D01*
X29959Y70599D01*
X29740Y70767D01*
X29484Y70873D01*
X29210Y70909D01*
D02*
G37*
G36*
X26670D02*
X26396Y70873D01*
X26140Y70767D01*
X25921Y70599D01*
X25753Y70380D01*
X25647Y70124D01*
X25611Y69850D01*
X25647Y69576D01*
X25753Y69320D01*
X25921Y69101D01*
X26140Y68933D01*
X26396Y68827D01*
X26670Y68791D01*
X26944Y68827D01*
X27200Y68933D01*
X27419Y69101D01*
X27587Y69320D01*
X27693Y69576D01*
X27729Y69850D01*
X27693Y70124D01*
X27587Y70380D01*
X27419Y70599D01*
X27200Y70767D01*
X26944Y70873D01*
X26670Y70909D01*
D02*
G37*
G36*
X24908Y39750D02*
X23940D01*
Y38782D01*
X24014Y38792D01*
X24315Y38917D01*
X24574Y39116D01*
X24773Y39375D01*
X24898Y39676D01*
X24908Y39750D01*
D02*
G37*
G36*
X23440D02*
X22472D01*
X22482Y39676D01*
X22607Y39375D01*
X22806Y39116D01*
X23065Y38917D01*
X23366Y38792D01*
X23440Y38782D01*
Y39750D01*
D02*
G37*
G36*
X47770Y41109D02*
X47483Y41072D01*
X47215Y40961D01*
X46985Y40785D01*
X46809Y40555D01*
X46698Y40287D01*
X46661Y40000D01*
X46698Y39713D01*
X46809Y39445D01*
X46985Y39215D01*
X47215Y39039D01*
X47483Y38928D01*
X47770Y38891D01*
X48057Y38928D01*
X48325Y39039D01*
X48555Y39215D01*
X48731Y39445D01*
X48842Y39713D01*
X48879Y40000D01*
X48842Y40287D01*
X48731Y40555D01*
X48555Y40785D01*
X48325Y40961D01*
X48057Y41072D01*
X47770Y41109D01*
D02*
G37*
G36*
X7230D02*
X6943Y41072D01*
X6675Y40961D01*
X6445Y40785D01*
X6269Y40555D01*
X6158Y40287D01*
X6121Y40000D01*
X6158Y39713D01*
X6269Y39445D01*
X6445Y39215D01*
X6675Y39039D01*
X6943Y38928D01*
X7230Y38891D01*
X7517Y38928D01*
X7785Y39039D01*
X8015Y39215D01*
X8191Y39445D01*
X8302Y39713D01*
X8339Y40000D01*
X8302Y40287D01*
X8191Y40555D01*
X8015Y40785D01*
X7785Y40961D01*
X7517Y41072D01*
X7230Y41109D01*
D02*
G37*
G36*
X47770Y25509D02*
X47483Y25472D01*
X47215Y25361D01*
X46985Y25185D01*
X46809Y24955D01*
X46698Y24687D01*
X46661Y24400D01*
X46698Y24113D01*
X46809Y23845D01*
X46985Y23615D01*
X47215Y23439D01*
X47483Y23328D01*
X47770Y23291D01*
X48057Y23328D01*
X48325Y23439D01*
X48555Y23615D01*
X48731Y23845D01*
X48842Y24113D01*
X48879Y24400D01*
X48842Y24687D01*
X48731Y24955D01*
X48555Y25185D01*
X48325Y25361D01*
X48057Y25472D01*
X47770Y25509D01*
D02*
G37*
G36*
X7230D02*
X6943Y25472D01*
X6675Y25361D01*
X6445Y25185D01*
X6269Y24955D01*
X6158Y24687D01*
X6121Y24400D01*
X6158Y24113D01*
X6269Y23845D01*
X6445Y23615D01*
X6675Y23439D01*
X6943Y23328D01*
X7230Y23291D01*
X7517Y23328D01*
X7785Y23439D01*
X8015Y23615D01*
X8191Y23845D01*
X8302Y24113D01*
X8339Y24400D01*
X8302Y24687D01*
X8191Y24955D01*
X8015Y25185D01*
X7785Y25361D01*
X7517Y25472D01*
X7230Y25509D01*
D02*
G37*
G36*
X46030Y25506D02*
X44430D01*
X44313Y25483D01*
X44214Y25416D01*
X44147Y25317D01*
X44124Y25200D01*
Y23600D01*
X44147Y23483D01*
X44214Y23384D01*
X44313Y23317D01*
X44430Y23294D01*
X46030D01*
X46147Y23317D01*
X46246Y23384D01*
X46313Y23483D01*
X46336Y23600D01*
Y25200D01*
X46313Y25317D01*
X46246Y25416D01*
X46147Y25483D01*
X46030Y25506D01*
D02*
G37*
G36*
X10570D02*
X8970D01*
X8853Y25483D01*
X8754Y25416D01*
X8687Y25317D01*
X8664Y25200D01*
Y23600D01*
X8687Y23483D01*
X8754Y23384D01*
X8853Y23317D01*
X8970Y23294D01*
X10570D01*
X10687Y23317D01*
X10786Y23384D01*
X10853Y23483D01*
X10876Y23600D01*
Y25200D01*
X10853Y25317D01*
X10786Y25416D01*
X10687Y25483D01*
X10570Y25506D01*
D02*
G37*
G36*
Y41106D02*
X8970D01*
X8853Y41083D01*
X8754Y41016D01*
X8687Y40917D01*
X8664Y40800D01*
Y39200D01*
X8687Y39083D01*
X8754Y38984D01*
X8853Y38917D01*
X8970Y38894D01*
X10570D01*
X10687Y38917D01*
X10786Y38984D01*
X10853Y39083D01*
X10876Y39200D01*
Y40800D01*
X10853Y40917D01*
X10786Y41016D01*
X10687Y41083D01*
X10570Y41106D01*
D02*
G37*
G36*
Y56706D02*
X8970D01*
X8853Y56683D01*
X8754Y56616D01*
X8687Y56517D01*
X8664Y56400D01*
Y54800D01*
X8687Y54683D01*
X8754Y54584D01*
X8853Y54517D01*
X8970Y54494D01*
X10570D01*
X10687Y54517D01*
X10786Y54584D01*
X10853Y54683D01*
X10876Y54800D01*
Y56400D01*
X10853Y56517D01*
X10786Y56616D01*
X10687Y56683D01*
X10570Y56706D01*
D02*
G37*
G36*
X47770Y56709D02*
X47483Y56672D01*
X47215Y56561D01*
X46985Y56385D01*
X46809Y56155D01*
X46698Y55887D01*
X46661Y55600D01*
X46698Y55313D01*
X46809Y55045D01*
X46985Y54815D01*
X47215Y54639D01*
X47483Y54528D01*
X47770Y54491D01*
X48057Y54528D01*
X48325Y54639D01*
X48555Y54815D01*
X48731Y55045D01*
X48842Y55313D01*
X48879Y55600D01*
X48842Y55887D01*
X48731Y56155D01*
X48555Y56385D01*
X48325Y56561D01*
X48057Y56672D01*
X47770Y56709D01*
D02*
G37*
G36*
X31750Y63289D02*
X31476Y63253D01*
X31220Y63147D01*
X31001Y62979D01*
X30833Y62760D01*
X30727Y62504D01*
X30691Y62230D01*
X30727Y61956D01*
X30833Y61700D01*
X31001Y61481D01*
X31094Y61410D01*
Y60597D01*
X29078Y58580D01*
X28961Y58629D01*
Y59148D01*
X29674Y59861D01*
X29778Y59997D01*
X29843Y60155D01*
X29866Y60325D01*
Y61410D01*
X29959Y61481D01*
X30127Y61700D01*
X30233Y61956D01*
X30269Y62230D01*
X30233Y62504D01*
X30127Y62760D01*
X29959Y62979D01*
X29740Y63147D01*
X29484Y63253D01*
X29210Y63289D01*
X28936Y63253D01*
X28680Y63147D01*
X28461Y62979D01*
X28293Y62760D01*
X28187Y62504D01*
X28151Y62230D01*
X28187Y61956D01*
X28293Y61700D01*
X28461Y61481D01*
X28554Y61410D01*
Y60597D01*
X27841Y59884D01*
X27737Y59748D01*
X27672Y59590D01*
X27649Y59420D01*
Y45941D01*
X27672Y45771D01*
X27737Y45613D01*
X27841Y45477D01*
X30654Y42664D01*
Y41060D01*
X30426Y40884D01*
X30227Y40625D01*
X30102Y40324D01*
X30059Y40000D01*
X30102Y39676D01*
X30227Y39375D01*
X30426Y39116D01*
X30685Y38917D01*
X30986Y38792D01*
X31310Y38750D01*
X31634Y38792D01*
X31935Y38917D01*
X32194Y39116D01*
X32393Y39375D01*
X32518Y39676D01*
X32561Y40000D01*
X32518Y40324D01*
X32393Y40625D01*
X32194Y40884D01*
X31966Y41060D01*
Y42601D01*
X32083Y42650D01*
X32999Y41733D01*
Y32385D01*
X33022Y32215D01*
X33087Y32057D01*
X33191Y31921D01*
X43159Y21953D01*
Y19933D01*
X43030Y19835D01*
X42854Y19605D01*
X42743Y19337D01*
X42706Y19050D01*
X42743Y18763D01*
X42854Y18495D01*
X43030Y18265D01*
X43260Y18089D01*
X43528Y17978D01*
X43815Y17941D01*
X44102Y17978D01*
X44370Y18089D01*
X44600Y18265D01*
X44776Y18495D01*
X44887Y18763D01*
X44924Y19050D01*
X44887Y19337D01*
X44776Y19605D01*
X44600Y19835D01*
X44471Y19933D01*
Y22225D01*
X44448Y22395D01*
X44383Y22553D01*
X44279Y22689D01*
X34311Y32657D01*
Y42005D01*
X34288Y42175D01*
X34223Y42333D01*
X34119Y42469D01*
X29961Y46627D01*
Y57608D01*
X32214Y59861D01*
X32318Y59997D01*
X32383Y60155D01*
X32406Y60325D01*
Y61410D01*
X32499Y61481D01*
X32667Y61700D01*
X32773Y61956D01*
X32809Y62230D01*
X32773Y62504D01*
X32667Y62760D01*
X32499Y62979D01*
X32280Y63147D01*
X32024Y63253D01*
X31750Y63289D01*
D02*
G37*
G36*
X46030Y56706D02*
X44430D01*
X44313Y56683D01*
X44214Y56616D01*
X44147Y56517D01*
X44124Y56400D01*
Y54800D01*
X44147Y54683D01*
X44214Y54584D01*
X44313Y54517D01*
X44430Y54494D01*
X46030D01*
X46147Y54517D01*
X46246Y54584D01*
X46313Y54683D01*
X46336Y54800D01*
Y56400D01*
X46313Y56517D01*
X46246Y56616D01*
X46147Y56683D01*
X46030Y56706D01*
D02*
G37*
G36*
X23440Y41218D02*
X23366Y41208D01*
X23065Y41083D01*
X22806Y40884D01*
X22607Y40625D01*
X22482Y40324D01*
X22472Y40250D01*
X23440D01*
Y41218D01*
D02*
G37*
G36*
X46030Y41106D02*
X44430D01*
X44313Y41083D01*
X44214Y41016D01*
X44147Y40917D01*
X44124Y40800D01*
Y39200D01*
X44147Y39083D01*
X44214Y38984D01*
X44313Y38917D01*
X44430Y38894D01*
X46030D01*
X46147Y38917D01*
X46246Y38984D01*
X46313Y39083D01*
X46336Y39200D01*
Y40800D01*
X46313Y40917D01*
X46246Y41016D01*
X46147Y41083D01*
X46030Y41106D01*
D02*
G37*
G36*
X7230Y56709D02*
X6943Y56672D01*
X6675Y56561D01*
X6445Y56385D01*
X6269Y56155D01*
X6158Y55887D01*
X6121Y55600D01*
X6158Y55313D01*
X6269Y55045D01*
X6445Y54815D01*
X6675Y54639D01*
X6943Y54528D01*
X7230Y54491D01*
X7517Y54528D01*
X7785Y54639D01*
X8015Y54815D01*
X8191Y55045D01*
X8302Y55313D01*
X8339Y55600D01*
X8302Y55887D01*
X8191Y56155D01*
X8015Y56385D01*
X7785Y56561D01*
X7517Y56672D01*
X7230Y56709D01*
D02*
G37*
G36*
X23940Y41218D02*
Y40250D01*
X24908D01*
X24898Y40324D01*
X24773Y40625D01*
X24574Y40884D01*
X24315Y41083D01*
X24014Y41208D01*
X23940Y41218D01*
D02*
G37*
%LPD*%
D10*
X43815Y19050D02*
Y22225D01*
X33655Y32385D02*
X43815Y22225D01*
X46355Y8890D02*
Y15240D01*
X50800Y19685D01*
Y66040D01*
X39370Y77470D02*
X50800Y66040D01*
X25400Y77470D02*
X39370D01*
X22860Y74930D02*
X25400Y77470D01*
X23690Y20125D02*
Y40000D01*
X24130Y60325D02*
X27305Y57150D01*
X24130Y60325D02*
Y62230D01*
X28305Y59420D02*
X29210Y60325D01*
Y62230D01*
X29305Y57880D02*
X31750Y60325D01*
Y62230D01*
X29305Y46355D02*
X33655Y42005D01*
Y32385D02*
Y42005D01*
X29305Y46355D02*
Y57880D01*
X28305Y45941D02*
X31310Y42936D01*
Y40000D02*
Y42936D01*
X28305Y45941D02*
Y59420D01*
X23690Y20125D02*
X29845Y13970D01*
X41275D02*
X43815Y11430D01*
Y8890D02*
Y11430D01*
X29845Y13970D02*
X41275D01*
X23690Y40000D02*
Y42105D01*
X27305Y45720D01*
Y57150D01*
D11*
X52500Y2500D02*
D03*
X2500D02*
D03*
Y77500D02*
D03*
X52500D02*
D03*
D12*
X38100Y10160D02*
D03*
Y17780D02*
D03*
X35560Y10160D02*
D03*
Y17780D02*
D03*
X33020Y10160D02*
D03*
Y17780D02*
D03*
X52070Y15240D02*
D03*
X50800Y13335D02*
D03*
X49530Y15240D02*
D03*
X33020Y74930D02*
D03*
X22860D02*
D03*
X33020Y72390D02*
D03*
X22860D02*
D03*
X7230Y55600D02*
D03*
Y40000D02*
D03*
Y24400D02*
D03*
X47770Y55600D02*
D03*
Y40000D02*
D03*
Y24400D02*
D03*
X41275Y19050D02*
D03*
Y8890D02*
D03*
X43815D02*
D03*
Y19050D02*
D03*
X46355D02*
D03*
Y8890D02*
D03*
D13*
X38100Y5080D02*
D03*
X40640D02*
D03*
X43180D02*
D03*
X45720D02*
D03*
X48260D02*
D03*
X16510D02*
D03*
X19050D02*
D03*
X21590D02*
D03*
X13970D02*
D03*
X24130D02*
D03*
X26670D02*
D03*
X6350D02*
D03*
X8890D02*
D03*
X11430D02*
D03*
X29210D02*
D03*
X31750D02*
D03*
X34290D02*
D03*
D14*
X24130Y62230D02*
D03*
D15*
X26670D02*
D03*
X29210D02*
D03*
X31750D02*
D03*
X24130Y69850D02*
D03*
X26670D02*
D03*
X29210D02*
D03*
X31750D02*
D03*
D16*
X19050Y67310D02*
D03*
D17*
Y64770D02*
D03*
D18*
X9770Y55600D02*
D03*
Y40000D02*
D03*
Y24400D02*
D03*
X45230Y55600D02*
D03*
Y40000D02*
D03*
Y24400D02*
D03*
D19*
X31310Y40000D02*
D03*
X23690D02*
D03*
M02*
