G04 Layer_Color=65535*
%FSLAX43Y43*%
%MOMM*%
G71*
G01*
G75*
%ADD20C,0.152*%
%ADD21C,0.200*%
%ADD22C,0.254*%
%ADD23C,0.203*%
%ADD24C,0.127*%
%ADD25R,0.508X1.397*%
%ADD26R,1.778X0.381*%
%ADD27R,0.864X0.610*%
%ADD28R,0.610X0.864*%
G36*
X5951Y1726D02*
X5967Y1724D01*
X5984Y1722D01*
X6003Y1716D01*
X6022Y1710D01*
X6024D01*
X6026Y1709D01*
X6038Y1705D01*
X6053Y1697D01*
X6076Y1686D01*
X6101Y1672D01*
X6130Y1653D01*
X6159Y1634D01*
X6189Y1609D01*
X6191D01*
X6193Y1605D01*
X6205Y1595D01*
X6222Y1580D01*
X6245Y1557D01*
X6272Y1528D01*
X6305Y1493D01*
X6341Y1451D01*
X6381Y1405D01*
X6383Y1403D01*
X6389Y1396D01*
X6397Y1386D01*
X6410Y1373D01*
X6424Y1355D01*
X6441Y1336D01*
X6477Y1294D01*
X6522Y1248D01*
X6566Y1202D01*
X6587Y1179D01*
X6608Y1159D01*
X6629Y1142D01*
X6648Y1127D01*
X6650D01*
X6652Y1123D01*
X6658Y1119D01*
X6666Y1115D01*
X6685Y1104D01*
X6710Y1090D01*
X6739Y1077D01*
X6769Y1065D01*
X6804Y1058D01*
X6836Y1054D01*
X6840D01*
X6852Y1056D01*
X6869Y1058D01*
X6890Y1061D01*
X6915Y1071D01*
X6940Y1083D01*
X6967Y1098D01*
X6992Y1121D01*
X6994Y1125D01*
X7002Y1132D01*
X7011Y1148D01*
X7025Y1167D01*
X7036Y1192D01*
X7046Y1221D01*
X7053Y1255D01*
X7055Y1294D01*
Y1296D01*
Y1300D01*
Y1305D01*
X7053Y1313D01*
X7052Y1332D01*
X7048Y1357D01*
X7038Y1386D01*
X7027Y1417D01*
X7009Y1445D01*
X6986Y1472D01*
X6982Y1474D01*
X6975Y1482D01*
X6959Y1493D01*
X6938Y1505D01*
X6911Y1518D01*
X6881Y1528D01*
X6844Y1536D01*
X6802Y1540D01*
X6819Y1699D01*
X6827D01*
X6836Y1697D01*
X6848Y1695D01*
X6863Y1691D01*
X6881Y1689D01*
X6919Y1678D01*
X6963Y1662D01*
X7007Y1641D01*
X7052Y1613D01*
X7071Y1597D01*
X7090Y1578D01*
X7092Y1576D01*
X7094Y1572D01*
X7100Y1566D01*
X7105Y1559D01*
X7111Y1547D01*
X7121Y1534D01*
X7128Y1518D01*
X7138Y1501D01*
X7146Y1482D01*
X7155Y1461D01*
X7163Y1436D01*
X7169Y1411D01*
X7180Y1353D01*
X7182Y1323D01*
X7184Y1290D01*
Y1288D01*
Y1282D01*
Y1273D01*
X7182Y1259D01*
X7180Y1244D01*
X7178Y1227D01*
X7176Y1207D01*
X7171Y1186D01*
X7159Y1140D01*
X7142Y1092D01*
X7130Y1067D01*
X7117Y1044D01*
X7100Y1023D01*
X7082Y1002D01*
X7080Y1000D01*
X7078Y998D01*
X7073Y992D01*
X7065Y985D01*
X7053Y977D01*
X7042Y967D01*
X7013Y948D01*
X6977Y929D01*
X6934Y912D01*
X6886Y898D01*
X6860Y896D01*
X6833Y894D01*
X6819D01*
X6804Y896D01*
X6785Y898D01*
X6762Y902D01*
X6737Y908D01*
X6710Y915D01*
X6683Y927D01*
X6679Y929D01*
X6669Y933D01*
X6656Y940D01*
X6637Y952D01*
X6614Y965D01*
X6587Y983D01*
X6560Y1006D01*
X6529Y1031D01*
X6525Y1035D01*
X6514Y1044D01*
X6497Y1061D01*
X6485Y1073D01*
X6472Y1086D01*
X6456Y1102D01*
X6439Y1121D01*
X6422Y1140D01*
X6401Y1161D01*
X6379Y1184D01*
X6356Y1211D01*
X6333Y1238D01*
X6307Y1269D01*
X6305Y1271D01*
X6301Y1275D01*
X6295Y1282D01*
X6287Y1292D01*
X6268Y1315D01*
X6243Y1344D01*
X6216Y1373D01*
X6189Y1403D01*
X6166Y1428D01*
X6157Y1438D01*
X6147Y1447D01*
X6145Y1449D01*
X6139Y1453D01*
X6132Y1461D01*
X6120Y1470D01*
X6095Y1492D01*
X6065Y1513D01*
Y892D01*
X5917D01*
Y1728D01*
X5938D01*
X5951Y1726D01*
D02*
G37*
G36*
X34758Y1676D02*
X34760Y1672D01*
X34764Y1664D01*
X34769Y1657D01*
X34775Y1645D01*
X34781Y1632D01*
X34798Y1601D01*
X34819Y1567D01*
X34844Y1528D01*
X34873Y1490D01*
X34904Y1453D01*
X34906Y1451D01*
X34908Y1449D01*
X34919Y1438D01*
X34937Y1421D01*
X34958Y1399D01*
X34985Y1376D01*
X35013Y1353D01*
X35044Y1332D01*
X35075Y1315D01*
Y1213D01*
X33807D01*
Y1369D01*
X34794D01*
X34792Y1371D01*
X34785Y1378D01*
X34775Y1392D01*
X34762Y1409D01*
X34744Y1430D01*
X34727Y1455D01*
X34706Y1484D01*
X34687Y1517D01*
Y1519D01*
X34685Y1520D01*
X34677Y1532D01*
X34668Y1549D01*
X34656Y1570D01*
X34643Y1595D01*
X34631Y1622D01*
X34618Y1651D01*
X34606Y1678D01*
X34758D01*
Y1676D01*
D02*
G37*
G36*
X6867Y2565D02*
X6869Y2561D01*
X6873Y2553D01*
X6879Y2546D01*
X6885Y2534D01*
X6890Y2521D01*
X6908Y2490D01*
X6929Y2456D01*
X6954Y2417D01*
X6982Y2379D01*
X7013Y2342D01*
X7015Y2340D01*
X7017Y2338D01*
X7029Y2327D01*
X7046Y2310D01*
X7067Y2288D01*
X7094Y2265D01*
X7123Y2242D01*
X7153Y2221D01*
X7184Y2204D01*
Y2102D01*
X5917D01*
Y2258D01*
X6904D01*
X6902Y2260D01*
X6894Y2267D01*
X6885Y2281D01*
X6871Y2298D01*
X6854Y2319D01*
X6836Y2344D01*
X6815Y2373D01*
X6796Y2406D01*
Y2408D01*
X6794Y2409D01*
X6787Y2421D01*
X6777Y2438D01*
X6765Y2459D01*
X6752Y2484D01*
X6740Y2511D01*
X6727Y2540D01*
X6716Y2567D01*
X6867D01*
Y2565D01*
D02*
G37*
G36*
X38008Y1642D02*
X38003D01*
X37997Y1640D01*
X37989Y1638D01*
X37968Y1632D01*
X37941Y1624D01*
X37912Y1615D01*
X37884Y1599D01*
X37855Y1582D01*
X37830Y1559D01*
X37828Y1555D01*
X37820Y1548D01*
X37813Y1534D01*
X37801Y1515D01*
X37792Y1492D01*
X37782Y1465D01*
X37774Y1434D01*
X37772Y1402D01*
Y1400D01*
Y1396D01*
Y1390D01*
X37774Y1382D01*
X37776Y1361D01*
X37782Y1334D01*
X37793Y1306D01*
X37807Y1273D01*
X37828Y1242D01*
X37840Y1227D01*
X37855Y1212D01*
X37857D01*
X37859Y1208D01*
X37870Y1200D01*
X37889Y1187D01*
X37914Y1173D01*
X37947Y1160D01*
X37985Y1146D01*
X38030Y1139D01*
X38080Y1135D01*
X38093D01*
X38101Y1137D01*
X38112D01*
X38126Y1139D01*
X38156Y1144D01*
X38189Y1152D01*
X38224Y1165D01*
X38258Y1185D01*
X38289Y1210D01*
X38293Y1213D01*
X38300Y1223D01*
X38314Y1238D01*
X38327Y1261D01*
X38341Y1288D01*
X38354Y1323D01*
X38362Y1361D01*
X38366Y1404D01*
Y1407D01*
Y1417D01*
X38364Y1430D01*
X38362Y1450D01*
X38356Y1471D01*
X38350Y1494D01*
X38341Y1517D01*
X38329Y1540D01*
X38327Y1542D01*
X38323Y1550D01*
X38316Y1561D01*
X38306Y1574D01*
X38293Y1588D01*
X38277Y1603D01*
X38260Y1619D01*
X38241Y1632D01*
X38262Y1778D01*
X38909Y1655D01*
Y1029D01*
X38761D01*
Y1532D01*
X38421Y1601D01*
X38423Y1599D01*
X38425Y1596D01*
X38429Y1590D01*
X38435Y1582D01*
X38441Y1571D01*
X38446Y1559D01*
X38462Y1528D01*
X38477Y1494D01*
X38489Y1454D01*
X38498Y1409D01*
X38502Y1363D01*
Y1361D01*
Y1356D01*
Y1348D01*
X38500Y1336D01*
X38498Y1321D01*
X38496Y1306D01*
X38492Y1286D01*
X38489Y1267D01*
X38473Y1223D01*
X38466Y1200D01*
X38454Y1177D01*
X38441Y1152D01*
X38425Y1129D01*
X38408Y1106D01*
X38387Y1085D01*
X38385Y1083D01*
X38381Y1079D01*
X38375Y1073D01*
X38366Y1068D01*
X38354Y1058D01*
X38341Y1048D01*
X38325Y1039D01*
X38308Y1027D01*
X38287Y1016D01*
X38266Y1006D01*
X38241Y996D01*
X38216Y987D01*
X38187Y981D01*
X38158Y975D01*
X38126Y972D01*
X38093Y970D01*
X38076D01*
X38064Y972D01*
X38049Y973D01*
X38032Y975D01*
X38012Y977D01*
X37991Y981D01*
X37945Y995D01*
X37897Y1012D01*
X37870Y1023D01*
X37845Y1037D01*
X37820Y1052D01*
X37797Y1069D01*
X37795Y1071D01*
X37792Y1075D01*
X37784Y1083D01*
X37774Y1092D01*
X37763Y1104D01*
X37749Y1119D01*
X37736Y1137D01*
X37722Y1158D01*
X37707Y1179D01*
X37694Y1204D01*
X37680Y1233D01*
X37669Y1261D01*
X37659Y1294D01*
X37651Y1327D01*
X37647Y1363D01*
X37646Y1402D01*
Y1404D01*
Y1409D01*
Y1419D01*
X37647Y1430D01*
X37649Y1444D01*
X37651Y1461D01*
X37653Y1480D01*
X37657Y1502D01*
X37669Y1546D01*
X37686Y1592D01*
X37697Y1615D01*
X37711Y1638D01*
X37724Y1661D01*
X37742Y1682D01*
X37744Y1684D01*
X37745Y1686D01*
X37751Y1692D01*
X37759Y1699D01*
X37768Y1707D01*
X37780Y1717D01*
X37793Y1726D01*
X37809Y1738D01*
X37845Y1759D01*
X37889Y1780D01*
X37939Y1795D01*
X37968Y1801D01*
X37997Y1805D01*
X38008Y1642D01*
D02*
G37*
G36*
X48728Y1676D02*
X48730Y1672D01*
X48734Y1664D01*
X48739Y1657D01*
X48745Y1645D01*
X48751Y1632D01*
X48768Y1601D01*
X48789Y1567D01*
X48814Y1528D01*
X48843Y1490D01*
X48874Y1453D01*
X48876Y1451D01*
X48878Y1449D01*
X48889Y1438D01*
X48907Y1421D01*
X48928Y1399D01*
X48955Y1376D01*
X48983Y1353D01*
X49014Y1332D01*
X49045Y1315D01*
Y1213D01*
X47777D01*
Y1369D01*
X48764D01*
X48762Y1371D01*
X48755Y1378D01*
X48745Y1392D01*
X48732Y1409D01*
X48714Y1430D01*
X48697Y1455D01*
X48676Y1484D01*
X48657Y1517D01*
Y1519D01*
X48655Y1520D01*
X48647Y1532D01*
X48638Y1549D01*
X48626Y1570D01*
X48613Y1595D01*
X48601Y1622D01*
X48588Y1651D01*
X48576Y1678D01*
X48728D01*
Y1676D01*
D02*
G37*
D20*
X51587Y12675D02*
G03*
X52895Y16891I-792J2557D01*
G01*
X48692D02*
G03*
X50013Y12675I2107J-1655D01*
G01*
X30861Y73787D02*
G03*
X31115Y74041I0J254D01*
G01*
Y75819D02*
G03*
X30861Y76073I-254J0D01*
G01*
X25019D02*
G03*
X24765Y75819I0J-254D01*
G01*
Y74041D02*
G03*
X25019Y73787I254J0D01*
G01*
X30861Y71247D02*
G03*
X31115Y71501I0J254D01*
G01*
Y73279D02*
G03*
X30861Y73533I-254J0D01*
G01*
X25019D02*
G03*
X24765Y73279I0J-254D01*
G01*
Y71501D02*
G03*
X25019Y71247I254J0D01*
G01*
X21590Y66040D02*
G03*
X21590Y66040I-2540J0D01*
G01*
X11040Y55600D02*
G03*
X11040Y55600I-2540J0D01*
G01*
Y40000D02*
G03*
X11040Y40000I-2540J0D01*
G01*
Y24400D02*
G03*
X11040Y24400I-2540J0D01*
G01*
X49040Y55600D02*
G03*
X49040Y55600I-2540J0D01*
G01*
Y40000D02*
G03*
X49040Y40000I-2540J0D01*
G01*
Y24400D02*
G03*
X49040Y24400I-2540J0D01*
G01*
X42418Y16891D02*
G03*
X42164Y17145I-254J0D01*
G01*
X40386D02*
G03*
X40132Y16891I0J-254D01*
G01*
Y11049D02*
G03*
X40386Y10795I254J0D01*
G01*
X42164D02*
G03*
X42418Y11049I0J254D01*
G01*
X42672D02*
G03*
X42926Y10795I254J0D01*
G01*
X44704D02*
G03*
X44958Y11049I0J254D01*
G01*
Y16891D02*
G03*
X44704Y17145I-254J0D01*
G01*
X42926D02*
G03*
X42672Y16891I0J-254D01*
G01*
X47498D02*
G03*
X47244Y17145I-254J0D01*
G01*
X45466D02*
G03*
X45212Y16891I0J-254D01*
G01*
Y11049D02*
G03*
X45466Y10795I254J0D01*
G01*
X47244D02*
G03*
X47498Y11049I0J254D01*
G01*
X38100Y14097D02*
X38608D01*
Y13843D02*
Y14097D01*
X37592D02*
X38100D01*
X38608Y13081D01*
X38100Y12700D02*
Y14097D01*
X37592Y13081D02*
X38100Y14097D01*
X37592Y13081D02*
X38608D01*
X38100Y14097D02*
Y14478D01*
X37211Y15494D02*
X38989D01*
X37211Y12446D02*
X38989D01*
Y15494D01*
X37211Y12446D02*
Y15494D01*
X35560Y14097D02*
X36068D01*
Y13843D02*
Y14097D01*
X35052D02*
X35560D01*
X36068Y13081D01*
X35560Y12700D02*
Y14097D01*
X35052Y13081D02*
X35560Y14097D01*
X35052Y13081D02*
X36068D01*
X35560Y14097D02*
Y14478D01*
X34671Y15494D02*
X36449D01*
X34671Y12446D02*
X36449D01*
Y15494D01*
X34671Y12446D02*
Y15494D01*
X33020Y14097D02*
X33528D01*
Y13843D02*
Y14097D01*
X32512D02*
X33020D01*
X33528Y13081D01*
X33020Y12700D02*
Y14097D01*
X32512Y13081D02*
X33020Y14097D01*
X32512Y13081D02*
X33528D01*
X33020Y14097D02*
Y14478D01*
X32131Y15494D02*
X33909D01*
X32131Y12446D02*
X33909D01*
Y15494D01*
X32131Y12446D02*
Y15494D01*
X48692Y16891D02*
X52895D01*
X53054Y15494D02*
X53455D01*
X50495D02*
X51086D01*
X48133D02*
X48539D01*
X31115Y74041D02*
Y75819D01*
X30480Y73787D02*
X30861D01*
X30353Y73914D02*
X30480Y73787D01*
Y76073D02*
X30861D01*
X30353Y75946D02*
X30480Y76073D01*
X25400Y73787D02*
X25527Y73914D01*
X30353D01*
X25400Y76073D02*
X25527Y75946D01*
X30353D01*
X25019Y73787D02*
X25400D01*
X25019Y76073D02*
X25400D01*
X24765Y74041D02*
Y75819D01*
X31115Y71501D02*
Y73279D01*
X30480Y71247D02*
X30861D01*
X30353Y71374D02*
X30480Y71247D01*
Y73533D02*
X30861D01*
X30353Y73406D02*
X30480Y73533D01*
X25400Y71247D02*
X25527Y71374D01*
X30353D01*
X25400Y73533D02*
X25527Y73406D01*
X30353D01*
X25019Y71247D02*
X25400D01*
X25019Y73533D02*
X25400D01*
X24765Y71501D02*
Y73279D01*
X20320Y67437D02*
X20574D01*
X20320Y67183D02*
Y67437D01*
X20066D02*
X20320D01*
Y67691D01*
X40386Y17145D02*
X42164D01*
X42418Y16510D02*
Y16891D01*
X42291Y16383D02*
X42418Y16510D01*
X40132D02*
Y16891D01*
Y16510D02*
X40259Y16383D01*
X42291Y11557D02*
X42418Y11430D01*
X42291Y11557D02*
Y16383D01*
X40132Y11430D02*
X40259Y11557D01*
Y16383D01*
X42418Y11049D02*
Y11430D01*
X40132Y11049D02*
Y11430D01*
X40386Y10795D02*
X42164D01*
X42926D02*
X44704D01*
X42672Y11049D02*
Y11430D01*
X42799Y11557D01*
X44958Y11049D02*
Y11430D01*
X44831Y11557D02*
X44958Y11430D01*
X42672Y16510D02*
X42799Y16383D01*
Y11557D02*
Y16383D01*
X44831D02*
X44958Y16510D01*
X44831Y11557D02*
Y16383D01*
X42672Y16510D02*
Y16891D01*
X44958Y16510D02*
Y16891D01*
X42926Y17145D02*
X44704D01*
X45466D02*
X47244D01*
X47498Y16510D02*
Y16891D01*
X47371Y16383D02*
X47498Y16510D01*
X45212D02*
Y16891D01*
Y16510D02*
X45339Y16383D01*
X47371Y11557D02*
X47498Y11430D01*
X47371Y11557D02*
Y16383D01*
X45212Y11430D02*
X45339Y11557D01*
Y16383D01*
X47498Y11049D02*
Y11430D01*
X45212Y11049D02*
Y11430D01*
X45466Y10795D02*
X47244D01*
D21*
X22440Y65405D02*
G03*
X22440Y66675I0J635D01*
G01*
Y63390D02*
Y65405D01*
Y66675D02*
Y68690D01*
X33440Y63390D02*
Y68690D01*
X22440Y63390D02*
X33440D01*
X22440Y68690D02*
X33440D01*
X19215Y70215D02*
X19015Y70415D01*
X18615D01*
X18415Y70215D01*
Y69415D01*
X18615Y69215D01*
X19015D01*
X19215Y69415D01*
X19615Y69215D02*
X20014D01*
X19815D01*
Y70415D01*
X19615Y70215D01*
X32258Y20580D02*
Y19380D01*
X32858D01*
X33058Y19580D01*
Y20380D01*
X32858Y20580D01*
X32258D01*
X33458Y19380D02*
X33857D01*
X33658D01*
Y20580D01*
X33458Y20380D01*
X34798Y20580D02*
Y19380D01*
X35398D01*
X35598Y19580D01*
Y20380D01*
X35398Y20580D01*
X34798D01*
X36797Y19380D02*
X35998D01*
X36797Y20180D01*
Y20380D01*
X36597Y20580D01*
X36198D01*
X35998Y20380D01*
X37338Y20580D02*
Y19380D01*
X37938D01*
X38138Y19580D01*
Y20380D01*
X37938Y20580D01*
X37338D01*
X38538Y20380D02*
X38738Y20580D01*
X39137D01*
X39337Y20380D01*
Y20180D01*
X39137Y19980D01*
X38937D01*
X39137D01*
X39337Y19780D01*
Y19580D01*
X39137Y19380D01*
X38738D01*
X38538Y19580D01*
X3175Y56445D02*
Y55245D01*
X3775D01*
X3975Y55445D01*
Y56245D01*
X3775Y56445D01*
X3175D01*
X4974Y55245D02*
Y56445D01*
X4375Y55845D01*
X5174D01*
X50165Y56445D02*
Y55245D01*
X50765D01*
X50965Y55445D01*
Y56245D01*
X50765Y56445D01*
X50165D01*
X52164D02*
X51365D01*
Y55845D01*
X51764Y56045D01*
X51964D01*
X52164Y55845D01*
Y55445D01*
X51964Y55245D01*
X51565D01*
X51365Y55445D01*
X3175Y40570D02*
Y39370D01*
X3775D01*
X3975Y39570D01*
Y40370D01*
X3775Y40570D01*
X3175D01*
X5174D02*
X4774Y40370D01*
X4375Y39970D01*
Y39570D01*
X4575Y39370D01*
X4974D01*
X5174Y39570D01*
Y39770D01*
X4974Y39970D01*
X4375D01*
X50165Y40570D02*
Y39370D01*
X50765D01*
X50965Y39570D01*
Y40370D01*
X50765Y40570D01*
X50165D01*
X51365D02*
X52164D01*
Y40370D01*
X51365Y39570D01*
Y39370D01*
X3175Y25330D02*
Y24130D01*
X3775D01*
X3975Y24330D01*
Y25130D01*
X3775Y25330D01*
X3175D01*
X4375Y25130D02*
X4575Y25330D01*
X4974D01*
X5174Y25130D01*
Y24930D01*
X4974Y24730D01*
X5174Y24530D01*
Y24330D01*
X4974Y24130D01*
X4575D01*
X4375Y24330D01*
Y24530D01*
X4575Y24730D01*
X4375Y24930D01*
Y25130D01*
X4575Y24730D02*
X4974D01*
X50165Y25330D02*
Y24130D01*
X50765D01*
X50965Y24330D01*
Y25130D01*
X50765Y25330D01*
X50165D01*
X51365Y24330D02*
X51565Y24130D01*
X51964D01*
X52164Y24330D01*
Y25130D01*
X51964Y25330D01*
X51565D01*
X51365Y25130D01*
Y24930D01*
X51565Y24730D01*
X52164D01*
X26035Y40570D02*
Y39370D01*
X26835D01*
X28034Y40370D02*
X27834Y40570D01*
X27435D01*
X27235Y40370D01*
Y40170D01*
X27435Y39970D01*
X27834D01*
X28034Y39770D01*
Y39570D01*
X27834Y39370D01*
X27435D01*
X27235Y39570D01*
X28434Y39370D02*
X28834D01*
X28634D01*
Y40570D01*
X28434Y40370D01*
X42545Y635D02*
Y1835D01*
X43145D01*
X43345Y1635D01*
Y1235D01*
X43145Y1035D01*
X42545D01*
X43745Y635D02*
X44144D01*
X43945D01*
Y1835D01*
X43745Y1635D01*
X19050Y635D02*
Y1835D01*
X19650D01*
X19850Y1635D01*
Y1235D01*
X19650Y1035D01*
X19050D01*
X21049Y635D02*
X20250D01*
X21049Y1435D01*
Y1635D01*
X20849Y1835D01*
X20450D01*
X20250Y1635D01*
X50965Y10995D02*
Y11795D01*
X50765Y11995D01*
X50365D01*
X50165Y11795D01*
Y10995D01*
X50365Y10795D01*
X50765D01*
X50565Y11195D02*
X50965Y10795D01*
X50765D02*
X50965Y10995D01*
X51365Y10795D02*
X51764D01*
X51565D01*
Y11995D01*
X51365Y11795D01*
X46990Y12065D02*
X45790D01*
Y12665D01*
X45990Y12865D01*
X46390D01*
X46590Y12665D01*
Y12065D01*
Y12465D02*
X46990Y12865D01*
Y13265D02*
Y13664D01*
Y13465D01*
X45790D01*
X45990Y13265D01*
X26035Y74295D02*
Y75495D01*
X26635D01*
X26835Y75295D01*
Y74895D01*
X26635Y74695D01*
X26035D01*
X26435D02*
X26835Y74295D01*
X28034D02*
X27235D01*
X28034Y75095D01*
Y75295D01*
X27834Y75495D01*
X27435D01*
X27235Y75295D01*
X26035Y71755D02*
Y72955D01*
X26635D01*
X26835Y72755D01*
Y72355D01*
X26635Y72155D01*
X26035D01*
X26435D02*
X26835Y71755D01*
X27235Y72755D02*
X27435Y72955D01*
X27834D01*
X28034Y72755D01*
Y72555D01*
X27834Y72355D01*
X27634D01*
X27834D01*
X28034Y72155D01*
Y71955D01*
X27834Y71755D01*
X27435D01*
X27235Y71955D01*
X41910Y12065D02*
X40710D01*
Y12665D01*
X40910Y12865D01*
X41310D01*
X41510Y12665D01*
Y12065D01*
Y12465D02*
X41910Y12865D01*
Y13864D02*
X40710D01*
X41310Y13265D01*
Y14064D01*
X44450Y12065D02*
X43250D01*
Y12665D01*
X43450Y12865D01*
X43850D01*
X44050Y12665D01*
Y12065D01*
Y12465D02*
X44450Y12865D01*
X43250Y14064D02*
Y13265D01*
X43850D01*
X43650Y13664D01*
Y13864D01*
X43850Y14064D01*
X44250D01*
X44450Y13864D01*
Y13465D01*
X44250Y13265D01*
X27305Y66605D02*
Y65605D01*
X27505Y65405D01*
X27905D01*
X28105Y65605D01*
Y66605D01*
X28505Y65405D02*
X28904D01*
X28705D01*
Y66605D01*
X28505Y66405D01*
D22*
X5960Y53695D02*
G03*
X5960Y57505I2540J1905D01*
G01*
Y38095D02*
G03*
X5960Y41905I2540J1905D01*
G01*
Y22495D02*
G03*
X5960Y26305I2540J1905D01*
G01*
X49040Y57505D02*
G03*
X49040Y53695I-2540J-1905D01*
G01*
Y41905D02*
G03*
X49040Y38095I-2540J-1905D01*
G01*
Y26305D02*
G03*
X49040Y22495I-2540J-1905D01*
G01*
X48311Y-6579D02*
X48641Y-6223D01*
Y0D01*
X37719Y-6223D02*
X38049Y-6579D01*
X37719Y-6223D02*
Y0D01*
X38354Y-8509D02*
X43231D01*
X38100Y-8001D02*
X38354Y-8509D01*
X38100Y-8001D02*
Y0D01*
X43129Y-8509D02*
X48006D01*
X48260Y-8001D01*
Y0D01*
X49530D01*
X36830D02*
X37719D01*
X36830D02*
Y3175D01*
X37465D01*
Y2540D02*
Y3175D01*
Y2540D02*
X38735D01*
Y3175D01*
X40005D01*
Y2540D02*
Y3175D01*
Y2540D02*
X41275D01*
Y3175D01*
X42545D01*
Y2540D02*
Y3175D01*
Y2540D02*
X43815D01*
Y3175D01*
X45085D01*
Y2540D02*
Y3175D01*
Y2540D02*
X46355D01*
Y3175D01*
X47625D01*
Y2540D02*
Y3175D01*
Y2540D02*
X48895D01*
Y3175D01*
X49530D01*
Y0D02*
Y3175D01*
X16129Y-6223D02*
X16459Y-6579D01*
X16129Y-6223D02*
Y0D01*
X16561Y-6579D02*
X16891Y-6223D01*
Y0D01*
X14605Y3175D02*
X15875D01*
Y2540D02*
Y3175D01*
Y2540D02*
X17145D01*
Y3175D01*
X18415D01*
X18669Y-6223D02*
X18999Y-6579D01*
X18669Y-6223D02*
Y0D01*
X19101Y-6579D02*
X19431Y-6223D01*
Y0D01*
X18415Y2540D02*
Y3175D01*
Y2540D02*
X19685D01*
Y3175D01*
X20955D01*
X21209Y-6223D02*
X21539Y-6579D01*
X21209Y-6223D02*
Y0D01*
X21641Y-6579D02*
X21971Y-6223D01*
Y0D01*
X20955Y2540D02*
Y3175D01*
Y2540D02*
X22225D01*
Y3175D01*
X23495D01*
X13589Y-6223D02*
X13919Y-6579D01*
X13589Y-6223D02*
Y0D01*
X14021Y-6579D02*
X14351Y-6223D01*
Y0D01*
X12065Y3175D02*
X13335D01*
Y2540D02*
Y3175D01*
Y2540D02*
X14605D01*
Y3175D01*
X23749Y-6223D02*
X24079Y-6579D01*
X23749Y-6223D02*
Y0D01*
X24181Y-6579D02*
X24511Y-6223D01*
Y0D01*
X23495Y2540D02*
Y3175D01*
Y2540D02*
X24765D01*
Y3175D01*
X26035D01*
X26289Y-6223D02*
X26619Y-6579D01*
X26289Y-6223D02*
Y0D01*
X26721Y-6579D02*
X27051Y-6223D01*
Y0D01*
X26035Y2540D02*
Y3175D01*
Y2540D02*
X27305D01*
Y3175D01*
X28575D01*
X11481Y-6579D02*
X11811Y-6223D01*
Y0D01*
X34341Y-6579D02*
X34671Y-6223D01*
Y0D01*
X5969Y-6223D02*
X6299Y-6579D01*
X5969Y-6223D02*
Y0D01*
X28829Y-6223D02*
X29159Y-6579D01*
X28829Y-6223D02*
Y0D01*
X11481Y-8509D02*
Y0D01*
X6604Y-8509D02*
X11481D01*
X6350Y-8001D02*
X6604Y-8509D01*
X6350Y-8001D02*
Y0D01*
X29159Y-6579D02*
Y0D01*
Y-8509D02*
Y-6579D01*
Y-8509D02*
X34036D01*
X34290Y-8001D01*
Y0D01*
X35560D01*
X29159D02*
X34290D01*
X26289D02*
X28829D01*
X23749D02*
X26289D01*
X21209D02*
X23749D01*
X18669D02*
X21209D01*
X16129D02*
X18669D01*
X13589D02*
X16129D01*
X5969D02*
X13589D01*
X5080D02*
X5969D01*
X5080D02*
Y3175D01*
X5715D01*
Y2540D02*
Y3175D01*
Y2540D02*
X6985D01*
Y3175D01*
X8255D01*
Y2540D02*
Y3175D01*
Y2540D02*
X9525D01*
Y3175D01*
X10795D01*
Y2540D02*
Y3175D01*
Y2540D02*
X12065D01*
Y3175D01*
X28575Y2540D02*
Y3175D01*
Y2540D02*
X29845D01*
Y3175D01*
X31115D01*
Y2540D02*
Y3175D01*
Y2540D02*
X32385D01*
Y3175D01*
X33655D01*
Y2540D02*
Y3175D01*
Y2540D02*
X34925D01*
Y3175D01*
X35560D01*
Y0D02*
Y3175D01*
D23*
X35500Y40000D02*
G03*
X35500Y40000I-8000J0D01*
G01*
X5960Y53695D02*
Y57505D01*
Y38095D02*
Y41905D01*
Y22495D02*
Y26305D01*
X49040Y53695D02*
Y57505D01*
Y38095D02*
Y41905D01*
Y22495D02*
Y26305D01*
D24*
X37719Y0D02*
X48260D01*
X28829D02*
X29159D01*
D25*
X38100Y16192D02*
D03*
Y11748D02*
D03*
X35560Y16192D02*
D03*
Y11748D02*
D03*
X33020Y16192D02*
D03*
Y11748D02*
D03*
D26*
X38100Y14922D02*
D03*
X35560D02*
D03*
X33020D02*
D03*
D27*
X24333Y74930D02*
D03*
X31547D02*
D03*
X24333Y72390D02*
D03*
X31547D02*
D03*
D28*
X41275Y10363D02*
D03*
Y17577D02*
D03*
X43815D02*
D03*
Y10363D02*
D03*
X46355D02*
D03*
Y17577D02*
D03*
M02*
