G04 Layer_Color=8388736*
%FSLAX43Y43*%
%MOMM*%
G71*
G01*
G75*
%ADD29C,4.203*%
%ADD30C,1.803*%
%ADD31O,1.727X3.251*%
%ADD32R,1.703X1.703*%
%ADD33C,1.703*%
%ADD34R,1.803X1.803*%
%ADD35C,1.803*%
%ADD36R,1.803X1.803*%
%ADD37C,2.083*%
D29*
X52500Y2500D02*
D03*
X2500D02*
D03*
Y77500D02*
D03*
X52500D02*
D03*
D30*
X38100Y10160D02*
D03*
Y17780D02*
D03*
X35560Y10160D02*
D03*
Y17780D02*
D03*
X33020Y10160D02*
D03*
Y17780D02*
D03*
X52070Y15240D02*
D03*
X50800Y13335D02*
D03*
X49530Y15240D02*
D03*
X33020Y74930D02*
D03*
X22860D02*
D03*
X33020Y72390D02*
D03*
X22860D02*
D03*
X7230Y55600D02*
D03*
Y40000D02*
D03*
Y24400D02*
D03*
X47770Y55600D02*
D03*
Y40000D02*
D03*
Y24400D02*
D03*
X41275Y19050D02*
D03*
Y8890D02*
D03*
X43815D02*
D03*
Y19050D02*
D03*
X46355D02*
D03*
Y8890D02*
D03*
D31*
X38100Y5080D02*
D03*
X40640D02*
D03*
X43180D02*
D03*
X45720D02*
D03*
X48260D02*
D03*
X16510D02*
D03*
X19050D02*
D03*
X21590D02*
D03*
X13970D02*
D03*
X24130D02*
D03*
X26670D02*
D03*
X6350D02*
D03*
X8890D02*
D03*
X11430D02*
D03*
X29210D02*
D03*
X31750D02*
D03*
X34290D02*
D03*
D32*
X24130Y62230D02*
D03*
D33*
X26670D02*
D03*
X29210D02*
D03*
X31750D02*
D03*
X24130Y69850D02*
D03*
X26670D02*
D03*
X29210D02*
D03*
X31750D02*
D03*
D34*
X19050Y67310D02*
D03*
D35*
Y64770D02*
D03*
D36*
X9770Y55600D02*
D03*
Y40000D02*
D03*
Y24400D02*
D03*
X45230Y55600D02*
D03*
Y40000D02*
D03*
Y24400D02*
D03*
D37*
X31310Y40000D02*
D03*
X23690D02*
D03*
M02*
