M48
;Layer_Color=9474304
;FILE_FORMAT=4:3
METRIC,TZ
;TYPE=PLATED
T1F00S00C0.800
T2F00S00C0.900
T3F00S00C0.914
T4F00S00C1.016
T5F00S00C3.000
%
T01
X33020Y10160
X35560
X38100
X41275Y8890
X43815
X46355
X50800Y13335
X52070Y15240
X49530
X46355Y19050
X43815
X41275
X38100Y17780
X35560
X33020
X45230Y24400
X47770
Y40000
X45230
X9770
X7230
Y24400
X9770
Y55600
X7230
X19050Y64770
Y67310
X22860Y72390
Y74930
X33020
Y72390
X45230Y55600
X47770
T02
X24130Y62230
X26670
X29210
X31750
Y69850
X29210
X26670
X24130
T03
X23690Y40000
X31310
T04
X6350Y5080
X8890
X11430
X13970
X16510
X19050
X21590
X24130
X26670
X29210
X31750
X34290
X38100
X40640
X43180
X45720
X48260
T05
X2500Y2500
X52500
X2500Y77500
X52500
M30
