M48
;Layer_Color=9474304
;FILE_FORMAT=4:3
METRIC,TZ
;TYPE=PLATED
T1F00S00C0.711
T2F00S00C0.800
T3F00S00C0.900
T4F00S00C1.000
T5F00S00C1.016
T6F00S00C3.000
%
T01
X4445Y8103
X26594Y27864
X45644Y25730
X46838Y32309
X10236Y35255
X5944Y50063
X5766Y68504
Y82245
X21133Y78283
X18161Y72619
X48438Y72390
X50825Y64465
X49632Y58445
X47142Y81432
T02
X8890Y10160
X27940Y8890
X30480
Y19050
X27940
X17780Y30480
X15240
X24130Y39370
Y41910
X35560Y36830
Y34290
X45720
Y36830
X49530Y39370
Y49530
X8890Y45720
X6350
X3810
Y41910
X6350
Y31750
X3810
X10160Y29210
X12700
X10160Y20320
X7620
X8890Y15240
Y55880
X6350
X3810
X1270Y72390
Y74930
Y77419
Y80010
Y82550
Y85090
Y87630
Y90170
X11430
Y87630
Y85090
Y82550
Y80010
Y77419
Y74930
Y72390
X15240Y77470
X17780
X16510Y79375
X22860Y80010
Y82550
Y85090
Y87630
Y90170
X17780Y86360
X15240
X22860Y77470
Y74930
Y72390
X33020
Y74930
Y77470
Y80010
Y82550
Y85090
Y87630
Y90170
X36830Y86360
X39370
X43180Y87630
Y90170
X53340
Y87630
Y82550
Y80010
X38100Y79375
X39370Y77470
X36830
X39370Y66040
X41910
X44450
Y55880
X41910
X39370
X36830Y54610
X26670
X19050Y93980
X35560
X40640
X13970
T03
X29210Y12700
Y15240
X30480Y40640
X33020
X35560
X38100
X40640
X43180
X45720
Y48260
X43180
X40640
X38100
X35560
X33020
X30480
X17780Y40640
X15240
Y33020
X17780
X49530Y34290
Y36830
X12700Y33020
X10160
Y40640
X12700
X8890Y59690
X6350
X3810
Y62230
X6350
X8890
X20320Y64770
X22860
X25400
X27940
X30480
X33020
X35560
Y57150
X33020
X30480
X27940
X25400
X22860
X20320
X17780Y82550
X15240
X36830
X39370
T04
X2540Y8890
X21590Y49530
X2540Y19050
X19050Y54610
X24130
X44450Y78740
Y83820
X49530Y81280
T05
X2540Y3810
X5080
X8890
X11430
X13970
X16510
X19050
X21590
X24130
X26670
X29210
X31750
X34290
X36830
X41910
X44450
X46990
X49530
X52070
X22860Y10160
X20320
X17780
Y17780
X20320
X22860
X26230Y93980
X28770
X47730
X50270
X7270
X4730
T06
X52500Y22500
X2500
X52500Y97500
X2500
M30
