G04 Layer_Physical_Order=2*
G04 Layer_Color=16711680*
%FSLAX43Y43*%
%MOMM*%
G71*
G01*
G75*
%ADD10C,0.500*%
%ADD11C,4.000*%
%ADD12C,1.600*%
%ADD13C,1.500*%
%ADD14R,1.500X1.500*%
%ADD15O,1.524X3.048*%
%ADD16R,1.600X1.600*%
%ADD17C,1.600*%
%ADD18R,1.500X1.500*%
%ADD19C,2.000*%
%ADD20R,1.500X1.500*%
%ADD21C,1.500*%
%ADD22R,1.600X1.600*%
%ADD23C,1.270*%
G36*
X21982Y90832D02*
X21899Y90725D01*
X21788Y90457D01*
X21751Y90170D01*
X21788Y89883D01*
X21899Y89615D01*
X22075Y89385D01*
X22305Y89209D01*
X22573Y89098D01*
X22860Y89061D01*
X23147Y89098D01*
X23415Y89209D01*
X23645Y89385D01*
X23821Y89615D01*
X23932Y89883D01*
X23969Y90170D01*
X23932Y90457D01*
X23821Y90725D01*
X23810Y90739D01*
X23864Y90877D01*
X23905Y90883D01*
X27379Y87409D01*
Y84705D01*
X27262Y84656D01*
X26432Y85487D01*
X26250Y85608D01*
X26035Y85651D01*
X23816D01*
X23645Y85875D01*
X23415Y86051D01*
X23147Y86162D01*
X22860Y86199D01*
X22573Y86162D01*
X22305Y86051D01*
X22075Y85875D01*
X21899Y85645D01*
X21788Y85377D01*
X21751Y85090D01*
X21788Y84803D01*
X21899Y84535D01*
X22075Y84305D01*
X22305Y84129D01*
X22573Y84018D01*
X22860Y83981D01*
X23147Y84018D01*
X23415Y84129D01*
X23645Y84305D01*
X23816Y84529D01*
X25803D01*
X26579Y83753D01*
Y71187D01*
X23263Y67871D01*
X21590D01*
X21375Y67828D01*
X21193Y67707D01*
X19923Y66437D01*
X19802Y66255D01*
X19759Y66040D01*
Y65663D01*
X19571Y65519D01*
X19403Y65300D01*
X19297Y65044D01*
X19261Y64770D01*
X19297Y64496D01*
X19403Y64240D01*
X19571Y64021D01*
X19790Y63853D01*
X20046Y63747D01*
X20268Y63718D01*
X20260Y63591D01*
X16742D01*
X11433Y68900D01*
X11251Y69022D01*
X11036Y69065D01*
X6514D01*
X6433Y69171D01*
X6237Y69321D01*
X6010Y69415D01*
X5766Y69447D01*
X5522Y69415D01*
X5294Y69321D01*
X5099Y69171D01*
X4949Y68975D01*
X4855Y68748D01*
X4823Y68504D01*
X4855Y68260D01*
X4949Y68032D01*
X5099Y67837D01*
X5294Y67687D01*
X5522Y67593D01*
X5766Y67561D01*
X6010Y67593D01*
X6237Y67687D01*
X6433Y67837D01*
X6514Y67943D01*
X10804D01*
X15839Y62908D01*
X15790Y62791D01*
X9783D01*
X9639Y62979D01*
X9420Y63147D01*
X9164Y63253D01*
X8890Y63289D01*
X8616Y63253D01*
X8360Y63147D01*
X8141Y62979D01*
X7997Y62791D01*
X7243D01*
X7099Y62979D01*
X6880Y63147D01*
X6624Y63253D01*
X6350Y63289D01*
X6076Y63253D01*
X5820Y63147D01*
X5601Y62979D01*
X5457Y62791D01*
X4703D01*
X4559Y62979D01*
X4340Y63147D01*
X4084Y63253D01*
X3810Y63289D01*
X3536Y63253D01*
X3280Y63147D01*
X3061Y62979D01*
X2893Y62760D01*
X2787Y62504D01*
X2751Y62230D01*
X2787Y61956D01*
X2893Y61700D01*
X3061Y61481D01*
X3280Y61313D01*
X3536Y61207D01*
X3810Y61171D01*
X4084Y61207D01*
X4340Y61313D01*
X4559Y61481D01*
X4703Y61669D01*
X5457D01*
X5601Y61481D01*
X5820Y61313D01*
X6076Y61207D01*
X6350Y61171D01*
X6624Y61207D01*
X6880Y61313D01*
X7099Y61481D01*
X7243Y61669D01*
X7997D01*
X8141Y61481D01*
X8360Y61313D01*
X8616Y61207D01*
X8890Y61171D01*
X9164Y61207D01*
X9420Y61313D01*
X9639Y61481D01*
X9783Y61669D01*
X11504D01*
Y42777D01*
X10395Y41668D01*
X10160Y41699D01*
X9886Y41663D01*
X9630Y41557D01*
X9411Y41389D01*
X9267Y41201D01*
X7852D01*
X7423Y41630D01*
X7459Y41910D01*
X7422Y42197D01*
X7311Y42465D01*
X7135Y42695D01*
X6905Y42871D01*
X6637Y42982D01*
X6350Y43019D01*
X6063Y42982D01*
X5795Y42871D01*
X5565Y42695D01*
X5394Y42471D01*
X4766D01*
X4595Y42695D01*
X4365Y42871D01*
X4097Y42982D01*
X3810Y43019D01*
X3523Y42982D01*
X3255Y42871D01*
X3148Y42788D01*
X3021Y42851D01*
Y44138D01*
X3530Y44647D01*
X3810Y44611D01*
X4097Y44648D01*
X4365Y44759D01*
X4595Y44935D01*
X4766Y45159D01*
X5394D01*
X5565Y44935D01*
X5795Y44759D01*
X6063Y44648D01*
X6350Y44611D01*
X6637Y44648D01*
X6905Y44759D01*
X7135Y44935D01*
X7306Y45159D01*
X7934D01*
X8105Y44935D01*
X8335Y44759D01*
X8603Y44648D01*
X8890Y44611D01*
X9177Y44648D01*
X9445Y44759D01*
X9675Y44935D01*
X9851Y45165D01*
X9962Y45433D01*
X9999Y45720D01*
X9962Y46007D01*
X9851Y46275D01*
X9675Y46505D01*
X9445Y46681D01*
X9177Y46792D01*
X8890Y46829D01*
X8603Y46792D01*
X8335Y46681D01*
X8105Y46505D01*
X7934Y46281D01*
X7306D01*
X7135Y46505D01*
X6905Y46681D01*
X6637Y46792D01*
X6350Y46829D01*
X6063Y46792D01*
X5795Y46681D01*
X5565Y46505D01*
X5394Y46281D01*
X4766D01*
X4595Y46505D01*
X4365Y46681D01*
X4097Y46792D01*
X3810Y46829D01*
X3523Y46792D01*
X3255Y46681D01*
X3025Y46505D01*
X2849Y46275D01*
X2738Y46007D01*
X2701Y45720D01*
X2737Y45440D01*
X2063Y44767D01*
X1958Y44608D01*
X1839Y44626D01*
X1831Y44629D01*
Y47393D01*
X3941Y49503D01*
X5195D01*
X5277Y49397D01*
X5472Y49247D01*
X5700Y49152D01*
X5944Y49120D01*
X6188Y49152D01*
X6415Y49247D01*
X6610Y49397D01*
X6760Y49592D01*
X6855Y49819D01*
X6887Y50063D01*
X6855Y50307D01*
X6760Y50535D01*
X6610Y50730D01*
X6415Y50880D01*
X6188Y50974D01*
X5944Y51006D01*
X5700Y50974D01*
X5472Y50880D01*
X5277Y50730D01*
X5195Y50624D01*
X3708D01*
X3494Y50581D01*
X3312Y50460D01*
X873Y48022D01*
X752Y47840D01*
X709Y47625D01*
Y28575D01*
X752Y28360D01*
X873Y28178D01*
X3413Y25638D01*
X3595Y25517D01*
X3810Y25474D01*
X9928D01*
X11504Y23898D01*
Y19993D01*
X11246Y19735D01*
X11138Y19807D01*
X11232Y20033D01*
X11243Y20120D01*
X10360D01*
Y19237D01*
X10447Y19248D01*
X10673Y19342D01*
X10745Y19234D01*
X10487Y18976D01*
X5715D01*
X5500Y18933D01*
X5318Y18812D01*
X553Y14046D01*
X435Y14094D01*
Y21222D01*
X559Y21253D01*
X578Y21216D01*
X866Y20866D01*
X1216Y20578D01*
X1616Y20365D01*
X1843Y20296D01*
X1852Y20160D01*
X1613Y19977D01*
X1404Y19706D01*
X1273Y19389D01*
X1229Y19050D01*
X1273Y18711D01*
X1404Y18394D01*
X1613Y18123D01*
X1884Y17914D01*
X2201Y17783D01*
X2540Y17739D01*
X2879Y17783D01*
X3196Y17914D01*
X3467Y18123D01*
X3676Y18394D01*
X3715Y18489D01*
X4445D01*
X4660Y18532D01*
X4842Y18653D01*
X5947Y19759D01*
X6664D01*
X6835Y19535D01*
X7065Y19359D01*
X7333Y19248D01*
X7620Y19211D01*
X7907Y19248D01*
X8175Y19359D01*
X8405Y19535D01*
X8581Y19765D01*
X8692Y20033D01*
X8729Y20320D01*
X8692Y20607D01*
X8581Y20875D01*
X8405Y21105D01*
X8175Y21281D01*
X7907Y21392D01*
X7620Y21429D01*
X7333Y21392D01*
X7065Y21281D01*
X6835Y21105D01*
X6664Y20881D01*
X5715D01*
X5500Y20838D01*
X5318Y20717D01*
X4213Y19611D01*
X3715D01*
X3676Y19706D01*
X3467Y19977D01*
X3206Y20178D01*
X3199Y20256D01*
X3202Y20309D01*
X3384Y20365D01*
X3784Y20578D01*
X4134Y20866D01*
X4422Y21216D01*
X4635Y21616D01*
X4767Y22049D01*
X4811Y22500D01*
X4767Y22951D01*
X4635Y23384D01*
X4422Y23784D01*
X4134Y24134D01*
X3784Y24422D01*
X3384Y24635D01*
X2951Y24767D01*
X2500Y24811D01*
X2049Y24767D01*
X1616Y24635D01*
X1216Y24422D01*
X866Y24134D01*
X578Y23784D01*
X559Y23747D01*
X435Y23778D01*
Y71484D01*
X562Y71546D01*
X715Y71429D01*
X983Y71318D01*
X1070Y71307D01*
Y72390D01*
Y73473D01*
X983Y73462D01*
X715Y73351D01*
X562Y73234D01*
X435Y73296D01*
Y74024D01*
X562Y74086D01*
X715Y73969D01*
X983Y73858D01*
X1270Y73821D01*
X1557Y73858D01*
X1825Y73969D01*
X2055Y74145D01*
X2226Y74369D01*
X5715D01*
X5930Y74412D01*
X6112Y74533D01*
X7382Y75803D01*
X7503Y75985D01*
X7546Y76200D01*
Y80413D01*
X9122Y81989D01*
X10474D01*
X10645Y81765D01*
X10875Y81589D01*
X11143Y81478D01*
X11430Y81441D01*
X11717Y81478D01*
X11985Y81589D01*
X12215Y81765D01*
X12391Y81995D01*
X12502Y82263D01*
X12539Y82550D01*
X12503Y82830D01*
X13085Y83412D01*
X14106D01*
X14187Y83313D01*
X14184Y83300D01*
Y81800D01*
X14207Y81683D01*
X14274Y81584D01*
X14373Y81517D01*
X14490Y81494D01*
X15990D01*
X16107Y81517D01*
X16206Y81584D01*
X16273Y81683D01*
X16296Y81800D01*
Y83300D01*
X16293Y83313D01*
X16374Y83412D01*
X16992D01*
X17020Y83285D01*
X16863Y83080D01*
X16757Y82824D01*
X16721Y82550D01*
X16757Y82276D01*
X16863Y82020D01*
X17031Y81801D01*
X17250Y81633D01*
X17506Y81527D01*
X17780Y81491D01*
X18054Y81527D01*
X18310Y81633D01*
X18529Y81801D01*
X18697Y82020D01*
X18803Y82276D01*
X18839Y82550D01*
X18803Y82824D01*
X18697Y83080D01*
X18574Y83240D01*
X18620Y83374D01*
X18692Y83385D01*
X20572Y81505D01*
Y79031D01*
X20466Y78950D01*
X20316Y78754D01*
X20222Y78527D01*
X20190Y78283D01*
X20222Y78039D01*
X20316Y77811D01*
X20466Y77616D01*
X20661Y77466D01*
X20889Y77372D01*
X21133Y77340D01*
X21377Y77372D01*
X21604Y77466D01*
X21634Y77489D01*
X21757Y77423D01*
X21788Y77183D01*
X21899Y76915D01*
X22075Y76685D01*
X22305Y76509D01*
X22573Y76398D01*
X22860Y76361D01*
X23147Y76398D01*
X23415Y76509D01*
X23645Y76685D01*
X23821Y76915D01*
X23932Y77183D01*
X23969Y77470D01*
X23932Y77757D01*
X23821Y78025D01*
X23645Y78255D01*
X23415Y78431D01*
X23147Y78542D01*
X22860Y78579D01*
X22573Y78542D01*
X22305Y78431D01*
X22196Y78347D01*
X22060Y78403D01*
X22044Y78527D01*
X21950Y78754D01*
X21800Y78950D01*
X21694Y79031D01*
Y79620D01*
X21821Y79645D01*
X21899Y79455D01*
X22075Y79225D01*
X22305Y79049D01*
X22573Y78938D01*
X22860Y78901D01*
X23147Y78938D01*
X23415Y79049D01*
X23645Y79225D01*
X23821Y79455D01*
X23932Y79723D01*
X23969Y80010D01*
X23932Y80297D01*
X23821Y80565D01*
X23645Y80795D01*
X23415Y80971D01*
X23147Y81082D01*
X22860Y81119D01*
X22573Y81082D01*
X22305Y80971D01*
X22075Y80795D01*
X21899Y80565D01*
X21821Y80375D01*
X21694Y80400D01*
Y81737D01*
X21651Y81952D01*
X21529Y82134D01*
X19294Y84369D01*
X19112Y84490D01*
X19075Y84498D01*
X19033Y84636D01*
X21352Y86954D01*
X21473Y87136D01*
X21516Y87351D01*
Y90711D01*
X21764Y90959D01*
X21919D01*
X21982Y90832D01*
D02*
G37*
G36*
X6784Y17737D02*
X5318Y16272D01*
X5197Y16090D01*
X5154Y15875D01*
Y13335D01*
X5197Y13120D01*
X5318Y12938D01*
X6588Y11668D01*
X6770Y11547D01*
X6985Y11504D01*
X12700D01*
X12915Y11547D01*
X13097Y11668D01*
X14710Y13282D01*
X23898D01*
X26139Y11041D01*
X26090Y10924D01*
X23931D01*
X23895Y11199D01*
X23788Y11458D01*
X23617Y11679D01*
X23396Y11850D01*
X23137Y11957D01*
X22860Y11993D01*
X22583Y11957D01*
X22324Y11850D01*
X22103Y11679D01*
X21932Y11458D01*
X21825Y11199D01*
X21789Y10922D01*
Y9398D01*
X21825Y9121D01*
X21932Y8862D01*
X22103Y8641D01*
X22324Y8470D01*
X22583Y8363D01*
X22860Y8327D01*
X23137Y8363D01*
X23396Y8470D01*
X23617Y8641D01*
X23788Y8862D01*
X23895Y9121D01*
X23931Y9398D01*
Y9802D01*
X27125D01*
X27165Y9682D01*
X27155Y9675D01*
X26979Y9445D01*
X26868Y9177D01*
X26857Y9090D01*
X29023D01*
X29012Y9177D01*
X28901Y9445D01*
X28730Y9667D01*
X28826Y9751D01*
X29407Y9170D01*
X29371Y8890D01*
X29408Y8603D01*
X29519Y8335D01*
X29695Y8105D01*
X29925Y7929D01*
X30193Y7818D01*
X30480Y7781D01*
X30767Y7818D01*
X31035Y7929D01*
X31265Y8105D01*
X31441Y8335D01*
X31552Y8603D01*
X31589Y8890D01*
X31552Y9177D01*
X31441Y9445D01*
X31265Y9675D01*
X31035Y9851D01*
X30767Y9962D01*
X30480Y9999D01*
X30200Y9963D01*
X29538Y10625D01*
X29587Y10742D01*
X31645D01*
X32294Y10093D01*
Y8523D01*
X30657Y6885D01*
X19685D01*
X19470Y6843D01*
X19288Y6721D01*
X18653Y6086D01*
X18532Y5904D01*
X18489Y5690D01*
Y5480D01*
X18293Y5329D01*
X18122Y5108D01*
X18015Y4849D01*
X17979Y4572D01*
Y3048D01*
X18015Y2771D01*
X18122Y2512D01*
X18293Y2291D01*
X18514Y2120D01*
X18773Y2013D01*
X19050Y1977D01*
X19327Y2013D01*
X19586Y2120D01*
X19807Y2291D01*
X19978Y2512D01*
X20085Y2771D01*
X20121Y3048D01*
Y4572D01*
X20085Y4849D01*
X19978Y5108D01*
X19807Y5329D01*
X19700Y5412D01*
X19692Y5538D01*
X19917Y5764D01*
X21534D01*
X21542Y5637D01*
X21515Y5633D01*
X21313Y5607D01*
X21054Y5500D01*
X20833Y5329D01*
X20662Y5108D01*
X20555Y4849D01*
X20519Y4572D01*
Y3048D01*
X20555Y2771D01*
X20662Y2512D01*
X20833Y2291D01*
X21054Y2120D01*
X21313Y2013D01*
X21590Y1977D01*
X21867Y2013D01*
X22126Y2120D01*
X22347Y2291D01*
X22518Y2512D01*
X22625Y2771D01*
X22661Y3048D01*
Y4572D01*
X22625Y4849D01*
X22518Y5108D01*
X22347Y5329D01*
X22126Y5500D01*
X21867Y5607D01*
X21665Y5633D01*
X21638Y5637D01*
X21646Y5764D01*
X24074D01*
X24082Y5637D01*
X24055Y5633D01*
X23853Y5607D01*
X23594Y5500D01*
X23373Y5329D01*
X23202Y5108D01*
X23095Y4849D01*
X23059Y4572D01*
Y3048D01*
X23095Y2771D01*
X23202Y2512D01*
X23373Y2291D01*
X23594Y2120D01*
X23853Y2013D01*
X24130Y1977D01*
X24407Y2013D01*
X24666Y2120D01*
X24887Y2291D01*
X25058Y2512D01*
X25165Y2771D01*
X25201Y3048D01*
Y4572D01*
X25165Y4849D01*
X25058Y5108D01*
X24887Y5329D01*
X24666Y5500D01*
X24407Y5607D01*
X24205Y5633D01*
X24178Y5637D01*
X24186Y5764D01*
X26614D01*
X26622Y5637D01*
X26595Y5633D01*
X26393Y5607D01*
X26134Y5500D01*
X25913Y5329D01*
X25742Y5108D01*
X25635Y4849D01*
X25599Y4572D01*
Y3048D01*
X25635Y2771D01*
X25742Y2512D01*
X25913Y2291D01*
X26134Y2120D01*
X26393Y2013D01*
X26670Y1977D01*
X26947Y2013D01*
X27206Y2120D01*
X27427Y2291D01*
X27598Y2512D01*
X27705Y2771D01*
X27741Y3048D01*
Y4572D01*
X27705Y4849D01*
X27598Y5108D01*
X27427Y5329D01*
X27206Y5500D01*
X26947Y5607D01*
X26745Y5633D01*
X26718Y5637D01*
X26726Y5764D01*
X29154D01*
X29162Y5637D01*
X28933Y5607D01*
X28674Y5500D01*
X28453Y5329D01*
X28282Y5108D01*
X28175Y4849D01*
X28139Y4572D01*
Y3048D01*
X28175Y2771D01*
X28282Y2512D01*
X28453Y2291D01*
X28674Y2120D01*
X28724Y2100D01*
X28813Y1966D01*
X29187Y1593D01*
X29138Y1475D01*
X10392D01*
X9643Y2224D01*
X9647Y2291D01*
X9818Y2512D01*
X9925Y2771D01*
X9961Y3048D01*
Y4572D01*
X9925Y4849D01*
X9818Y5108D01*
X9647Y5329D01*
X9426Y5500D01*
X9167Y5607D01*
X8890Y5643D01*
X8613Y5607D01*
X8354Y5500D01*
X8133Y5329D01*
X7962Y5108D01*
X7855Y4849D01*
X7819Y4572D01*
Y3048D01*
X7855Y2771D01*
X7962Y2512D01*
X8133Y2291D01*
X8340Y2132D01*
X8372Y1970D01*
X8493Y1788D01*
X9719Y562D01*
X9666Y435D01*
X435D01*
Y7538D01*
X553Y7586D01*
X1906Y6233D01*
X2088Y6111D01*
X2303Y6069D01*
X9928D01*
X10670Y5326D01*
X10502Y5108D01*
X10395Y4849D01*
X10359Y4572D01*
Y3048D01*
X10395Y2771D01*
X10502Y2512D01*
X10673Y2291D01*
X10894Y2120D01*
X11153Y2013D01*
X11430Y1977D01*
X11707Y2013D01*
X11966Y2120D01*
X12187Y2291D01*
X12358Y2512D01*
X12465Y2771D01*
X12501Y3048D01*
Y4572D01*
X12465Y4849D01*
X12358Y5108D01*
X12187Y5329D01*
X11966Y5500D01*
X11963Y5501D01*
X11948Y5574D01*
X11827Y5756D01*
X10557Y7026D01*
X10375Y7147D01*
X10160Y7190D01*
X4897D01*
X4872Y7317D01*
X4893Y7326D01*
X5079Y7469D01*
X5222Y7654D01*
X5311Y7871D01*
X5325Y7976D01*
X4445D01*
Y8103D01*
X4318D01*
Y8983D01*
X4213Y8969D01*
X3997Y8879D01*
X3963Y8853D01*
X3847Y8924D01*
X3807Y9229D01*
X3676Y9546D01*
X3467Y9817D01*
X3196Y10026D01*
X2879Y10157D01*
X2540Y10201D01*
X2201Y10157D01*
X1884Y10026D01*
X1613Y9817D01*
X1404Y9546D01*
X1365Y9450D01*
X1238Y9475D01*
Y13145D01*
X5947Y17854D01*
X6735D01*
X6784Y17737D01*
D02*
G37*
G36*
X52008Y65944D02*
Y28896D01*
X47863Y24751D01*
X47803Y24745D01*
X47398Y25150D01*
Y31561D01*
X47504Y31642D01*
X47654Y31837D01*
X47749Y32065D01*
X47781Y32309D01*
X47749Y32553D01*
X47654Y32780D01*
X47504Y32976D01*
X47309Y33126D01*
X47082Y33220D01*
X46838Y33252D01*
X46594Y33220D01*
X46366Y33126D01*
X46171Y32976D01*
X46021Y32780D01*
X45927Y32553D01*
X45895Y32309D01*
X45927Y32065D01*
X46021Y31837D01*
X46171Y31642D01*
X46277Y31561D01*
Y26509D01*
X46163Y26452D01*
X46092Y26507D01*
X45876Y26596D01*
X45771Y26610D01*
Y25730D01*
Y24850D01*
X45876Y24864D01*
X46092Y24954D01*
X46163Y25008D01*
X46277Y24952D01*
Y24917D01*
X46320Y24703D01*
X46441Y24521D01*
X46899Y24063D01*
Y16300D01*
X43860Y13261D01*
X30103D01*
X29959Y13449D01*
X29740Y13617D01*
X29484Y13723D01*
X29210Y13759D01*
X28936Y13723D01*
X28680Y13617D01*
X28461Y13449D01*
X28293Y13230D01*
X28187Y12974D01*
X28151Y12700D01*
X28187Y12426D01*
X28293Y12170D01*
X28431Y11991D01*
X28378Y11864D01*
X26902D01*
X24527Y14240D01*
X24345Y14361D01*
X24130Y14404D01*
X14478D01*
X14263Y14361D01*
X14081Y14240D01*
X12468Y12626D01*
X7217D01*
X6276Y13567D01*
Y15643D01*
X7687Y17054D01*
X11050D01*
X11265Y17097D01*
X11447Y17218D01*
X13262Y19033D01*
X13383Y19215D01*
X13426Y19430D01*
Y22793D01*
X16107Y25474D01*
X32385D01*
X32600Y25517D01*
X32782Y25638D01*
X38497Y31353D01*
X38618Y31535D01*
X38661Y31750D01*
Y36830D01*
X38618Y37045D01*
X38497Y37227D01*
X36121Y39602D01*
Y39747D01*
X36309Y39891D01*
X36477Y40110D01*
X36583Y40366D01*
X36619Y40640D01*
X36583Y40914D01*
X36477Y41170D01*
X36309Y41389D01*
X36090Y41557D01*
X35834Y41663D01*
X35560Y41699D01*
X35286Y41663D01*
X35030Y41557D01*
X34811Y41389D01*
X34643Y41170D01*
X34537Y40914D01*
X34501Y40640D01*
X34537Y40366D01*
X34643Y40110D01*
X34811Y39891D01*
X34999Y39747D01*
Y39370D01*
X35042Y39155D01*
X35163Y38973D01*
X36421Y37716D01*
X36337Y37620D01*
X36256Y37682D01*
X36115Y37791D01*
X35847Y37902D01*
X35560Y37939D01*
X35273Y37902D01*
X35005Y37791D01*
X34775Y37615D01*
X34604Y37391D01*
X31115D01*
X30900Y37348D01*
X30718Y37227D01*
X26399Y32907D01*
X26379Y32903D01*
X26197Y32782D01*
X26076Y32600D01*
X26033Y32385D01*
Y28612D01*
X25927Y28531D01*
X25777Y28335D01*
X25683Y28108D01*
X25651Y27864D01*
X25683Y27620D01*
X25777Y27392D01*
X25927Y27197D01*
X26122Y27047D01*
X26350Y26953D01*
X26594Y26921D01*
X26838Y26953D01*
X27065Y27047D01*
X27261Y27197D01*
X27411Y27392D01*
X27505Y27620D01*
X27537Y27864D01*
X27505Y28108D01*
X27411Y28335D01*
X27261Y28531D01*
X27155Y28612D01*
Y32077D01*
X31347Y36269D01*
X34604D01*
X34775Y36045D01*
X35005Y35869D01*
X35273Y35758D01*
X35560Y35721D01*
X35847Y35758D01*
X36115Y35869D01*
X36345Y36045D01*
X36521Y36275D01*
X36632Y36543D01*
X36669Y36830D01*
X36632Y37117D01*
X36521Y37385D01*
X36412Y37526D01*
X36350Y37607D01*
X36446Y37691D01*
X37539Y36598D01*
Y31982D01*
X32153Y26596D01*
X15875D01*
X15660Y26553D01*
X15478Y26432D01*
X12743Y23696D01*
X12626Y23745D01*
Y24130D01*
X12583Y24345D01*
X12462Y24527D01*
X10557Y26432D01*
X10375Y26553D01*
X10160Y26596D01*
X4042D01*
X1831Y28807D01*
Y39927D01*
X1839Y39931D01*
X1958Y39948D01*
X2063Y39790D01*
X2931Y38923D01*
X3113Y38801D01*
X3327Y38758D01*
X11379D01*
X11594Y38801D01*
X11776Y38923D01*
X12465Y39612D01*
X12700Y39581D01*
X12974Y39617D01*
X13230Y39723D01*
X13449Y39891D01*
X13593Y40079D01*
X14347D01*
X14491Y39891D01*
X14710Y39723D01*
X14966Y39617D01*
X15240Y39581D01*
X15475Y39612D01*
X16266Y38821D01*
X16448Y38700D01*
X16662Y38657D01*
X21438D01*
X21652Y38700D01*
X21834Y38821D01*
X23244Y40231D01*
X23339Y40147D01*
X23278Y40067D01*
X23169Y39925D01*
X23058Y39657D01*
X23047Y39570D01*
X23930D01*
Y40453D01*
X23843Y40442D01*
X23575Y40331D01*
X23433Y40222D01*
X23353Y40161D01*
X23269Y40256D01*
X23817Y40804D01*
X24930D01*
X25047Y40827D01*
X25146Y40894D01*
X25213Y40993D01*
X25236Y41110D01*
Y42710D01*
X25213Y42827D01*
X25146Y42926D01*
X25047Y42993D01*
X24930Y43016D01*
X23330D01*
X23213Y42993D01*
X23114Y42926D01*
X23047Y42827D01*
X23024Y42710D01*
Y41597D01*
X21205Y39778D01*
X18568D01*
X18540Y39905D01*
X18697Y40110D01*
X18803Y40366D01*
X18839Y40640D01*
X18803Y40914D01*
X18697Y41170D01*
X18529Y41389D01*
X18310Y41557D01*
X18054Y41663D01*
X17780Y41699D01*
X17506Y41663D01*
X17250Y41557D01*
X17031Y41389D01*
X16863Y41170D01*
X16757Y40914D01*
X16721Y40640D01*
X16757Y40366D01*
X16863Y40110D01*
X16986Y39950D01*
X16940Y39816D01*
X16868Y39805D01*
X16268Y40405D01*
X16299Y40640D01*
X16263Y40914D01*
X16157Y41170D01*
X15989Y41389D01*
X15770Y41557D01*
X15514Y41663D01*
X15240Y41699D01*
X14966Y41663D01*
X14710Y41557D01*
X14491Y41389D01*
X14347Y41201D01*
X13593D01*
X13449Y41389D01*
X13230Y41557D01*
X12974Y41663D01*
X12700Y41699D01*
X12426Y41663D01*
X12170Y41557D01*
X11951Y41389D01*
X11783Y41170D01*
X11677Y40914D01*
X11641Y40640D01*
X11672Y40405D01*
X11176Y39909D01*
X11081Y39920D01*
X11025Y40043D01*
X11077Y40110D01*
X11183Y40366D01*
X11219Y40640D01*
X11188Y40875D01*
X12462Y42148D01*
X12583Y42330D01*
X12626Y42545D01*
Y61669D01*
X27940D01*
X28155Y61712D01*
X28337Y61833D01*
X30245Y63742D01*
X30480Y63711D01*
X30754Y63747D01*
X31010Y63853D01*
X31229Y64021D01*
X31397Y64240D01*
X31503Y64496D01*
X31539Y64770D01*
X31508Y65005D01*
X33087Y66584D01*
X36763D01*
X37703Y65643D01*
X37885Y65522D01*
X38100Y65479D01*
X38414D01*
X38585Y65255D01*
X38815Y65079D01*
X39083Y64968D01*
X39370Y64931D01*
X39657Y64968D01*
X39925Y65079D01*
X40155Y65255D01*
X40326Y65479D01*
X40954D01*
X41125Y65255D01*
X41355Y65079D01*
X41623Y64968D01*
X41910Y64931D01*
X42197Y64968D01*
X42465Y65079D01*
X42695Y65255D01*
X42866Y65479D01*
X43494D01*
X43665Y65255D01*
X43895Y65079D01*
X44163Y64968D01*
X44450Y64931D01*
X44737Y64968D01*
X45005Y65079D01*
X45235Y65255D01*
X45411Y65485D01*
X45522Y65753D01*
X45559Y66040D01*
X45522Y66327D01*
X45411Y66595D01*
X45235Y66825D01*
X45005Y67001D01*
X44737Y67112D01*
X44450Y67149D01*
X44163Y67112D01*
X43895Y67001D01*
X43665Y66825D01*
X43494Y66601D01*
X42866D01*
X42695Y66825D01*
X42465Y67001D01*
X42197Y67112D01*
X41910Y67149D01*
X41623Y67112D01*
X41355Y67001D01*
X41125Y66825D01*
X40954Y66601D01*
X40326D01*
X40155Y66825D01*
X39925Y67001D01*
X39657Y67112D01*
X39370Y67149D01*
X39083Y67112D01*
X38815Y67001D01*
X38585Y66825D01*
X38443Y66639D01*
X38301Y66632D01*
X37666Y67267D01*
X37715Y67384D01*
X50568D01*
X52008Y65944D01*
D02*
G37*
G36*
X44969Y80070D02*
X44897Y79962D01*
X44789Y80007D01*
X44650Y80025D01*
Y78940D01*
X45735D01*
X45717Y79079D01*
X45672Y79187D01*
X45780Y79259D01*
X52808Y72230D01*
Y66896D01*
X52691Y66847D01*
X51197Y68342D01*
X51015Y68463D01*
X50800Y68506D01*
X31982D01*
X29301Y71187D01*
Y78673D01*
X30077Y79449D01*
X32064D01*
X32235Y79225D01*
X32465Y79049D01*
X32733Y78938D01*
X33020Y78901D01*
X33307Y78938D01*
X33575Y79049D01*
X33579Y79053D01*
X33717Y78998D01*
X33722Y78965D01*
X33300Y78543D01*
X33020Y78579D01*
X32733Y78542D01*
X32465Y78431D01*
X32235Y78255D01*
X32059Y78025D01*
X31948Y77757D01*
X31911Y77470D01*
X31948Y77183D01*
X32059Y76915D01*
X32235Y76685D01*
X32465Y76509D01*
X32733Y76398D01*
X33020Y76361D01*
X33307Y76398D01*
X33575Y76509D01*
X33797Y76680D01*
X33881Y76584D01*
X33300Y76003D01*
X33020Y76039D01*
X32733Y76002D01*
X32465Y75891D01*
X32235Y75715D01*
X32059Y75485D01*
X31948Y75217D01*
X31911Y74930D01*
X31948Y74643D01*
X32059Y74375D01*
X32235Y74145D01*
X32465Y73969D01*
X32733Y73858D01*
X33020Y73821D01*
X33307Y73858D01*
X33575Y73969D01*
X33805Y74145D01*
X33981Y74375D01*
X34092Y74643D01*
X34129Y74930D01*
X34093Y75210D01*
X35567Y76683D01*
X35688Y76865D01*
X35709Y76970D01*
X35841Y76983D01*
X35869Y76915D01*
X36045Y76685D01*
X36269Y76514D01*
Y76200D01*
X36312Y75985D01*
X36433Y75803D01*
X37539Y74698D01*
Y72951D01*
X33976D01*
X33805Y73175D01*
X33575Y73351D01*
X33307Y73462D01*
X33020Y73499D01*
X32733Y73462D01*
X32465Y73351D01*
X32235Y73175D01*
X32059Y72945D01*
X31948Y72677D01*
X31911Y72390D01*
X31948Y72103D01*
X32059Y71835D01*
X32235Y71605D01*
X32465Y71429D01*
X32733Y71318D01*
X33020Y71281D01*
X33307Y71318D01*
X33575Y71429D01*
X33805Y71605D01*
X33976Y71829D01*
X47690D01*
X47771Y71723D01*
X47966Y71573D01*
X48194Y71479D01*
X48438Y71447D01*
X48682Y71479D01*
X48909Y71573D01*
X49105Y71723D01*
X49255Y71918D01*
X49349Y72146D01*
X49381Y72390D01*
X49349Y72634D01*
X49255Y72862D01*
X49105Y73057D01*
X48909Y73207D01*
X48682Y73301D01*
X48438Y73333D01*
X48194Y73301D01*
X47966Y73207D01*
X47771Y73057D01*
X47690Y72951D01*
X38661D01*
Y74930D01*
X38618Y75145D01*
X38497Y75327D01*
X37422Y76401D01*
X37429Y76543D01*
X37615Y76685D01*
X37791Y76915D01*
X37902Y77183D01*
X37939Y77470D01*
X37902Y77757D01*
X37791Y78025D01*
X37622Y78245D01*
X37624Y78256D01*
X37730Y78338D01*
X37813Y78303D01*
X38100Y78266D01*
X38387Y78303D01*
X38470Y78338D01*
X38576Y78256D01*
X38578Y78245D01*
X38409Y78025D01*
X38298Y77757D01*
X38287Y77670D01*
X39170D01*
Y78553D01*
X39083Y78542D01*
X39000Y78507D01*
X38894Y78589D01*
X38892Y78600D01*
X39061Y78820D01*
X39172Y79088D01*
X39209Y79375D01*
X39172Y79662D01*
X39061Y79930D01*
X38962Y80059D01*
X39024Y80186D01*
X44853D01*
X44969Y80070D01*
D02*
G37*
G36*
X51253Y99441D02*
X51216Y99422D01*
X50866Y99134D01*
X50578Y98784D01*
X50365Y98384D01*
X50233Y97951D01*
X50189Y97500D01*
X50233Y97049D01*
X50365Y96616D01*
X50578Y96216D01*
X50866Y95866D01*
X51216Y95578D01*
X51616Y95365D01*
X52049Y95233D01*
X52500Y95189D01*
X52951Y95233D01*
X53384Y95365D01*
X53784Y95578D01*
X54134Y95866D01*
X54422Y96216D01*
X54441Y96253D01*
X54565Y96222D01*
Y90268D01*
X54438Y90260D01*
X54412Y90457D01*
X54301Y90725D01*
X54125Y90955D01*
X53895Y91131D01*
X53627Y91242D01*
X53340Y91279D01*
X53053Y91242D01*
X52785Y91131D01*
X52555Y90955D01*
X52379Y90725D01*
X52268Y90457D01*
X52231Y90170D01*
X52268Y89883D01*
X52379Y89615D01*
X52555Y89385D01*
X52785Y89209D01*
X53053Y89098D01*
X53340Y89061D01*
X53627Y89098D01*
X53895Y89209D01*
X54125Y89385D01*
X54301Y89615D01*
X54412Y89883D01*
X54438Y90080D01*
X54565Y90072D01*
Y87728D01*
X54438Y87720D01*
X54412Y87917D01*
X54301Y88185D01*
X54125Y88415D01*
X53895Y88591D01*
X53627Y88702D01*
X53340Y88739D01*
X53053Y88702D01*
X52785Y88591D01*
X52555Y88415D01*
X52379Y88185D01*
X52268Y87917D01*
X52231Y87630D01*
X52267Y87350D01*
X50568Y85651D01*
X48260D01*
X48045Y85608D01*
X47863Y85487D01*
X46746Y84369D01*
X46624Y84187D01*
X46582Y83972D01*
Y82181D01*
X46476Y82099D01*
X46326Y81904D01*
X46231Y81676D01*
X46199Y81432D01*
X46231Y81188D01*
X46326Y80961D01*
X46476Y80766D01*
X46671Y80616D01*
X46898Y80521D01*
X47142Y80489D01*
X47386Y80521D01*
X47614Y80616D01*
X47809Y80766D01*
X47959Y80961D01*
X48053Y81188D01*
X48085Y81432D01*
X48053Y81676D01*
X47959Y81904D01*
X47809Y82099D01*
X47703Y82181D01*
Y83740D01*
X48492Y84529D01*
X50800D01*
X51015Y84572D01*
X51197Y84693D01*
X53060Y86557D01*
X53340Y86521D01*
X53627Y86558D01*
X53895Y86669D01*
X54125Y86845D01*
X54301Y87075D01*
X54412Y87343D01*
X54438Y87540D01*
X54565Y87532D01*
Y82648D01*
X54438Y82640D01*
X54412Y82837D01*
X54301Y83105D01*
X54125Y83335D01*
X53895Y83511D01*
X53627Y83622D01*
X53340Y83659D01*
X53053Y83622D01*
X52785Y83511D01*
X52555Y83335D01*
X52379Y83105D01*
X52268Y82837D01*
X52231Y82550D01*
X52268Y82263D01*
X52379Y81995D01*
X52555Y81765D01*
X52785Y81589D01*
X53053Y81478D01*
X53340Y81441D01*
X53627Y81478D01*
X53895Y81589D01*
X54125Y81765D01*
X54301Y81995D01*
X54412Y82263D01*
X54438Y82460D01*
X54565Y82452D01*
Y80108D01*
X54438Y80100D01*
X54412Y80297D01*
X54301Y80565D01*
X54125Y80795D01*
X53895Y80971D01*
X53627Y81082D01*
X53340Y81119D01*
X53053Y81082D01*
X52785Y80971D01*
X52555Y80795D01*
X52379Y80565D01*
X52268Y80297D01*
X52231Y80010D01*
X52268Y79723D01*
X52379Y79455D01*
X52555Y79225D01*
X52785Y79049D01*
X53053Y78938D01*
X53340Y78901D01*
X53627Y78938D01*
X53895Y79049D01*
X54125Y79225D01*
X54301Y79455D01*
X54412Y79723D01*
X54438Y79920D01*
X54565Y79912D01*
Y23778D01*
X54441Y23747D01*
X54422Y23784D01*
X54134Y24134D01*
X53784Y24422D01*
X53384Y24635D01*
X52951Y24767D01*
X52500Y24811D01*
X52049Y24767D01*
X51616Y24635D01*
X51216Y24422D01*
X50866Y24134D01*
X50578Y23784D01*
X50365Y23384D01*
X50233Y22951D01*
X50189Y22500D01*
X50233Y22049D01*
X50365Y21616D01*
X50578Y21216D01*
X50866Y20866D01*
X51216Y20578D01*
X51616Y20365D01*
X52049Y20233D01*
X52500Y20189D01*
X52951Y20233D01*
X53384Y20365D01*
X53784Y20578D01*
X54134Y20866D01*
X54422Y21216D01*
X54441Y21253D01*
X54565Y21222D01*
Y435D01*
X46214D01*
X46161Y562D01*
X47387Y1788D01*
X47508Y1970D01*
X47540Y2132D01*
X47747Y2291D01*
X47918Y2512D01*
X48025Y2771D01*
X48061Y3048D01*
Y4572D01*
X48025Y4849D01*
X47918Y5108D01*
X47747Y5329D01*
X47526Y5500D01*
X47267Y5607D01*
X46990Y5643D01*
X46713Y5607D01*
X46454Y5500D01*
X46233Y5329D01*
X46062Y5108D01*
X45955Y4849D01*
X45919Y4572D01*
Y3048D01*
X45955Y2771D01*
X46062Y2512D01*
X46233Y2291D01*
X46237Y2224D01*
X45488Y1475D01*
X44522D01*
X44473Y1593D01*
X44847Y1966D01*
X44936Y2100D01*
X44986Y2120D01*
X45207Y2291D01*
X45378Y2512D01*
X45485Y2771D01*
X45521Y3048D01*
Y4572D01*
X45485Y4849D01*
X45378Y5108D01*
X45207Y5329D01*
X44986Y5500D01*
X44727Y5607D01*
X44450Y5643D01*
X44173Y5607D01*
X43914Y5500D01*
X43693Y5329D01*
X43522Y5108D01*
X43415Y4849D01*
X43379Y4572D01*
Y3048D01*
X43415Y2771D01*
X43522Y2512D01*
X43604Y2406D01*
X43534Y2288D01*
X42826D01*
X42763Y2415D01*
X42838Y2512D01*
X42945Y2771D01*
X42981Y3048D01*
Y4572D01*
X42945Y4849D01*
X42838Y5108D01*
X42667Y5329D01*
X42446Y5500D01*
X42187Y5607D01*
X41910Y5643D01*
X41633Y5607D01*
X41374Y5500D01*
X41153Y5329D01*
X40982Y5108D01*
X40875Y4849D01*
X40839Y4572D01*
Y3048D01*
X40875Y2771D01*
X40982Y2512D01*
X41057Y2415D01*
X40994Y2288D01*
X37746D01*
X37683Y2415D01*
X37758Y2512D01*
X37865Y2771D01*
X37901Y3048D01*
Y4572D01*
X37865Y4849D01*
X37758Y5108D01*
X37587Y5329D01*
X37391Y5480D01*
Y9293D01*
X38637Y10539D01*
X44755D01*
X44970Y10582D01*
X45152Y10703D01*
X49571Y15123D01*
X49692Y15305D01*
X49735Y15519D01*
Y23898D01*
X53766Y27928D01*
X53887Y28110D01*
X53930Y28325D01*
Y72462D01*
X53887Y72677D01*
X53766Y72859D01*
X45482Y81143D01*
X45300Y81265D01*
X45085Y81307D01*
X35636D01*
X35422Y81265D01*
X35240Y81143D01*
X34228Y80132D01*
X34108Y80173D01*
X34092Y80297D01*
X33981Y80565D01*
X33805Y80795D01*
X33575Y80971D01*
X33307Y81082D01*
X33020Y81119D01*
X32733Y81082D01*
X32465Y80971D01*
X32235Y80795D01*
X32064Y80571D01*
X29845D01*
X29630Y80528D01*
X29448Y80407D01*
X28618Y79576D01*
X28501Y79625D01*
Y87642D01*
X28458Y87856D01*
X28337Y88038D01*
X24458Y91917D01*
X24276Y92038D01*
X24062Y92081D01*
X21531D01*
X21317Y92038D01*
X21135Y91917D01*
X20558Y91340D01*
X20437Y91158D01*
X20394Y90944D01*
Y87583D01*
X18994Y86183D01*
X18874Y86242D01*
X18889Y86360D01*
X18852Y86647D01*
X18741Y86915D01*
X18565Y87145D01*
X18335Y87321D01*
X18067Y87432D01*
X17980Y87443D01*
Y86360D01*
X17780D01*
Y86160D01*
X16697D01*
X16708Y86073D01*
X16819Y85805D01*
X16857Y85756D01*
X16802Y85619D01*
X16778Y85615D01*
X16313Y86080D01*
X16349Y86360D01*
X16312Y86647D01*
X16201Y86915D01*
X16025Y87145D01*
X15795Y87321D01*
X15527Y87432D01*
X15240Y87469D01*
X14953Y87432D01*
X14685Y87321D01*
X14455Y87145D01*
X14279Y86915D01*
X14168Y86647D01*
X14131Y86360D01*
X14168Y86073D01*
X14279Y85805D01*
X14455Y85575D01*
X14685Y85399D01*
X14953Y85288D01*
X15240Y85251D01*
X15520Y85287D01*
X16147Y84660D01*
X16094Y84533D01*
X12852D01*
X12638Y84490D01*
X12456Y84369D01*
X12316Y84229D01*
X12220Y84313D01*
X12282Y84394D01*
X12391Y84535D01*
X12502Y84803D01*
X12513Y84890D01*
X11630D01*
Y84007D01*
X11717Y84018D01*
X11985Y84129D01*
X12126Y84238D01*
X12207Y84300D01*
X12291Y84204D01*
X11710Y83623D01*
X11430Y83659D01*
X11143Y83622D01*
X10875Y83511D01*
X10645Y83335D01*
X10474Y83111D01*
X8890D01*
X8675Y83068D01*
X8493Y82947D01*
X6588Y81042D01*
X6467Y80860D01*
X6424Y80645D01*
Y76432D01*
X5483Y75491D01*
X2226D01*
X2055Y75715D01*
X1825Y75891D01*
X1557Y76002D01*
X1270Y76039D01*
X983Y76002D01*
X715Y75891D01*
X562Y75774D01*
X435Y75836D01*
Y76513D01*
X562Y76576D01*
X715Y76458D01*
X983Y76348D01*
X1270Y76310D01*
X1557Y76348D01*
X1825Y76458D01*
X2055Y76635D01*
X2231Y76864D01*
X2342Y77132D01*
X2379Y77419D01*
X2342Y77706D01*
X2231Y77974D01*
X2055Y78204D01*
X1825Y78380D01*
X1557Y78491D01*
X1270Y78529D01*
X983Y78491D01*
X715Y78380D01*
X562Y78263D01*
X435Y78325D01*
Y79104D01*
X562Y79166D01*
X715Y79049D01*
X983Y78938D01*
X1270Y78901D01*
X1557Y78938D01*
X1825Y79049D01*
X2055Y79225D01*
X2231Y79455D01*
X2342Y79723D01*
X2379Y80010D01*
X2342Y80297D01*
X2231Y80565D01*
X2055Y80795D01*
X1825Y80971D01*
X1557Y81082D01*
X1270Y81119D01*
X983Y81082D01*
X715Y80971D01*
X562Y80854D01*
X435Y80916D01*
Y81644D01*
X562Y81706D01*
X715Y81589D01*
X983Y81478D01*
X1270Y81441D01*
X1557Y81478D01*
X1825Y81589D01*
X2055Y81765D01*
X2231Y81995D01*
X2342Y82263D01*
X2379Y82550D01*
X2342Y82837D01*
X2231Y83105D01*
X2055Y83335D01*
X1825Y83511D01*
X1557Y83622D01*
X1270Y83659D01*
X983Y83622D01*
X715Y83511D01*
X562Y83394D01*
X435Y83456D01*
Y84184D01*
X562Y84246D01*
X715Y84129D01*
X983Y84018D01*
X1270Y83981D01*
X1557Y84018D01*
X1825Y84129D01*
X2055Y84305D01*
X2226Y84529D01*
X2943D01*
X3249Y84223D01*
Y82880D01*
X3292Y82666D01*
X3413Y82484D01*
X4048Y81849D01*
X4230Y81727D01*
X4445Y81684D01*
X5018D01*
X5099Y81578D01*
X5294Y81428D01*
X5522Y81334D01*
X5766Y81302D01*
X6010Y81334D01*
X6237Y81428D01*
X6433Y81578D01*
X6583Y81774D01*
X6677Y82001D01*
X6709Y82245D01*
X6677Y82489D01*
X6583Y82717D01*
X6433Y82912D01*
X6237Y83062D01*
X6010Y83156D01*
X5766Y83188D01*
X5522Y83156D01*
X5294Y83062D01*
X5099Y82912D01*
X5018Y82806D01*
X4677D01*
X4371Y83112D01*
Y84455D01*
X4328Y84670D01*
X4207Y84852D01*
X3572Y85487D01*
X3390Y85608D01*
X3175Y85651D01*
X2226D01*
X2055Y85875D01*
X1825Y86051D01*
X1557Y86162D01*
X1270Y86199D01*
X983Y86162D01*
X715Y86051D01*
X562Y85934D01*
X435Y85996D01*
Y86724D01*
X562Y86786D01*
X715Y86669D01*
X983Y86558D01*
X1270Y86521D01*
X1557Y86558D01*
X1825Y86669D01*
X2055Y86845D01*
X2231Y87075D01*
X2342Y87343D01*
X2379Y87630D01*
X2342Y87917D01*
X2231Y88185D01*
X2055Y88415D01*
X1825Y88591D01*
X1557Y88702D01*
X1270Y88739D01*
X983Y88702D01*
X715Y88591D01*
X562Y88474D01*
X435Y88536D01*
Y89264D01*
X562Y89326D01*
X715Y89209D01*
X983Y89098D01*
X1270Y89061D01*
X1557Y89098D01*
X1825Y89209D01*
X2055Y89385D01*
X2231Y89615D01*
X2342Y89883D01*
X2379Y90170D01*
X2342Y90457D01*
X2231Y90725D01*
X2055Y90955D01*
X1825Y91131D01*
X1557Y91242D01*
X1270Y91279D01*
X983Y91242D01*
X715Y91131D01*
X562Y91014D01*
X435Y91076D01*
Y96222D01*
X559Y96253D01*
X578Y96216D01*
X866Y95866D01*
X1216Y95578D01*
X1616Y95365D01*
X2049Y95233D01*
X2500Y95189D01*
X2951Y95233D01*
X3384Y95365D01*
X3784Y95578D01*
X4134Y95866D01*
X4422Y96216D01*
X4635Y96616D01*
X4767Y97049D01*
X4811Y97500D01*
X4767Y97951D01*
X4635Y98384D01*
X4422Y98784D01*
X4134Y99134D01*
X3784Y99422D01*
X3747Y99441D01*
X3778Y99565D01*
X51222D01*
X51253Y99441D01*
D02*
G37*
%LPC*%
G36*
X10360Y21403D02*
Y20520D01*
X11243D01*
X11232Y20607D01*
X11121Y20875D01*
X10945Y21105D01*
X10715Y21281D01*
X10447Y21392D01*
X10360Y21403D01*
D02*
G37*
G36*
X9960D02*
X9873Y21392D01*
X9605Y21281D01*
X9375Y21105D01*
X9199Y20875D01*
X9088Y20607D01*
X9077Y20520D01*
X9960D01*
Y21403D01*
D02*
G37*
G36*
Y20120D02*
X9077D01*
X9088Y20033D01*
X9199Y19765D01*
X9375Y19535D01*
X9605Y19359D01*
X9873Y19248D01*
X9960Y19237D01*
Y20120D01*
D02*
G37*
G36*
X22860Y88739D02*
X22573Y88702D01*
X22305Y88591D01*
X22075Y88415D01*
X21899Y88185D01*
X21788Y87917D01*
X21751Y87630D01*
X21788Y87343D01*
X21899Y87075D01*
X22075Y86845D01*
X22305Y86669D01*
X22573Y86558D01*
X22860Y86521D01*
X23147Y86558D01*
X23415Y86669D01*
X23645Y86845D01*
X23821Y87075D01*
X23932Y87343D01*
X23969Y87630D01*
X23932Y87917D01*
X23821Y88185D01*
X23645Y88415D01*
X23415Y88591D01*
X23147Y88702D01*
X22860Y88739D01*
D02*
G37*
G36*
Y83659D02*
X22573Y83622D01*
X22305Y83511D01*
X22075Y83335D01*
X21899Y83105D01*
X21788Y82837D01*
X21751Y82550D01*
X21788Y82263D01*
X21899Y81995D01*
X22075Y81765D01*
X22305Y81589D01*
X22573Y81478D01*
X22860Y81441D01*
X23147Y81478D01*
X23415Y81589D01*
X23645Y81765D01*
X23821Y81995D01*
X23932Y82263D01*
X23969Y82550D01*
X23932Y82837D01*
X23821Y83105D01*
X23645Y83335D01*
X23415Y83511D01*
X23147Y83622D01*
X22860Y83659D01*
D02*
G37*
G36*
X7100Y60746D02*
X5600D01*
X5483Y60723D01*
X5384Y60656D01*
X5317Y60557D01*
X5294Y60440D01*
Y58940D01*
X5317Y58823D01*
X5384Y58724D01*
X5483Y58657D01*
X5600Y58634D01*
X7100D01*
X7217Y58657D01*
X7316Y58724D01*
X7383Y58823D01*
X7406Y58940D01*
Y60440D01*
X7383Y60557D01*
X7316Y60656D01*
X7217Y60723D01*
X7100Y60746D01*
D02*
G37*
G36*
X9640D02*
X8140D01*
X8023Y60723D01*
X7924Y60656D01*
X7857Y60557D01*
X7834Y60440D01*
Y58940D01*
X7857Y58823D01*
X7924Y58724D01*
X8023Y58657D01*
X8140Y58634D01*
X9640D01*
X9757Y58657D01*
X9856Y58724D01*
X9923Y58823D01*
X9946Y58940D01*
Y60440D01*
X9923Y60557D01*
X9856Y60656D01*
X9757Y60723D01*
X9640Y60746D01*
D02*
G37*
G36*
X4560D02*
X3060D01*
X2943Y60723D01*
X2844Y60656D01*
X2777Y60557D01*
X2754Y60440D01*
Y58940D01*
X2777Y58823D01*
X2844Y58724D01*
X2943Y58657D01*
X3060Y58634D01*
X4560D01*
X4677Y58657D01*
X4776Y58724D01*
X4843Y58823D01*
X4866Y58940D01*
Y60440D01*
X4843Y60557D01*
X4776Y60656D01*
X4677Y60723D01*
X4560Y60746D01*
D02*
G37*
G36*
X6350Y56989D02*
X6063Y56952D01*
X5795Y56841D01*
X5565Y56665D01*
X5389Y56435D01*
X5278Y56167D01*
X5241Y55880D01*
X5278Y55593D01*
X5389Y55325D01*
X5565Y55095D01*
X5795Y54919D01*
X6063Y54808D01*
X6350Y54771D01*
X6637Y54808D01*
X6905Y54919D01*
X7135Y55095D01*
X7311Y55325D01*
X7422Y55593D01*
X7459Y55880D01*
X7422Y56167D01*
X7311Y56435D01*
X7135Y56665D01*
X6905Y56841D01*
X6637Y56952D01*
X6350Y56989D01*
D02*
G37*
G36*
X8890D02*
X8603Y56952D01*
X8335Y56841D01*
X8105Y56665D01*
X7929Y56435D01*
X7818Y56167D01*
X7781Y55880D01*
X7818Y55593D01*
X7929Y55325D01*
X8105Y55095D01*
X8335Y54919D01*
X8603Y54808D01*
X8890Y54771D01*
X9177Y54808D01*
X9445Y54919D01*
X9675Y55095D01*
X9851Y55325D01*
X9962Y55593D01*
X9999Y55880D01*
X9962Y56167D01*
X9851Y56435D01*
X9675Y56665D01*
X9445Y56841D01*
X9177Y56952D01*
X8890Y56989D01*
D02*
G37*
G36*
X3810D02*
X3523Y56952D01*
X3255Y56841D01*
X3025Y56665D01*
X2849Y56435D01*
X2738Y56167D01*
X2701Y55880D01*
X2738Y55593D01*
X2849Y55325D01*
X3025Y55095D01*
X3255Y54919D01*
X3523Y54808D01*
X3810Y54771D01*
X4097Y54808D01*
X4365Y54919D01*
X4595Y55095D01*
X4771Y55325D01*
X4882Y55593D01*
X4919Y55880D01*
X4882Y56167D01*
X4771Y56435D01*
X4595Y56665D01*
X4365Y56841D01*
X4097Y56952D01*
X3810Y56989D01*
D02*
G37*
G36*
X17580Y77270D02*
X16697D01*
X16708Y77183D01*
X16819Y76915D01*
X16995Y76685D01*
X17225Y76509D01*
X17493Y76398D01*
X17580Y76387D01*
Y77270D01*
D02*
G37*
G36*
X17551Y81307D02*
X14046D01*
X13832Y81265D01*
X13650Y81143D01*
X12638Y80132D01*
X12518Y80173D01*
X12502Y80297D01*
X12391Y80565D01*
X12215Y80795D01*
X11985Y80971D01*
X11717Y81082D01*
X11430Y81119D01*
X11143Y81082D01*
X10875Y80971D01*
X10645Y80795D01*
X10469Y80565D01*
X10358Y80297D01*
X10321Y80010D01*
X10358Y79723D01*
X10469Y79455D01*
X10645Y79225D01*
X10875Y79049D01*
X11143Y78938D01*
X11430Y78901D01*
X11717Y78938D01*
X11985Y79049D01*
X12025Y79080D01*
X12160Y79024D01*
X12169Y78952D01*
X11710Y78492D01*
X11430Y78529D01*
X11143Y78491D01*
X10875Y78380D01*
X10645Y78204D01*
X10469Y77974D01*
X10358Y77706D01*
X10321Y77419D01*
X10358Y77132D01*
X10469Y76864D01*
X10645Y76635D01*
X10875Y76458D01*
X11143Y76348D01*
X11430Y76310D01*
X11717Y76348D01*
X11985Y76458D01*
X11989Y76461D01*
X12073Y76366D01*
X11710Y76003D01*
X11430Y76039D01*
X11143Y76002D01*
X10875Y75891D01*
X10645Y75715D01*
X10469Y75485D01*
X10358Y75217D01*
X10321Y74930D01*
X10358Y74643D01*
X10469Y74375D01*
X10645Y74145D01*
X10875Y73969D01*
X11143Y73858D01*
X11430Y73821D01*
X11717Y73858D01*
X11985Y73969D01*
X12215Y74145D01*
X12391Y74375D01*
X12502Y74643D01*
X12539Y74930D01*
X12503Y75210D01*
X13977Y76683D01*
X14098Y76865D01*
X14119Y76970D01*
X14251Y76983D01*
X14279Y76915D01*
X14455Y76685D01*
X14685Y76509D01*
X14953Y76398D01*
X15240Y76361D01*
X15527Y76398D01*
X15795Y76509D01*
X16025Y76685D01*
X16201Y76915D01*
X16312Y77183D01*
X16349Y77470D01*
X16312Y77757D01*
X16201Y78025D01*
X16032Y78245D01*
X16034Y78256D01*
X16140Y78338D01*
X16223Y78303D01*
X16510Y78266D01*
X16797Y78303D01*
X16880Y78338D01*
X16986Y78256D01*
X16988Y78245D01*
X16819Y78025D01*
X16708Y77757D01*
X16697Y77670D01*
X17780D01*
Y77470D01*
X17980D01*
Y76387D01*
X18067Y76398D01*
X18335Y76509D01*
X18565Y76685D01*
X18741Y76915D01*
X18743Y76921D01*
X18870Y76896D01*
Y74121D01*
X18294Y73544D01*
X18161Y73562D01*
X17917Y73530D01*
X17689Y73435D01*
X17494Y73285D01*
X17344Y73090D01*
X17250Y72863D01*
X17218Y72619D01*
X17250Y72375D01*
X17344Y72147D01*
X17494Y71952D01*
X17689Y71802D01*
X17917Y71708D01*
X18161Y71676D01*
X18405Y71708D01*
X18633Y71802D01*
X18828Y71952D01*
X18978Y72147D01*
X19072Y72375D01*
X19104Y72619D01*
X19087Y72751D01*
X19828Y73492D01*
X19949Y73674D01*
X19992Y73889D01*
Y78867D01*
X19949Y79082D01*
X19828Y79264D01*
X17948Y81143D01*
X17766Y81265D01*
X17551Y81307D01*
D02*
G37*
G36*
X2353Y72190D02*
X1470D01*
Y71307D01*
X1557Y71318D01*
X1825Y71429D01*
X2055Y71605D01*
X2231Y71835D01*
X2342Y72103D01*
X2353Y72190D01*
D02*
G37*
G36*
X22660D02*
X21777D01*
X21788Y72103D01*
X21899Y71835D01*
X22075Y71605D01*
X22305Y71429D01*
X22573Y71318D01*
X22660Y71307D01*
Y72190D01*
D02*
G37*
G36*
X11430Y73499D02*
X11143Y73462D01*
X10875Y73351D01*
X10645Y73175D01*
X10469Y72945D01*
X10358Y72677D01*
X10321Y72390D01*
X10358Y72103D01*
X10469Y71835D01*
X10645Y71605D01*
X10875Y71429D01*
X11143Y71318D01*
X11430Y71281D01*
X11717Y71318D01*
X11985Y71429D01*
X12215Y71605D01*
X12391Y71835D01*
X12502Y72103D01*
X12539Y72390D01*
X12502Y72677D01*
X12391Y72945D01*
X12215Y73175D01*
X11985Y73351D01*
X11717Y73462D01*
X11430Y73499D01*
D02*
G37*
G36*
X23943Y72190D02*
X23060D01*
Y71307D01*
X23147Y71318D01*
X23415Y71429D01*
X23645Y71605D01*
X23821Y71835D01*
X23932Y72103D01*
X23943Y72190D01*
D02*
G37*
G36*
X23060Y73473D02*
Y72590D01*
X23943D01*
X23932Y72677D01*
X23821Y72945D01*
X23645Y73175D01*
X23415Y73351D01*
X23147Y73462D01*
X23060Y73473D01*
D02*
G37*
G36*
X22860Y76039D02*
X22573Y76002D01*
X22305Y75891D01*
X22075Y75715D01*
X21899Y75485D01*
X21788Y75217D01*
X21751Y74930D01*
X21788Y74643D01*
X21899Y74375D01*
X22075Y74145D01*
X22305Y73969D01*
X22573Y73858D01*
X22860Y73821D01*
X23147Y73858D01*
X23415Y73969D01*
X23645Y74145D01*
X23821Y74375D01*
X23932Y74643D01*
X23969Y74930D01*
X23932Y75217D01*
X23821Y75485D01*
X23645Y75715D01*
X23415Y75891D01*
X23147Y76002D01*
X22860Y76039D01*
D02*
G37*
G36*
X1470Y73473D02*
Y72590D01*
X2353D01*
X2342Y72677D01*
X2231Y72945D01*
X2055Y73175D01*
X1825Y73351D01*
X1557Y73462D01*
X1470Y73473D01*
D02*
G37*
G36*
X22660D02*
X22573Y73462D01*
X22305Y73351D01*
X22075Y73175D01*
X21899Y72945D01*
X21788Y72677D01*
X21777Y72590D01*
X22660D01*
Y73473D01*
D02*
G37*
G36*
X27740Y8690D02*
X26857D01*
X26868Y8603D01*
X26979Y8335D01*
X27155Y8105D01*
X27385Y7929D01*
X27653Y7818D01*
X27740Y7807D01*
Y8690D01*
D02*
G37*
G36*
X5280Y5617D02*
Y4010D01*
X6151D01*
Y4572D01*
X6115Y4849D01*
X6008Y5108D01*
X5837Y5329D01*
X5616Y5500D01*
X5357Y5607D01*
X5280Y5617D01*
D02*
G37*
G36*
X29023Y8690D02*
X28140D01*
Y7807D01*
X28227Y7818D01*
X28495Y7929D01*
X28725Y8105D01*
X28901Y8335D01*
X29012Y8603D01*
X29023Y8690D01*
D02*
G37*
G36*
X20120Y9960D02*
X19249D01*
Y9398D01*
X19285Y9121D01*
X19392Y8862D01*
X19563Y8641D01*
X19784Y8470D01*
X20043Y8363D01*
X20120Y8353D01*
Y9960D01*
D02*
G37*
G36*
X21391D02*
X20520D01*
Y8353D01*
X20597Y8363D01*
X20856Y8470D01*
X21077Y8641D01*
X21248Y8862D01*
X21355Y9121D01*
X21391Y9398D01*
Y9960D01*
D02*
G37*
G36*
X4572Y8983D02*
Y8230D01*
X5325D01*
X5311Y8335D01*
X5222Y8551D01*
X5079Y8737D01*
X4893Y8879D01*
X4677Y8969D01*
X4572Y8983D01*
D02*
G37*
G36*
X17780Y11993D02*
X17503Y11957D01*
X17244Y11850D01*
X17023Y11679D01*
X16852Y11458D01*
X16745Y11199D01*
X16709Y10922D01*
Y9398D01*
X16745Y9121D01*
X16852Y8862D01*
X17023Y8641D01*
X17244Y8470D01*
X17503Y8363D01*
X17780Y8327D01*
X18057Y8363D01*
X18316Y8470D01*
X18537Y8641D01*
X18708Y8862D01*
X18815Y9121D01*
X18851Y9398D01*
Y10922D01*
X18815Y11199D01*
X18708Y11458D01*
X18537Y11679D01*
X18316Y11850D01*
X18057Y11957D01*
X17780Y11993D01*
D02*
G37*
G36*
X16510Y5643D02*
X16233Y5607D01*
X15974Y5500D01*
X15753Y5329D01*
X15582Y5108D01*
X15475Y4849D01*
X15439Y4572D01*
Y3048D01*
X15475Y2771D01*
X15582Y2512D01*
X15753Y2291D01*
X15974Y2120D01*
X16233Y2013D01*
X16510Y1977D01*
X16787Y2013D01*
X17046Y2120D01*
X17267Y2291D01*
X17438Y2512D01*
X17545Y2771D01*
X17581Y3048D01*
Y4572D01*
X17545Y4849D01*
X17438Y5108D01*
X17267Y5329D01*
X17046Y5500D01*
X16787Y5607D01*
X16510Y5643D01*
D02*
G37*
G36*
X2540D02*
X2263Y5607D01*
X2004Y5500D01*
X1783Y5329D01*
X1612Y5108D01*
X1505Y4849D01*
X1469Y4572D01*
Y3048D01*
X1505Y2771D01*
X1612Y2512D01*
X1783Y2291D01*
X2004Y2120D01*
X2263Y2013D01*
X2540Y1977D01*
X2817Y2013D01*
X3076Y2120D01*
X3297Y2291D01*
X3468Y2512D01*
X3575Y2771D01*
X3611Y3048D01*
Y4572D01*
X3575Y4849D01*
X3468Y5108D01*
X3297Y5329D01*
X3076Y5500D01*
X2817Y5607D01*
X2540Y5643D01*
D02*
G37*
G36*
X13970D02*
X13693Y5607D01*
X13434Y5500D01*
X13213Y5329D01*
X13042Y5108D01*
X12935Y4849D01*
X12899Y4572D01*
Y3048D01*
X12935Y2771D01*
X13042Y2512D01*
X13213Y2291D01*
X13434Y2120D01*
X13693Y2013D01*
X13970Y1977D01*
X14247Y2013D01*
X14506Y2120D01*
X14727Y2291D01*
X14898Y2512D01*
X15005Y2771D01*
X15041Y3048D01*
Y4572D01*
X15005Y4849D01*
X14898Y5108D01*
X14727Y5329D01*
X14506Y5500D01*
X14247Y5607D01*
X13970Y5643D01*
D02*
G37*
G36*
X4880Y3610D02*
X4009D01*
Y3048D01*
X4045Y2771D01*
X4152Y2512D01*
X4323Y2291D01*
X4544Y2120D01*
X4803Y2013D01*
X4880Y2003D01*
Y3610D01*
D02*
G37*
G36*
Y5617D02*
X4803Y5607D01*
X4544Y5500D01*
X4323Y5329D01*
X4152Y5108D01*
X4045Y4849D01*
X4009Y4572D01*
Y4010D01*
X4880D01*
Y5617D01*
D02*
G37*
G36*
X6151Y3610D02*
X5280D01*
Y2003D01*
X5357Y2013D01*
X5616Y2120D01*
X5837Y2291D01*
X6008Y2512D01*
X6115Y2771D01*
X6151Y3048D01*
Y3610D01*
D02*
G37*
G36*
X8690Y9960D02*
X7807D01*
X7818Y9873D01*
X7929Y9605D01*
X8105Y9375D01*
X8335Y9199D01*
X8603Y9088D01*
X8690Y9077D01*
Y9960D01*
D02*
G37*
G36*
Y11243D02*
X8603Y11232D01*
X8335Y11121D01*
X8105Y10945D01*
X7929Y10715D01*
X7818Y10447D01*
X7807Y10360D01*
X8690D01*
Y11243D01*
D02*
G37*
G36*
X9090D02*
Y10360D01*
X9973D01*
X9962Y10447D01*
X9851Y10715D01*
X9675Y10945D01*
X9445Y11121D01*
X9177Y11232D01*
X9090Y11243D01*
D02*
G37*
G36*
X9973Y9960D02*
X9090D01*
Y9077D01*
X9177Y9088D01*
X9445Y9199D01*
X9675Y9375D01*
X9851Y9605D01*
X9962Y9873D01*
X9973Y9960D01*
D02*
G37*
G36*
X20120Y11967D02*
X20043Y11957D01*
X19784Y11850D01*
X19563Y11679D01*
X19392Y11458D01*
X19285Y11199D01*
X19249Y10922D01*
Y10360D01*
X20120D01*
Y11967D01*
D02*
G37*
G36*
X20520D02*
Y10360D01*
X21391D01*
Y10922D01*
X21355Y11199D01*
X21248Y11458D01*
X21077Y11679D01*
X20856Y11850D01*
X20597Y11957D01*
X20520Y11967D01*
D02*
G37*
G36*
X9960Y34076D02*
X9410D01*
X9293Y34053D01*
X9194Y33986D01*
X9127Y33887D01*
X9104Y33770D01*
Y33220D01*
X9960D01*
Y34076D01*
D02*
G37*
G36*
X11216Y32820D02*
X10360D01*
Y31964D01*
X10910D01*
X11027Y31987D01*
X11126Y32054D01*
X11193Y32153D01*
X11216Y32270D01*
Y32820D01*
D02*
G37*
G36*
X35560Y35399D02*
X35273Y35362D01*
X35005Y35251D01*
X34775Y35075D01*
X34599Y34845D01*
X34488Y34577D01*
X34451Y34290D01*
X34488Y34003D01*
X34599Y33735D01*
X34775Y33505D01*
X35005Y33329D01*
X35273Y33218D01*
X35560Y33181D01*
X35847Y33218D01*
X36115Y33329D01*
X36345Y33505D01*
X36521Y33735D01*
X36632Y34003D01*
X36669Y34290D01*
X36632Y34577D01*
X36521Y34845D01*
X36345Y35075D01*
X36115Y35251D01*
X35847Y35362D01*
X35560Y35399D01*
D02*
G37*
G36*
X10236Y36198D02*
X9992Y36166D01*
X9765Y36072D01*
X9569Y35922D01*
X9488Y35816D01*
X7950D01*
X7736Y35773D01*
X7554Y35652D01*
X5953Y34052D01*
X5832Y33870D01*
X5789Y33655D01*
Y32706D01*
X5565Y32535D01*
X5389Y32305D01*
X5278Y32037D01*
X5241Y31750D01*
X5278Y31463D01*
X5389Y31195D01*
X5498Y31054D01*
X5560Y30973D01*
X5464Y30889D01*
X4883Y31470D01*
X4919Y31750D01*
X4882Y32037D01*
X4771Y32305D01*
X4595Y32535D01*
X4365Y32711D01*
X4097Y32822D01*
X3810Y32859D01*
X3523Y32822D01*
X3255Y32711D01*
X3025Y32535D01*
X2849Y32305D01*
X2738Y32037D01*
X2701Y31750D01*
X2738Y31463D01*
X2849Y31195D01*
X3025Y30965D01*
X3255Y30789D01*
X3523Y30678D01*
X3810Y30641D01*
X4090Y30677D01*
X5953Y28813D01*
X6135Y28692D01*
X6350Y28649D01*
X9054D01*
Y28410D01*
X9077Y28293D01*
X9144Y28194D01*
X9243Y28127D01*
X9360Y28104D01*
X10960D01*
X11077Y28127D01*
X11176Y28194D01*
X11243Y28293D01*
X11266Y28410D01*
Y30010D01*
X11243Y30127D01*
X11176Y30226D01*
X11077Y30293D01*
X10960Y30316D01*
X9360D01*
X9243Y30293D01*
X9144Y30226D01*
X9077Y30127D01*
X9054Y30010D01*
Y29771D01*
X6582D01*
X5489Y30864D01*
X5573Y30960D01*
X5654Y30898D01*
X5795Y30789D01*
X6063Y30678D01*
X6350Y30641D01*
X6637Y30678D01*
X6905Y30789D01*
X7135Y30965D01*
X7311Y31195D01*
X7422Y31463D01*
X7459Y31750D01*
X7422Y32037D01*
X7311Y32305D01*
X7135Y32535D01*
X6911Y32706D01*
Y33423D01*
X8182Y34694D01*
X9488D01*
X9569Y34588D01*
X9765Y34438D01*
X9992Y34344D01*
X10236Y34312D01*
X10480Y34344D01*
X10708Y34438D01*
X10903Y34588D01*
X11053Y34784D01*
X11147Y35011D01*
X11179Y35255D01*
X11147Y35499D01*
X11053Y35727D01*
X10903Y35922D01*
X10708Y36072D01*
X10480Y36166D01*
X10236Y36198D01*
D02*
G37*
G36*
X45720Y35399D02*
X45433Y35362D01*
X45165Y35251D01*
X44935Y35075D01*
X44759Y34845D01*
X44648Y34577D01*
X44611Y34290D01*
X44648Y34003D01*
X44759Y33735D01*
X44935Y33505D01*
X45165Y33329D01*
X45433Y33218D01*
X45720Y33181D01*
X46007Y33218D01*
X46275Y33329D01*
X46505Y33505D01*
X46676Y33729D01*
X48474D01*
Y33540D01*
X48497Y33423D01*
X48564Y33324D01*
X48663Y33257D01*
X48780Y33234D01*
X50280D01*
X50397Y33257D01*
X50496Y33324D01*
X50563Y33423D01*
X50586Y33540D01*
Y35040D01*
X50563Y35157D01*
X50496Y35256D01*
X50397Y35323D01*
X50280Y35346D01*
X48780D01*
X48663Y35323D01*
X48564Y35256D01*
X48497Y35157D01*
X48474Y35040D01*
Y34851D01*
X46676D01*
X46505Y35075D01*
X46275Y35251D01*
X46007Y35362D01*
X45720Y35399D01*
D02*
G37*
G36*
X10910Y34076D02*
X10360D01*
Y33220D01*
X11216D01*
Y33770D01*
X11193Y33887D01*
X11126Y33986D01*
X11027Y34053D01*
X10910Y34076D01*
D02*
G37*
G36*
X9960Y32820D02*
X9104D01*
Y32270D01*
X9127Y32153D01*
X9194Y32054D01*
X9293Y31987D01*
X9410Y31964D01*
X9960D01*
Y32820D01*
D02*
G37*
G36*
X15040Y30280D02*
X14157D01*
X14168Y30193D01*
X14279Y29925D01*
X14455Y29695D01*
X14685Y29519D01*
X14953Y29408D01*
X15040Y29397D01*
Y30280D01*
D02*
G37*
G36*
X16323D02*
X15440D01*
Y29397D01*
X15527Y29408D01*
X15795Y29519D01*
X16025Y29695D01*
X16201Y29925D01*
X16312Y30193D01*
X16323Y30280D01*
D02*
G37*
G36*
X45517Y26610D02*
X45412Y26596D01*
X45195Y26507D01*
X45010Y26364D01*
X44867Y26179D01*
X44778Y25962D01*
X44764Y25857D01*
X45517D01*
Y26610D01*
D02*
G37*
G36*
X17780Y31589D02*
X17493Y31552D01*
X17225Y31441D01*
X16995Y31265D01*
X16819Y31035D01*
X16708Y30767D01*
X16671Y30480D01*
X16708Y30193D01*
X16819Y29925D01*
X16995Y29695D01*
X17225Y29519D01*
X17493Y29408D01*
X17780Y29371D01*
X18067Y29408D01*
X18335Y29519D01*
X18565Y29695D01*
X18741Y29925D01*
X18852Y30193D01*
X18889Y30480D01*
X18852Y30767D01*
X18741Y31035D01*
X18565Y31265D01*
X18335Y31441D01*
X18067Y31552D01*
X17780Y31589D01*
D02*
G37*
G36*
X45517Y25603D02*
X44764D01*
X44778Y25498D01*
X44867Y25282D01*
X45010Y25096D01*
X45195Y24954D01*
X45412Y24864D01*
X45517Y24850D01*
Y25603D01*
D02*
G37*
G36*
X12700Y34079D02*
X12426Y34043D01*
X12170Y33937D01*
X11951Y33769D01*
X11783Y33550D01*
X11677Y33294D01*
X11641Y33020D01*
X11677Y32746D01*
X11783Y32490D01*
X11951Y32271D01*
X12170Y32103D01*
X12426Y31997D01*
X12700Y31961D01*
X12974Y31997D01*
X13230Y32103D01*
X13449Y32271D01*
X13617Y32490D01*
X13723Y32746D01*
X13759Y33020D01*
X13723Y33294D01*
X13617Y33550D01*
X13449Y33769D01*
X13230Y33937D01*
X12974Y34043D01*
X12700Y34079D01*
D02*
G37*
G36*
X15040Y31563D02*
X14953Y31552D01*
X14685Y31441D01*
X14455Y31265D01*
X14279Y31035D01*
X14168Y30767D01*
X14157Y30680D01*
X15040D01*
Y31563D01*
D02*
G37*
G36*
X15440D02*
Y30680D01*
X16323D01*
X16312Y30767D01*
X16201Y31035D01*
X16025Y31265D01*
X15795Y31441D01*
X15527Y31552D01*
X15440Y31563D01*
D02*
G37*
G36*
X45720Y37939D02*
X45433Y37902D01*
X45165Y37791D01*
X44935Y37615D01*
X44759Y37385D01*
X44648Y37117D01*
X44611Y36830D01*
X44648Y36543D01*
X44759Y36275D01*
X44935Y36045D01*
X45165Y35869D01*
X45433Y35758D01*
X45720Y35721D01*
X46007Y35758D01*
X46275Y35869D01*
X46505Y36045D01*
X46681Y36275D01*
X46792Y36543D01*
X46829Y36830D01*
X46792Y37117D01*
X46681Y37385D01*
X46505Y37615D01*
X46275Y37791D01*
X46007Y37902D01*
X45720Y37939D01*
D02*
G37*
G36*
X30280Y48060D02*
X29447D01*
X29457Y47986D01*
X29563Y47730D01*
X29731Y47511D01*
X29950Y47343D01*
X30206Y47237D01*
X30280Y47227D01*
Y48060D01*
D02*
G37*
G36*
X31513D02*
X30680D01*
Y47227D01*
X30754Y47237D01*
X31010Y47343D01*
X31229Y47511D01*
X31397Y47730D01*
X31503Y47986D01*
X31513Y48060D01*
D02*
G37*
G36*
X33020Y49319D02*
X32746Y49283D01*
X32490Y49177D01*
X32271Y49009D01*
X32103Y48790D01*
X31997Y48534D01*
X31961Y48260D01*
X31997Y47986D01*
X32103Y47730D01*
X32271Y47511D01*
X32490Y47343D01*
X32746Y47237D01*
X33020Y47201D01*
X33294Y47237D01*
X33550Y47343D01*
X33769Y47511D01*
X33937Y47730D01*
X34043Y47986D01*
X34079Y48260D01*
X34043Y48534D01*
X33937Y48790D01*
X33769Y49009D01*
X33550Y49177D01*
X33294Y49283D01*
X33020Y49319D01*
D02*
G37*
G36*
X35560D02*
X35286Y49283D01*
X35030Y49177D01*
X34811Y49009D01*
X34643Y48790D01*
X34537Y48534D01*
X34501Y48260D01*
X34537Y47986D01*
X34643Y47730D01*
X34811Y47511D01*
X35030Y47343D01*
X35286Y47237D01*
X35560Y47201D01*
X35834Y47237D01*
X36090Y47343D01*
X36309Y47511D01*
X36477Y47730D01*
X36583Y47986D01*
X36619Y48260D01*
X36583Y48534D01*
X36477Y48790D01*
X36309Y49009D01*
X36090Y49177D01*
X35834Y49283D01*
X35560Y49319D01*
D02*
G37*
G36*
X21590Y50841D02*
X21251Y50797D01*
X20934Y50666D01*
X20663Y50457D01*
X20454Y50186D01*
X20323Y49869D01*
X20279Y49530D01*
X20323Y49191D01*
X20454Y48874D01*
X20663Y48603D01*
X20934Y48394D01*
X21251Y48263D01*
X21590Y48219D01*
X21929Y48263D01*
X22246Y48394D01*
X22517Y48603D01*
X22726Y48874D01*
X22857Y49191D01*
X22901Y49530D01*
X22857Y49869D01*
X22726Y50186D01*
X22517Y50457D01*
X22246Y50666D01*
X21929Y50797D01*
X21590Y50841D01*
D02*
G37*
G36*
X18850Y54410D02*
X17765D01*
X17783Y54271D01*
X17914Y53954D01*
X18123Y53683D01*
X18394Y53474D01*
X18711Y53343D01*
X18850Y53325D01*
Y54410D01*
D02*
G37*
G36*
X20335D02*
X19250D01*
Y53325D01*
X19389Y53343D01*
X19706Y53474D01*
X19977Y53683D01*
X20186Y53954D01*
X20317Y54271D01*
X20335Y54410D01*
D02*
G37*
G36*
X30280Y49293D02*
X30206Y49283D01*
X29950Y49177D01*
X29731Y49009D01*
X29563Y48790D01*
X29457Y48534D01*
X29447Y48460D01*
X30280D01*
Y49293D01*
D02*
G37*
G36*
X30680D02*
Y48460D01*
X31513D01*
X31503Y48534D01*
X31397Y48790D01*
X31229Y49009D01*
X31010Y49177D01*
X30754Y49283D01*
X30680Y49293D01*
D02*
G37*
G36*
X49530Y50639D02*
X49243Y50602D01*
X48975Y50491D01*
X48745Y50315D01*
X48569Y50085D01*
X48458Y49817D01*
X48421Y49530D01*
X48458Y49243D01*
X48569Y48975D01*
X48745Y48745D01*
X48969Y48574D01*
Y47857D01*
X48028Y46916D01*
X41507D01*
X41201Y47222D01*
Y47367D01*
X41389Y47511D01*
X41557Y47730D01*
X41663Y47986D01*
X41699Y48260D01*
X41663Y48534D01*
X41557Y48790D01*
X41389Y49009D01*
X41170Y49177D01*
X40914Y49283D01*
X40640Y49319D01*
X40366Y49283D01*
X40110Y49177D01*
X39891Y49009D01*
X39723Y48790D01*
X39617Y48534D01*
X39581Y48260D01*
X39617Y47986D01*
X39723Y47730D01*
X39891Y47511D01*
X40079Y47367D01*
Y46990D01*
X40122Y46775D01*
X40243Y46593D01*
X40878Y45958D01*
X41060Y45837D01*
X41275Y45794D01*
X48260D01*
X48475Y45837D01*
X48657Y45958D01*
X49927Y47228D01*
X50048Y47410D01*
X50091Y47625D01*
Y48574D01*
X50315Y48745D01*
X50491Y48975D01*
X50602Y49243D01*
X50639Y49530D01*
X50602Y49817D01*
X50491Y50085D01*
X50315Y50315D01*
X50085Y50491D01*
X49817Y50602D01*
X49530Y50639D01*
D02*
G37*
G36*
X23930Y39170D02*
X23047D01*
X23058Y39083D01*
X23169Y38815D01*
X23345Y38585D01*
X23575Y38409D01*
X23843Y38298D01*
X23930Y38287D01*
Y39170D01*
D02*
G37*
G36*
X25213D02*
X24330D01*
Y38287D01*
X24417Y38298D01*
X24685Y38409D01*
X24915Y38585D01*
X25091Y38815D01*
X25202Y39083D01*
X25213Y39170D01*
D02*
G37*
G36*
X49530Y37889D02*
X49256Y37853D01*
X49000Y37747D01*
X48781Y37579D01*
X48613Y37360D01*
X48507Y37104D01*
X48471Y36830D01*
X48507Y36556D01*
X48613Y36300D01*
X48781Y36081D01*
X49000Y35913D01*
X49256Y35807D01*
X49530Y35771D01*
X49804Y35807D01*
X50060Y35913D01*
X50279Y36081D01*
X50447Y36300D01*
X50553Y36556D01*
X50589Y36830D01*
X50553Y37104D01*
X50447Y37360D01*
X50279Y37579D01*
X50060Y37747D01*
X49804Y37853D01*
X49530Y37889D01*
D02*
G37*
G36*
X44450Y43741D02*
X30480D01*
X30265Y43698D01*
X30083Y43577D01*
X28178Y41672D01*
X28057Y41490D01*
X28014Y41275D01*
Y38967D01*
X22628Y33581D01*
X18673D01*
X18529Y33769D01*
X18310Y33937D01*
X18054Y34043D01*
X17780Y34079D01*
X17506Y34043D01*
X17250Y33937D01*
X17031Y33769D01*
X16863Y33550D01*
X16757Y33294D01*
X16721Y33020D01*
X16757Y32746D01*
X16863Y32490D01*
X17031Y32271D01*
X17250Y32103D01*
X17506Y31997D01*
X17780Y31961D01*
X18054Y31997D01*
X18310Y32103D01*
X18529Y32271D01*
X18673Y32459D01*
X22860D01*
X23075Y32502D01*
X23257Y32623D01*
X28972Y38338D01*
X29093Y38520D01*
X29136Y38735D01*
Y41043D01*
X30712Y42619D01*
X44218D01*
X45159Y41678D01*
Y41533D01*
X44971Y41389D01*
X44803Y41170D01*
X44697Y40914D01*
X44661Y40640D01*
X44697Y40366D01*
X44803Y40110D01*
X44971Y39891D01*
X45190Y39723D01*
X45446Y39617D01*
X45720Y39581D01*
X45955Y39612D01*
X46593Y38973D01*
X46775Y38852D01*
X46990Y38809D01*
X48574D01*
X48745Y38585D01*
X48975Y38409D01*
X49243Y38298D01*
X49530Y38261D01*
X49817Y38298D01*
X50085Y38409D01*
X50315Y38585D01*
X50491Y38815D01*
X50602Y39083D01*
X50639Y39370D01*
X50602Y39657D01*
X50491Y39925D01*
X50315Y40155D01*
X50085Y40331D01*
X49817Y40442D01*
X49530Y40479D01*
X49243Y40442D01*
X48975Y40331D01*
X48745Y40155D01*
X48574Y39931D01*
X47222D01*
X46748Y40405D01*
X46779Y40640D01*
X46743Y40914D01*
X46637Y41170D01*
X46469Y41389D01*
X46281Y41533D01*
Y41910D01*
X46238Y42125D01*
X46117Y42307D01*
X44847Y43577D01*
X44665Y43698D01*
X44450Y43741D01*
D02*
G37*
G36*
X24330Y40453D02*
Y39570D01*
X25213D01*
X25202Y39657D01*
X25091Y39925D01*
X24915Y40155D01*
X24685Y40331D01*
X24417Y40442D01*
X24330Y40453D01*
D02*
G37*
G36*
X43180Y41699D02*
X42906Y41663D01*
X42650Y41557D01*
X42431Y41389D01*
X42263Y41170D01*
X42157Y40914D01*
X42121Y40640D01*
X42157Y40366D01*
X42263Y40110D01*
X42431Y39891D01*
X42650Y39723D01*
X42906Y39617D01*
X43180Y39581D01*
X43454Y39617D01*
X43710Y39723D01*
X43929Y39891D01*
X44097Y40110D01*
X44203Y40366D01*
X44239Y40640D01*
X44203Y40914D01*
X44097Y41170D01*
X43929Y41389D01*
X43710Y41557D01*
X43454Y41663D01*
X43180Y41699D01*
D02*
G37*
G36*
X33020D02*
X32746Y41663D01*
X32490Y41557D01*
X32271Y41389D01*
X32127Y41201D01*
X31373D01*
X31229Y41389D01*
X31010Y41557D01*
X30754Y41663D01*
X30480Y41699D01*
X30206Y41663D01*
X29950Y41557D01*
X29731Y41389D01*
X29563Y41170D01*
X29457Y40914D01*
X29421Y40640D01*
X29457Y40366D01*
X29563Y40110D01*
X29731Y39891D01*
X29919Y39747D01*
Y38332D01*
X20088Y28501D01*
X14202D01*
X13795Y28908D01*
X13853Y28995D01*
X13896Y29210D01*
X13853Y29425D01*
X13732Y29607D01*
X13725Y29611D01*
X13661Y29765D01*
X13485Y29995D01*
X13255Y30171D01*
X12987Y30282D01*
X12700Y30320D01*
X12413Y30282D01*
X12145Y30171D01*
X11915Y29995D01*
X11739Y29765D01*
X11628Y29497D01*
X11590Y29210D01*
X11628Y28923D01*
X11739Y28655D01*
X11915Y28425D01*
X12145Y28249D01*
X12413Y28138D01*
X12700Y28100D01*
X12980Y28137D01*
X13573Y27543D01*
X13755Y27422D01*
X13970Y27379D01*
X20320D01*
X20535Y27422D01*
X20717Y27543D01*
X30877Y37703D01*
X30998Y37885D01*
X31041Y38100D01*
Y39747D01*
X31229Y39891D01*
X31373Y40079D01*
X32127D01*
X32271Y39891D01*
X32490Y39723D01*
X32746Y39617D01*
X33020Y39581D01*
X33294Y39617D01*
X33550Y39723D01*
X33769Y39891D01*
X33937Y40110D01*
X34043Y40366D01*
X34079Y40640D01*
X34043Y40914D01*
X33937Y41170D01*
X33769Y41389D01*
X33550Y41557D01*
X33294Y41663D01*
X33020Y41699D01*
D02*
G37*
G36*
X38100D02*
X37826Y41663D01*
X37570Y41557D01*
X37351Y41389D01*
X37183Y41170D01*
X37077Y40914D01*
X37041Y40640D01*
X37077Y40366D01*
X37183Y40110D01*
X37351Y39891D01*
X37570Y39723D01*
X37826Y39617D01*
X38100Y39581D01*
X38374Y39617D01*
X38630Y39723D01*
X38849Y39891D01*
X39017Y40110D01*
X39123Y40366D01*
X39159Y40640D01*
X39123Y40914D01*
X39017Y41170D01*
X38849Y41389D01*
X38630Y41557D01*
X38374Y41663D01*
X38100Y41699D01*
D02*
G37*
G36*
X40640D02*
X40366Y41663D01*
X40110Y41557D01*
X39891Y41389D01*
X39723Y41170D01*
X39617Y40914D01*
X39581Y40640D01*
X39617Y40366D01*
X39723Y40110D01*
X39891Y39891D01*
X40110Y39723D01*
X40366Y39617D01*
X40640Y39581D01*
X40914Y39617D01*
X41170Y39723D01*
X41389Y39891D01*
X41557Y40110D01*
X41663Y40366D01*
X41699Y40640D01*
X41663Y40914D01*
X41557Y41170D01*
X41389Y41389D01*
X41170Y41557D01*
X40914Y41663D01*
X40640Y41699D01*
D02*
G37*
G36*
X29023Y18850D02*
X28140D01*
Y17967D01*
X28227Y17978D01*
X28495Y18089D01*
X28725Y18265D01*
X28901Y18495D01*
X29012Y18763D01*
X29023Y18850D01*
D02*
G37*
G36*
X20120Y19587D02*
X20043Y19577D01*
X19784Y19470D01*
X19563Y19299D01*
X19392Y19078D01*
X19285Y18819D01*
X19249Y18542D01*
Y17980D01*
X20120D01*
Y19587D01*
D02*
G37*
G36*
X30480Y20159D02*
X30193Y20122D01*
X29925Y20011D01*
X29695Y19835D01*
X29519Y19605D01*
X29408Y19337D01*
X29371Y19050D01*
X29408Y18763D01*
X29519Y18495D01*
X29695Y18265D01*
X29925Y18089D01*
X30193Y17978D01*
X30480Y17941D01*
X30767Y17978D01*
X31035Y18089D01*
X31265Y18265D01*
X31441Y18495D01*
X31552Y18763D01*
X31589Y19050D01*
X31552Y19337D01*
X31441Y19605D01*
X31265Y19835D01*
X31035Y20011D01*
X30767Y20122D01*
X30480Y20159D01*
D02*
G37*
G36*
X27740Y18850D02*
X26857D01*
X26868Y18763D01*
X26979Y18495D01*
X27155Y18265D01*
X27385Y18089D01*
X27653Y17978D01*
X27740Y17967D01*
Y18850D01*
D02*
G37*
G36*
X20520Y19587D02*
Y17980D01*
X21391D01*
Y18542D01*
X21355Y18819D01*
X21248Y19078D01*
X21077Y19299D01*
X20856Y19470D01*
X20597Y19577D01*
X20520Y19587D01*
D02*
G37*
G36*
X28140Y20133D02*
Y19250D01*
X29023D01*
X29012Y19337D01*
X28901Y19605D01*
X28725Y19835D01*
X28495Y20011D01*
X28227Y20122D01*
X28140Y20133D01*
D02*
G37*
G36*
X27740D02*
X27653Y20122D01*
X27385Y20011D01*
X27155Y19835D01*
X26979Y19605D01*
X26868Y19337D01*
X26857Y19250D01*
X27740D01*
Y20133D01*
D02*
G37*
G36*
X20120Y17580D02*
X19249D01*
Y17018D01*
X19285Y16741D01*
X19392Y16482D01*
X19563Y16261D01*
X19784Y16090D01*
X20043Y15983D01*
X20120Y15973D01*
Y17580D01*
D02*
G37*
G36*
X21391D02*
X20520D01*
Y15973D01*
X20597Y15983D01*
X20856Y16090D01*
X21077Y16261D01*
X21248Y16482D01*
X21355Y16741D01*
X21391Y17018D01*
Y17580D01*
D02*
G37*
G36*
X22860Y19613D02*
X22583Y19577D01*
X22324Y19470D01*
X22103Y19299D01*
X21932Y19078D01*
X21825Y18819D01*
X21789Y18542D01*
Y17018D01*
X21825Y16741D01*
X21932Y16482D01*
X22103Y16261D01*
X22324Y16090D01*
X22583Y15983D01*
X22860Y15947D01*
X23137Y15983D01*
X23396Y16090D01*
X23617Y16261D01*
X23788Y16482D01*
X23895Y16741D01*
X23931Y17018D01*
Y17219D01*
X24533D01*
X26908Y14843D01*
X27090Y14722D01*
X27305Y14679D01*
X28154D01*
Y14490D01*
X28177Y14373D01*
X28244Y14274D01*
X28343Y14207D01*
X28460Y14184D01*
X29960D01*
X30077Y14207D01*
X30176Y14274D01*
X30243Y14373D01*
X30266Y14490D01*
Y15990D01*
X30243Y16107D01*
X30176Y16206D01*
X30077Y16273D01*
X29960Y16296D01*
X28460D01*
X28343Y16273D01*
X28244Y16206D01*
X28177Y16107D01*
X28154Y15990D01*
Y15801D01*
X27537D01*
X25162Y18177D01*
X24980Y18298D01*
X24765Y18341D01*
X23931D01*
Y18542D01*
X23895Y18819D01*
X23788Y19078D01*
X23617Y19299D01*
X23396Y19470D01*
X23137Y19577D01*
X22860Y19613D01*
D02*
G37*
G36*
X17780D02*
X17503Y19577D01*
X17244Y19470D01*
X17023Y19299D01*
X16852Y19078D01*
X16745Y18819D01*
X16709Y18542D01*
Y18341D01*
X15240D01*
X15025Y18298D01*
X14843Y18177D01*
X12468Y15801D01*
X9996D01*
Y16040D01*
X9973Y16157D01*
X9906Y16256D01*
X9807Y16323D01*
X9690Y16346D01*
X8090D01*
X7973Y16323D01*
X7874Y16256D01*
X7807Y16157D01*
X7784Y16040D01*
Y14440D01*
X7807Y14323D01*
X7874Y14224D01*
X7973Y14157D01*
X8090Y14134D01*
X9690D01*
X9807Y14157D01*
X9906Y14224D01*
X9973Y14323D01*
X9996Y14440D01*
Y14679D01*
X12700D01*
X12915Y14722D01*
X13097Y14843D01*
X15472Y17219D01*
X16709D01*
Y17018D01*
X16745Y16741D01*
X16852Y16482D01*
X17023Y16261D01*
X17244Y16090D01*
X17503Y15983D01*
X17780Y15947D01*
X18057Y15983D01*
X18316Y16090D01*
X18537Y16261D01*
X18708Y16482D01*
X18815Y16741D01*
X18851Y17018D01*
Y18542D01*
X18815Y18819D01*
X18708Y19078D01*
X18537Y19299D01*
X18316Y19470D01*
X18057Y19577D01*
X17780Y19613D01*
D02*
G37*
G36*
X24130Y55921D02*
X23791Y55877D01*
X23474Y55746D01*
X23203Y55537D01*
X22994Y55266D01*
X22863Y54949D01*
X22819Y54610D01*
X22863Y54271D01*
X22994Y53954D01*
X23203Y53683D01*
X23474Y53474D01*
X23791Y53343D01*
X24130Y53299D01*
X24469Y53343D01*
X24786Y53474D01*
X25057Y53683D01*
X25266Y53954D01*
X25305Y54049D01*
X25714D01*
X25885Y53825D01*
X26115Y53649D01*
X26383Y53538D01*
X26670Y53501D01*
X26957Y53538D01*
X27225Y53649D01*
X27455Y53825D01*
X27631Y54055D01*
X27742Y54323D01*
X27779Y54610D01*
X27742Y54897D01*
X27631Y55165D01*
X27455Y55395D01*
X27225Y55571D01*
X26957Y55682D01*
X26670Y55719D01*
X26383Y55682D01*
X26115Y55571D01*
X25885Y55395D01*
X25714Y55171D01*
X25305D01*
X25266Y55266D01*
X25057Y55537D01*
X24786Y55746D01*
X24469Y55877D01*
X24130Y55921D01*
D02*
G37*
G36*
X30280Y56950D02*
X29447D01*
X29457Y56876D01*
X29563Y56620D01*
X29731Y56401D01*
X29950Y56233D01*
X30206Y56127D01*
X30280Y56117D01*
Y56950D01*
D02*
G37*
G36*
X31513D02*
X30680D01*
Y56117D01*
X30754Y56127D01*
X31010Y56233D01*
X31229Y56401D01*
X31397Y56620D01*
X31503Y56876D01*
X31513Y56950D01*
D02*
G37*
G36*
X49632Y59388D02*
X49388Y59356D01*
X49160Y59262D01*
X48965Y59112D01*
X48815Y58917D01*
X48721Y58689D01*
X48689Y58445D01*
X48706Y58313D01*
X43024Y52631D01*
X23092D01*
X22151Y53572D01*
Y55648D01*
X22625Y56122D01*
X22860Y56091D01*
X23134Y56127D01*
X23390Y56233D01*
X23609Y56401D01*
X23753Y56589D01*
X24507D01*
X24651Y56401D01*
X24870Y56233D01*
X25126Y56127D01*
X25400Y56091D01*
X25674Y56127D01*
X25930Y56233D01*
X26149Y56401D01*
X26317Y56620D01*
X26423Y56876D01*
X26459Y57150D01*
X26423Y57424D01*
X26317Y57680D01*
X26149Y57899D01*
X25930Y58067D01*
X25674Y58173D01*
X25400Y58209D01*
X25126Y58173D01*
X24870Y58067D01*
X24651Y57899D01*
X24507Y57711D01*
X23753D01*
X23609Y57899D01*
X23390Y58067D01*
X23134Y58173D01*
X22860Y58209D01*
X22586Y58173D01*
X22330Y58067D01*
X22111Y57899D01*
X21943Y57680D01*
X21837Y57424D01*
X21801Y57150D01*
X21832Y56915D01*
X21193Y56277D01*
X21072Y56095D01*
X21029Y55880D01*
Y53340D01*
X21072Y53125D01*
X21193Y52943D01*
X22463Y51673D01*
X22645Y51552D01*
X22860Y51509D01*
X28249D01*
X28298Y51392D01*
X25638Y48733D01*
X25517Y48551D01*
X25474Y48336D01*
Y38332D01*
X23898Y36756D01*
X16510D01*
X16295Y36713D01*
X16113Y36592D01*
X14843Y35322D01*
X14722Y35140D01*
X14679Y34925D01*
Y33913D01*
X14491Y33769D01*
X14323Y33550D01*
X14217Y33294D01*
X14181Y33020D01*
X14217Y32746D01*
X14323Y32490D01*
X14491Y32271D01*
X14710Y32103D01*
X14966Y31997D01*
X15240Y31961D01*
X15514Y31997D01*
X15770Y32103D01*
X15989Y32271D01*
X16157Y32490D01*
X16263Y32746D01*
X16299Y33020D01*
X16263Y33294D01*
X16157Y33550D01*
X15989Y33769D01*
X15801Y33913D01*
Y34693D01*
X16742Y35634D01*
X24130D01*
X24345Y35677D01*
X24527Y35798D01*
X26432Y37703D01*
X26553Y37885D01*
X26596Y38100D01*
Y48104D01*
X29201Y50709D01*
X38320D01*
X38369Y50592D01*
X37703Y49927D01*
X37582Y49745D01*
X37539Y49530D01*
Y49153D01*
X37351Y49009D01*
X37183Y48790D01*
X37077Y48534D01*
X37041Y48260D01*
X37077Y47986D01*
X37183Y47730D01*
X37351Y47511D01*
X37570Y47343D01*
X37826Y47237D01*
X38100Y47201D01*
X38374Y47237D01*
X38630Y47343D01*
X38849Y47511D01*
X39017Y47730D01*
X39123Y47986D01*
X39159Y48260D01*
X39123Y48534D01*
X39017Y48790D01*
X38849Y49009D01*
X38661Y49153D01*
Y49298D01*
X39272Y49909D01*
X42008D01*
X42619Y49298D01*
Y49153D01*
X42431Y49009D01*
X42263Y48790D01*
X42157Y48534D01*
X42121Y48260D01*
X42157Y47986D01*
X42263Y47730D01*
X42431Y47511D01*
X42650Y47343D01*
X42906Y47237D01*
X43180Y47201D01*
X43454Y47237D01*
X43710Y47343D01*
X43929Y47511D01*
X44097Y47730D01*
X44203Y47986D01*
X44239Y48260D01*
X44203Y48534D01*
X44097Y48790D01*
X43929Y49009D01*
X43741Y49153D01*
Y49530D01*
X43698Y49745D01*
X43577Y49927D01*
X42911Y50592D01*
X42960Y50709D01*
X43748D01*
X45024Y49433D01*
X44994Y49362D01*
X44963Y49314D01*
X44853Y49293D01*
X44754Y49226D01*
X44687Y49127D01*
X44664Y49010D01*
Y47510D01*
X44687Y47393D01*
X44754Y47294D01*
X44853Y47227D01*
X44970Y47204D01*
X46470D01*
X46587Y47227D01*
X46686Y47294D01*
X46753Y47393D01*
X46776Y47510D01*
Y49010D01*
X46753Y49127D01*
X46686Y49226D01*
X46587Y49293D01*
X46470Y49316D01*
X46281D01*
Y49530D01*
X46238Y49745D01*
X46117Y49927D01*
X44377Y51667D01*
X44195Y51788D01*
X43988Y51829D01*
X43957Y51877D01*
X43927Y51948D01*
X49499Y57520D01*
X49632Y57502D01*
X49876Y57534D01*
X50103Y57629D01*
X50298Y57779D01*
X50448Y57974D01*
X50543Y58201D01*
X50575Y58445D01*
X50543Y58689D01*
X50448Y58917D01*
X50298Y59112D01*
X50103Y59262D01*
X49876Y59356D01*
X49632Y59388D01*
D02*
G37*
G36*
X27940Y58209D02*
X27666Y58173D01*
X27410Y58067D01*
X27191Y57899D01*
X27023Y57680D01*
X26917Y57424D01*
X26881Y57150D01*
X26917Y56876D01*
X27023Y56620D01*
X27191Y56401D01*
X27410Y56233D01*
X27666Y56127D01*
X27940Y56091D01*
X28214Y56127D01*
X28470Y56233D01*
X28689Y56401D01*
X28857Y56620D01*
X28963Y56876D01*
X28999Y57150D01*
X28963Y57424D01*
X28857Y57680D01*
X28689Y57899D01*
X28470Y58067D01*
X28214Y58173D01*
X27940Y58209D01*
D02*
G37*
G36*
X30280Y58183D02*
X30206Y58173D01*
X29950Y58067D01*
X29731Y57899D01*
X29563Y57680D01*
X29457Y57424D01*
X29447Y57350D01*
X30280D01*
Y58183D01*
D02*
G37*
G36*
X30680D02*
Y57350D01*
X31513D01*
X31503Y57424D01*
X31397Y57680D01*
X31229Y57899D01*
X31010Y58067D01*
X30754Y58173D01*
X30680Y58183D01*
D02*
G37*
G36*
X36830Y55719D02*
X36543Y55682D01*
X36275Y55571D01*
X36045Y55395D01*
X35869Y55165D01*
X35758Y54897D01*
X35721Y54610D01*
X35758Y54323D01*
X35869Y54055D01*
X36045Y53825D01*
X36275Y53649D01*
X36543Y53538D01*
X36830Y53501D01*
X37117Y53538D01*
X37385Y53649D01*
X37615Y53825D01*
X37791Y54055D01*
X37902Y54323D01*
X37939Y54610D01*
X37902Y54897D01*
X37791Y55165D01*
X37615Y55395D01*
X37385Y55571D01*
X37117Y55682D01*
X36830Y55719D01*
D02*
G37*
G36*
X38964Y59387D02*
X34696D01*
X34482Y59344D01*
X34300Y59223D01*
X33255Y58178D01*
X33020Y58209D01*
X32746Y58173D01*
X32490Y58067D01*
X32271Y57899D01*
X32103Y57680D01*
X31997Y57424D01*
X31961Y57150D01*
X31997Y56876D01*
X32103Y56620D01*
X32271Y56401D01*
X32490Y56233D01*
X32746Y56127D01*
X33020Y56091D01*
X33294Y56127D01*
X33550Y56233D01*
X33769Y56401D01*
X33937Y56620D01*
X34043Y56876D01*
X34079Y57150D01*
X34048Y57385D01*
X34929Y58266D01*
X35178D01*
X35203Y58139D01*
X35030Y58067D01*
X34811Y57899D01*
X34643Y57680D01*
X34537Y57424D01*
X34501Y57150D01*
X34537Y56876D01*
X34643Y56620D01*
X34811Y56401D01*
X35030Y56233D01*
X35286Y56127D01*
X35560Y56091D01*
X35834Y56127D01*
X36090Y56233D01*
X36309Y56401D01*
X36453Y56589D01*
X37868D01*
X38297Y56160D01*
X38261Y55880D01*
X38298Y55593D01*
X38409Y55325D01*
X38585Y55095D01*
X38815Y54919D01*
X39083Y54808D01*
X39370Y54771D01*
X39657Y54808D01*
X39925Y54919D01*
X40155Y55095D01*
X40331Y55325D01*
X40442Y55593D01*
X40479Y55880D01*
X40442Y56167D01*
X40331Y56435D01*
X40242Y56550D01*
X40269Y56632D01*
X40306Y56676D01*
X40321Y56676D01*
X40837Y56160D01*
X40801Y55880D01*
X40838Y55593D01*
X40949Y55325D01*
X41125Y55095D01*
X41355Y54919D01*
X41623Y54808D01*
X41910Y54771D01*
X42197Y54808D01*
X42465Y54919D01*
X42695Y55095D01*
X42871Y55325D01*
X42982Y55593D01*
X43019Y55880D01*
X42982Y56167D01*
X42871Y56435D01*
X42695Y56665D01*
X42465Y56841D01*
X42197Y56952D01*
X41910Y56989D01*
X41630Y56953D01*
X39360Y59223D01*
X39178Y59344D01*
X38964Y59387D01*
D02*
G37*
G36*
X19250Y55895D02*
Y54810D01*
X20335D01*
X20317Y54949D01*
X20186Y55266D01*
X19977Y55537D01*
X19706Y55746D01*
X19389Y55877D01*
X19250Y55895D01*
D02*
G37*
G36*
X20320Y58209D02*
X20046Y58173D01*
X19790Y58067D01*
X19571Y57899D01*
X19403Y57680D01*
X19297Y57424D01*
X19261Y57150D01*
X19297Y56876D01*
X19403Y56620D01*
X19571Y56401D01*
X19790Y56233D01*
X20046Y56127D01*
X20320Y56091D01*
X20594Y56127D01*
X20850Y56233D01*
X21069Y56401D01*
X21237Y56620D01*
X21343Y56876D01*
X21379Y57150D01*
X21343Y57424D01*
X21237Y57680D01*
X21069Y57899D01*
X20850Y58067D01*
X20594Y58173D01*
X20320Y58209D01*
D02*
G37*
G36*
X44450Y56989D02*
X44163Y56952D01*
X43895Y56841D01*
X43665Y56665D01*
X43489Y56435D01*
X43378Y56167D01*
X43341Y55880D01*
X43378Y55593D01*
X43489Y55325D01*
X43665Y55095D01*
X43895Y54919D01*
X44163Y54808D01*
X44450Y54771D01*
X44737Y54808D01*
X45005Y54919D01*
X45235Y55095D01*
X45411Y55325D01*
X45522Y55593D01*
X45559Y55880D01*
X45522Y56167D01*
X45411Y56435D01*
X45235Y56665D01*
X45005Y56841D01*
X44737Y56952D01*
X44450Y56989D01*
D02*
G37*
G36*
X18850Y55895D02*
X18711Y55877D01*
X18394Y55746D01*
X18123Y55537D01*
X17914Y55266D01*
X17783Y54949D01*
X17765Y54810D01*
X18850D01*
Y55895D01*
D02*
G37*
G36*
X36310Y65826D02*
X34810D01*
X34693Y65803D01*
X34594Y65736D01*
X34527Y65637D01*
X34504Y65520D01*
Y64020D01*
X34527Y63903D01*
X34594Y63804D01*
X34693Y63737D01*
X34810Y63714D01*
X35823D01*
X36433Y63103D01*
X36615Y62982D01*
X36830Y62939D01*
X49860D01*
X50075Y62982D01*
X50257Y63103D01*
X50693Y63540D01*
X50825Y63522D01*
X51069Y63554D01*
X51297Y63648D01*
X51492Y63798D01*
X51642Y63994D01*
X51736Y64221D01*
X51768Y64465D01*
X51736Y64709D01*
X51642Y64937D01*
X51492Y65132D01*
X51297Y65282D01*
X51069Y65376D01*
X50825Y65408D01*
X50581Y65376D01*
X50354Y65282D01*
X50159Y65132D01*
X50009Y64937D01*
X49914Y64709D01*
X49882Y64465D01*
X49900Y64333D01*
X49628Y64061D01*
X37062D01*
X36616Y64507D01*
Y65520D01*
X36593Y65637D01*
X36526Y65736D01*
X36427Y65803D01*
X36310Y65826D01*
D02*
G37*
G36*
X33020Y65829D02*
X32746Y65793D01*
X32490Y65687D01*
X32271Y65519D01*
X32103Y65300D01*
X31997Y65044D01*
X31961Y64770D01*
X31997Y64496D01*
X32103Y64240D01*
X32271Y64021D01*
X32490Y63853D01*
X32746Y63747D01*
X33020Y63711D01*
X33294Y63747D01*
X33550Y63853D01*
X33769Y64021D01*
X33937Y64240D01*
X34043Y64496D01*
X34079Y64770D01*
X34043Y65044D01*
X33937Y65300D01*
X33769Y65519D01*
X33550Y65687D01*
X33294Y65793D01*
X33020Y65829D01*
D02*
G37*
G36*
X40453Y77270D02*
X39570D01*
Y76387D01*
X39657Y76398D01*
X39925Y76509D01*
X40155Y76685D01*
X40331Y76915D01*
X40442Y77183D01*
X40453Y77270D01*
D02*
G37*
G36*
X44250Y78540D02*
X43165D01*
X43183Y78401D01*
X43314Y78084D01*
X43523Y77813D01*
X43794Y77604D01*
X44111Y77473D01*
X44250Y77455D01*
Y78540D01*
D02*
G37*
G36*
X39170Y77270D02*
X38287D01*
X38298Y77183D01*
X38409Y76915D01*
X38585Y76685D01*
X38815Y76509D01*
X39083Y76398D01*
X39170Y76387D01*
Y77270D01*
D02*
G37*
G36*
X45735Y78540D02*
X44650D01*
Y77455D01*
X44789Y77473D01*
X45106Y77604D01*
X45377Y77813D01*
X45586Y78084D01*
X45717Y78401D01*
X45735Y78540D01*
D02*
G37*
G36*
X39570Y78553D02*
Y77670D01*
X40453D01*
X40442Y77757D01*
X40331Y78025D01*
X40155Y78255D01*
X39925Y78431D01*
X39657Y78542D01*
X39570Y78553D01*
D02*
G37*
G36*
X44250Y80025D02*
X44111Y80007D01*
X43794Y79876D01*
X43523Y79667D01*
X43314Y79396D01*
X43183Y79079D01*
X43165Y78940D01*
X44250D01*
Y80025D01*
D02*
G37*
G36*
X49730Y5617D02*
Y4010D01*
X50601D01*
Y4572D01*
X50565Y4849D01*
X50458Y5108D01*
X50287Y5329D01*
X50066Y5500D01*
X49807Y5607D01*
X49730Y5617D01*
D02*
G37*
G36*
X49330D02*
X49253Y5607D01*
X48994Y5500D01*
X48773Y5329D01*
X48602Y5108D01*
X48495Y4849D01*
X48459Y4572D01*
Y4010D01*
X49330D01*
Y5617D01*
D02*
G37*
G36*
X52070Y5643D02*
X51793Y5607D01*
X51534Y5500D01*
X51313Y5329D01*
X51142Y5108D01*
X51035Y4849D01*
X50999Y4572D01*
Y3048D01*
X51035Y2771D01*
X51142Y2512D01*
X51313Y2291D01*
X51534Y2120D01*
X51793Y2013D01*
X52070Y1977D01*
X52347Y2013D01*
X52606Y2120D01*
X52827Y2291D01*
X52998Y2512D01*
X53105Y2771D01*
X53141Y3048D01*
Y4572D01*
X53105Y4849D01*
X52998Y5108D01*
X52827Y5329D01*
X52606Y5500D01*
X52347Y5607D01*
X52070Y5643D01*
D02*
G37*
G36*
X50601Y3610D02*
X49730D01*
Y2003D01*
X49807Y2013D01*
X50066Y2120D01*
X50287Y2291D01*
X50458Y2512D01*
X50565Y2771D01*
X50601Y3048D01*
Y3610D01*
D02*
G37*
G36*
X49330D02*
X48459D01*
Y3048D01*
X48495Y2771D01*
X48602Y2512D01*
X48773Y2291D01*
X48994Y2120D01*
X49253Y2013D01*
X49330Y2003D01*
Y3610D01*
D02*
G37*
G36*
X11630Y86173D02*
Y85290D01*
X12513D01*
X12502Y85377D01*
X12391Y85645D01*
X12215Y85875D01*
X11985Y86051D01*
X11717Y86162D01*
X11630Y86173D01*
D02*
G37*
G36*
X33220D02*
Y85290D01*
X34103D01*
X34092Y85377D01*
X33981Y85645D01*
X33805Y85875D01*
X33575Y86051D01*
X33307Y86162D01*
X33220Y86173D01*
D02*
G37*
G36*
X11230D02*
X11143Y86162D01*
X10875Y86051D01*
X10645Y85875D01*
X10469Y85645D01*
X10358Y85377D01*
X10347Y85290D01*
X11230D01*
Y86173D01*
D02*
G37*
G36*
X32820D02*
X32733Y86162D01*
X32465Y86051D01*
X32235Y85875D01*
X32059Y85645D01*
X31948Y85377D01*
X31937Y85290D01*
X32820D01*
Y86173D01*
D02*
G37*
G36*
X11430Y88739D02*
X11143Y88702D01*
X10875Y88591D01*
X10645Y88415D01*
X10469Y88185D01*
X10358Y87917D01*
X10321Y87630D01*
X10358Y87343D01*
X10469Y87075D01*
X10645Y86845D01*
X10875Y86669D01*
X11143Y86558D01*
X11430Y86521D01*
X11717Y86558D01*
X11985Y86669D01*
X12215Y86845D01*
X12391Y87075D01*
X12502Y87343D01*
X12539Y87630D01*
X12502Y87917D01*
X12391Y88185D01*
X12215Y88415D01*
X11985Y88591D01*
X11717Y88702D01*
X11430Y88739D01*
D02*
G37*
G36*
X17580Y87443D02*
X17493Y87432D01*
X17225Y87321D01*
X16995Y87145D01*
X16819Y86915D01*
X16708Y86647D01*
X16697Y86560D01*
X17580D01*
Y87443D01*
D02*
G37*
G36*
X39170D02*
X39083Y87432D01*
X38815Y87321D01*
X38585Y87145D01*
X38409Y86915D01*
X38298Y86647D01*
X38287Y86560D01*
X39170D01*
Y87443D01*
D02*
G37*
G36*
X43180Y88739D02*
X42893Y88702D01*
X42625Y88591D01*
X42395Y88415D01*
X42219Y88185D01*
X42108Y87917D01*
X42071Y87630D01*
X42108Y87343D01*
X42219Y87075D01*
X42395Y86845D01*
X42625Y86669D01*
X42893Y86558D01*
X43180Y86521D01*
X43467Y86558D01*
X43735Y86669D01*
X43965Y86845D01*
X44141Y87075D01*
X44252Y87343D01*
X44289Y87630D01*
X44252Y87917D01*
X44141Y88185D01*
X43965Y88415D01*
X43735Y88591D01*
X43467Y88702D01*
X43180Y88739D01*
D02*
G37*
G36*
X37580Y83606D02*
X36080D01*
X35963Y83583D01*
X35864Y83516D01*
X35797Y83417D01*
X35774Y83300D01*
Y81800D01*
X35797Y81683D01*
X35864Y81584D01*
X35963Y81517D01*
X36080Y81494D01*
X37580D01*
X37697Y81517D01*
X37796Y81584D01*
X37863Y81683D01*
X37886Y81800D01*
Y83300D01*
X37863Y83417D01*
X37796Y83516D01*
X37697Y83583D01*
X37580Y83606D01*
D02*
G37*
G36*
X44450Y85131D02*
X44111Y85087D01*
X43794Y84956D01*
X43523Y84747D01*
X43314Y84476D01*
X43183Y84159D01*
X43139Y83820D01*
X43183Y83481D01*
X43314Y83164D01*
X43523Y82893D01*
X43794Y82684D01*
X44111Y82553D01*
X44450Y82509D01*
X44789Y82553D01*
X45106Y82684D01*
X45377Y82893D01*
X45586Y83164D01*
X45717Y83481D01*
X45761Y83820D01*
X45717Y84159D01*
X45586Y84476D01*
X45377Y84747D01*
X45106Y84956D01*
X44789Y85087D01*
X44450Y85131D01*
D02*
G37*
G36*
X33020Y83659D02*
X32733Y83622D01*
X32465Y83511D01*
X32235Y83335D01*
X32059Y83105D01*
X31948Y82837D01*
X31911Y82550D01*
X31948Y82263D01*
X32059Y81995D01*
X32235Y81765D01*
X32465Y81589D01*
X32733Y81478D01*
X33020Y81441D01*
X33307Y81478D01*
X33575Y81589D01*
X33805Y81765D01*
X33981Y81995D01*
X34092Y82263D01*
X34129Y82550D01*
X34092Y82837D01*
X33981Y83105D01*
X33805Y83335D01*
X33575Y83511D01*
X33307Y83622D01*
X33020Y83659D01*
D02*
G37*
G36*
X11230Y84890D02*
X10347D01*
X10358Y84803D01*
X10469Y84535D01*
X10645Y84305D01*
X10875Y84129D01*
X11143Y84018D01*
X11230Y84007D01*
Y84890D01*
D02*
G37*
G36*
X36830Y87469D02*
X36543Y87432D01*
X36275Y87321D01*
X36045Y87145D01*
X35869Y86915D01*
X35758Y86647D01*
X35721Y86360D01*
X35758Y86073D01*
X35869Y85805D01*
X36045Y85575D01*
X36275Y85399D01*
X36543Y85288D01*
X36830Y85251D01*
X37117Y85288D01*
X37385Y85399D01*
X37615Y85575D01*
X37791Y85805D01*
X37902Y86073D01*
X37939Y86360D01*
X37902Y86647D01*
X37791Y86915D01*
X37615Y87145D01*
X37385Y87321D01*
X37117Y87432D01*
X36830Y87469D01*
D02*
G37*
G36*
X39170Y86160D02*
X38287D01*
X38298Y86073D01*
X38409Y85805D01*
X38585Y85575D01*
X38815Y85399D01*
X39083Y85288D01*
X39170Y85277D01*
Y86160D01*
D02*
G37*
G36*
X32820Y84890D02*
X31937D01*
X31948Y84803D01*
X32059Y84535D01*
X32235Y84305D01*
X32465Y84129D01*
X32733Y84018D01*
X32820Y84007D01*
Y84890D01*
D02*
G37*
G36*
X34103D02*
X33220D01*
Y84007D01*
X33307Y84018D01*
X33575Y84129D01*
X33805Y84305D01*
X33981Y84535D01*
X34092Y84803D01*
X34103Y84890D01*
D02*
G37*
G36*
X39370Y89410D02*
X34239D01*
X34025Y89367D01*
X33843Y89246D01*
X33300Y88703D01*
X33020Y88739D01*
X32733Y88702D01*
X32465Y88591D01*
X32235Y88415D01*
X32059Y88185D01*
X31948Y87917D01*
X31911Y87630D01*
X31948Y87343D01*
X32059Y87075D01*
X32235Y86845D01*
X32465Y86669D01*
X32733Y86558D01*
X33020Y86521D01*
X33307Y86558D01*
X33575Y86669D01*
X33805Y86845D01*
X33981Y87075D01*
X34092Y87343D01*
X34129Y87630D01*
X34093Y87910D01*
X34471Y88288D01*
X39138D01*
X40013Y87413D01*
X39929Y87318D01*
X39925Y87321D01*
X39657Y87432D01*
X39570Y87443D01*
Y86360D01*
Y85277D01*
X39657Y85288D01*
X39925Y85399D01*
X40054Y85498D01*
X40181Y85436D01*
Y84154D01*
X39605Y83578D01*
X39370Y83609D01*
X39096Y83573D01*
X38840Y83467D01*
X38621Y83299D01*
X38453Y83080D01*
X38347Y82824D01*
X38311Y82550D01*
X38347Y82276D01*
X38453Y82020D01*
X38621Y81801D01*
X38840Y81633D01*
X39096Y81527D01*
X39370Y81491D01*
X39644Y81527D01*
X39900Y81633D01*
X40119Y81801D01*
X40287Y82020D01*
X40393Y82276D01*
X40429Y82550D01*
X40398Y82785D01*
X41138Y83525D01*
X41260Y83707D01*
X41302Y83922D01*
Y87478D01*
X41260Y87692D01*
X41138Y87874D01*
X39767Y89246D01*
X39585Y89367D01*
X39370Y89410D01*
D02*
G37*
G36*
X18850Y95063D02*
X18763Y95052D01*
X18495Y94941D01*
X18265Y94765D01*
X18089Y94535D01*
X17978Y94267D01*
X17967Y94180D01*
X18850D01*
Y95063D01*
D02*
G37*
G36*
X19250D02*
Y94180D01*
X20133D01*
X20122Y94267D01*
X20011Y94535D01*
X19835Y94765D01*
X19605Y94941D01*
X19337Y95052D01*
X19250Y95063D01*
D02*
G37*
G36*
X41723Y93780D02*
X40840D01*
Y92897D01*
X40927Y92908D01*
X41195Y93019D01*
X41425Y93195D01*
X41601Y93425D01*
X41712Y93693D01*
X41723Y93780D01*
D02*
G37*
G36*
X50070Y95787D02*
X49993Y95777D01*
X49734Y95670D01*
X49513Y95499D01*
X49342Y95278D01*
X49235Y95019D01*
X49199Y94742D01*
Y94180D01*
X50070D01*
Y95787D01*
D02*
G37*
G36*
X40440Y95063D02*
X40353Y95052D01*
X40085Y94941D01*
X39855Y94765D01*
X39679Y94535D01*
X39568Y94267D01*
X39557Y94180D01*
X40440D01*
Y95063D01*
D02*
G37*
G36*
X7270Y95813D02*
X6993Y95777D01*
X6734Y95670D01*
X6513Y95499D01*
X6342Y95278D01*
X6235Y95019D01*
X6199Y94742D01*
Y94541D01*
X5801D01*
Y94742D01*
X5765Y95019D01*
X5658Y95278D01*
X5487Y95499D01*
X5266Y95670D01*
X5007Y95777D01*
X4730Y95813D01*
X4453Y95777D01*
X4194Y95670D01*
X3973Y95499D01*
X3802Y95278D01*
X3695Y95019D01*
X3659Y94742D01*
Y93218D01*
X3695Y92941D01*
X3802Y92682D01*
X3973Y92461D01*
X4194Y92290D01*
X4453Y92183D01*
X4730Y92147D01*
X5007Y92183D01*
X5266Y92290D01*
X5487Y92461D01*
X5658Y92682D01*
X5765Y92941D01*
X5801Y93218D01*
Y93419D01*
X6199D01*
Y93218D01*
X6235Y92941D01*
X6342Y92682D01*
X6513Y92461D01*
X6734Y92290D01*
X6993Y92183D01*
X7270Y92147D01*
X7547Y92183D01*
X7806Y92290D01*
X8027Y92461D01*
X8198Y92682D01*
X8305Y92941D01*
X8341Y93218D01*
Y93419D01*
X12864D01*
Y93180D01*
X12887Y93063D01*
X12954Y92964D01*
X13053Y92897D01*
X13170Y92874D01*
X14770D01*
X14887Y92897D01*
X14986Y92964D01*
X15053Y93063D01*
X15076Y93180D01*
Y94780D01*
X15053Y94897D01*
X14986Y94996D01*
X14887Y95063D01*
X14770Y95086D01*
X13170D01*
X13053Y95063D01*
X12954Y94996D01*
X12887Y94897D01*
X12864Y94780D01*
Y94541D01*
X8341D01*
Y94742D01*
X8305Y95019D01*
X8198Y95278D01*
X8027Y95499D01*
X7806Y95670D01*
X7547Y95777D01*
X7270Y95813D01*
D02*
G37*
G36*
X28770D02*
X28493Y95777D01*
X28234Y95670D01*
X28013Y95499D01*
X27842Y95278D01*
X27735Y95019D01*
X27699Y94742D01*
Y94541D01*
X27301D01*
Y94742D01*
X27265Y95019D01*
X27158Y95278D01*
X26987Y95499D01*
X26766Y95670D01*
X26507Y95777D01*
X26230Y95813D01*
X25953Y95777D01*
X25694Y95670D01*
X25473Y95499D01*
X25302Y95278D01*
X25195Y95019D01*
X25159Y94742D01*
Y93218D01*
X25195Y92941D01*
X25302Y92682D01*
X25473Y92461D01*
X25694Y92290D01*
X25953Y92183D01*
X26230Y92147D01*
X26507Y92183D01*
X26766Y92290D01*
X26987Y92461D01*
X27158Y92682D01*
X27265Y92941D01*
X27301Y93218D01*
Y93419D01*
X27699D01*
Y93218D01*
X27735Y92941D01*
X27842Y92682D01*
X28013Y92461D01*
X28234Y92290D01*
X28493Y92183D01*
X28770Y92147D01*
X29047Y92183D01*
X29306Y92290D01*
X29527Y92461D01*
X29698Y92682D01*
X29805Y92941D01*
X29841Y93218D01*
Y93419D01*
X34454D01*
Y93180D01*
X34477Y93063D01*
X34544Y92964D01*
X34643Y92897D01*
X34760Y92874D01*
X36360D01*
X36477Y92897D01*
X36576Y92964D01*
X36643Y93063D01*
X36666Y93180D01*
Y94780D01*
X36643Y94897D01*
X36576Y94996D01*
X36477Y95063D01*
X36360Y95086D01*
X34760D01*
X34643Y95063D01*
X34544Y94996D01*
X34477Y94897D01*
X34454Y94780D01*
Y94541D01*
X29841D01*
Y94742D01*
X29805Y95019D01*
X29698Y95278D01*
X29527Y95499D01*
X29306Y95670D01*
X29047Y95777D01*
X28770Y95813D01*
D02*
G37*
G36*
X40840Y95063D02*
Y94180D01*
X41723D01*
X41712Y94267D01*
X41601Y94535D01*
X41425Y94765D01*
X41195Y94941D01*
X40927Y95052D01*
X40840Y95063D01*
D02*
G37*
G36*
X50470Y95787D02*
Y94180D01*
X51341D01*
Y94742D01*
X51305Y95019D01*
X51198Y95278D01*
X51027Y95499D01*
X50806Y95670D01*
X50547Y95777D01*
X50470Y95787D01*
D02*
G37*
G36*
X43180Y91279D02*
X42893Y91242D01*
X42625Y91131D01*
X42395Y90955D01*
X42219Y90725D01*
X42108Y90457D01*
X42071Y90170D01*
X42108Y89883D01*
X42219Y89615D01*
X42395Y89385D01*
X42625Y89209D01*
X42893Y89098D01*
X43180Y89061D01*
X43467Y89098D01*
X43735Y89209D01*
X43965Y89385D01*
X44141Y89615D01*
X44252Y89883D01*
X44289Y90170D01*
X44252Y90457D01*
X44141Y90725D01*
X43965Y90955D01*
X43735Y91131D01*
X43467Y91242D01*
X43180Y91279D01*
D02*
G37*
G36*
X47730Y95813D02*
X47453Y95777D01*
X47194Y95670D01*
X46973Y95499D01*
X46802Y95278D01*
X46695Y95019D01*
X46659Y94742D01*
Y93218D01*
X46695Y92941D01*
X46802Y92682D01*
X46973Y92461D01*
X47194Y92290D01*
X47453Y92183D01*
X47730Y92147D01*
X48007Y92183D01*
X48266Y92290D01*
X48487Y92461D01*
X48658Y92682D01*
X48765Y92941D01*
X48801Y93218D01*
Y94742D01*
X48765Y95019D01*
X48658Y95278D01*
X48487Y95499D01*
X48266Y95670D01*
X48007Y95777D01*
X47730Y95813D01*
D02*
G37*
G36*
X11430Y91279D02*
X11143Y91242D01*
X10875Y91131D01*
X10645Y90955D01*
X10469Y90725D01*
X10358Y90457D01*
X10321Y90170D01*
X10358Y89883D01*
X10469Y89615D01*
X10645Y89385D01*
X10875Y89209D01*
X11143Y89098D01*
X11430Y89061D01*
X11717Y89098D01*
X11985Y89209D01*
X12215Y89385D01*
X12391Y89615D01*
X12502Y89883D01*
X12539Y90170D01*
X12502Y90457D01*
X12391Y90725D01*
X12215Y90955D01*
X11985Y91131D01*
X11717Y91242D01*
X11430Y91279D01*
D02*
G37*
G36*
X33020D02*
X32733Y91242D01*
X32465Y91131D01*
X32235Y90955D01*
X32059Y90725D01*
X31948Y90457D01*
X31911Y90170D01*
X31948Y89883D01*
X32059Y89615D01*
X32235Y89385D01*
X32465Y89209D01*
X32733Y89098D01*
X33020Y89061D01*
X33307Y89098D01*
X33575Y89209D01*
X33805Y89385D01*
X33981Y89615D01*
X34092Y89883D01*
X34129Y90170D01*
X34092Y90457D01*
X33981Y90725D01*
X33805Y90955D01*
X33575Y91131D01*
X33307Y91242D01*
X33020Y91279D01*
D02*
G37*
G36*
X50070Y93780D02*
X49199D01*
Y93218D01*
X49235Y92941D01*
X49342Y92682D01*
X49513Y92461D01*
X49734Y92290D01*
X49993Y92183D01*
X50070Y92173D01*
Y93780D01*
D02*
G37*
G36*
X20133D02*
X19250D01*
Y92897D01*
X19337Y92908D01*
X19605Y93019D01*
X19835Y93195D01*
X20011Y93425D01*
X20122Y93693D01*
X20133Y93780D01*
D02*
G37*
G36*
X40440D02*
X39557D01*
X39568Y93693D01*
X39679Y93425D01*
X39855Y93195D01*
X40085Y93019D01*
X40353Y92908D01*
X40440Y92897D01*
Y93780D01*
D02*
G37*
G36*
X51341D02*
X50470D01*
Y92173D01*
X50547Y92183D01*
X50806Y92290D01*
X51027Y92461D01*
X51198Y92682D01*
X51305Y92941D01*
X51341Y93218D01*
Y93780D01*
D02*
G37*
G36*
X18850D02*
X17967D01*
X17978Y93693D01*
X18089Y93425D01*
X18265Y93195D01*
X18495Y93019D01*
X18763Y92908D01*
X18850Y92897D01*
Y93780D01*
D02*
G37*
G36*
X49530Y82591D02*
X49191Y82547D01*
X48874Y82416D01*
X48603Y82207D01*
X48394Y81936D01*
X48263Y81619D01*
X48219Y81280D01*
X48263Y80941D01*
X48394Y80624D01*
X48603Y80353D01*
X48874Y80144D01*
X49191Y80013D01*
X49530Y79969D01*
X49869Y80013D01*
X50186Y80144D01*
X50457Y80353D01*
X50666Y80624D01*
X50797Y80941D01*
X50841Y81280D01*
X50797Y81619D01*
X50666Y81936D01*
X50457Y82207D01*
X50186Y82416D01*
X49869Y82547D01*
X49530Y82591D01*
D02*
G37*
%LPD*%
D10*
X30480Y40640D02*
X33020D01*
X24130Y54610D02*
X26670D01*
X45720Y34290D02*
X49530D01*
X26230Y93980D02*
X28770D01*
X35560D01*
X6350Y45720D02*
X8890D01*
X3810D02*
X6350D01*
X12700Y40640D02*
X15240D01*
X4730Y93980D02*
X7270D01*
X13970D01*
X39370Y66040D02*
X41910D01*
X44450D01*
X3810Y62230D02*
X6350D01*
X3810Y41910D02*
X6350D01*
X46990Y2184D02*
Y3810D01*
X45720Y914D02*
X46990Y2184D01*
X10160Y914D02*
X45720D01*
X8890Y2184D02*
X10160Y914D01*
X8890Y2184D02*
Y3810D01*
X27940Y62230D02*
X30480Y64770D01*
X38964Y58826D02*
X41910Y55880D01*
X34696Y58826D02*
X38964D01*
X33020Y57150D02*
X34696Y58826D01*
X20320Y8255D02*
Y10160D01*
Y8255D02*
X20955Y7620D01*
X26670D01*
X27940Y8890D01*
X19050Y54610D02*
Y55423D01*
X33020Y74930D02*
X35170Y77080D01*
X6350Y41910D02*
X7620Y40640D01*
X10160D01*
X11430Y74930D02*
X13580Y77080D01*
X39370Y82550D02*
X40742Y83922D01*
Y87478D01*
X39370Y88849D02*
X40742Y87478D01*
X34239Y88849D02*
X39370D01*
X33020Y87630D02*
X34239Y88849D01*
X6502Y10160D02*
X8890D01*
X4445Y8103D02*
X6502Y10160D01*
X2460Y44370D02*
X3810Y45720D01*
X2460Y40187D02*
Y44370D01*
Y40187D02*
X3327Y39319D01*
X11379D01*
X12700Y40640D01*
X19431Y73889D02*
Y78867D01*
X17551Y80747D02*
X19431Y78867D01*
X14046Y80747D02*
X17551D01*
X12776Y79477D02*
X14046Y80747D01*
X12776Y78765D02*
Y79477D01*
X11430Y77419D02*
X12776Y78765D01*
X19050Y3810D02*
Y5690D01*
X19685Y6325D01*
X30889D01*
X29007Y10363D02*
X30480Y8890D01*
X22860Y10160D02*
Y10363D01*
X8890Y82550D02*
X11430D01*
X12852Y83972D01*
X18898D01*
X21133Y81737D01*
Y78283D02*
Y81737D01*
X10160Y6629D02*
X11430Y5359D01*
Y3810D02*
Y5359D01*
X38100Y57150D02*
X39370Y55880D01*
X35560Y57150D02*
X38100D01*
X6350Y29210D02*
X10160D01*
X3810Y31750D02*
X6350Y29210D01*
X21438Y39218D02*
X24130Y41910D01*
X16662Y39218D02*
X21438D01*
X15240Y40640D02*
X16662Y39218D01*
X16637Y84963D02*
X18567D01*
X15240Y86360D02*
X16637Y84963D01*
X34366Y79477D02*
X35636Y80747D01*
X34366Y78816D02*
Y79477D01*
X33020Y77470D02*
X34366Y78816D01*
X31750Y3810D02*
Y6054D01*
X39370Y77470D02*
X40640Y78740D01*
X44450D01*
X11430Y85090D02*
X14173Y87833D01*
X16307D01*
X17780Y86360D01*
X10160Y33020D02*
X11582Y31598D01*
X14122D01*
X15240Y30480D01*
X45720Y40640D02*
X46990Y39370D01*
X49530D01*
X6350Y62230D02*
X8890D01*
X18161Y72619D02*
X19431Y73889D01*
X44450Y2362D02*
Y3810D01*
X43815Y1727D02*
X44450Y2362D01*
X29210D02*
Y3810D01*
Y2362D02*
X29845Y1727D01*
X43815D01*
X20320Y10160D02*
Y12065D01*
X19685Y12700D02*
X20320Y12065D01*
X15875Y12700D02*
X19685D01*
X13335Y10160D02*
X15875Y12700D01*
X8890Y10160D02*
X13335D01*
X5715Y20320D02*
X7620D01*
X4445Y19050D02*
X5715Y20320D01*
X2540Y19050D02*
X4445D01*
X49174Y15519D02*
Y24130D01*
X53369Y28325D01*
X48260Y15736D02*
Y24354D01*
X52569Y28663D01*
X46838Y24917D02*
Y32309D01*
Y24917D02*
X47460Y24295D01*
Y16068D02*
Y24295D01*
X3708Y50063D02*
X5944D01*
X1270Y47625D02*
X3708Y50063D01*
X1270Y28575D02*
Y47625D01*
Y28575D02*
X3810Y26035D01*
X10160D01*
X677Y8255D02*
Y13377D01*
X5715Y18415D01*
X10719D01*
X677Y8255D02*
X2303Y6629D01*
X10160D01*
X12065Y19761D02*
Y24130D01*
X10719Y18415D02*
X12065Y19761D01*
X10160Y26035D02*
X12065Y24130D01*
X5715Y13335D02*
X6985Y12065D01*
X5715Y13335D02*
Y15875D01*
X7455Y17615D01*
X11050D01*
X12865Y19430D01*
Y23025D01*
X15875Y26035D01*
X12700Y29210D02*
X13335D01*
X30480Y38100D02*
Y40640D01*
X20320Y27940D02*
X30480Y38100D01*
X13970Y27940D02*
X20320D01*
X12700Y29210D02*
X13970Y27940D01*
X45720Y40640D02*
Y41910D01*
X44450Y43180D02*
X45720Y41910D01*
X30480Y43180D02*
X44450D01*
X28575Y41275D02*
X30480Y43180D01*
X6350Y33655D02*
X7950Y35255D01*
X6350Y31750D02*
Y33655D01*
X7950Y35255D02*
X10236D01*
X40640Y93980D02*
X43180Y96520D01*
X48895D02*
X50270Y95145D01*
Y93980D02*
Y95145D01*
X43180Y96520D02*
X48895D01*
X18567Y84963D02*
X20955Y87351D01*
X24062Y91520D02*
X27940Y87642D01*
Y64770D02*
Y87642D01*
X17780Y86360D02*
X18833D01*
X20155Y87682D01*
Y91275D02*
X21200Y92320D01*
X20155Y87682D02*
Y91275D01*
X21200Y92320D02*
X24393D01*
X20955Y90944D02*
X21531Y91520D01*
X20955Y87351D02*
Y90944D01*
X21531Y91520D02*
X24062D01*
X20320Y66040D02*
X21590Y67310D01*
X20320Y64770D02*
Y66040D01*
X21590Y67310D02*
X23495D01*
X1270Y85090D02*
X3175D01*
X3810Y84455D01*
Y82880D02*
X4445Y82245D01*
X3810Y82880D02*
Y84455D01*
X4445Y82245D02*
X5766D01*
X1270Y74930D02*
X5715D01*
X6985Y76200D01*
Y80645D01*
X8890Y82550D01*
X1270Y72390D02*
X6248D01*
X7620Y71018D01*
X17780Y74930D02*
Y77470D01*
X15875Y71018D02*
Y73025D01*
X17780Y74930D01*
X7620Y71018D02*
X15875D01*
X21488D01*
X22860Y72390D01*
X13580Y78033D02*
X14922Y79375D01*
X16510D01*
X13580Y77080D02*
Y78033D01*
X28740Y86195D02*
X29845Y85090D01*
X28740Y86195D02*
Y87973D01*
X24393Y92320D02*
X28740Y87973D01*
X29845Y85090D02*
X33020D01*
X37465Y84455D02*
X39370Y86360D01*
X34925Y84455D02*
X37465D01*
X34290Y85090D02*
X34925Y84455D01*
X33020Y85090D02*
X34290D01*
X29845Y80010D02*
X33020D01*
X28740Y78905D02*
X29845Y80010D01*
X28740Y70955D02*
Y78905D01*
Y70955D02*
X31750Y67945D01*
X50800D01*
X52569Y66176D01*
Y28663D02*
Y66176D01*
X35560Y64770D02*
X36830Y63500D01*
X49860D01*
X50825Y64465D01*
X38100Y66040D02*
X39370D01*
X36995Y67145D02*
X38100Y66040D01*
X32855Y67145D02*
X36995D01*
X30480Y64770D02*
X32855Y67145D01*
X12065Y42545D02*
Y62230D01*
X10160Y40640D02*
X12065Y42545D01*
X8890Y62230D02*
X12065D01*
X27940D01*
X14605Y37465D02*
X22225D01*
X10160Y33020D02*
X14605Y37465D01*
X22225D02*
X24130Y39370D01*
X15240Y33020D02*
Y34925D01*
X16510Y36195D01*
X24130D02*
X26035Y38100D01*
Y48336D01*
X16510Y36195D02*
X24130D01*
X22860Y33020D02*
X28575Y38735D01*
Y41275D01*
X17780Y33020D02*
X22860D01*
X26670Y32385D02*
X31115Y36830D01*
X26594Y32385D02*
X26670D01*
X26594Y27864D02*
Y32385D01*
X31115Y36830D02*
X35560D01*
Y39370D02*
Y40640D01*
X38100Y31750D02*
Y36830D01*
X35560Y39370D02*
X38100Y36830D01*
X32385Y26035D02*
X38100Y31750D01*
X15875Y26035D02*
X32385D01*
X41504Y21590D02*
X45644Y25730D01*
X30480Y21590D02*
X41504D01*
X27940Y19050D02*
X30480Y21590D01*
X22860Y17780D02*
X24765D01*
X27305Y15240D01*
X29210D01*
X15240Y17780D02*
X17780D01*
X12700Y15240D02*
X15240Y17780D01*
X8890Y15240D02*
X12700D01*
Y12065D02*
X14478Y13843D01*
X6985Y12065D02*
X12700D01*
X24130Y13843D02*
X26670Y11303D01*
X14478Y13843D02*
X24130D01*
X29210Y12700D02*
X44092D01*
X47460Y16068D01*
X44424Y11900D02*
X48260Y15736D01*
X34760Y11900D02*
X44424D01*
X36830Y9525D02*
X38405Y11100D01*
X36830Y3810D02*
Y9525D01*
X38405Y11100D02*
X44755D01*
X49174Y15519D01*
X36830Y76200D02*
Y77470D01*
Y76200D02*
X38100Y74930D01*
Y72390D02*
Y74930D01*
Y72390D02*
X48438D01*
X33020D02*
X38100D01*
X50800Y85090D02*
X53340Y87630D01*
X48260Y85090D02*
X50800D01*
X47142Y83972D02*
X48260Y85090D01*
X47142Y81432D02*
Y83972D01*
X35170Y78350D02*
X36195Y79375D01*
X35170Y77080D02*
Y78350D01*
X36195Y79375D02*
X38100D01*
X45085Y80747D02*
X53369Y72462D01*
Y28325D02*
Y72462D01*
X35636Y80747D02*
X45085D01*
X26035Y85090D02*
X27140Y83985D01*
Y70955D02*
Y83985D01*
X22860Y85090D02*
X26035D01*
X23495Y67310D02*
X27140Y70955D01*
X25400Y64135D02*
Y64770D01*
X24295Y63030D02*
X25400Y64135D01*
X16510Y63030D02*
X24295D01*
X5766Y68504D02*
X11036D01*
X16510Y63030D01*
X30480Y57150D02*
Y58420D01*
X29210Y59690D02*
X30480Y58420D01*
X19685Y59690D02*
X29210D01*
X18415Y58420D02*
X19685Y59690D01*
X18415Y56464D02*
Y58420D01*
Y56464D02*
X18999Y55880D01*
Y55423D02*
Y55880D01*
X21590D02*
X22860Y57150D01*
X21590Y53340D02*
Y55880D01*
Y53340D02*
X22860Y52070D01*
X43256D01*
X49632Y58445D01*
X22860Y57150D02*
X25400D01*
X26035Y48336D02*
X28969Y51270D01*
X43180Y48260D02*
Y49530D01*
X42240Y50470D02*
X43180Y49530D01*
X39040Y50470D02*
X42240D01*
X38100Y49530D02*
X39040Y50470D01*
X38100Y48260D02*
Y49530D01*
X49530Y47625D02*
Y49530D01*
X48260Y46355D02*
X49530Y47625D01*
X41275Y46355D02*
X48260D01*
X40640Y46990D02*
X41275Y46355D01*
X40640Y46990D02*
Y48260D01*
X43980Y51270D02*
X45720Y49530D01*
X28969Y51270D02*
X43980D01*
X45720Y48260D02*
Y49530D01*
X33655Y7959D02*
Y10795D01*
X34760Y11900D01*
X31750Y6054D02*
X33655Y7959D01*
X31877Y11303D02*
X32855Y10325D01*
Y8291D02*
Y10325D01*
X30889Y6325D02*
X32855Y8291D01*
X26670Y11303D02*
X31877D01*
X22860Y10363D02*
X29007D01*
X18999Y55423D02*
X19050D01*
D11*
X2500Y97500D02*
D03*
X52500D02*
D03*
X2500Y22500D02*
D03*
X52500D02*
D03*
D12*
X53340Y80010D02*
D03*
Y82550D02*
D03*
X1270Y90170D02*
D03*
X11430D02*
D03*
X1270Y72390D02*
D03*
X11430D02*
D03*
Y74930D02*
D03*
X1270D02*
D03*
X11430Y77419D02*
D03*
X1270D02*
D03*
X11430Y80010D02*
D03*
X1270D02*
D03*
X11430Y82550D02*
D03*
X1270D02*
D03*
X11430Y85090D02*
D03*
X1270D02*
D03*
Y87630D02*
D03*
X11430D02*
D03*
X17780Y77470D02*
D03*
X16510Y79375D02*
D03*
X15240Y77470D02*
D03*
X17780Y86360D02*
D03*
X15240D02*
D03*
X22860Y90170D02*
D03*
X33020D02*
D03*
X22860Y87630D02*
D03*
X33020D02*
D03*
Y85090D02*
D03*
X22860D02*
D03*
X33020Y82550D02*
D03*
X22860D02*
D03*
X33020Y80010D02*
D03*
X22860D02*
D03*
X33020Y77470D02*
D03*
X22860D02*
D03*
X33020Y74930D02*
D03*
X22860D02*
D03*
Y72390D02*
D03*
X33020D02*
D03*
X39370Y86360D02*
D03*
X36830D02*
D03*
X39370Y77470D02*
D03*
X38100Y79375D02*
D03*
X36830Y77470D02*
D03*
X43180Y87630D02*
D03*
X53340D02*
D03*
X43180Y90170D02*
D03*
X53340D02*
D03*
X39370Y55880D02*
D03*
Y66040D02*
D03*
X41910Y55880D02*
D03*
Y66040D02*
D03*
X44450Y55880D02*
D03*
Y66040D02*
D03*
X49530Y49530D02*
D03*
Y39370D02*
D03*
X35560Y36830D02*
D03*
X45720D02*
D03*
X35560Y34290D02*
D03*
X45720D02*
D03*
X3810Y45720D02*
D03*
Y55880D02*
D03*
X6350Y45720D02*
D03*
Y55880D02*
D03*
X8890Y45720D02*
D03*
Y55880D02*
D03*
X3810Y31750D02*
D03*
Y41910D02*
D03*
X6350Y31750D02*
D03*
Y41910D02*
D03*
X15240Y30480D02*
D03*
X17780D02*
D03*
X10160Y20320D02*
D03*
X7620D02*
D03*
X27940Y19050D02*
D03*
X30480D02*
D03*
X27940Y8890D02*
D03*
X30480D02*
D03*
X26670Y54610D02*
D03*
X36830D02*
D03*
D13*
X3810Y62230D02*
D03*
X6350D02*
D03*
X8890D02*
D03*
X17780Y82550D02*
D03*
X39370D02*
D03*
X30480Y40640D02*
D03*
X33020D02*
D03*
X35560D02*
D03*
X38100D02*
D03*
X40640D02*
D03*
X43180D02*
D03*
X45720D02*
D03*
X30480Y48260D02*
D03*
X33020D02*
D03*
X35560D02*
D03*
X38100D02*
D03*
X40640D02*
D03*
X43180D02*
D03*
X49530Y36830D02*
D03*
X29210Y12700D02*
D03*
D14*
X3810Y59690D02*
D03*
X6350D02*
D03*
X8890D02*
D03*
X45720Y48260D02*
D03*
X49530Y34290D02*
D03*
X29210Y15240D02*
D03*
D15*
X17780Y10160D02*
D03*
X20320D02*
D03*
X22860D02*
D03*
X17780Y17780D02*
D03*
X20320D02*
D03*
X22860D02*
D03*
X7270Y93980D02*
D03*
X4730D02*
D03*
X28770D02*
D03*
X26230D02*
D03*
X50270D02*
D03*
X47730D02*
D03*
X24130Y3810D02*
D03*
X21590D02*
D03*
X19050D02*
D03*
X26670D02*
D03*
X29210D02*
D03*
X16510D02*
D03*
X36830D02*
D03*
X34290D02*
D03*
X31750D02*
D03*
X13970D02*
D03*
X11430D02*
D03*
X8890D02*
D03*
X5080D02*
D03*
X2540D02*
D03*
X41910D02*
D03*
X44450D02*
D03*
X52070D02*
D03*
X49530D02*
D03*
X46990D02*
D03*
D16*
X35560Y93980D02*
D03*
X13970D02*
D03*
X10160Y29210D02*
D03*
D17*
X40640Y93980D02*
D03*
X19050D02*
D03*
X24130Y39370D02*
D03*
X12700Y29210D02*
D03*
X8890Y10160D02*
D03*
D18*
X15240Y82550D02*
D03*
X36830D02*
D03*
D19*
X44450Y78740D02*
D03*
Y83820D02*
D03*
X49530Y81280D02*
D03*
X2540Y8890D02*
D03*
Y19050D02*
D03*
X19050Y54610D02*
D03*
X24130D02*
D03*
X21590Y49530D02*
D03*
D20*
X35560Y64770D02*
D03*
X10160Y33020D02*
D03*
D21*
X33020Y64770D02*
D03*
X30480D02*
D03*
X27940D02*
D03*
X25400D02*
D03*
X22860D02*
D03*
X20320D02*
D03*
X35560Y57150D02*
D03*
X33020D02*
D03*
X30480D02*
D03*
X27940D02*
D03*
X25400D02*
D03*
X22860D02*
D03*
X20320D02*
D03*
X12700Y33020D02*
D03*
X15240D02*
D03*
X17780D02*
D03*
X10160Y40640D02*
D03*
X12700D02*
D03*
X15240D02*
D03*
X17780D02*
D03*
D22*
X24130Y41910D02*
D03*
X8890Y15240D02*
D03*
D23*
X4445Y8103D02*
D03*
X50825Y64465D02*
D03*
X10236Y35255D02*
D03*
X48438Y72390D02*
D03*
X26594Y27864D02*
D03*
X46838Y32309D02*
D03*
X47142Y81432D02*
D03*
X21133Y78283D02*
D03*
X5944Y50063D02*
D03*
X5766Y82245D02*
D03*
Y68504D02*
D03*
X49632Y58445D02*
D03*
X45644Y25730D02*
D03*
X18161Y72619D02*
D03*
M02*
