G04 Layer_Color=65535*
%FSLAX43Y43*%
%MOMM*%
G71*
G01*
G75*
%ADD24C,0.152*%
%ADD25C,0.127*%
%ADD26C,0.200*%
%ADD27C,0.600*%
%ADD28C,0.250*%
%ADD29C,0.305*%
%ADD30C,0.254*%
%ADD31R,10.668X0.762*%
%ADD32R,1.905X0.508*%
%ADD33R,0.762X0.508*%
%ADD34R,0.864X0.610*%
%ADD35R,0.610X0.864*%
%ADD36R,2.540X0.508*%
%ADD37R,0.762X1.905*%
G36*
X571Y4388D02*
X586Y4386D01*
X603Y4384D01*
X622Y4382D01*
X644Y4377D01*
X690Y4365D01*
X738Y4348D01*
X763Y4336D01*
X786Y4323D01*
X807Y4306D01*
X828Y4288D01*
X830Y4286D01*
X832Y4284D01*
X837Y4279D01*
X845Y4271D01*
X853Y4259D01*
X862Y4248D01*
X882Y4219D01*
X901Y4183D01*
X918Y4140D01*
X932Y4092D01*
X933Y4066D01*
X935Y4039D01*
Y4035D01*
Y4025D01*
X933Y4010D01*
X932Y3991D01*
X928Y3968D01*
X922Y3943D01*
X914Y3916D01*
X903Y3889D01*
X901Y3885D01*
X897Y3875D01*
X889Y3862D01*
X878Y3843D01*
X864Y3820D01*
X847Y3793D01*
X824Y3766D01*
X799Y3735D01*
X795Y3731D01*
X786Y3720D01*
X768Y3703D01*
X757Y3691D01*
X743Y3678D01*
X728Y3662D01*
X709Y3645D01*
X690Y3628D01*
X668Y3607D01*
X645Y3585D01*
X619Y3562D01*
X592Y3539D01*
X561Y3513D01*
X559Y3511D01*
X555Y3507D01*
X548Y3501D01*
X538Y3493D01*
X515Y3474D01*
X486Y3449D01*
X457Y3422D01*
X427Y3395D01*
X402Y3372D01*
X392Y3363D01*
X382Y3353D01*
X380Y3351D01*
X377Y3345D01*
X369Y3338D01*
X359Y3326D01*
X338Y3301D01*
X317Y3271D01*
X937D01*
Y3123D01*
X102D01*
Y3125D01*
Y3132D01*
Y3144D01*
X104Y3157D01*
X106Y3173D01*
X108Y3190D01*
X114Y3209D01*
X119Y3228D01*
Y3230D01*
X121Y3232D01*
X125Y3244D01*
X133Y3259D01*
X144Y3282D01*
X158Y3307D01*
X177Y3336D01*
X196Y3365D01*
X221Y3395D01*
Y3397D01*
X225Y3399D01*
X235Y3411D01*
X250Y3428D01*
X273Y3451D01*
X302Y3478D01*
X336Y3511D01*
X379Y3547D01*
X425Y3587D01*
X427Y3589D01*
X434Y3595D01*
X444Y3603D01*
X457Y3616D01*
X475Y3630D01*
X494Y3647D01*
X536Y3683D01*
X582Y3728D01*
X628Y3772D01*
X651Y3793D01*
X670Y3814D01*
X688Y3835D01*
X703Y3854D01*
Y3856D01*
X707Y3858D01*
X711Y3864D01*
X715Y3872D01*
X726Y3891D01*
X740Y3916D01*
X753Y3945D01*
X765Y3975D01*
X772Y4010D01*
X776Y4042D01*
Y4044D01*
Y4046D01*
X774Y4058D01*
X772Y4075D01*
X768Y4096D01*
X759Y4121D01*
X747Y4146D01*
X732Y4173D01*
X709Y4198D01*
X705Y4200D01*
X697Y4208D01*
X682Y4217D01*
X663Y4231D01*
X638Y4242D01*
X609Y4252D01*
X574Y4259D01*
X536Y4261D01*
X524D01*
X517Y4259D01*
X498Y4258D01*
X473Y4254D01*
X444Y4244D01*
X413Y4233D01*
X384Y4215D01*
X357Y4192D01*
X355Y4188D01*
X348Y4181D01*
X336Y4165D01*
X325Y4144D01*
X311Y4117D01*
X302Y4087D01*
X294Y4050D01*
X290Y4008D01*
X131Y4025D01*
Y4027D01*
Y4033D01*
X133Y4042D01*
X135Y4054D01*
X139Y4069D01*
X140Y4087D01*
X152Y4125D01*
X167Y4169D01*
X188Y4213D01*
X217Y4258D01*
X233Y4277D01*
X252Y4296D01*
X254Y4298D01*
X258Y4300D01*
X263Y4306D01*
X271Y4311D01*
X283Y4317D01*
X296Y4327D01*
X311Y4334D01*
X329Y4344D01*
X348Y4352D01*
X369Y4361D01*
X394Y4369D01*
X419Y4375D01*
X476Y4386D01*
X507Y4388D01*
X540Y4390D01*
X557D01*
X571Y4388D01*
D02*
G37*
G36*
X39047Y3326D02*
X38892D01*
Y4313D01*
X38890Y4311D01*
X38882Y4303D01*
X38869Y4294D01*
X38851Y4280D01*
X38830Y4263D01*
X38805Y4246D01*
X38777Y4225D01*
X38744Y4205D01*
X38742D01*
X38740Y4203D01*
X38729Y4196D01*
X38711Y4186D01*
X38690Y4175D01*
X38665Y4161D01*
X38638Y4150D01*
X38609Y4136D01*
X38583Y4125D01*
Y4276D01*
X38585D01*
X38588Y4278D01*
X38596Y4282D01*
X38604Y4288D01*
X38615Y4294D01*
X38629Y4299D01*
X38659Y4317D01*
X38694Y4338D01*
X38732Y4363D01*
X38771Y4392D01*
X38807Y4422D01*
X38809Y4424D01*
X38811Y4426D01*
X38823Y4438D01*
X38840Y4455D01*
X38861Y4476D01*
X38884Y4503D01*
X38907Y4532D01*
X38928Y4563D01*
X38946Y4593D01*
X39047D01*
Y3326D01*
D02*
G37*
G36*
X5772Y3123D02*
X5616D01*
Y4110D01*
X5614Y4108D01*
X5607Y4100D01*
X5593Y4090D01*
X5576Y4077D01*
X5555Y4060D01*
X5530Y4042D01*
X5501Y4021D01*
X5468Y4002D01*
X5466D01*
X5465Y4000D01*
X5453Y3993D01*
X5436Y3983D01*
X5415Y3971D01*
X5390Y3958D01*
X5363Y3946D01*
X5334Y3933D01*
X5307Y3922D01*
Y4073D01*
X5309D01*
X5313Y4075D01*
X5321Y4079D01*
X5328Y4085D01*
X5340Y4090D01*
X5353Y4096D01*
X5384Y4114D01*
X5418Y4135D01*
X5457Y4160D01*
X5495Y4188D01*
X5532Y4219D01*
X5534Y4221D01*
X5536Y4223D01*
X5547Y4235D01*
X5564Y4252D01*
X5586Y4273D01*
X5609Y4300D01*
X5632Y4329D01*
X5653Y4359D01*
X5670Y4390D01*
X5772D01*
Y3123D01*
D02*
G37*
G36*
X54160Y3326D02*
X54005D01*
Y4313D01*
X54003Y4311D01*
X53995Y4303D01*
X53982Y4294D01*
X53964Y4280D01*
X53943Y4263D01*
X53918Y4246D01*
X53890Y4225D01*
X53857Y4205D01*
X53855D01*
X53853Y4203D01*
X53842Y4196D01*
X53824Y4186D01*
X53803Y4175D01*
X53778Y4161D01*
X53751Y4150D01*
X53722Y4136D01*
X53696Y4125D01*
Y4276D01*
X53698D01*
X53701Y4278D01*
X53709Y4282D01*
X53717Y4288D01*
X53728Y4294D01*
X53742Y4299D01*
X53772Y4317D01*
X53807Y4338D01*
X53845Y4363D01*
X53884Y4392D01*
X53920Y4422D01*
X53922Y4424D01*
X53924Y4426D01*
X53936Y4438D01*
X53953Y4455D01*
X53974Y4476D01*
X53997Y4503D01*
X54020Y4532D01*
X54041Y4563D01*
X54059Y4593D01*
X54160D01*
Y3326D01*
D02*
G37*
G36*
X40246Y4471D02*
X39743D01*
X39674Y4131D01*
X39676Y4133D01*
X39679Y4135D01*
X39685Y4139D01*
X39693Y4145D01*
X39704Y4151D01*
X39716Y4156D01*
X39747Y4172D01*
X39781Y4187D01*
X39821Y4199D01*
X39866Y4208D01*
X39912Y4212D01*
X39927D01*
X39939Y4210D01*
X39954Y4208D01*
X39969Y4206D01*
X39989Y4202D01*
X40008Y4199D01*
X40052Y4183D01*
X40075Y4176D01*
X40098Y4164D01*
X40123Y4151D01*
X40146Y4135D01*
X40169Y4118D01*
X40190Y4097D01*
X40192Y4095D01*
X40196Y4091D01*
X40202Y4085D01*
X40207Y4076D01*
X40217Y4064D01*
X40227Y4051D01*
X40236Y4035D01*
X40248Y4018D01*
X40259Y3997D01*
X40269Y3976D01*
X40279Y3951D01*
X40288Y3926D01*
X40294Y3897D01*
X40300Y3868D01*
X40303Y3836D01*
X40305Y3803D01*
Y3801D01*
Y3795D01*
Y3786D01*
X40303Y3774D01*
X40302Y3759D01*
X40300Y3742D01*
X40298Y3722D01*
X40294Y3701D01*
X40280Y3655D01*
X40263Y3607D01*
X40252Y3580D01*
X40238Y3555D01*
X40223Y3530D01*
X40206Y3507D01*
X40204Y3505D01*
X40200Y3502D01*
X40192Y3494D01*
X40183Y3484D01*
X40171Y3473D01*
X40156Y3459D01*
X40138Y3446D01*
X40117Y3432D01*
X40096Y3417D01*
X40071Y3404D01*
X40042Y3390D01*
X40014Y3379D01*
X39981Y3369D01*
X39948Y3361D01*
X39912Y3358D01*
X39873Y3356D01*
X39856D01*
X39845Y3358D01*
X39831Y3359D01*
X39814Y3361D01*
X39795Y3363D01*
X39773Y3367D01*
X39729Y3379D01*
X39683Y3396D01*
X39660Y3407D01*
X39637Y3421D01*
X39614Y3434D01*
X39593Y3452D01*
X39591Y3454D01*
X39589Y3455D01*
X39583Y3461D01*
X39576Y3469D01*
X39568Y3478D01*
X39558Y3490D01*
X39549Y3503D01*
X39537Y3519D01*
X39516Y3555D01*
X39495Y3599D01*
X39480Y3649D01*
X39474Y3678D01*
X39470Y3707D01*
X39633Y3718D01*
Y3717D01*
Y3713D01*
X39635Y3707D01*
X39637Y3699D01*
X39643Y3678D01*
X39651Y3651D01*
X39660Y3622D01*
X39676Y3594D01*
X39693Y3565D01*
X39716Y3540D01*
X39720Y3538D01*
X39727Y3530D01*
X39741Y3523D01*
X39760Y3511D01*
X39783Y3502D01*
X39810Y3492D01*
X39841Y3484D01*
X39873Y3482D01*
X39885D01*
X39893Y3484D01*
X39914Y3486D01*
X39941Y3492D01*
X39969Y3503D01*
X40002Y3517D01*
X40033Y3538D01*
X40048Y3550D01*
X40063Y3565D01*
Y3567D01*
X40067Y3569D01*
X40075Y3580D01*
X40088Y3599D01*
X40102Y3624D01*
X40115Y3657D01*
X40129Y3695D01*
X40136Y3740D01*
X40140Y3790D01*
Y3791D01*
Y3795D01*
Y3803D01*
X40138Y3811D01*
Y3822D01*
X40136Y3836D01*
X40131Y3866D01*
X40123Y3899D01*
X40110Y3934D01*
X40090Y3968D01*
X40065Y3999D01*
X40062Y4003D01*
X40052Y4010D01*
X40037Y4024D01*
X40014Y4037D01*
X39987Y4051D01*
X39952Y4064D01*
X39914Y4072D01*
X39871Y4076D01*
X39858D01*
X39845Y4074D01*
X39825Y4072D01*
X39804Y4066D01*
X39781Y4060D01*
X39758Y4051D01*
X39735Y4039D01*
X39733Y4037D01*
X39725Y4033D01*
X39714Y4026D01*
X39701Y4016D01*
X39687Y4003D01*
X39672Y3987D01*
X39656Y3970D01*
X39643Y3951D01*
X39497Y3972D01*
X39620Y4619D01*
X40246D01*
Y4471D01*
D02*
G37*
G36*
X7551Y3199D02*
X7396D01*
Y4186D01*
X7394Y4184D01*
X7386Y4176D01*
X7373Y4167D01*
X7355Y4153D01*
X7334Y4136D01*
X7309Y4119D01*
X7281Y4098D01*
X7248Y4078D01*
X7246D01*
X7244Y4076D01*
X7233Y4069D01*
X7215Y4059D01*
X7194Y4048D01*
X7169Y4034D01*
X7142Y4023D01*
X7113Y4009D01*
X7087Y3998D01*
Y4149D01*
X7089D01*
X7092Y4151D01*
X7100Y4155D01*
X7108Y4161D01*
X7119Y4167D01*
X7133Y4172D01*
X7163Y4190D01*
X7198Y4211D01*
X7236Y4236D01*
X7275Y4265D01*
X7311Y4295D01*
X7313Y4297D01*
X7315Y4299D01*
X7327Y4311D01*
X7344Y4328D01*
X7365Y4349D01*
X7388Y4376D01*
X7411Y4405D01*
X7432Y4436D01*
X7450Y4466D01*
X7551D01*
Y3199D01*
D02*
G37*
G36*
X6615Y4388D02*
X6630Y4386D01*
X6647Y4384D01*
X6667Y4382D01*
X6688Y4377D01*
X6734Y4365D01*
X6782Y4348D01*
X6807Y4336D01*
X6830Y4323D01*
X6851Y4306D01*
X6872Y4288D01*
X6874Y4286D01*
X6876Y4284D01*
X6882Y4279D01*
X6889Y4271D01*
X6897Y4259D01*
X6907Y4248D01*
X6926Y4219D01*
X6945Y4183D01*
X6962Y4140D01*
X6976Y4092D01*
X6978Y4066D01*
X6980Y4039D01*
Y4035D01*
Y4025D01*
X6978Y4010D01*
X6976Y3991D01*
X6972Y3968D01*
X6966Y3943D01*
X6959Y3916D01*
X6947Y3889D01*
X6945Y3885D01*
X6941Y3875D01*
X6934Y3862D01*
X6922Y3843D01*
X6909Y3820D01*
X6891Y3793D01*
X6868Y3766D01*
X6843Y3735D01*
X6839Y3731D01*
X6830Y3720D01*
X6813Y3703D01*
X6801Y3691D01*
X6788Y3678D01*
X6772Y3662D01*
X6753Y3645D01*
X6734Y3628D01*
X6713Y3607D01*
X6690Y3585D01*
X6663Y3562D01*
X6636Y3539D01*
X6605Y3513D01*
X6603Y3511D01*
X6599Y3507D01*
X6592Y3501D01*
X6582Y3493D01*
X6559Y3474D01*
X6530Y3449D01*
X6501Y3422D01*
X6471Y3395D01*
X6446Y3372D01*
X6436Y3363D01*
X6427Y3353D01*
X6425Y3351D01*
X6421Y3345D01*
X6413Y3338D01*
X6404Y3326D01*
X6382Y3301D01*
X6361Y3271D01*
X6982D01*
Y3123D01*
X6146D01*
Y3125D01*
Y3132D01*
Y3144D01*
X6148Y3157D01*
X6150Y3173D01*
X6152Y3190D01*
X6158Y3209D01*
X6164Y3228D01*
Y3230D01*
X6165Y3232D01*
X6169Y3244D01*
X6177Y3259D01*
X6188Y3282D01*
X6202Y3307D01*
X6221Y3336D01*
X6240Y3365D01*
X6265Y3395D01*
Y3397D01*
X6269Y3399D01*
X6279Y3411D01*
X6294Y3428D01*
X6317Y3451D01*
X6346Y3478D01*
X6381Y3511D01*
X6423Y3547D01*
X6469Y3587D01*
X6471Y3589D01*
X6478Y3595D01*
X6488Y3603D01*
X6501Y3616D01*
X6519Y3630D01*
X6538Y3647D01*
X6580Y3683D01*
X6626Y3728D01*
X6672Y3772D01*
X6695Y3793D01*
X6715Y3814D01*
X6732Y3835D01*
X6747Y3854D01*
Y3856D01*
X6751Y3858D01*
X6755Y3864D01*
X6759Y3872D01*
X6770Y3891D01*
X6784Y3916D01*
X6797Y3945D01*
X6809Y3975D01*
X6816Y4010D01*
X6820Y4042D01*
Y4044D01*
Y4046D01*
X6818Y4058D01*
X6816Y4075D01*
X6813Y4096D01*
X6803Y4121D01*
X6791Y4146D01*
X6776Y4173D01*
X6753Y4198D01*
X6749Y4200D01*
X6742Y4208D01*
X6726Y4217D01*
X6707Y4231D01*
X6682Y4242D01*
X6653Y4252D01*
X6619Y4259D01*
X6580Y4261D01*
X6569D01*
X6561Y4259D01*
X6542Y4258D01*
X6517Y4254D01*
X6488Y4244D01*
X6457Y4233D01*
X6429Y4215D01*
X6402Y4192D01*
X6400Y4188D01*
X6392Y4181D01*
X6381Y4165D01*
X6369Y4144D01*
X6356Y4117D01*
X6346Y4087D01*
X6338Y4050D01*
X6334Y4008D01*
X6175Y4025D01*
Y4027D01*
Y4033D01*
X6177Y4042D01*
X6179Y4054D01*
X6183Y4069D01*
X6185Y4087D01*
X6196Y4125D01*
X6212Y4169D01*
X6233Y4213D01*
X6261Y4258D01*
X6277Y4277D01*
X6296Y4296D01*
X6298Y4298D01*
X6302Y4300D01*
X6308Y4306D01*
X6315Y4311D01*
X6327Y4317D01*
X6340Y4327D01*
X6356Y4334D01*
X6373Y4344D01*
X6392Y4352D01*
X6413Y4361D01*
X6438Y4369D01*
X6463Y4375D01*
X6521Y4386D01*
X6551Y4388D01*
X6584Y4390D01*
X6601D01*
X6615Y4388D01*
D02*
G37*
G36*
X29203Y97257D02*
X29182D01*
X29169Y97259D01*
X29153Y97261D01*
X29136Y97263D01*
X29117Y97269D01*
X29098Y97274D01*
X29096D01*
X29094Y97276D01*
X29082Y97280D01*
X29067Y97288D01*
X29044Y97299D01*
X29019Y97313D01*
X28990Y97332D01*
X28961Y97351D01*
X28931Y97376D01*
X28929D01*
X28927Y97380D01*
X28915Y97390D01*
X28898Y97405D01*
X28875Y97428D01*
X28848Y97457D01*
X28815Y97491D01*
X28779Y97534D01*
X28739Y97580D01*
X28737Y97582D01*
X28731Y97589D01*
X28723Y97599D01*
X28710Y97612D01*
X28696Y97630D01*
X28679Y97649D01*
X28643Y97691D01*
X28598Y97737D01*
X28554Y97783D01*
X28533Y97806D01*
X28512Y97825D01*
X28491Y97843D01*
X28472Y97858D01*
X28470D01*
X28468Y97862D01*
X28462Y97866D01*
X28454Y97870D01*
X28435Y97881D01*
X28410Y97895D01*
X28381Y97908D01*
X28351Y97920D01*
X28316Y97927D01*
X28284Y97931D01*
X28280D01*
X28268Y97929D01*
X28251Y97927D01*
X28230Y97923D01*
X28205Y97914D01*
X28180Y97902D01*
X28153Y97887D01*
X28128Y97864D01*
X28126Y97860D01*
X28118Y97852D01*
X28109Y97837D01*
X28095Y97818D01*
X28084Y97793D01*
X28074Y97764D01*
X28067Y97729D01*
X28065Y97691D01*
Y97689D01*
Y97685D01*
Y97679D01*
X28067Y97672D01*
X28068Y97653D01*
X28072Y97628D01*
X28082Y97599D01*
X28093Y97568D01*
X28111Y97539D01*
X28134Y97512D01*
X28138Y97510D01*
X28145Y97503D01*
X28161Y97491D01*
X28182Y97480D01*
X28209Y97466D01*
X28239Y97457D01*
X28276Y97449D01*
X28318Y97445D01*
X28301Y97286D01*
X28293D01*
X28284Y97288D01*
X28272Y97290D01*
X28257Y97294D01*
X28239Y97295D01*
X28201Y97307D01*
X28157Y97322D01*
X28113Y97343D01*
X28068Y97372D01*
X28049Y97388D01*
X28030Y97407D01*
X28028Y97409D01*
X28026Y97413D01*
X28020Y97418D01*
X28015Y97426D01*
X28009Y97438D01*
X27999Y97451D01*
X27992Y97466D01*
X27982Y97484D01*
X27974Y97503D01*
X27965Y97524D01*
X27957Y97549D01*
X27951Y97574D01*
X27940Y97631D01*
X27938Y97662D01*
X27936Y97695D01*
Y97697D01*
Y97703D01*
Y97712D01*
X27938Y97726D01*
X27940Y97741D01*
X27942Y97758D01*
X27944Y97777D01*
X27949Y97799D01*
X27961Y97845D01*
X27978Y97893D01*
X27990Y97918D01*
X28003Y97941D01*
X28020Y97962D01*
X28038Y97983D01*
X28040Y97985D01*
X28042Y97987D01*
X28047Y97992D01*
X28055Y98000D01*
X28067Y98008D01*
X28078Y98017D01*
X28107Y98037D01*
X28143Y98056D01*
X28186Y98073D01*
X28234Y98087D01*
X28260Y98088D01*
X28287Y98090D01*
X28301D01*
X28316Y98088D01*
X28335Y98087D01*
X28358Y98083D01*
X28383Y98077D01*
X28410Y98069D01*
X28437Y98058D01*
X28441Y98056D01*
X28451Y98052D01*
X28464Y98044D01*
X28483Y98033D01*
X28506Y98019D01*
X28533Y98002D01*
X28560Y97979D01*
X28591Y97954D01*
X28595Y97950D01*
X28606Y97941D01*
X28623Y97923D01*
X28635Y97912D01*
X28648Y97898D01*
X28664Y97883D01*
X28681Y97864D01*
X28698Y97845D01*
X28719Y97823D01*
X28741Y97800D01*
X28764Y97774D01*
X28787Y97747D01*
X28813Y97716D01*
X28815Y97714D01*
X28819Y97710D01*
X28825Y97703D01*
X28833Y97693D01*
X28852Y97670D01*
X28877Y97641D01*
X28904Y97612D01*
X28931Y97582D01*
X28954Y97557D01*
X28963Y97547D01*
X28973Y97537D01*
X28975Y97535D01*
X28981Y97532D01*
X28988Y97524D01*
X29000Y97514D01*
X29025Y97493D01*
X29055Y97472D01*
Y98092D01*
X29203D01*
Y97257D01*
D02*
G37*
G36*
X5213Y97691D02*
X4226D01*
X4228Y97689D01*
X4235Y97682D01*
X4245Y97668D01*
X4258Y97651D01*
X4276Y97630D01*
X4293Y97605D01*
X4314Y97576D01*
X4333Y97543D01*
Y97541D01*
X4335Y97540D01*
X4343Y97528D01*
X4352Y97511D01*
X4364Y97490D01*
X4377Y97465D01*
X4389Y97438D01*
X4402Y97409D01*
X4414Y97382D01*
X4262D01*
Y97384D01*
X4260Y97388D01*
X4256Y97396D01*
X4251Y97403D01*
X4245Y97415D01*
X4239Y97428D01*
X4222Y97459D01*
X4201Y97493D01*
X4176Y97532D01*
X4147Y97570D01*
X4116Y97607D01*
X4114Y97609D01*
X4112Y97611D01*
X4101Y97622D01*
X4083Y97639D01*
X4062Y97661D01*
X4035Y97684D01*
X4007Y97707D01*
X3976Y97728D01*
X3945Y97745D01*
Y97847D01*
X5213D01*
Y97691D01*
D02*
G37*
G36*
X7703Y97257D02*
X7682D01*
X7669Y97259D01*
X7653Y97261D01*
X7636Y97263D01*
X7617Y97269D01*
X7598Y97274D01*
X7596D01*
X7594Y97276D01*
X7582Y97280D01*
X7567Y97288D01*
X7544Y97299D01*
X7519Y97313D01*
X7490Y97332D01*
X7461Y97351D01*
X7431Y97376D01*
X7429D01*
X7427Y97380D01*
X7415Y97390D01*
X7398Y97405D01*
X7375Y97428D01*
X7348Y97457D01*
X7315Y97491D01*
X7279Y97534D01*
X7239Y97580D01*
X7237Y97582D01*
X7231Y97589D01*
X7223Y97599D01*
X7210Y97612D01*
X7196Y97630D01*
X7179Y97649D01*
X7143Y97691D01*
X7098Y97737D01*
X7054Y97783D01*
X7033Y97806D01*
X7012Y97825D01*
X6991Y97843D01*
X6972Y97858D01*
X6970D01*
X6968Y97862D01*
X6962Y97866D01*
X6954Y97870D01*
X6935Y97881D01*
X6910Y97895D01*
X6881Y97908D01*
X6851Y97920D01*
X6816Y97927D01*
X6784Y97931D01*
X6780D01*
X6768Y97929D01*
X6751Y97927D01*
X6730Y97923D01*
X6705Y97914D01*
X6680Y97902D01*
X6653Y97887D01*
X6628Y97864D01*
X6626Y97860D01*
X6618Y97852D01*
X6609Y97837D01*
X6595Y97818D01*
X6584Y97793D01*
X6574Y97764D01*
X6567Y97729D01*
X6565Y97691D01*
Y97689D01*
Y97685D01*
Y97679D01*
X6567Y97672D01*
X6568Y97653D01*
X6572Y97628D01*
X6582Y97599D01*
X6593Y97568D01*
X6611Y97539D01*
X6634Y97512D01*
X6638Y97510D01*
X6645Y97503D01*
X6661Y97491D01*
X6682Y97480D01*
X6709Y97466D01*
X6739Y97457D01*
X6776Y97449D01*
X6818Y97445D01*
X6801Y97286D01*
X6793D01*
X6784Y97288D01*
X6772Y97290D01*
X6757Y97294D01*
X6739Y97295D01*
X6701Y97307D01*
X6657Y97322D01*
X6613Y97343D01*
X6568Y97372D01*
X6549Y97388D01*
X6530Y97407D01*
X6528Y97409D01*
X6526Y97413D01*
X6520Y97418D01*
X6515Y97426D01*
X6509Y97438D01*
X6499Y97451D01*
X6492Y97466D01*
X6482Y97484D01*
X6474Y97503D01*
X6465Y97524D01*
X6457Y97549D01*
X6451Y97574D01*
X6440Y97631D01*
X6438Y97662D01*
X6436Y97695D01*
Y97697D01*
Y97703D01*
Y97712D01*
X6438Y97726D01*
X6440Y97741D01*
X6442Y97758D01*
X6444Y97777D01*
X6449Y97799D01*
X6461Y97845D01*
X6478Y97893D01*
X6490Y97918D01*
X6503Y97941D01*
X6520Y97962D01*
X6538Y97983D01*
X6540Y97985D01*
X6542Y97987D01*
X6547Y97992D01*
X6555Y98000D01*
X6567Y98008D01*
X6578Y98017D01*
X6607Y98037D01*
X6643Y98056D01*
X6686Y98073D01*
X6734Y98087D01*
X6760Y98088D01*
X6787Y98090D01*
X6801D01*
X6816Y98088D01*
X6835Y98087D01*
X6858Y98083D01*
X6883Y98077D01*
X6910Y98069D01*
X6937Y98058D01*
X6941Y98056D01*
X6951Y98052D01*
X6964Y98044D01*
X6983Y98033D01*
X7006Y98019D01*
X7033Y98002D01*
X7060Y97979D01*
X7091Y97954D01*
X7095Y97950D01*
X7106Y97941D01*
X7123Y97923D01*
X7135Y97912D01*
X7148Y97898D01*
X7164Y97883D01*
X7181Y97864D01*
X7198Y97845D01*
X7219Y97823D01*
X7241Y97800D01*
X7264Y97774D01*
X7287Y97747D01*
X7313Y97716D01*
X7315Y97714D01*
X7319Y97710D01*
X7325Y97703D01*
X7333Y97693D01*
X7352Y97670D01*
X7377Y97641D01*
X7404Y97612D01*
X7431Y97582D01*
X7454Y97557D01*
X7463Y97547D01*
X7473Y97537D01*
X7475Y97535D01*
X7481Y97532D01*
X7488Y97524D01*
X7500Y97514D01*
X7525Y97493D01*
X7555Y97472D01*
Y98092D01*
X7703D01*
Y97257D01*
D02*
G37*
G36*
X48213Y97691D02*
X47226D01*
X47228Y97689D01*
X47235Y97682D01*
X47245Y97668D01*
X47258Y97651D01*
X47276Y97630D01*
X47293Y97605D01*
X47314Y97576D01*
X47333Y97543D01*
Y97541D01*
X47335Y97540D01*
X47343Y97528D01*
X47352Y97511D01*
X47364Y97490D01*
X47377Y97465D01*
X47389Y97438D01*
X47402Y97409D01*
X47414Y97382D01*
X47262D01*
Y97384D01*
X47260Y97388D01*
X47256Y97396D01*
X47251Y97403D01*
X47245Y97415D01*
X47239Y97428D01*
X47222Y97459D01*
X47201Y97493D01*
X47176Y97532D01*
X47147Y97570D01*
X47116Y97607D01*
X47114Y97609D01*
X47112Y97611D01*
X47101Y97622D01*
X47083Y97639D01*
X47062Y97661D01*
X47035Y97684D01*
X47007Y97707D01*
X46976Y97728D01*
X46945Y97745D01*
Y97847D01*
X48213D01*
Y97691D01*
D02*
G37*
G36*
X50703Y97257D02*
X50682D01*
X50669Y97259D01*
X50653Y97261D01*
X50636Y97263D01*
X50617Y97269D01*
X50598Y97274D01*
X50596D01*
X50594Y97276D01*
X50582Y97280D01*
X50567Y97288D01*
X50544Y97299D01*
X50519Y97313D01*
X50490Y97332D01*
X50461Y97351D01*
X50431Y97376D01*
X50429D01*
X50427Y97380D01*
X50415Y97390D01*
X50398Y97405D01*
X50375Y97428D01*
X50348Y97457D01*
X50315Y97491D01*
X50279Y97534D01*
X50239Y97580D01*
X50237Y97582D01*
X50231Y97589D01*
X50223Y97599D01*
X50210Y97612D01*
X50196Y97630D01*
X50179Y97649D01*
X50143Y97691D01*
X50098Y97737D01*
X50054Y97783D01*
X50033Y97806D01*
X50012Y97825D01*
X49991Y97843D01*
X49972Y97858D01*
X49970D01*
X49968Y97862D01*
X49962Y97866D01*
X49954Y97870D01*
X49935Y97881D01*
X49910Y97895D01*
X49881Y97908D01*
X49851Y97920D01*
X49816Y97927D01*
X49784Y97931D01*
X49780D01*
X49768Y97929D01*
X49751Y97927D01*
X49730Y97923D01*
X49705Y97914D01*
X49680Y97902D01*
X49653Y97887D01*
X49628Y97864D01*
X49626Y97860D01*
X49618Y97852D01*
X49609Y97837D01*
X49595Y97818D01*
X49584Y97793D01*
X49574Y97764D01*
X49567Y97729D01*
X49565Y97691D01*
Y97689D01*
Y97685D01*
Y97679D01*
X49567Y97672D01*
X49568Y97653D01*
X49572Y97628D01*
X49582Y97599D01*
X49593Y97568D01*
X49611Y97539D01*
X49634Y97512D01*
X49638Y97510D01*
X49645Y97503D01*
X49661Y97491D01*
X49682Y97480D01*
X49709Y97466D01*
X49739Y97457D01*
X49776Y97449D01*
X49818Y97445D01*
X49801Y97286D01*
X49793D01*
X49784Y97288D01*
X49772Y97290D01*
X49757Y97294D01*
X49739Y97295D01*
X49701Y97307D01*
X49657Y97322D01*
X49613Y97343D01*
X49568Y97372D01*
X49549Y97388D01*
X49530Y97407D01*
X49528Y97409D01*
X49526Y97413D01*
X49520Y97418D01*
X49515Y97426D01*
X49509Y97438D01*
X49499Y97451D01*
X49492Y97466D01*
X49482Y97484D01*
X49474Y97503D01*
X49465Y97524D01*
X49457Y97549D01*
X49451Y97574D01*
X49440Y97631D01*
X49438Y97662D01*
X49436Y97695D01*
Y97697D01*
Y97703D01*
Y97712D01*
X49438Y97726D01*
X49440Y97741D01*
X49442Y97758D01*
X49444Y97777D01*
X49449Y97799D01*
X49461Y97845D01*
X49478Y97893D01*
X49490Y97918D01*
X49503Y97941D01*
X49520Y97962D01*
X49538Y97983D01*
X49540Y97985D01*
X49542Y97987D01*
X49547Y97992D01*
X49555Y98000D01*
X49567Y98008D01*
X49578Y98017D01*
X49607Y98037D01*
X49643Y98056D01*
X49686Y98073D01*
X49734Y98087D01*
X49760Y98088D01*
X49787Y98090D01*
X49801D01*
X49816Y98088D01*
X49835Y98087D01*
X49858Y98083D01*
X49883Y98077D01*
X49910Y98069D01*
X49937Y98058D01*
X49941Y98056D01*
X49951Y98052D01*
X49964Y98044D01*
X49983Y98033D01*
X50006Y98019D01*
X50033Y98002D01*
X50060Y97979D01*
X50091Y97954D01*
X50095Y97950D01*
X50106Y97941D01*
X50123Y97923D01*
X50135Y97912D01*
X50148Y97898D01*
X50164Y97883D01*
X50181Y97864D01*
X50198Y97845D01*
X50219Y97823D01*
X50241Y97800D01*
X50264Y97774D01*
X50287Y97747D01*
X50313Y97716D01*
X50315Y97714D01*
X50319Y97710D01*
X50325Y97703D01*
X50333Y97693D01*
X50352Y97670D01*
X50377Y97641D01*
X50404Y97612D01*
X50431Y97582D01*
X50454Y97557D01*
X50463Y97547D01*
X50473Y97537D01*
X50475Y97535D01*
X50481Y97532D01*
X50488Y97524D01*
X50500Y97514D01*
X50525Y97493D01*
X50555Y97472D01*
Y98092D01*
X50703D01*
Y97257D01*
D02*
G37*
G36*
X26713Y97691D02*
X25726D01*
X25728Y97689D01*
X25735Y97682D01*
X25745Y97668D01*
X25758Y97651D01*
X25776Y97630D01*
X25793Y97605D01*
X25814Y97576D01*
X25833Y97543D01*
Y97541D01*
X25835Y97540D01*
X25843Y97528D01*
X25852Y97511D01*
X25864Y97490D01*
X25877Y97465D01*
X25889Y97438D01*
X25902Y97409D01*
X25914Y97382D01*
X25762D01*
Y97384D01*
X25760Y97388D01*
X25756Y97396D01*
X25751Y97403D01*
X25745Y97415D01*
X25739Y97428D01*
X25722Y97459D01*
X25701Y97493D01*
X25676Y97532D01*
X25647Y97570D01*
X25616Y97607D01*
X25614Y97609D01*
X25612Y97611D01*
X25601Y97622D01*
X25583Y97639D01*
X25562Y97661D01*
X25535Y97684D01*
X25507Y97707D01*
X25476Y97728D01*
X25445Y97745D01*
Y97847D01*
X26713D01*
Y97691D01*
D02*
G37*
D24*
X52197Y79629D02*
G03*
X52705Y79121I508J0D01*
G01*
X53975D02*
G03*
X54483Y79629I0J508D01*
G01*
X52705Y83439D02*
G03*
X52197Y82931I0J-508D01*
G01*
X54483D02*
G03*
X53975Y83439I-508J0D01*
G01*
X43100Y93980D02*
G03*
X43100Y93980I-5000J0D01*
G01*
X21510D02*
G03*
X21510Y93980I-5000J0D01*
G01*
X3429Y91313D02*
G03*
X3175Y91059I0J-254D01*
G01*
Y89281D02*
G03*
X3429Y89027I254J0D01*
G01*
X9271D02*
G03*
X9525Y89281I0J254D01*
G01*
Y91059D02*
G03*
X9271Y91313I-254J0D01*
G01*
X3429Y73533D02*
G03*
X3175Y73279I0J-254D01*
G01*
Y71501D02*
G03*
X3429Y71247I254J0D01*
G01*
X9271D02*
G03*
X9525Y71501I0J254D01*
G01*
Y73279D02*
G03*
X9271Y73533I-254J0D01*
G01*
Y73787D02*
G03*
X9525Y74041I0J254D01*
G01*
Y75819D02*
G03*
X9271Y76073I-254J0D01*
G01*
X3429D02*
G03*
X3175Y75819I0J-254D01*
G01*
Y74041D02*
G03*
X3429Y73787I254J0D01*
G01*
X9271Y76276D02*
G03*
X9525Y76530I0J254D01*
G01*
Y78308D02*
G03*
X9271Y78562I-254J0D01*
G01*
X3429D02*
G03*
X3175Y78308I0J-254D01*
G01*
Y76530D02*
G03*
X3429Y76276I254J0D01*
G01*
X9271Y78867D02*
G03*
X9525Y79121I0J254D01*
G01*
Y80899D02*
G03*
X9271Y81153I-254J0D01*
G01*
X3429D02*
G03*
X3175Y80899I0J-254D01*
G01*
Y79121D02*
G03*
X3429Y78867I254J0D01*
G01*
X9271Y81407D02*
G03*
X9525Y81661I0J254D01*
G01*
Y83439D02*
G03*
X9271Y83693I-254J0D01*
G01*
X3429D02*
G03*
X3175Y83439I0J-254D01*
G01*
Y81661D02*
G03*
X3429Y81407I254J0D01*
G01*
X9271Y83947D02*
G03*
X9525Y84201I0J254D01*
G01*
Y85979D02*
G03*
X9271Y86233I-254J0D01*
G01*
X3429D02*
G03*
X3175Y85979I0J-254D01*
G01*
Y84201D02*
G03*
X3429Y83947I254J0D01*
G01*
Y88773D02*
G03*
X3175Y88519I0J-254D01*
G01*
Y86741D02*
G03*
X3429Y86487I254J0D01*
G01*
X9271D02*
G03*
X9525Y86741I0J254D01*
G01*
Y88519D02*
G03*
X9271Y88773I-254J0D01*
G01*
X18618Y75819D02*
G03*
X17297Y80035I-2107J1655D01*
G01*
X15723D02*
G03*
X14415Y75819I792J-2557D01*
G01*
X18161Y85217D02*
G03*
X18669Y85725I0J508D01*
G01*
Y86995D02*
G03*
X18161Y87503I-508J0D01*
G01*
X14351Y85725D02*
G03*
X14859Y85217I508J0D01*
G01*
Y87503D02*
G03*
X14351Y86995I0J-508D01*
G01*
X25019Y91313D02*
G03*
X24765Y91059I0J-254D01*
G01*
Y89281D02*
G03*
X25019Y89027I254J0D01*
G01*
X30861D02*
G03*
X31115Y89281I0J254D01*
G01*
Y91059D02*
G03*
X30861Y91313I-254J0D01*
G01*
X25019Y88773D02*
G03*
X24765Y88519I0J-254D01*
G01*
Y86741D02*
G03*
X25019Y86487I254J0D01*
G01*
X30861D02*
G03*
X31115Y86741I0J254D01*
G01*
Y88519D02*
G03*
X30861Y88773I-254J0D01*
G01*
Y83947D02*
G03*
X31115Y84201I0J254D01*
G01*
Y85979D02*
G03*
X30861Y86233I-254J0D01*
G01*
X25019D02*
G03*
X24765Y85979I0J-254D01*
G01*
Y84201D02*
G03*
X25019Y83947I254J0D01*
G01*
X30861Y81407D02*
G03*
X31115Y81661I0J254D01*
G01*
Y83439D02*
G03*
X30861Y83693I-254J0D01*
G01*
X25019D02*
G03*
X24765Y83439I0J-254D01*
G01*
Y81661D02*
G03*
X25019Y81407I254J0D01*
G01*
X30861Y78867D02*
G03*
X31115Y79121I0J254D01*
G01*
Y80899D02*
G03*
X30861Y81153I-254J0D01*
G01*
X25019D02*
G03*
X24765Y80899I0J-254D01*
G01*
Y79121D02*
G03*
X25019Y78867I254J0D01*
G01*
X30861Y76327D02*
G03*
X31115Y76581I0J254D01*
G01*
Y78359D02*
G03*
X30861Y78613I-254J0D01*
G01*
X25019D02*
G03*
X24765Y78359I0J-254D01*
G01*
Y76581D02*
G03*
X25019Y76327I254J0D01*
G01*
X30861Y73787D02*
G03*
X31115Y74041I0J254D01*
G01*
Y75819D02*
G03*
X30861Y76073I-254J0D01*
G01*
X25019D02*
G03*
X24765Y75819I0J-254D01*
G01*
Y74041D02*
G03*
X25019Y73787I254J0D01*
G01*
Y73533D02*
G03*
X24765Y73279I0J-254D01*
G01*
Y71501D02*
G03*
X25019Y71247I254J0D01*
G01*
X30861D02*
G03*
X31115Y71501I0J254D01*
G01*
Y73279D02*
G03*
X30861Y73533I-254J0D01*
G01*
X39751Y85217D02*
G03*
X40259Y85725I0J508D01*
G01*
Y86995D02*
G03*
X39751Y87503I-508J0D01*
G01*
X35941Y85725D02*
G03*
X36449Y85217I508J0D01*
G01*
Y87503D02*
G03*
X35941Y86995I0J-508D01*
G01*
X40208Y75819D02*
G03*
X38887Y80035I-2107J1655D01*
G01*
X37313D02*
G03*
X36005Y75819I792J-2557D01*
G01*
X43561Y85090D02*
G03*
X43180Y84709I0J-381D01*
G01*
X50800D02*
G03*
X50419Y85090I-381J0D01*
G01*
Y77470D02*
G03*
X50800Y77851I0J381D01*
G01*
X43180D02*
G03*
X43561Y77470I381J0D01*
G01*
X45339Y88773D02*
G03*
X45085Y88519I0J-254D01*
G01*
Y86741D02*
G03*
X45339Y86487I254J0D01*
G01*
X51181D02*
G03*
X51435Y86741I0J254D01*
G01*
Y88519D02*
G03*
X51181Y88773I-254J0D01*
G01*
X45339Y91313D02*
G03*
X45085Y91059I0J-254D01*
G01*
Y89281D02*
G03*
X45339Y89027I254J0D01*
G01*
X51181D02*
G03*
X51435Y89281I0J254D01*
G01*
Y91059D02*
G03*
X51181Y91313I-254J0D01*
G01*
X38227Y58039D02*
G03*
X38481Y57785I254J0D01*
G01*
X40259D02*
G03*
X40513Y58039I0J254D01*
G01*
Y63881D02*
G03*
X40259Y64135I-254J0D01*
G01*
X38481D02*
G03*
X38227Y63881I0J-254D01*
G01*
X40767Y58039D02*
G03*
X41021Y57785I254J0D01*
G01*
X42799D02*
G03*
X43053Y58039I0J254D01*
G01*
Y63881D02*
G03*
X42799Y64135I-254J0D01*
G01*
X41021D02*
G03*
X40767Y63881I0J-254D01*
G01*
X43307Y58039D02*
G03*
X43561Y57785I254J0D01*
G01*
X45339D02*
G03*
X45593Y58039I0J254D01*
G01*
Y63881D02*
G03*
X45339Y64135I-254J0D01*
G01*
X43561D02*
G03*
X43307Y63881I0J-254D01*
G01*
X50673Y47371D02*
G03*
X50419Y47625I-254J0D01*
G01*
X48641D02*
G03*
X48387Y47371I0J-254D01*
G01*
Y41529D02*
G03*
X48641Y41275I254J0D01*
G01*
X50419D02*
G03*
X50673Y41529I0J254D01*
G01*
X37719Y37973D02*
G03*
X37465Y37719I0J-254D01*
G01*
Y35941D02*
G03*
X37719Y35687I254J0D01*
G01*
X43561D02*
G03*
X43815Y35941I0J254D01*
G01*
Y37719D02*
G03*
X43561Y37973I-254J0D01*
G01*
X37719Y35433D02*
G03*
X37465Y35179I0J-254D01*
G01*
Y33401D02*
G03*
X37719Y33147I254J0D01*
G01*
X43561D02*
G03*
X43815Y33401I0J254D01*
G01*
Y35179D02*
G03*
X43561Y35433I-254J0D01*
G01*
X26670Y40640D02*
G03*
X26670Y40640I-2540J0D01*
G01*
X2667Y47879D02*
G03*
X2921Y47625I254J0D01*
G01*
X4699D02*
G03*
X4953Y47879I0J254D01*
G01*
Y53721D02*
G03*
X4699Y53975I-254J0D01*
G01*
X2921D02*
G03*
X2667Y53721I0J-254D01*
G01*
X5207Y47879D02*
G03*
X5461Y47625I254J0D01*
G01*
X7239D02*
G03*
X7493Y47879I0J254D01*
G01*
Y53721D02*
G03*
X7239Y53975I-254J0D01*
G01*
X5461D02*
G03*
X5207Y53721I0J-254D01*
G01*
X7747Y47879D02*
G03*
X8001Y47625I254J0D01*
G01*
X9779D02*
G03*
X10033Y47879I0J254D01*
G01*
Y53721D02*
G03*
X9779Y53975I-254J0D01*
G01*
X8001D02*
G03*
X7747Y53721I0J-254D01*
G01*
X2667Y33909D02*
G03*
X2921Y33655I254J0D01*
G01*
X4699D02*
G03*
X4953Y33909I0J254D01*
G01*
Y39751D02*
G03*
X4699Y40005I-254J0D01*
G01*
X2921D02*
G03*
X2667Y39751I0J-254D01*
G01*
X5207Y33909D02*
G03*
X5461Y33655I254J0D01*
G01*
X7239D02*
G03*
X7493Y33909I0J254D01*
G01*
Y39751D02*
G03*
X7239Y40005I-254J0D01*
G01*
X5461D02*
G03*
X5207Y39751I0J-254D01*
G01*
X13970Y29210D02*
G03*
X13970Y29210I-2540J0D01*
G01*
X14859Y31623D02*
G03*
X14351Y31115I0J-508D01*
G01*
Y29845D02*
G03*
X14859Y29337I508J0D01*
G01*
X18669Y31115D02*
G03*
X18161Y31623I-508J0D01*
G01*
Y29337D02*
G03*
X18669Y29845I0J508D01*
G01*
X10541Y19177D02*
G03*
X11049Y19685I0J508D01*
G01*
Y20955D02*
G03*
X10541Y21463I-508J0D01*
G01*
X6731Y19685D02*
G03*
X7239Y19177I508J0D01*
G01*
Y21463D02*
G03*
X6731Y20955I0J-508D01*
G01*
X13890Y12700D02*
G03*
X13890Y12700I-5000J0D01*
G01*
X27559Y20193D02*
G03*
X27051Y19685I0J-508D01*
G01*
Y18415D02*
G03*
X27559Y17907I508J0D01*
G01*
X31369Y19685D02*
G03*
X30861Y20193I-508J0D01*
G01*
Y17907D02*
G03*
X31369Y18415I0J508D01*
G01*
X27559Y10033D02*
G03*
X27051Y9525I0J-508D01*
G01*
Y8255D02*
G03*
X27559Y7747I508J0D01*
G01*
X31369Y9525D02*
G03*
X30861Y10033I-508J0D01*
G01*
Y7747D02*
G03*
X31369Y8255I0J508D01*
G01*
X28829Y55753D02*
G03*
X28575Y55499I0J-254D01*
G01*
Y53721D02*
G03*
X28829Y53467I254J0D01*
G01*
X34671D02*
G03*
X34925Y53721I0J254D01*
G01*
Y55499D02*
G03*
X34671Y55753I-254J0D01*
G01*
X25400Y55499D02*
G03*
X25019Y55880I-381J0D01*
G01*
Y48260D02*
G03*
X25400Y48641I0J381D01*
G01*
X17780D02*
G03*
X18161Y48260I381J0D01*
G01*
Y55880D02*
G03*
X17780Y55499I0J-381D01*
G01*
X52705Y79121D02*
X53975D01*
X52197Y79629D02*
Y82931D01*
X52705Y83439D02*
X53975D01*
X54483Y79629D02*
Y82931D01*
X35052Y94742D02*
Y95504D01*
X34671Y95123D02*
X35433D01*
X13462Y94742D02*
Y95504D01*
X13081Y95123D02*
X13843D01*
X3175Y89281D02*
Y91059D01*
X3429Y91313D02*
X3810D01*
X3937Y91186D01*
X3429Y89027D02*
X3810D01*
X3937Y89154D01*
X8763Y91186D02*
X8890Y91313D01*
X3937Y91186D02*
X8763D01*
Y89154D02*
X8890Y89027D01*
X3937Y89154D02*
X8763D01*
X8890Y91313D02*
X9271D01*
X8890Y89027D02*
X9271D01*
X9525Y89281D02*
Y91059D01*
X3175Y71501D02*
Y73279D01*
X3429Y73533D02*
X3810D01*
X3937Y73406D01*
X3429Y71247D02*
X3810D01*
X3937Y71374D01*
X8763Y73406D02*
X8890Y73533D01*
X3937Y73406D02*
X8763D01*
Y71374D02*
X8890Y71247D01*
X3937Y71374D02*
X8763D01*
X8890Y73533D02*
X9271D01*
X8890Y71247D02*
X9271D01*
X9525Y71501D02*
Y73279D01*
Y74041D02*
Y75819D01*
X8890Y73787D02*
X9271D01*
X8763Y73914D02*
X8890Y73787D01*
Y76073D02*
X9271D01*
X8763Y75946D02*
X8890Y76073D01*
X3810Y73787D02*
X3937Y73914D01*
X8763D01*
X3810Y76073D02*
X3937Y75946D01*
X8763D01*
X3429Y73787D02*
X3810D01*
X3429Y76073D02*
X3810D01*
X3175Y74041D02*
Y75819D01*
X9525Y76530D02*
Y78308D01*
X8890Y76276D02*
X9271D01*
X8763Y76403D02*
X8890Y76276D01*
Y78562D02*
X9271D01*
X8763Y78435D02*
X8890Y78562D01*
X3810Y76276D02*
X3937Y76403D01*
X8763D01*
X3810Y78562D02*
X3937Y78435D01*
X8763D01*
X3429Y76276D02*
X3810D01*
X3429Y78562D02*
X3810D01*
X3175Y76530D02*
Y78308D01*
X9525Y79121D02*
Y80899D01*
X8890Y78867D02*
X9271D01*
X8763Y78994D02*
X8890Y78867D01*
Y81153D02*
X9271D01*
X8763Y81026D02*
X8890Y81153D01*
X3810Y78867D02*
X3937Y78994D01*
X8763D01*
X3810Y81153D02*
X3937Y81026D01*
X8763D01*
X3429Y78867D02*
X3810D01*
X3429Y81153D02*
X3810D01*
X3175Y79121D02*
Y80899D01*
X9525Y81661D02*
Y83439D01*
X8890Y81407D02*
X9271D01*
X8763Y81534D02*
X8890Y81407D01*
Y83693D02*
X9271D01*
X8763Y83566D02*
X8890Y83693D01*
X3810Y81407D02*
X3937Y81534D01*
X8763D01*
X3810Y83693D02*
X3937Y83566D01*
X8763D01*
X3429Y81407D02*
X3810D01*
X3429Y83693D02*
X3810D01*
X3175Y81661D02*
Y83439D01*
X9525Y84201D02*
Y85979D01*
X8890Y83947D02*
X9271D01*
X8763Y84074D02*
X8890Y83947D01*
Y86233D02*
X9271D01*
X8763Y86106D02*
X8890Y86233D01*
X3810Y83947D02*
X3937Y84074D01*
X8763D01*
X3810Y86233D02*
X3937Y86106D01*
X8763D01*
X3429Y83947D02*
X3810D01*
X3429Y86233D02*
X3810D01*
X3175Y84201D02*
Y85979D01*
Y86741D02*
Y88519D01*
X3429Y88773D02*
X3810D01*
X3937Y88646D01*
X3429Y86487D02*
X3810D01*
X3937Y86614D01*
X8763Y88646D02*
X8890Y88773D01*
X3937Y88646D02*
X8763D01*
Y86614D02*
X8890Y86487D01*
X3937Y86614D02*
X8763D01*
X8890Y88773D02*
X9271D01*
X8890Y86487D02*
X9271D01*
X9525Y86741D02*
Y88519D01*
X18771Y77216D02*
X19177D01*
X16224D02*
X16815D01*
X13855D02*
X14256D01*
X14415Y75819D02*
X18618D01*
X18669Y85725D02*
Y86995D01*
X14859Y85217D02*
X18161D01*
X14351Y85725D02*
Y86995D01*
X14859Y87503D02*
X18161D01*
X24765Y89281D02*
Y91059D01*
X25019Y91313D02*
X25400D01*
X25527Y91186D01*
X25019Y89027D02*
X25400D01*
X25527Y89154D01*
X30353Y91186D02*
X30480Y91313D01*
X25527Y91186D02*
X30353D01*
Y89154D02*
X30480Y89027D01*
X25527Y89154D02*
X30353D01*
X30480Y91313D02*
X30861D01*
X30480Y89027D02*
X30861D01*
X31115Y89281D02*
Y91059D01*
X24765Y86741D02*
Y88519D01*
X25019Y88773D02*
X25400D01*
X25527Y88646D01*
X25019Y86487D02*
X25400D01*
X25527Y86614D01*
X30353Y88646D02*
X30480Y88773D01*
X25527Y88646D02*
X30353D01*
Y86614D02*
X30480Y86487D01*
X25527Y86614D02*
X30353D01*
X30480Y88773D02*
X30861D01*
X30480Y86487D02*
X30861D01*
X31115Y86741D02*
Y88519D01*
Y84201D02*
Y85979D01*
X30480Y83947D02*
X30861D01*
X30353Y84074D02*
X30480Y83947D01*
Y86233D02*
X30861D01*
X30353Y86106D02*
X30480Y86233D01*
X25400Y83947D02*
X25527Y84074D01*
X30353D01*
X25400Y86233D02*
X25527Y86106D01*
X30353D01*
X25019Y83947D02*
X25400D01*
X25019Y86233D02*
X25400D01*
X24765Y84201D02*
Y85979D01*
X31115Y81661D02*
Y83439D01*
X30480Y81407D02*
X30861D01*
X30353Y81534D02*
X30480Y81407D01*
Y83693D02*
X30861D01*
X30353Y83566D02*
X30480Y83693D01*
X25400Y81407D02*
X25527Y81534D01*
X30353D01*
X25400Y83693D02*
X25527Y83566D01*
X30353D01*
X25019Y81407D02*
X25400D01*
X25019Y83693D02*
X25400D01*
X24765Y81661D02*
Y83439D01*
X31115Y79121D02*
Y80899D01*
X30480Y78867D02*
X30861D01*
X30353Y78994D02*
X30480Y78867D01*
Y81153D02*
X30861D01*
X30353Y81026D02*
X30480Y81153D01*
X25400Y78867D02*
X25527Y78994D01*
X30353D01*
X25400Y81153D02*
X25527Y81026D01*
X30353D01*
X25019Y78867D02*
X25400D01*
X25019Y81153D02*
X25400D01*
X24765Y79121D02*
Y80899D01*
X31115Y76581D02*
Y78359D01*
X30480Y76327D02*
X30861D01*
X30353Y76454D02*
X30480Y76327D01*
Y78613D02*
X30861D01*
X30353Y78486D02*
X30480Y78613D01*
X25400Y76327D02*
X25527Y76454D01*
X30353D01*
X25400Y78613D02*
X25527Y78486D01*
X30353D01*
X25019Y76327D02*
X25400D01*
X25019Y78613D02*
X25400D01*
X24765Y76581D02*
Y78359D01*
X31115Y74041D02*
Y75819D01*
X30480Y73787D02*
X30861D01*
X30353Y73914D02*
X30480Y73787D01*
Y76073D02*
X30861D01*
X30353Y75946D02*
X30480Y76073D01*
X25400Y73787D02*
X25527Y73914D01*
X30353D01*
X25400Y76073D02*
X25527Y75946D01*
X30353D01*
X25019Y73787D02*
X25400D01*
X25019Y76073D02*
X25400D01*
X24765Y74041D02*
Y75819D01*
Y71501D02*
Y73279D01*
X25019Y73533D02*
X25400D01*
X25527Y73406D01*
X25019Y71247D02*
X25400D01*
X25527Y71374D01*
X30353Y73406D02*
X30480Y73533D01*
X25527Y73406D02*
X30353D01*
Y71374D02*
X30480Y71247D01*
X25527Y71374D02*
X30353D01*
X30480Y73533D02*
X30861D01*
X30480Y71247D02*
X30861D01*
X31115Y71501D02*
Y73279D01*
X40259Y85725D02*
Y86995D01*
X36449Y85217D02*
X39751D01*
X35941Y85725D02*
Y86995D01*
X36449Y87503D02*
X39751D01*
X40361Y77216D02*
X40767D01*
X37814D02*
X38405D01*
X35445D02*
X35846D01*
X36005Y75819D02*
X40208D01*
X45466Y85090D02*
X50419D01*
X45466Y77470D02*
X50419D01*
X50800Y82169D02*
Y84709D01*
X43180Y79629D02*
Y82931D01*
X48006Y80264D02*
X48260Y80010D01*
X48006Y82296D02*
X48260Y82550D01*
X46990Y79375D02*
Y79883D01*
Y82677D02*
Y83185D01*
X45593Y79883D02*
X46101Y80391D01*
X45593Y82677D02*
X46101Y82169D01*
X50800Y77851D02*
Y80391D01*
X47244Y81534D02*
Y82169D01*
X46736D02*
X47244D01*
X46736Y81534D02*
Y82169D01*
X46101Y81534D02*
X46736D01*
X46101Y81026D02*
Y81534D01*
Y81026D02*
X46736D01*
Y80391D02*
Y81026D01*
Y80391D02*
X47244D01*
Y81026D01*
X47879D01*
Y81534D01*
X47244D02*
X47879D01*
X45085Y86741D02*
Y88519D01*
X45339Y88773D02*
X45720D01*
X45847Y88646D01*
X45339Y86487D02*
X45720D01*
X45847Y86614D01*
X50673Y88646D02*
X50800Y88773D01*
X45847Y88646D02*
X50673D01*
Y86614D02*
X50800Y86487D01*
X45847Y86614D02*
X50673D01*
X50800Y88773D02*
X51181D01*
X50800Y86487D02*
X51181D01*
X51435Y86741D02*
Y88519D01*
X45085Y89281D02*
Y91059D01*
X45339Y91313D02*
X45720D01*
X45847Y91186D01*
X45339Y89027D02*
X45720D01*
X45847Y89154D01*
X50673Y91186D02*
X50800Y91313D01*
X45847Y91186D02*
X50673D01*
Y89154D02*
X50800Y89027D01*
X45847Y89154D02*
X50673D01*
X50800Y91313D02*
X51181D01*
X50800Y89027D02*
X51181D01*
X51435Y89281D02*
Y91059D01*
X38481Y57785D02*
X40259D01*
X38227Y58039D02*
Y58420D01*
X38354Y58547D01*
X40513Y58039D02*
Y58420D01*
X40386Y58547D02*
X40513Y58420D01*
X38227Y63500D02*
X38354Y63373D01*
Y58547D02*
Y63373D01*
X40386D02*
X40513Y63500D01*
X40386Y58547D02*
Y63373D01*
X38227Y63500D02*
Y63881D01*
X40513Y63500D02*
Y63881D01*
X38481Y64135D02*
X40259D01*
X41021Y57785D02*
X42799D01*
X40767Y58039D02*
Y58420D01*
X40894Y58547D01*
X43053Y58039D02*
Y58420D01*
X42926Y58547D02*
X43053Y58420D01*
X40767Y63500D02*
X40894Y63373D01*
Y58547D02*
Y63373D01*
X42926D02*
X43053Y63500D01*
X42926Y58547D02*
Y63373D01*
X40767Y63500D02*
Y63881D01*
X43053Y63500D02*
Y63881D01*
X41021Y64135D02*
X42799D01*
X43561Y57785D02*
X45339D01*
X43307Y58039D02*
Y58420D01*
X43434Y58547D01*
X45593Y58039D02*
Y58420D01*
X45466Y58547D02*
X45593Y58420D01*
X43307Y63500D02*
X43434Y63373D01*
Y58547D02*
Y63373D01*
X45466D02*
X45593Y63500D01*
X45466Y58547D02*
Y63373D01*
X43307Y63500D02*
Y63881D01*
X45593Y63500D02*
Y63881D01*
X43561Y64135D02*
X45339D01*
X48641Y47625D02*
X50419D01*
X50673Y46990D02*
Y47371D01*
X50546Y46863D02*
X50673Y46990D01*
X48387D02*
Y47371D01*
Y46990D02*
X48514Y46863D01*
X50546Y42037D02*
X50673Y41910D01*
X50546Y42037D02*
Y46863D01*
X48387Y41910D02*
X48514Y42037D01*
Y46863D01*
X50673Y41529D02*
Y41910D01*
X48387Y41529D02*
Y41910D01*
X48641Y41275D02*
X50419D01*
X37465Y35941D02*
Y37719D01*
X37719Y37973D02*
X38100D01*
X38227Y37846D01*
X37719Y35687D02*
X38100D01*
X38227Y35814D01*
X43053Y37846D02*
X43180Y37973D01*
X38227Y37846D02*
X43053D01*
Y35814D02*
X43180Y35687D01*
X38227Y35814D02*
X43053D01*
X43180Y37973D02*
X43561D01*
X43180Y35687D02*
X43561D01*
X43815Y35941D02*
Y37719D01*
X37465Y33401D02*
Y35179D01*
X37719Y35433D02*
X38100D01*
X38227Y35306D01*
X37719Y33147D02*
X38100D01*
X38227Y33274D01*
X43053Y35306D02*
X43180Y35433D01*
X38227Y35306D02*
X43053D01*
Y33274D02*
X43180Y33147D01*
X38227Y33274D02*
X43053D01*
X43180Y35433D02*
X43561D01*
X43180Y33147D02*
X43561D01*
X43815Y33401D02*
Y35179D01*
X25400Y42037D02*
Y42291D01*
X25146Y42037D02*
X25400D01*
Y41783D02*
Y42037D01*
X25654D01*
X2921Y47625D02*
X4699D01*
X2667Y47879D02*
Y48260D01*
X2794Y48387D01*
X4953Y47879D02*
Y48260D01*
X4826Y48387D02*
X4953Y48260D01*
X2667Y53340D02*
X2794Y53213D01*
Y48387D02*
Y53213D01*
X4826D02*
X4953Y53340D01*
X4826Y48387D02*
Y53213D01*
X2667Y53340D02*
Y53721D01*
X4953Y53340D02*
Y53721D01*
X2921Y53975D02*
X4699D01*
X5461Y47625D02*
X7239D01*
X5207Y47879D02*
Y48260D01*
X5334Y48387D01*
X7493Y47879D02*
Y48260D01*
X7366Y48387D02*
X7493Y48260D01*
X5207Y53340D02*
X5334Y53213D01*
Y48387D02*
Y53213D01*
X7366D02*
X7493Y53340D01*
X7366Y48387D02*
Y53213D01*
X5207Y53340D02*
Y53721D01*
X7493Y53340D02*
Y53721D01*
X5461Y53975D02*
X7239D01*
X8001Y47625D02*
X9779D01*
X7747Y47879D02*
Y48260D01*
X7874Y48387D01*
X10033Y47879D02*
Y48260D01*
X9906Y48387D02*
X10033Y48260D01*
X7747Y53340D02*
X7874Y53213D01*
Y48387D02*
Y53213D01*
X9906D02*
X10033Y53340D01*
X9906Y48387D02*
Y53213D01*
X7747Y53340D02*
Y53721D01*
X10033Y53340D02*
Y53721D01*
X8001Y53975D02*
X9779D01*
X2921Y33655D02*
X4699D01*
X2667Y33909D02*
Y34290D01*
X2794Y34417D01*
X4953Y33909D02*
Y34290D01*
X4826Y34417D02*
X4953Y34290D01*
X2667Y39370D02*
X2794Y39243D01*
Y34417D02*
Y39243D01*
X4826D02*
X4953Y39370D01*
X4826Y34417D02*
Y39243D01*
X2667Y39370D02*
Y39751D01*
X4953Y39370D02*
Y39751D01*
X2921Y40005D02*
X4699D01*
X5461Y33655D02*
X7239D01*
X5207Y33909D02*
Y34290D01*
X5334Y34417D01*
X7493Y33909D02*
Y34290D01*
X7366Y34417D02*
X7493Y34290D01*
X5207Y39370D02*
X5334Y39243D01*
Y34417D02*
Y39243D01*
X7366D02*
X7493Y39370D01*
X7366Y34417D02*
Y39243D01*
X5207Y39370D02*
Y39751D01*
X7493Y39370D02*
Y39751D01*
X5461Y40005D02*
X7239D01*
X9779Y30480D02*
X10033D01*
Y30226D02*
Y30480D01*
X10287D01*
X10033D02*
Y30734D01*
X14351Y29845D02*
Y31115D01*
X14859Y31623D02*
X18161D01*
X18669Y29845D02*
Y31115D01*
X14859Y29337D02*
X18161D01*
X11049Y19685D02*
Y20955D01*
X7239Y19177D02*
X10541D01*
X6731Y19685D02*
Y20955D01*
X7239Y21463D02*
X10541D01*
X9652Y15748D02*
X10414D01*
X10033Y15367D02*
Y16129D01*
X1270Y11938D02*
Y16002D01*
Y11938D02*
X3810D01*
Y16002D01*
X1270D02*
X3810D01*
X2540Y13970D02*
Y14605D01*
X1905Y12954D02*
X3175D01*
X1905D02*
X2540Y13970D01*
Y12446D02*
Y13970D01*
X3175Y12954D01*
X2540Y13970D02*
X3175D01*
X1905D02*
X2540D01*
X27051Y18415D02*
Y19685D01*
X27559Y20193D02*
X30861D01*
X31369Y18415D02*
Y19685D01*
X27559Y17907D02*
X30861D01*
X27051Y8255D02*
Y9525D01*
X27559Y10033D02*
X30861D01*
X31369Y8255D02*
Y9525D01*
X27559Y7747D02*
X30861D01*
X28575Y53721D02*
Y55499D01*
X28829Y55753D02*
X29210D01*
X29337Y55626D01*
X28829Y53467D02*
X29210D01*
X29337Y53594D01*
X34163Y55626D02*
X34290Y55753D01*
X29337Y55626D02*
X34163D01*
Y53594D02*
X34290Y53467D01*
X29337Y53594D02*
X34163D01*
X34290Y55753D02*
X34671D01*
X34290Y53467D02*
X34671D01*
X34925Y53721D02*
Y55499D01*
X25400Y48641D02*
Y53594D01*
X17780Y48641D02*
Y53594D01*
X22479Y48260D02*
X25019D01*
X19939Y55880D02*
X23241D01*
X20320Y50800D02*
X20574Y51054D01*
X22606D02*
X22860Y50800D01*
X19685Y52070D02*
X20193D01*
X22987D02*
X23495D01*
X20193Y53467D02*
X20701Y52959D01*
X22479D02*
X22987Y53467D01*
X18161Y48260D02*
X20701D01*
X21844Y51816D02*
X22479D01*
Y52324D01*
X21844D02*
X22479D01*
X21844D02*
Y52959D01*
X21336D02*
X21844D01*
X21336Y52324D02*
Y52959D01*
X20701Y52324D02*
X21336D01*
X20701Y51816D02*
Y52324D01*
Y51816D02*
X21336D01*
Y51181D02*
Y51816D01*
Y51181D02*
X21844D01*
Y51816D01*
D25*
X16078Y8992D02*
G03*
X16078Y8992I-254J0D01*
G01*
Y16612D02*
G03*
X16078Y16612I-254J0D01*
G01*
X25273Y8636D02*
X25400Y11557D01*
X25019Y8382D02*
X25273Y8636D01*
X15621Y8382D02*
X25019D01*
X15367Y8636D02*
X15621Y8382D01*
X15240Y11557D02*
X15367Y8636D01*
X25273Y16256D02*
X25400Y19177D01*
X25019Y16002D02*
X25273Y16256D01*
X15621Y16002D02*
X25019D01*
X15367Y16256D02*
X15621Y16002D01*
X15240Y19177D02*
X15367Y16256D01*
X15113Y889D02*
X38100D01*
X8890Y6350D02*
Y6731D01*
X1524Y889D02*
X1905D01*
X3810D02*
X4445D01*
X5715D02*
X6350D01*
X3810Y6731D02*
X6350D01*
X2540D02*
X2794D01*
X2540Y6350D02*
Y6731D01*
X41910Y6350D02*
Y6731D01*
D26*
X37790Y61595D02*
G03*
X37790Y60325I0J-635D01*
G01*
X47950Y45085D02*
G03*
X47950Y43815I0J-635D01*
G01*
X8470Y36195D02*
G03*
X8470Y37465I0J635D01*
G01*
X2540Y58420D02*
Y63500D01*
Y58420D02*
X5080D01*
Y63500D01*
X2540D02*
X5080D01*
Y58420D02*
Y63500D01*
Y58420D02*
X7620D01*
Y63500D01*
X5080D02*
X7620D01*
Y58420D02*
Y63500D01*
Y58420D02*
X10160D01*
Y63500D01*
X7620D02*
X10160D01*
X13970Y83820D02*
X19050D01*
X13970Y81280D02*
Y83820D01*
Y81280D02*
X19050D01*
Y83820D01*
X35560D02*
X40640D01*
X35560Y81280D02*
Y83820D01*
Y81280D02*
X40640D01*
Y83820D01*
X37790Y61595D02*
Y63610D01*
Y58310D02*
Y60325D01*
X18090Y58310D02*
Y63610D01*
X37790D01*
X18090Y58310D02*
X37790D01*
X28250Y41800D02*
Y47100D01*
X47950Y41800D02*
Y43815D01*
Y45085D02*
Y47100D01*
X28250Y41800D02*
X47950D01*
X28250Y47100D02*
X47950D01*
X48260Y33020D02*
Y38100D01*
Y33020D02*
X50800D01*
Y38100D01*
X48260D02*
X50800D01*
X8470Y34180D02*
Y36195D01*
Y37465D02*
Y39480D01*
X19470Y34180D02*
Y39480D01*
X8470Y34180D02*
X19470D01*
X8470Y39480D02*
X19470D01*
X30480Y11430D02*
Y16510D01*
X27940D02*
X30480D01*
X27940Y11430D02*
Y16510D01*
Y11430D02*
X30480D01*
X16675Y94345D02*
X16475Y94545D01*
X16075D01*
X15875Y94345D01*
Y93545D01*
X16075Y93345D01*
X16475D01*
X16675Y93545D01*
X17075Y93345D02*
X17474D01*
X17275D01*
Y94545D01*
X17075Y94345D01*
X19850Y86725D02*
X19650Y86925D01*
X19250D01*
X19050Y86725D01*
Y85925D01*
X19250Y85725D01*
X19650D01*
X19850Y85925D01*
X21049Y85725D02*
X20250D01*
X21049Y86525D01*
Y86725D01*
X20849Y86925D01*
X20450D01*
X20250Y86725D01*
X24295Y37195D02*
X24095Y37395D01*
X23695D01*
X23495Y37195D01*
Y36395D01*
X23695Y36195D01*
X24095D01*
X24295Y36395D01*
X24695Y37195D02*
X24895Y37395D01*
X25294D01*
X25494Y37195D01*
Y36995D01*
X25294Y36795D01*
X25094D01*
X25294D01*
X25494Y36595D01*
Y36395D01*
X25294Y36195D01*
X24895D01*
X24695Y36395D01*
X38265Y94345D02*
X38065Y94545D01*
X37665D01*
X37465Y94345D01*
Y93545D01*
X37665Y93345D01*
X38065D01*
X38265Y93545D01*
X39264Y93345D02*
Y94545D01*
X38665Y93945D01*
X39464D01*
X41440Y86725D02*
X41240Y86925D01*
X40840D01*
X40640Y86725D01*
Y85925D01*
X40840Y85725D01*
X41240D01*
X41440Y85925D01*
X42639Y86925D02*
X41840D01*
Y86325D01*
X42239Y86525D01*
X42439D01*
X42639Y86325D01*
Y85925D01*
X42439Y85725D01*
X42040D01*
X41840Y85925D01*
X16040Y28305D02*
X15840Y28505D01*
X15440D01*
X15240Y28305D01*
Y27505D01*
X15440Y27305D01*
X15840D01*
X16040Y27505D01*
X17239Y28505D02*
X16839Y28305D01*
X16440Y27905D01*
Y27505D01*
X16640Y27305D01*
X17039D01*
X17239Y27505D01*
Y27705D01*
X17039Y27905D01*
X16440D01*
X53124Y85226D02*
X52924Y85426D01*
X52524D01*
X52324Y85226D01*
Y84426D01*
X52524Y84226D01*
X52924D01*
X53124Y84426D01*
X53524Y85426D02*
X54323D01*
Y85226D01*
X53524Y84426D01*
Y84226D01*
X7150Y29575D02*
X6950Y29775D01*
X6550D01*
X6350Y29575D01*
Y28775D01*
X6550Y28575D01*
X6950D01*
X7150Y28775D01*
X7550Y29575D02*
X7750Y29775D01*
X8149D01*
X8349Y29575D01*
Y29375D01*
X8149Y29175D01*
X8349Y28975D01*
Y28775D01*
X8149Y28575D01*
X7750D01*
X7550Y28775D01*
Y28975D01*
X7750Y29175D01*
X7550Y29375D01*
Y29575D01*
X7750Y29175D02*
X8149D01*
X8420Y13065D02*
X8220Y13265D01*
X7820D01*
X7620Y13065D01*
Y12265D01*
X7820Y12065D01*
X8220D01*
X8420Y12265D01*
X8820D02*
X9020Y12065D01*
X9419D01*
X9619Y12265D01*
Y13065D01*
X9419Y13265D01*
X9020D01*
X8820Y13065D01*
Y12865D01*
X9020Y12665D01*
X9619D01*
X8420Y23225D02*
X8220Y23425D01*
X7820D01*
X7620Y23225D01*
Y22425D01*
X7820Y22225D01*
X8220D01*
X8420Y22425D01*
X8820Y22225D02*
X9219D01*
X9020D01*
Y23425D01*
X8820Y23225D01*
X9819D02*
X10019Y23425D01*
X10419D01*
X10619Y23225D01*
Y22425D01*
X10419Y22225D01*
X10019D01*
X9819Y22425D01*
Y23225D01*
X32550Y19415D02*
X32350Y19615D01*
X31950D01*
X31750Y19415D01*
Y18615D01*
X31950Y18415D01*
X32350D01*
X32550Y18615D01*
X32950Y18415D02*
X33349D01*
X33150D01*
Y19615D01*
X32950Y19415D01*
X33949Y18415D02*
X34349D01*
X34149D01*
Y19615D01*
X33949Y19415D01*
X32550Y9255D02*
X32350Y9455D01*
X31950D01*
X31750Y9255D01*
Y8455D01*
X31950Y8255D01*
X32350D01*
X32550Y8455D01*
X32950Y8255D02*
X33349D01*
X33150D01*
Y9455D01*
X32950Y9255D01*
X34749Y8255D02*
X33949D01*
X34749Y9055D01*
Y9255D01*
X34549Y9455D01*
X34149D01*
X33949Y9255D01*
X4515Y17145D02*
X5715D01*
Y17745D01*
X5515Y17945D01*
X4715D01*
X4515Y17745D01*
Y17145D01*
Y18345D02*
Y19144D01*
X4715D01*
X5515Y18345D01*
X5715D01*
X36195Y7620D02*
Y8820D01*
X36795D01*
X36995Y8620D01*
Y8220D01*
X36795Y8020D01*
X36195D01*
X37395Y7620D02*
X37794D01*
X37595D01*
Y8820D01*
X37395Y8620D01*
X51435Y7620D02*
Y8820D01*
X52035D01*
X52235Y8620D01*
Y8220D01*
X52035Y8020D01*
X51435D01*
X53434Y7620D02*
X52635D01*
X53434Y8420D01*
Y8620D01*
X53234Y8820D01*
X52835D01*
X52635Y8620D01*
X9525Y96520D02*
Y97720D01*
X10125D01*
X10325Y97520D01*
Y97120D01*
X10125Y96920D01*
X9525D01*
X10725Y97520D02*
X10925Y97720D01*
X11324D01*
X11524Y97520D01*
Y97320D01*
X11324Y97120D01*
X11124D01*
X11324D01*
X11524Y96920D01*
Y96720D01*
X11324Y96520D01*
X10925D01*
X10725Y96720D01*
X31115Y96520D02*
Y97720D01*
X31715D01*
X31915Y97520D01*
Y97120D01*
X31715Y96920D01*
X31115D01*
X32914Y96520D02*
Y97720D01*
X32315Y97120D01*
X33114D01*
X43815Y96520D02*
Y97720D01*
X44415D01*
X44615Y97520D01*
Y97120D01*
X44415Y96920D01*
X43815D01*
X45814Y97720D02*
X45015D01*
Y97120D01*
X45414Y97320D01*
X45614D01*
X45814Y97120D01*
Y96720D01*
X45614Y96520D01*
X45215D01*
X45015Y96720D01*
X3810Y7620D02*
Y8820D01*
X4410D01*
X4610Y8620D01*
Y8220D01*
X4410Y8020D01*
X3810D01*
X5809Y8820D02*
X5409Y8620D01*
X5010Y8220D01*
Y7820D01*
X5210Y7620D01*
X5609D01*
X5809Y7820D01*
Y8020D01*
X5609Y8220D01*
X5010D01*
X16675Y73860D02*
Y74660D01*
X16475Y74860D01*
X16075D01*
X15875Y74660D01*
Y73860D01*
X16075Y73660D01*
X16475D01*
X16275Y74060D02*
X16675Y73660D01*
X16475D02*
X16675Y73860D01*
X17075Y73660D02*
X17474D01*
X17275D01*
Y74860D01*
X17075Y74660D01*
X38265Y73860D02*
Y74660D01*
X38065Y74860D01*
X37665D01*
X37465Y74660D01*
Y73860D01*
X37665Y73660D01*
X38065D01*
X37865Y74060D02*
X38265Y73660D01*
X38065D02*
X38265Y73860D01*
X39464Y73660D02*
X38665D01*
X39464Y74460D01*
Y74660D01*
X39264Y74860D01*
X38865D01*
X38665Y74660D01*
X4445Y81915D02*
Y83115D01*
X5045D01*
X5245Y82915D01*
Y82515D01*
X5045Y82315D01*
X4445D01*
X4845D02*
X5245Y81915D01*
X5645D02*
X6044D01*
X5845D01*
Y83115D01*
X5645Y82915D01*
X4445Y76835D02*
Y78035D01*
X5045D01*
X5245Y77835D01*
Y77435D01*
X5045Y77235D01*
X4445D01*
X4845D02*
X5245Y76835D01*
X6444D02*
X5645D01*
X6444Y77635D01*
Y77835D01*
X6244Y78035D01*
X5845D01*
X5645Y77835D01*
X4445Y79375D02*
Y80575D01*
X5045D01*
X5245Y80375D01*
Y79975D01*
X5045Y79775D01*
X4445D01*
X4845D02*
X5245Y79375D01*
X5645Y80375D02*
X5845Y80575D01*
X6244D01*
X6444Y80375D01*
Y80175D01*
X6244Y79975D01*
X6044D01*
X6244D01*
X6444Y79775D01*
Y79575D01*
X6244Y79375D01*
X5845D01*
X5645Y79575D01*
X4445Y89535D02*
Y90735D01*
X5045D01*
X5245Y90535D01*
Y90135D01*
X5045Y89935D01*
X4445D01*
X4845D02*
X5245Y89535D01*
X6244D02*
Y90735D01*
X5645Y90135D01*
X6444D01*
X4445Y86995D02*
Y88195D01*
X5045D01*
X5245Y87995D01*
Y87595D01*
X5045Y87395D01*
X4445D01*
X4845D02*
X5245Y86995D01*
X6444Y88195D02*
X5645D01*
Y87595D01*
X6044Y87795D01*
X6244D01*
X6444Y87595D01*
Y87195D01*
X6244Y86995D01*
X5845D01*
X5645Y87195D01*
X4445Y74295D02*
Y75495D01*
X5045D01*
X5245Y75295D01*
Y74895D01*
X5045Y74695D01*
X4445D01*
X4845D02*
X5245Y74295D01*
X6444Y75495D02*
X6044Y75295D01*
X5645Y74895D01*
Y74495D01*
X5845Y74295D01*
X6244D01*
X6444Y74495D01*
Y74695D01*
X6244Y74895D01*
X5645D01*
X4445Y71755D02*
Y72955D01*
X5045D01*
X5245Y72755D01*
Y72355D01*
X5045Y72155D01*
X4445D01*
X4845D02*
X5245Y71755D01*
X5645Y72955D02*
X6444D01*
Y72755D01*
X5645Y71955D01*
Y71755D01*
X4445Y84455D02*
Y85655D01*
X5045D01*
X5245Y85455D01*
Y85055D01*
X5045Y84855D01*
X4445D01*
X4845D02*
X5245Y84455D01*
X5645Y85455D02*
X5845Y85655D01*
X6244D01*
X6444Y85455D01*
Y85255D01*
X6244Y85055D01*
X6444Y84855D01*
Y84655D01*
X6244Y84455D01*
X5845D01*
X5645Y84655D01*
Y84855D01*
X5845Y85055D01*
X5645Y85255D01*
Y85455D01*
X5845Y85055D02*
X6244D01*
X4445Y48895D02*
X3245D01*
Y49495D01*
X3445Y49695D01*
X3845D01*
X4045Y49495D01*
Y48895D01*
Y49295D02*
X4445Y49695D01*
X4245Y50095D02*
X4445Y50295D01*
Y50694D01*
X4245Y50894D01*
X3445D01*
X3245Y50694D01*
Y50295D01*
X3445Y50095D01*
X3645D01*
X3845Y50295D01*
Y50894D01*
X6985Y48895D02*
X5785D01*
Y49495D01*
X5985Y49695D01*
X6385D01*
X6585Y49495D01*
Y48895D01*
Y49295D02*
X6985Y49695D01*
Y50095D02*
Y50494D01*
Y50295D01*
X5785D01*
X5985Y50095D01*
Y51094D02*
X5785Y51294D01*
Y51694D01*
X5985Y51894D01*
X6785D01*
X6985Y51694D01*
Y51294D01*
X6785Y51094D01*
X5985D01*
X9525Y48895D02*
X8325D01*
Y49495D01*
X8525Y49695D01*
X8925D01*
X9125Y49495D01*
Y48895D01*
Y49295D02*
X9525Y49695D01*
Y50095D02*
Y50494D01*
Y50295D01*
X8325D01*
X8525Y50095D01*
X9525Y51094D02*
Y51494D01*
Y51294D01*
X8325D01*
X8525Y51094D01*
X26035Y81915D02*
Y83115D01*
X26635D01*
X26835Y82915D01*
Y82515D01*
X26635Y82315D01*
X26035D01*
X26435D02*
X26835Y81915D01*
X27235D02*
X27634D01*
X27435D01*
Y83115D01*
X27235Y82915D01*
X29034Y81915D02*
X28234D01*
X29034Y82715D01*
Y82915D01*
X28834Y83115D01*
X28434D01*
X28234Y82915D01*
X26035Y76835D02*
Y78035D01*
X26635D01*
X26835Y77835D01*
Y77435D01*
X26635Y77235D01*
X26035D01*
X26435D02*
X26835Y76835D01*
X27235D02*
X27634D01*
X27435D01*
Y78035D01*
X27235Y77835D01*
X28234D02*
X28434Y78035D01*
X28834D01*
X29034Y77835D01*
Y77635D01*
X28834Y77435D01*
X28634D01*
X28834D01*
X29034Y77235D01*
Y77035D01*
X28834Y76835D01*
X28434D01*
X28234Y77035D01*
X26035Y79375D02*
Y80575D01*
X26635D01*
X26835Y80375D01*
Y79975D01*
X26635Y79775D01*
X26035D01*
X26435D02*
X26835Y79375D01*
X27235D02*
X27634D01*
X27435D01*
Y80575D01*
X27235Y80375D01*
X28834Y79375D02*
Y80575D01*
X28234Y79975D01*
X29034D01*
X26035Y89535D02*
Y90735D01*
X26635D01*
X26835Y90535D01*
Y90135D01*
X26635Y89935D01*
X26035D01*
X26435D02*
X26835Y89535D01*
X27235D02*
X27634D01*
X27435D01*
Y90735D01*
X27235Y90535D01*
X29034Y90735D02*
X28234D01*
Y90135D01*
X28634Y90335D01*
X28834D01*
X29034Y90135D01*
Y89735D01*
X28834Y89535D01*
X28434D01*
X28234Y89735D01*
X26035Y86995D02*
Y88195D01*
X26635D01*
X26835Y87995D01*
Y87595D01*
X26635Y87395D01*
X26035D01*
X26435D02*
X26835Y86995D01*
X27235D02*
X27634D01*
X27435D01*
Y88195D01*
X27235Y87995D01*
X29034Y88195D02*
X28634Y87995D01*
X28234Y87595D01*
Y87195D01*
X28434Y86995D01*
X28834D01*
X29034Y87195D01*
Y87395D01*
X28834Y87595D01*
X28234D01*
X26035Y74295D02*
Y75495D01*
X26635D01*
X26835Y75295D01*
Y74895D01*
X26635Y74695D01*
X26035D01*
X26435D02*
X26835Y74295D01*
X27235D02*
X27634D01*
X27435D01*
Y75495D01*
X27235Y75295D01*
X28234Y75495D02*
X29034D01*
Y75295D01*
X28234Y74495D01*
Y74295D01*
X26035Y71755D02*
Y72955D01*
X26635D01*
X26835Y72755D01*
Y72355D01*
X26635Y72155D01*
X26035D01*
X26435D02*
X26835Y71755D01*
X27235D02*
X27634D01*
X27435D01*
Y72955D01*
X27235Y72755D01*
X28234D02*
X28434Y72955D01*
X28834D01*
X29034Y72755D01*
Y72555D01*
X28834Y72355D01*
X29034Y72155D01*
Y71955D01*
X28834Y71755D01*
X28434D01*
X28234Y71955D01*
Y72155D01*
X28434Y72355D01*
X28234Y72555D01*
Y72755D01*
X28434Y72355D02*
X28834D01*
X6985Y34925D02*
X5785D01*
Y35525D01*
X5985Y35725D01*
X6385D01*
X6585Y35525D01*
Y34925D01*
Y35325D02*
X6985Y35725D01*
Y36125D02*
Y36524D01*
Y36325D01*
X5785D01*
X5985Y36125D01*
X6785Y37124D02*
X6985Y37324D01*
Y37724D01*
X6785Y37924D01*
X5985D01*
X5785Y37724D01*
Y37324D01*
X5985Y37124D01*
X6185D01*
X6385Y37324D01*
Y37924D01*
X26035Y84455D02*
Y85655D01*
X26635D01*
X26835Y85455D01*
Y85055D01*
X26635Y84855D01*
X26035D01*
X26435D02*
X26835Y84455D01*
X28034D02*
X27235D01*
X28034Y85255D01*
Y85455D01*
X27834Y85655D01*
X27435D01*
X27235Y85455D01*
X28434D02*
X28634Y85655D01*
X29034D01*
X29234Y85455D01*
Y84655D01*
X29034Y84455D01*
X28634D01*
X28434Y84655D01*
Y85455D01*
X38735Y33655D02*
Y34855D01*
X39335D01*
X39535Y34655D01*
Y34255D01*
X39335Y34055D01*
X38735D01*
X39135D02*
X39535Y33655D01*
X40734D02*
X39935D01*
X40734Y34455D01*
Y34655D01*
X40534Y34855D01*
X40135D01*
X39935Y34655D01*
X41134Y33655D02*
X41534D01*
X41334D01*
Y34855D01*
X41134Y34655D01*
X38735Y36195D02*
Y37395D01*
X39335D01*
X39535Y37195D01*
Y36795D01*
X39335Y36595D01*
X38735D01*
X39135D02*
X39535Y36195D01*
X40734D02*
X39935D01*
X40734Y36995D01*
Y37195D01*
X40534Y37395D01*
X40135D01*
X39935Y37195D01*
X41934Y36195D02*
X41134D01*
X41934Y36995D01*
Y37195D01*
X41734Y37395D01*
X41334D01*
X41134Y37195D01*
X50165Y42545D02*
X48965D01*
Y43145D01*
X49165Y43345D01*
X49565D01*
X49765Y43145D01*
Y42545D01*
Y42945D02*
X50165Y43345D01*
Y44544D02*
Y43745D01*
X49365Y44544D01*
X49165D01*
X48965Y44344D01*
Y43945D01*
X49165Y43745D01*
Y44944D02*
X48965Y45144D01*
Y45544D01*
X49165Y45744D01*
X49365D01*
X49565Y45544D01*
Y45344D01*
Y45544D01*
X49765Y45744D01*
X49965D01*
X50165Y45544D01*
Y45144D01*
X49965Y44944D01*
X46355Y86995D02*
Y88195D01*
X46955D01*
X47155Y87995D01*
Y87595D01*
X46955Y87395D01*
X46355D01*
X46755D02*
X47155Y86995D01*
X48354D02*
X47555D01*
X48354Y87795D01*
Y87995D01*
X48154Y88195D01*
X47755D01*
X47555Y87995D01*
X49354Y86995D02*
Y88195D01*
X48754Y87595D01*
X49554D01*
X46355Y89535D02*
Y90735D01*
X46955D01*
X47155Y90535D01*
Y90135D01*
X46955Y89935D01*
X46355D01*
X46755D02*
X47155Y89535D01*
X48354D02*
X47555D01*
X48354Y90335D01*
Y90535D01*
X48154Y90735D01*
X47755D01*
X47555Y90535D01*
X49554Y90735D02*
X48754D01*
Y90135D01*
X49154Y90335D01*
X49354D01*
X49554Y90135D01*
Y89735D01*
X49354Y89535D01*
X48954D01*
X48754Y89735D01*
X29845Y53975D02*
Y55175D01*
X30445D01*
X30645Y54975D01*
Y54575D01*
X30445Y54375D01*
X29845D01*
X30245D02*
X30645Y53975D01*
X31844D02*
X31045D01*
X31844Y54775D01*
Y54975D01*
X31644Y55175D01*
X31245D01*
X31045Y54975D01*
X33044Y55175D02*
X32644Y54975D01*
X32244Y54575D01*
Y54175D01*
X32444Y53975D01*
X32844D01*
X33044Y54175D01*
Y54375D01*
X32844Y54575D01*
X32244D01*
X4445Y34925D02*
X3245D01*
Y35525D01*
X3445Y35725D01*
X3845D01*
X4045Y35525D01*
Y34925D01*
Y35325D02*
X4445Y35725D01*
Y36924D02*
Y36125D01*
X3645Y36924D01*
X3445D01*
X3245Y36724D01*
Y36325D01*
X3445Y36125D01*
X3245Y37324D02*
Y38124D01*
X3445D01*
X4245Y37324D01*
X4445D01*
X40005Y59055D02*
X38805D01*
Y59655D01*
X39005Y59855D01*
X39405D01*
X39605Y59655D01*
Y59055D01*
Y59455D02*
X40005Y59855D01*
Y61054D02*
Y60255D01*
X39205Y61054D01*
X39005D01*
X38805Y60854D01*
Y60455D01*
X39005Y60255D01*
Y61454D02*
X38805Y61654D01*
Y62054D01*
X39005Y62254D01*
X39205D01*
X39405Y62054D01*
X39605Y62254D01*
X39805D01*
X40005Y62054D01*
Y61654D01*
X39805Y61454D01*
X39605D01*
X39405Y61654D01*
X39205Y61454D01*
X39005D01*
X39405Y61654D02*
Y62054D01*
X42545Y59055D02*
X41345D01*
Y59655D01*
X41545Y59855D01*
X41945D01*
X42145Y59655D01*
Y59055D01*
Y59455D02*
X42545Y59855D01*
Y61054D02*
Y60255D01*
X41745Y61054D01*
X41545D01*
X41345Y60854D01*
Y60455D01*
X41545Y60255D01*
X42345Y61454D02*
X42545Y61654D01*
Y62054D01*
X42345Y62254D01*
X41545D01*
X41345Y62054D01*
Y61654D01*
X41545Y61454D01*
X41745D01*
X41945Y61654D01*
Y62254D01*
X45085Y59055D02*
X43885D01*
Y59655D01*
X44085Y59855D01*
X44485D01*
X44685Y59655D01*
Y59055D01*
Y59455D02*
X45085Y59855D01*
X44085Y60255D02*
X43885Y60455D01*
Y60854D01*
X44085Y61054D01*
X44285D01*
X44485Y60854D01*
Y60654D01*
Y60854D01*
X44685Y61054D01*
X44885D01*
X45085Y60854D01*
Y60455D01*
X44885Y60255D01*
X44085Y61454D02*
X43885Y61654D01*
Y62054D01*
X44085Y62254D01*
X44885D01*
X45085Y62054D01*
Y61654D01*
X44885Y61454D01*
X44085D01*
X46990Y83185D02*
Y84385D01*
X47590D01*
X47790Y84185D01*
Y83785D01*
X47590Y83585D01*
X46990D01*
X47390D02*
X47790Y83185D01*
X48190Y84185D02*
X48390Y84385D01*
X48789D01*
X48989Y84185D01*
Y83985D01*
X48789Y83785D01*
X48589D01*
X48789D01*
X48989Y83585D01*
Y83385D01*
X48789Y83185D01*
X48390D01*
X48190Y83385D01*
X49389Y83185D02*
X49789D01*
X49589D01*
Y84385D01*
X49389Y84185D01*
X17780Y46355D02*
Y47555D01*
X18380D01*
X18580Y47355D01*
Y46955D01*
X18380Y46755D01*
X17780D01*
X18180D02*
X18580Y46355D01*
X18980Y47355D02*
X19180Y47555D01*
X19579D01*
X19779Y47355D01*
Y47155D01*
X19579Y46955D01*
X19379D01*
X19579D01*
X19779Y46755D01*
Y46555D01*
X19579Y46355D01*
X19180D01*
X18980Y46555D01*
X20979Y46355D02*
X20179D01*
X20979Y47155D01*
Y47355D01*
X20779Y47555D01*
X20379D01*
X20179Y47355D01*
X27305Y61525D02*
Y60525D01*
X27505Y60325D01*
X27905D01*
X28105Y60525D01*
Y61525D01*
X28505Y60325D02*
X28904D01*
X28705D01*
Y61525D01*
X28505Y61325D01*
X12700Y37395D02*
Y36395D01*
X12900Y36195D01*
X13300D01*
X13500Y36395D01*
Y37395D01*
X14699Y36195D02*
X13900D01*
X14699Y36995D01*
Y37195D01*
X14499Y37395D01*
X14100D01*
X13900Y37195D01*
X36830Y45015D02*
Y44015D01*
X37030Y43815D01*
X37430D01*
X37630Y44015D01*
Y45015D01*
X38030Y44815D02*
X38230Y45015D01*
X38629D01*
X38829Y44815D01*
Y44615D01*
X38629Y44415D01*
X38429D01*
X38629D01*
X38829Y44215D01*
Y44015D01*
X38629Y43815D01*
X38230D01*
X38030Y44015D01*
X15189Y22231D02*
Y21431D01*
X15589Y21031D01*
X15989Y21431D01*
Y22231D01*
X16389Y21031D02*
Y22231D01*
X16989D01*
X17189Y22031D01*
Y21631D01*
X16989Y21431D01*
X16389D01*
X16789D02*
X17189Y21031D01*
X17588D02*
X17988D01*
X17788D01*
Y22231D01*
X17588Y22031D01*
X15189Y14611D02*
Y13811D01*
X15589Y13411D01*
X15989Y13811D01*
Y14611D01*
X16389Y13411D02*
Y14611D01*
X16989D01*
X17189Y14411D01*
Y14011D01*
X16989Y13811D01*
X16389D01*
X16789D02*
X17189Y13411D01*
X18388D02*
X17588D01*
X18388Y14211D01*
Y14411D01*
X18188Y14611D01*
X17788D01*
X17588Y14411D01*
X19685Y83115D02*
Y81915D01*
X20085Y82315D01*
X20485Y81915D01*
Y83115D01*
X20885Y81915D02*
X21284D01*
X21085D01*
Y83115D01*
X20885Y82915D01*
X2642Y65512D02*
Y64313D01*
X3041Y64713D01*
X3441Y64313D01*
Y65512D01*
X4641Y64313D02*
X3841D01*
X4641Y65113D01*
Y65312D01*
X4441Y65512D01*
X4041D01*
X3841Y65312D01*
X5182Y65512D02*
Y64313D01*
X5581Y64713D01*
X5981Y64313D01*
Y65512D01*
X6381Y65312D02*
X6581Y65512D01*
X6981D01*
X7181Y65312D01*
Y65113D01*
X6981Y64913D01*
X6781D01*
X6981D01*
X7181Y64713D01*
Y64513D01*
X6981Y64313D01*
X6581D01*
X6381Y64513D01*
X7722Y65512D02*
Y64313D01*
X8121Y64713D01*
X8521Y64313D01*
Y65512D01*
X9521Y64313D02*
Y65512D01*
X8921Y64913D01*
X9721D01*
X41275Y83115D02*
Y81915D01*
X41675Y82315D01*
X42075Y81915D01*
Y83115D01*
X43274D02*
X42475D01*
Y82515D01*
X42874Y82715D01*
X43074D01*
X43274Y82515D01*
Y82115D01*
X43074Y81915D01*
X42675D01*
X42475Y82115D01*
X51435Y36125D02*
Y34925D01*
X51835Y35325D01*
X52235Y34925D01*
Y36125D01*
X53434D02*
X53034Y35925D01*
X52635Y35525D01*
Y35125D01*
X52835Y34925D01*
X53234D01*
X53434Y35125D01*
Y35325D01*
X53234Y35525D01*
X52635D01*
X31115Y14535D02*
Y13335D01*
X31515Y13735D01*
X31915Y13335D01*
Y14535D01*
X32315D02*
X33114D01*
Y14335D01*
X32315Y13535D01*
Y13335D01*
D27*
X47250Y46100D02*
G03*
X47250Y46100I-300J0D01*
G01*
D28*
X47145Y48260D02*
G03*
X47145Y48260I-125J0D01*
G01*
D29*
X52578Y80975D02*
X54102D01*
X52578Y81610D02*
X54102D01*
X16815Y85598D02*
Y87122D01*
X16180Y85598D02*
Y87122D01*
X38405Y85598D02*
Y87122D01*
X37770Y85598D02*
Y87122D01*
X16205Y29718D02*
Y31242D01*
X16840Y29718D02*
Y31242D01*
X9195Y19558D02*
Y21082D01*
X8560Y19558D02*
Y21082D01*
X28905Y18288D02*
Y19812D01*
X29540Y18288D02*
Y19812D01*
X28905Y8128D02*
Y9652D01*
X29540Y8128D02*
Y9652D01*
D30*
X4349Y105283D02*
X4679Y105639D01*
X4349Y99060D02*
Y105283D01*
X7321Y105639D02*
X7651Y105283D01*
Y99060D02*
Y105283D01*
X5949Y107569D02*
X6051D01*
X7016D01*
X7270Y107061D01*
Y99060D02*
Y107061D01*
X4984Y107569D02*
X6051D01*
X4730Y107061D02*
X4984Y107569D01*
X4730Y99060D02*
Y107061D01*
X3460Y99060D02*
X4730D01*
X7651D01*
X8540D01*
Y95885D02*
Y99060D01*
X7905Y95885D02*
X8540D01*
X7905D02*
Y96520D01*
X6635D02*
X7905D01*
X6635Y95885D02*
Y96520D01*
X5365Y95885D02*
X6635D01*
X5365D02*
Y96520D01*
X4095D02*
X5365D01*
X4095Y95885D02*
Y96520D01*
X3460Y95885D02*
X4095D01*
X3460D02*
Y99060D01*
X25849Y105283D02*
X26179Y105639D01*
X25849Y99060D02*
Y105283D01*
X28821Y105639D02*
X29151Y105283D01*
Y99060D02*
Y105283D01*
X27449Y107569D02*
X27551D01*
X28516D01*
X28770Y107061D01*
Y99060D02*
Y107061D01*
X26484Y107569D02*
X27551D01*
X26230Y107061D02*
X26484Y107569D01*
X26230Y99060D02*
Y107061D01*
X24960Y99060D02*
X26230D01*
X29151D01*
X30040D01*
Y95885D02*
Y99060D01*
X29405Y95885D02*
X30040D01*
X29405D02*
Y96520D01*
X28135D02*
X29405D01*
X28135Y95885D02*
Y96520D01*
X26865Y95885D02*
X28135D01*
X26865D02*
Y96520D01*
X25595D02*
X26865D01*
X25595Y95885D02*
Y96520D01*
X24960Y95885D02*
X25595D01*
X24960D02*
Y99060D01*
X47349Y105283D02*
X47679Y105639D01*
X47349Y99060D02*
Y105283D01*
X50321Y105639D02*
X50651Y105283D01*
Y99060D02*
Y105283D01*
X48949Y107569D02*
X49051D01*
X50016D01*
X50270Y107061D01*
Y99060D02*
Y107061D01*
X47984Y107569D02*
X49051D01*
X47730Y107061D02*
X47984Y107569D01*
X47730Y99060D02*
Y107061D01*
X46460Y99060D02*
X47730D01*
X50651D01*
X51540D01*
Y95885D02*
Y99060D01*
X50905Y95885D02*
X51540D01*
X50905D02*
Y96520D01*
X49635D02*
X50905D01*
X49635Y95885D02*
Y96520D01*
X48365Y95885D02*
X49635D01*
X48365D02*
Y96520D01*
X47095D02*
X48365D01*
X47095Y95885D02*
Y96520D01*
X46460Y95885D02*
X47095D01*
X46460D02*
Y99060D01*
X24765Y889D02*
Y1524D01*
X23495D02*
X24765D01*
X23495Y889D02*
Y1524D01*
X22225Y889D02*
Y1524D01*
X20955D02*
X22225D01*
X20955Y889D02*
Y1524D01*
X27305Y889D02*
Y1524D01*
X26035D02*
X27305D01*
X26035Y889D02*
Y1524D01*
X19685Y889D02*
Y1524D01*
X18415D02*
X19685D01*
X18415Y889D02*
Y1524D01*
X29845Y889D02*
Y1524D01*
X28575D02*
X29845D01*
X28575Y889D02*
Y1524D01*
X17145Y889D02*
Y1524D01*
X15875D02*
X17145D01*
X15875Y889D02*
Y1524D01*
X36576Y5715D02*
Y6731D01*
Y5207D02*
X36830Y5715D01*
X32004Y5207D02*
X36576D01*
X31750Y5715D02*
X32004Y5207D01*
X9144Y5715D02*
Y6731D01*
X13716Y5207D02*
X13970Y5715D01*
X9144Y5207D02*
X13716D01*
X8890Y5715D02*
X9144Y5207D01*
X36830Y5715D02*
Y6731D01*
X36576Y5715D02*
X36830D01*
X31750D02*
X36576D01*
X31750D02*
Y6731D01*
X13970Y5715D02*
Y6731D01*
X9144Y5715D02*
X13970D01*
X8890D02*
X9144D01*
X8890D02*
Y6731D01*
X37465Y889D02*
X38100D01*
X37465D02*
Y1524D01*
X36195D02*
X37465D01*
X36195Y889D02*
Y1524D01*
X34925Y889D02*
X36195D01*
X34925D02*
Y1524D01*
X33655D02*
X34925D01*
X33655Y889D02*
Y1524D01*
X32385Y889D02*
X33655D01*
X32385D02*
Y1524D01*
X31115D02*
X32385D01*
X31115Y889D02*
Y1524D01*
X14605Y889D02*
X31115D01*
X14605D02*
Y1524D01*
X13335D02*
X14605D01*
X13335Y889D02*
Y1524D01*
X12065Y889D02*
X13335D01*
X12065D02*
Y1524D01*
X10795D02*
X12065D01*
X10795Y889D02*
Y1524D01*
X9525Y889D02*
X10795D01*
X9525D02*
Y1524D01*
X8255D02*
X9525D01*
X8255Y889D02*
Y1524D01*
X7874Y889D02*
X8255D01*
X38100D02*
Y3810D01*
X7620Y889D02*
X15113D01*
X7620D02*
Y3810D01*
X15240Y6731D02*
X38100D01*
Y3810D02*
Y6731D01*
X13970D02*
X15240D01*
X9144D02*
X13970D01*
X8890D02*
X9144D01*
X7620D02*
X8890D01*
X7620Y3810D02*
Y6731D01*
X4826Y5715D02*
Y6731D01*
Y5207D02*
X5080Y5715D01*
X2794Y5207D02*
X4826D01*
X2794Y5715D02*
Y6731D01*
X2540Y5715D02*
X2794Y5207D01*
X5080Y5715D02*
Y6731D01*
X4826Y5715D02*
X5080D01*
X2794D02*
X4826D01*
X2540D02*
X2794D01*
X2540D02*
Y6731D01*
X5715Y889D02*
X6350D01*
X5715D02*
Y1524D01*
X4445D02*
X5715D01*
X4445Y889D02*
Y1524D01*
X3175Y889D02*
X4445D01*
X3175D02*
Y1524D01*
X1905D02*
X3175D01*
X1905Y889D02*
Y1524D01*
X1270Y889D02*
X1905D01*
X4445D02*
X5715D01*
X6350D02*
Y3810D01*
X1270Y889D02*
X3810D01*
X1270D02*
Y3810D01*
X6350D02*
Y6731D01*
X2540D02*
X3810D01*
X1270D02*
X2540D01*
X1270Y3810D02*
Y6731D01*
X52705Y889D02*
Y1524D01*
X51435D02*
X52705D01*
X51435Y889D02*
Y1524D01*
X50165Y889D02*
Y1524D01*
X48895D02*
X50165D01*
X48895Y889D02*
Y1524D01*
X51816Y5715D02*
Y6731D01*
Y5207D02*
X52070Y5715D01*
X42164Y5207D02*
X51816D01*
X42164Y5715D02*
Y6731D01*
X41910Y5715D02*
X42164Y5207D01*
X52070Y5715D02*
Y6731D01*
X51816Y5715D02*
X52070D01*
X42164D02*
X51816D01*
X41910D02*
X42164D01*
X41910D02*
Y6731D01*
X52705Y889D02*
X53340D01*
X50165D02*
X51435D01*
X47625D02*
X48895D01*
X46355D02*
X47625D01*
Y1524D01*
X46355D02*
X47625D01*
X46355Y889D02*
Y1524D01*
X45085Y889D02*
X46355D01*
X45085D02*
Y1524D01*
X43815D02*
X45085D01*
X43815Y889D02*
Y1524D01*
X42545Y889D02*
X43815D01*
X42545D02*
Y1524D01*
X41275D02*
X42545D01*
X41275Y889D02*
Y1524D01*
X40894Y889D02*
X41275D01*
X48895D02*
X50165D01*
X51435D02*
X52705D01*
X53340D02*
Y3810D01*
X40640Y889D02*
X48260D01*
X40640D02*
Y3810D01*
X48260Y6731D02*
X53340D01*
Y3810D02*
Y6731D01*
X42164D02*
X48260D01*
X41910D02*
X42164D01*
X40640D02*
X41910D01*
X40640Y3810D02*
Y6731D01*
D31*
X20320Y12319D02*
D03*
Y19939D02*
D03*
D32*
X15939Y11684D02*
D03*
X24701D02*
D03*
X15939Y19304D02*
D03*
X24701D02*
D03*
D33*
X19050Y11684D02*
D03*
X21590D02*
D03*
X19050Y19304D02*
D03*
X21590D02*
D03*
D34*
X9957Y90170D02*
D03*
X2743D02*
D03*
X9957Y72390D02*
D03*
X2743D02*
D03*
Y74930D02*
D03*
X9957D02*
D03*
X2743Y77419D02*
D03*
X9957D02*
D03*
X2743Y80010D02*
D03*
X9957D02*
D03*
X2743Y82550D02*
D03*
X9957D02*
D03*
X2743Y85090D02*
D03*
X9957D02*
D03*
Y87630D02*
D03*
X2743D02*
D03*
X31547Y90170D02*
D03*
X24333D02*
D03*
X31547Y87630D02*
D03*
X24333D02*
D03*
Y85090D02*
D03*
X31547D02*
D03*
X24333Y82550D02*
D03*
X31547D02*
D03*
X24333Y80010D02*
D03*
X31547D02*
D03*
X24333Y77470D02*
D03*
X31547D02*
D03*
X24333Y74930D02*
D03*
X31547D02*
D03*
Y72390D02*
D03*
X24333D02*
D03*
X51867Y87630D02*
D03*
X44653D02*
D03*
X51867Y90170D02*
D03*
X44653D02*
D03*
X44247Y36830D02*
D03*
X37033D02*
D03*
X44247Y34290D02*
D03*
X37033D02*
D03*
X35357Y54610D02*
D03*
X28143D02*
D03*
D35*
X39370Y64567D02*
D03*
Y57353D02*
D03*
X41910Y64567D02*
D03*
Y57353D02*
D03*
X44450Y64567D02*
D03*
Y57353D02*
D03*
X49530Y40843D02*
D03*
Y48057D02*
D03*
X3810Y54407D02*
D03*
Y47193D02*
D03*
X6350Y54407D02*
D03*
Y47193D02*
D03*
X8890Y54407D02*
D03*
Y47193D02*
D03*
X3810Y40437D02*
D03*
Y33223D02*
D03*
X6350Y40437D02*
D03*
Y33223D02*
D03*
D36*
X2540Y15367D02*
D03*
D37*
Y10986D02*
D03*
Y16955D02*
D03*
M02*
