G04 Layer_Color=8388736*
%FSLAX43Y43*%
%MOMM*%
G71*
G01*
G75*
%ADD38C,4.203*%
%ADD39C,1.803*%
%ADD40C,1.703*%
%ADD41R,1.703X1.703*%
%ADD42O,1.727X3.251*%
%ADD43R,1.803X1.803*%
%ADD44C,1.803*%
%ADD45R,1.703X1.703*%
%ADD46C,2.203*%
%ADD47R,1.703X1.703*%
%ADD48C,1.703*%
%ADD49R,1.803X1.803*%
%ADD50C,1.473*%
D38*
X2500Y97500D02*
D03*
X52500D02*
D03*
X2500Y22500D02*
D03*
X52500D02*
D03*
D39*
X53340Y80010D02*
D03*
Y82550D02*
D03*
X1270Y90170D02*
D03*
X11430D02*
D03*
X1270Y72390D02*
D03*
X11430D02*
D03*
Y74930D02*
D03*
X1270D02*
D03*
X11430Y77419D02*
D03*
X1270D02*
D03*
X11430Y80010D02*
D03*
X1270D02*
D03*
X11430Y82550D02*
D03*
X1270D02*
D03*
X11430Y85090D02*
D03*
X1270D02*
D03*
Y87630D02*
D03*
X11430D02*
D03*
X17780Y77470D02*
D03*
X16510Y79375D02*
D03*
X15240Y77470D02*
D03*
X17780Y86360D02*
D03*
X15240D02*
D03*
X22860Y90170D02*
D03*
X33020D02*
D03*
X22860Y87630D02*
D03*
X33020D02*
D03*
Y85090D02*
D03*
X22860D02*
D03*
X33020Y82550D02*
D03*
X22860D02*
D03*
X33020Y80010D02*
D03*
X22860D02*
D03*
X33020Y77470D02*
D03*
X22860D02*
D03*
X33020Y74930D02*
D03*
X22860D02*
D03*
Y72390D02*
D03*
X33020D02*
D03*
X39370Y86360D02*
D03*
X36830D02*
D03*
X39370Y77470D02*
D03*
X38100Y79375D02*
D03*
X36830Y77470D02*
D03*
X43180Y87630D02*
D03*
X53340D02*
D03*
X43180Y90170D02*
D03*
X53340D02*
D03*
X39370Y55880D02*
D03*
Y66040D02*
D03*
X41910Y55880D02*
D03*
Y66040D02*
D03*
X44450Y55880D02*
D03*
Y66040D02*
D03*
X49530Y49530D02*
D03*
Y39370D02*
D03*
X35560Y36830D02*
D03*
X45720D02*
D03*
X35560Y34290D02*
D03*
X45720D02*
D03*
X3810Y45720D02*
D03*
Y55880D02*
D03*
X6350Y45720D02*
D03*
Y55880D02*
D03*
X8890Y45720D02*
D03*
Y55880D02*
D03*
X3810Y31750D02*
D03*
Y41910D02*
D03*
X6350Y31750D02*
D03*
Y41910D02*
D03*
X15240Y30480D02*
D03*
X17780D02*
D03*
X10160Y20320D02*
D03*
X7620D02*
D03*
X27940Y19050D02*
D03*
X30480D02*
D03*
X27940Y8890D02*
D03*
X30480D02*
D03*
X26670Y54610D02*
D03*
X36830D02*
D03*
D40*
X3810Y62230D02*
D03*
X6350D02*
D03*
X8890D02*
D03*
X17780Y82550D02*
D03*
X39370D02*
D03*
X30480Y40640D02*
D03*
X33020D02*
D03*
X35560D02*
D03*
X38100D02*
D03*
X40640D02*
D03*
X43180D02*
D03*
X45720D02*
D03*
X30480Y48260D02*
D03*
X33020D02*
D03*
X35560D02*
D03*
X38100D02*
D03*
X40640D02*
D03*
X43180D02*
D03*
X49530Y36830D02*
D03*
X29210Y12700D02*
D03*
D41*
X3810Y59690D02*
D03*
X6350D02*
D03*
X8890D02*
D03*
X45720Y48260D02*
D03*
X49530Y34290D02*
D03*
X29210Y15240D02*
D03*
D42*
X17780Y10160D02*
D03*
X20320D02*
D03*
X22860D02*
D03*
X17780Y17780D02*
D03*
X20320D02*
D03*
X22860D02*
D03*
X7270Y93980D02*
D03*
X4730D02*
D03*
X28770D02*
D03*
X26230D02*
D03*
X50270D02*
D03*
X47730D02*
D03*
X24130Y3810D02*
D03*
X21590D02*
D03*
X19050D02*
D03*
X26670D02*
D03*
X29210D02*
D03*
X16510D02*
D03*
X36830D02*
D03*
X34290D02*
D03*
X31750D02*
D03*
X13970D02*
D03*
X11430D02*
D03*
X8890D02*
D03*
X5080D02*
D03*
X2540D02*
D03*
X41910D02*
D03*
X44450D02*
D03*
X52070D02*
D03*
X49530D02*
D03*
X46990D02*
D03*
D43*
X35560Y93980D02*
D03*
X13970D02*
D03*
X10160Y29210D02*
D03*
D44*
X40640Y93980D02*
D03*
X19050D02*
D03*
X24130Y39370D02*
D03*
X12700Y29210D02*
D03*
X8890Y10160D02*
D03*
D45*
X15240Y82550D02*
D03*
X36830D02*
D03*
D46*
X44450Y78740D02*
D03*
Y83820D02*
D03*
X49530Y81280D02*
D03*
X2540Y8890D02*
D03*
Y19050D02*
D03*
X19050Y54610D02*
D03*
X24130D02*
D03*
X21590Y49530D02*
D03*
D47*
X35560Y64770D02*
D03*
X10160Y33020D02*
D03*
D48*
X33020Y64770D02*
D03*
X30480D02*
D03*
X27940D02*
D03*
X25400D02*
D03*
X22860D02*
D03*
X20320D02*
D03*
X35560Y57150D02*
D03*
X33020D02*
D03*
X30480D02*
D03*
X27940D02*
D03*
X25400D02*
D03*
X22860D02*
D03*
X20320D02*
D03*
X12700Y33020D02*
D03*
X15240D02*
D03*
X17780D02*
D03*
X10160Y40640D02*
D03*
X12700D02*
D03*
X15240D02*
D03*
X17780D02*
D03*
D49*
X24130Y41910D02*
D03*
X8890Y15240D02*
D03*
D50*
X4445Y8103D02*
D03*
X50825Y64465D02*
D03*
X10236Y35255D02*
D03*
X48438Y72390D02*
D03*
X26594Y27864D02*
D03*
X46838Y32309D02*
D03*
X47142Y81432D02*
D03*
X21133Y78283D02*
D03*
X5944Y50063D02*
D03*
X5766Y82245D02*
D03*
Y68504D02*
D03*
X49632Y58445D02*
D03*
X45644Y25730D02*
D03*
X18161Y72619D02*
D03*
M02*
