G04 Layer_Physical_Order=1*
G04 Layer_Color=255*
%FSLAX43Y43*%
%MOMM*%
G71*
G01*
G75*
%ADD10C,0.500*%
%ADD11C,4.000*%
%ADD12C,1.600*%
%ADD13C,1.500*%
%ADD14R,1.500X1.500*%
%ADD15O,1.524X3.048*%
%ADD16R,1.600X1.600*%
%ADD17C,1.600*%
%ADD18R,1.500X1.500*%
%ADD19C,2.000*%
%ADD20R,1.500X1.500*%
%ADD21C,1.500*%
%ADD22R,1.600X1.600*%
%ADD23C,1.270*%
G36*
X1470Y71307D02*
X1557Y71318D01*
X1825Y71429D01*
X1954Y71528D01*
X2081Y71466D01*
Y70184D01*
X873Y68977D01*
X752Y68795D01*
X709Y68580D01*
Y28829D01*
X752Y28614D01*
X873Y28432D01*
X4494Y24812D01*
Y23896D01*
X4367Y23851D01*
X4134Y24134D01*
X3784Y24422D01*
X3384Y24635D01*
X2951Y24767D01*
X2500Y24811D01*
X2049Y24767D01*
X1616Y24635D01*
X1216Y24422D01*
X866Y24134D01*
X578Y23784D01*
X559Y23747D01*
X435Y23778D01*
Y71484D01*
X562Y71546D01*
X715Y71429D01*
X983Y71318D01*
X1070Y71307D01*
Y72390D01*
X1470D01*
Y71307D01*
D02*
G37*
G36*
X50354Y63648D02*
X50581Y63554D01*
X50825Y63522D01*
X50958Y63540D01*
X51966Y62531D01*
Y30560D01*
X49540Y28133D01*
X49418Y27951D01*
X49376Y27737D01*
Y10795D01*
X49418Y10580D01*
X49540Y10398D01*
X52830Y7108D01*
Y5488D01*
X52703Y5425D01*
X52606Y5500D01*
X52347Y5607D01*
X52070Y5643D01*
X51793Y5607D01*
X51534Y5500D01*
X51313Y5329D01*
X51142Y5108D01*
X51035Y4849D01*
X50999Y4572D01*
Y3048D01*
X51031Y2802D01*
X50552Y2323D01*
X50476Y2331D01*
X50418Y2460D01*
X50458Y2512D01*
X50565Y2771D01*
X50601Y3048D01*
Y3610D01*
X49530D01*
X48459D01*
Y3048D01*
X48495Y2771D01*
X48602Y2512D01*
X48680Y2411D01*
X48624Y2297D01*
X47896D01*
X47840Y2411D01*
X47918Y2512D01*
X48025Y2771D01*
X48061Y3048D01*
Y4572D01*
X48025Y4849D01*
X47918Y5108D01*
X47747Y5329D01*
X47526Y5500D01*
X47267Y5607D01*
X46990Y5643D01*
X46713Y5607D01*
X46454Y5500D01*
X46233Y5329D01*
X46062Y5108D01*
X45955Y4849D01*
X45919Y4572D01*
Y3048D01*
X45955Y2771D01*
X46062Y2512D01*
X46140Y2411D01*
X46084Y2297D01*
X45356D01*
X45300Y2411D01*
X45378Y2512D01*
X45485Y2771D01*
X45521Y3048D01*
Y4572D01*
X45485Y4849D01*
X45378Y5108D01*
X45207Y5329D01*
X45011Y5480D01*
Y24952D01*
X45125Y25008D01*
X45195Y24954D01*
X45412Y24864D01*
X45517Y24850D01*
Y25730D01*
Y26610D01*
X45412Y26596D01*
X45195Y26507D01*
X45125Y26452D01*
X45011Y26509D01*
Y28343D01*
X45952Y29284D01*
X48260D01*
X48475Y29327D01*
X48657Y29448D01*
X51298Y32090D01*
X51420Y32272D01*
X51462Y32487D01*
Y51384D01*
X51420Y51599D01*
X51298Y51781D01*
X48999Y54080D01*
Y57609D01*
X49112Y57665D01*
X49160Y57629D01*
X49388Y57534D01*
X49632Y57502D01*
X49876Y57534D01*
X50103Y57629D01*
X50298Y57779D01*
X50448Y57974D01*
X50543Y58201D01*
X50575Y58445D01*
X50543Y58689D01*
X50448Y58917D01*
X50298Y59112D01*
X50192Y59194D01*
Y63629D01*
X50306Y63685D01*
X50354Y63648D01*
D02*
G37*
G36*
X50874Y84963D02*
Y81915D01*
X50917Y81700D01*
X51038Y81518D01*
X52267Y80290D01*
X52231Y80010D01*
X52268Y79723D01*
X52379Y79455D01*
X52555Y79225D01*
X52779Y79054D01*
Y75061D01*
X49235Y71517D01*
X49126Y71353D01*
X49051Y71356D01*
X48999Y71374D01*
Y71642D01*
X49105Y71723D01*
X49255Y71918D01*
X49349Y72146D01*
X49381Y72390D01*
X49349Y72634D01*
X49255Y72862D01*
X49105Y73057D01*
X48909Y73207D01*
X48682Y73301D01*
X48438Y73333D01*
X48194Y73301D01*
X47966Y73207D01*
X47830Y73102D01*
X47703Y73165D01*
Y80684D01*
X47809Y80766D01*
X47959Y80961D01*
X48053Y81188D01*
X48085Y81432D01*
X48053Y81676D01*
X47959Y81904D01*
X47809Y82099D01*
X47614Y82249D01*
X47386Y82343D01*
X47142Y82375D01*
X46898Y82343D01*
X46671Y82249D01*
X46476Y82099D01*
X46326Y81904D01*
X46231Y81676D01*
X46199Y81432D01*
X46231Y81188D01*
X46326Y80961D01*
X46476Y80766D01*
X46582Y80684D01*
Y68042D01*
X46464Y67994D01*
X45482Y68977D01*
X45300Y69098D01*
X45085Y69141D01*
X43412D01*
X42471Y70082D01*
Y81048D01*
X44016Y82593D01*
X44111Y82553D01*
X44450Y82509D01*
X44789Y82553D01*
X45106Y82684D01*
X45377Y82893D01*
X45586Y83164D01*
X45717Y83481D01*
X45761Y83820D01*
X45717Y84159D01*
X45586Y84476D01*
X45377Y84747D01*
X45106Y84956D01*
X45011Y84995D01*
Y86360D01*
X44968Y86575D01*
X44847Y86757D01*
X44253Y87350D01*
X44289Y87630D01*
X44252Y87917D01*
X44141Y88185D01*
X43965Y88415D01*
X43735Y88591D01*
X43467Y88702D01*
X43180Y88739D01*
X42893Y88702D01*
X42625Y88591D01*
X42395Y88415D01*
X42344Y88347D01*
X42217Y88390D01*
Y89410D01*
X42344Y89453D01*
X42395Y89385D01*
X42625Y89209D01*
X42893Y89098D01*
X43180Y89061D01*
X43467Y89098D01*
X43735Y89209D01*
X43965Y89385D01*
X44136Y89609D01*
X46228D01*
X50874Y84963D01*
D02*
G37*
G36*
X51253Y99441D02*
X51216Y99422D01*
X50866Y99134D01*
X50578Y98784D01*
X50365Y98384D01*
X50233Y97951D01*
X50189Y97500D01*
X50233Y97049D01*
X50365Y96616D01*
X50578Y96216D01*
X50866Y95866D01*
X51216Y95578D01*
X51616Y95365D01*
X52049Y95233D01*
X52500Y95189D01*
X52951Y95233D01*
X53384Y95365D01*
X53784Y95578D01*
X54134Y95866D01*
X54422Y96216D01*
X54441Y96253D01*
X54565Y96222D01*
Y90268D01*
X54438Y90260D01*
X54412Y90457D01*
X54301Y90725D01*
X54125Y90955D01*
X53895Y91131D01*
X53627Y91242D01*
X53340Y91279D01*
X53053Y91242D01*
X52785Y91131D01*
X52555Y90955D01*
X52379Y90725D01*
X52268Y90457D01*
X52231Y90170D01*
X52268Y89883D01*
X52379Y89615D01*
X52555Y89385D01*
X52779Y89214D01*
Y88586D01*
X52555Y88415D01*
X52379Y88185D01*
X52268Y87917D01*
X52231Y87630D01*
X52268Y87343D01*
X52379Y87075D01*
X52555Y86845D01*
X52779Y86674D01*
Y83506D01*
X52555Y83335D01*
X52379Y83105D01*
X52268Y82837D01*
X52231Y82550D01*
X52268Y82263D01*
X52379Y81995D01*
X52550Y81773D01*
X52454Y81689D01*
X51996Y82147D01*
Y85195D01*
X51953Y85410D01*
X51832Y85592D01*
X47253Y90170D01*
X48127Y91043D01*
X48248Y91225D01*
X48291Y91440D01*
Y92310D01*
X48487Y92461D01*
X48658Y92682D01*
X48765Y92941D01*
X48801Y93218D01*
Y94742D01*
X48765Y95019D01*
X48658Y95278D01*
X48487Y95499D01*
X48266Y95670D01*
X48007Y95777D01*
X47730Y95813D01*
X47453Y95777D01*
X47194Y95670D01*
X46973Y95499D01*
X46802Y95278D01*
X46695Y95019D01*
X46659Y94742D01*
Y93218D01*
X46695Y92941D01*
X46802Y92682D01*
X46973Y92461D01*
X47169Y92310D01*
Y91672D01*
X46228Y90731D01*
X44136D01*
X43965Y90955D01*
X43735Y91131D01*
X43467Y91242D01*
X43180Y91279D01*
X42893Y91242D01*
X42625Y91131D01*
X42395Y90955D01*
X42344Y90887D01*
X42217Y90930D01*
Y91487D01*
X42408Y91678D01*
X42530Y91860D01*
X42572Y92075D01*
Y94920D01*
X42530Y95134D01*
X42408Y95316D01*
X41672Y96053D01*
X41490Y96174D01*
X41275Y96217D01*
X32791D01*
X32577Y96174D01*
X32395Y96053D01*
X30083Y93742D01*
X29968Y93569D01*
X29959Y93568D01*
X29841Y93646D01*
Y94742D01*
X29805Y95019D01*
X29698Y95278D01*
X29527Y95499D01*
X29306Y95670D01*
X29047Y95777D01*
X28770Y95813D01*
X28493Y95777D01*
X28234Y95670D01*
X28013Y95499D01*
X27842Y95278D01*
X27735Y95019D01*
X27699Y94742D01*
Y93218D01*
X27735Y92941D01*
X27842Y92682D01*
X28013Y92461D01*
X28234Y92290D01*
X28493Y92183D01*
X28770Y92147D01*
X29047Y92183D01*
X29306Y92290D01*
X29527Y92461D01*
X29698Y92682D01*
X29792Y92911D01*
X29919Y92885D01*
Y85957D01*
X27073Y83111D01*
X23816D01*
X23645Y83335D01*
X23415Y83511D01*
X23147Y83622D01*
X22860Y83659D01*
X22573Y83622D01*
X22305Y83511D01*
X22075Y83335D01*
X21899Y83105D01*
X21788Y82837D01*
X21751Y82550D01*
X21788Y82263D01*
X21899Y81995D01*
X22075Y81765D01*
X22299Y81594D01*
Y80966D01*
X22075Y80795D01*
X21899Y80565D01*
X21788Y80297D01*
X21751Y80010D01*
X21788Y79723D01*
X21899Y79455D01*
X22075Y79225D01*
X22305Y79049D01*
X22413Y79004D01*
Y78476D01*
X22305Y78431D01*
X22196Y78347D01*
X22060Y78403D01*
X22044Y78527D01*
X21950Y78754D01*
X21800Y78950D01*
X21604Y79100D01*
X21377Y79194D01*
X21133Y79226D01*
X20889Y79194D01*
X20661Y79100D01*
X20466Y78950D01*
X20316Y78754D01*
X20222Y78527D01*
X20190Y78283D01*
X20207Y78150D01*
X19808Y77751D01*
X19691Y77800D01*
Y79223D01*
X20336Y79868D01*
X20458Y80050D01*
X20501Y80265D01*
Y87018D01*
X21974Y88491D01*
X22070Y88407D01*
X22008Y88326D01*
X21899Y88185D01*
X21788Y87917D01*
X21751Y87630D01*
X21788Y87343D01*
X21899Y87075D01*
X22075Y86845D01*
X22299Y86674D01*
Y86046D01*
X22075Y85875D01*
X21899Y85645D01*
X21788Y85377D01*
X21751Y85090D01*
X21788Y84803D01*
X21899Y84535D01*
X22075Y84305D01*
X22305Y84129D01*
X22573Y84018D01*
X22860Y83981D01*
X23147Y84018D01*
X23415Y84129D01*
X23645Y84305D01*
X23821Y84535D01*
X23932Y84803D01*
X23969Y85090D01*
X23932Y85377D01*
X23821Y85645D01*
X23645Y85875D01*
X23421Y86046D01*
Y86674D01*
X23645Y86845D01*
X23821Y87075D01*
X23932Y87343D01*
X23969Y87630D01*
X23932Y87917D01*
X23821Y88185D01*
X23645Y88415D01*
X23415Y88591D01*
X23147Y88702D01*
X22860Y88739D01*
X22573Y88702D01*
X22305Y88591D01*
X22164Y88482D01*
X22083Y88420D01*
X21999Y88516D01*
X22580Y89097D01*
X22860Y89061D01*
X23147Y89098D01*
X23415Y89209D01*
X23645Y89385D01*
X23816Y89609D01*
X24960D01*
X25175Y89652D01*
X25357Y89773D01*
X26627Y91043D01*
X26748Y91225D01*
X26791Y91440D01*
Y92310D01*
X26987Y92461D01*
X27158Y92682D01*
X27265Y92941D01*
X27301Y93218D01*
Y94742D01*
X27265Y95019D01*
X27158Y95278D01*
X26987Y95499D01*
X26766Y95670D01*
X26507Y95777D01*
X26230Y95813D01*
X25953Y95777D01*
X25694Y95670D01*
X25473Y95499D01*
X25302Y95278D01*
X25195Y95019D01*
X25159Y94742D01*
Y93218D01*
X25195Y92941D01*
X25302Y92682D01*
X25473Y92461D01*
X25669Y92310D01*
Y91672D01*
X24728Y90731D01*
X23816D01*
X23645Y90955D01*
X23415Y91131D01*
X23147Y91242D01*
X22860Y91279D01*
X22573Y91242D01*
X22305Y91131D01*
X22075Y90955D01*
X21899Y90725D01*
X21788Y90457D01*
X21751Y90170D01*
X21787Y89890D01*
X19543Y87646D01*
X19422Y87465D01*
X19379Y87250D01*
Y80497D01*
X18733Y79852D01*
X18612Y79670D01*
X18569Y79455D01*
Y78411D01*
X18442Y78348D01*
X18335Y78431D01*
X18067Y78542D01*
X17980Y78553D01*
Y77470D01*
Y76387D01*
X18067Y76398D01*
X18335Y76509D01*
X18442Y76592D01*
X18569Y76529D01*
Y74711D01*
X18612Y74497D01*
X18733Y74315D01*
X19585Y73463D01*
Y69389D01*
X19628Y69174D01*
X19749Y68992D01*
X22299Y66443D01*
Y65663D01*
X22111Y65519D01*
X21943Y65300D01*
X21837Y65044D01*
X21801Y64770D01*
X21837Y64496D01*
X21943Y64240D01*
X22111Y64021D01*
X22330Y63853D01*
X22586Y63747D01*
X22860Y63711D01*
X23134Y63747D01*
X23390Y63853D01*
X23609Y64021D01*
X23777Y64240D01*
X23883Y64496D01*
X23919Y64770D01*
X23883Y65044D01*
X23777Y65300D01*
X23609Y65519D01*
X23421Y65663D01*
Y66675D01*
X23482Y66749D01*
X31518D01*
X32459Y65808D01*
Y65663D01*
X32271Y65519D01*
X32103Y65300D01*
X31997Y65044D01*
X31961Y64770D01*
X31997Y64496D01*
X32103Y64240D01*
X32271Y64021D01*
X32490Y63853D01*
X32746Y63747D01*
X33020Y63711D01*
X33294Y63747D01*
X33550Y63853D01*
X33769Y64021D01*
X33937Y64240D01*
X34043Y64496D01*
X34079Y64770D01*
X34043Y65044D01*
X33937Y65300D01*
X33769Y65519D01*
X33581Y65663D01*
Y66040D01*
X33538Y66255D01*
X33417Y66437D01*
X32147Y67707D01*
X31965Y67828D01*
X31750Y67871D01*
X23589D01*
X21507Y69953D01*
Y74027D01*
X21464Y74241D01*
X21343Y74423D01*
X20491Y75275D01*
Y76848D01*
X21000Y77357D01*
X21133Y77340D01*
X21377Y77372D01*
X21604Y77466D01*
X21634Y77489D01*
X21757Y77423D01*
X21788Y77183D01*
X21899Y76915D01*
X22075Y76685D01*
X22305Y76509D01*
X22573Y76398D01*
X22860Y76361D01*
X23147Y76398D01*
X23415Y76509D01*
X23645Y76685D01*
X23821Y76915D01*
X23932Y77183D01*
X23969Y77470D01*
X23932Y77757D01*
X23821Y78025D01*
X23645Y78255D01*
X23535Y78339D01*
Y79141D01*
X23645Y79225D01*
X23821Y79455D01*
X23932Y79723D01*
X23969Y80010D01*
X23932Y80297D01*
X23821Y80565D01*
X23645Y80795D01*
X23421Y80966D01*
Y81594D01*
X23645Y81765D01*
X23816Y81989D01*
X27305D01*
X27520Y82032D01*
X27702Y82153D01*
X30877Y85328D01*
X30998Y85510D01*
X31041Y85725D01*
Y93113D01*
X33024Y95096D01*
X34469D01*
X34491Y95066D01*
X34525Y94969D01*
X34477Y94897D01*
X34454Y94780D01*
Y93180D01*
X34477Y93063D01*
X34544Y92964D01*
X34643Y92897D01*
X34760Y92874D01*
X34999D01*
Y90805D01*
X35042Y90590D01*
X35163Y90408D01*
X36269Y89303D01*
Y87316D01*
X36045Y87145D01*
X35869Y86915D01*
X35758Y86647D01*
X35721Y86360D01*
X35758Y86073D01*
X35869Y85805D01*
X36045Y85575D01*
X36275Y85399D01*
X36543Y85288D01*
X36830Y85251D01*
X37117Y85288D01*
X37385Y85399D01*
X37615Y85575D01*
X37791Y85805D01*
X37902Y86073D01*
X37939Y86360D01*
X37902Y86647D01*
X37791Y86915D01*
X37615Y87145D01*
X37391Y87316D01*
Y89535D01*
X37348Y89750D01*
X37227Y89932D01*
X36121Y91037D01*
Y92874D01*
X36360D01*
X36477Y92897D01*
X36576Y92964D01*
X36643Y93063D01*
X36666Y93180D01*
Y94780D01*
X36643Y94897D01*
X36595Y94969D01*
X36629Y95066D01*
X36651Y95096D01*
X40127D01*
X40152Y94969D01*
X40085Y94941D01*
X39855Y94765D01*
X39679Y94535D01*
X39568Y94267D01*
X39557Y94180D01*
X40640D01*
Y93980D01*
X40840D01*
Y92897D01*
X40927Y92908D01*
X41195Y93019D01*
X41324Y93118D01*
X41451Y93055D01*
Y92307D01*
X41259Y92116D01*
X41138Y91934D01*
X41095Y91719D01*
Y86389D01*
X40423Y85717D01*
X40328Y85801D01*
X40331Y85805D01*
X40442Y86073D01*
X40453Y86160D01*
X39570D01*
Y85277D01*
X39657Y85288D01*
X39925Y85399D01*
X39929Y85402D01*
X40013Y85307D01*
X39138Y84432D01*
X38151D01*
X37936Y84389D01*
X37754Y84267D01*
X37093Y83606D01*
X36080D01*
X35963Y83583D01*
X35864Y83516D01*
X35797Y83417D01*
X35774Y83300D01*
Y81800D01*
X35797Y81683D01*
X35864Y81584D01*
X35963Y81517D01*
X36080Y81494D01*
X37580D01*
X37697Y81517D01*
X37796Y81584D01*
X37863Y81683D01*
X37886Y81800D01*
Y82813D01*
X38354Y83281D01*
X38449Y83270D01*
X38505Y83147D01*
X38453Y83080D01*
X38347Y82824D01*
X38311Y82550D01*
X38347Y82276D01*
X38453Y82020D01*
X38621Y81801D01*
X38840Y81633D01*
X39096Y81527D01*
X39370Y81491D01*
X39605Y81522D01*
X40282Y80845D01*
Y78285D01*
X40162Y78245D01*
X40155Y78255D01*
X39925Y78431D01*
X39657Y78542D01*
X39570Y78553D01*
Y77470D01*
Y76387D01*
X39657Y76398D01*
X39925Y76509D01*
X40155Y76685D01*
X40162Y76695D01*
X40282Y76655D01*
Y69447D01*
X38973Y68138D01*
X38852Y67956D01*
X38809Y67742D01*
Y66996D01*
X38585Y66825D01*
X38409Y66595D01*
X38298Y66327D01*
X38261Y66040D01*
X38298Y65753D01*
X38409Y65485D01*
X38585Y65255D01*
X38815Y65079D01*
X39083Y64968D01*
X39370Y64931D01*
X39657Y64968D01*
X39925Y65079D01*
X40155Y65255D01*
X40331Y65485D01*
X40442Y65753D01*
X40479Y66040D01*
X40442Y66327D01*
X40331Y66595D01*
X40155Y66825D01*
X39931Y66996D01*
Y67510D01*
X41240Y68818D01*
X41361Y69000D01*
X41404Y69215D01*
Y69411D01*
X41531Y69436D01*
X42783Y68183D01*
X42965Y68062D01*
X43180Y68019D01*
X44853D01*
X45782Y67090D01*
Y61815D01*
X43646Y59679D01*
X21653D01*
X21439Y59636D01*
X21257Y59515D01*
X19923Y58182D01*
X19869Y58100D01*
X19790Y58067D01*
X19571Y57899D01*
X19403Y57680D01*
X19297Y57424D01*
X19261Y57150D01*
X19297Y56876D01*
X19403Y56620D01*
X19571Y56401D01*
X19790Y56233D01*
X20046Y56127D01*
X20320Y56091D01*
X20594Y56127D01*
X20850Y56233D01*
X21069Y56401D01*
X21237Y56620D01*
X21343Y56876D01*
X21379Y57150D01*
X21343Y57424D01*
X21237Y57680D01*
X21137Y57809D01*
X21886Y58558D01*
X38650D01*
X38699Y58440D01*
X36433Y56175D01*
X36312Y55993D01*
X36269Y55778D01*
Y55566D01*
X36045Y55395D01*
X35869Y55165D01*
X35758Y54897D01*
X35721Y54610D01*
X35758Y54323D01*
X35869Y54055D01*
X36045Y53825D01*
X36275Y53649D01*
X36543Y53538D01*
X36830Y53501D01*
X37117Y53538D01*
X37385Y53649D01*
X37615Y53825D01*
X37791Y54055D01*
X37902Y54323D01*
X37939Y54610D01*
X37902Y54897D01*
X37791Y55165D01*
X37615Y55395D01*
X37479Y55499D01*
X37470Y55626D01*
X38266Y56422D01*
X38374Y56350D01*
X38298Y56167D01*
X38261Y55880D01*
X38298Y55593D01*
X38409Y55325D01*
X38585Y55095D01*
X38815Y54919D01*
X39083Y54808D01*
X39370Y54771D01*
X39657Y54808D01*
X39925Y54919D01*
X40155Y55095D01*
X40331Y55325D01*
X40442Y55593D01*
X40479Y55880D01*
X40442Y56167D01*
X40331Y56435D01*
X40155Y56665D01*
X39925Y56841D01*
X39657Y56952D01*
X39370Y56989D01*
X39083Y56952D01*
X38900Y56876D01*
X38828Y56984D01*
X39602Y57758D01*
X44269D01*
X45093Y56933D01*
X45009Y56838D01*
X45005Y56841D01*
X44737Y56952D01*
X44450Y56989D01*
X44163Y56952D01*
X43895Y56841D01*
X43665Y56665D01*
X43489Y56435D01*
X43378Y56167D01*
X43341Y55880D01*
X43378Y55593D01*
X43489Y55325D01*
X43665Y55095D01*
X43889Y54924D01*
Y49762D01*
X43415Y49288D01*
X43180Y49319D01*
X42906Y49283D01*
X42650Y49177D01*
X42431Y49009D01*
X42263Y48790D01*
X42157Y48534D01*
X42121Y48260D01*
X42157Y47986D01*
X42263Y47730D01*
X42431Y47511D01*
X42650Y47343D01*
X42906Y47237D01*
X43180Y47201D01*
X43454Y47237D01*
X43710Y47343D01*
X43929Y47511D01*
X44097Y47730D01*
X44203Y47986D01*
X44239Y48260D01*
X44208Y48495D01*
X44547Y48834D01*
X44664Y48785D01*
Y47510D01*
X44687Y47393D01*
X44754Y47294D01*
X44853Y47227D01*
X44970Y47204D01*
X46470D01*
X46587Y47227D01*
X46686Y47294D01*
X46753Y47393D01*
X46776Y47510D01*
Y49010D01*
X46753Y49127D01*
X46686Y49226D01*
X46587Y49293D01*
X46470Y49316D01*
X45098D01*
X44993Y49443D01*
X45011Y49530D01*
Y54924D01*
X45235Y55095D01*
X45411Y55325D01*
X45522Y55593D01*
X45559Y55880D01*
X45522Y56167D01*
X45411Y56435D01*
X45408Y56439D01*
X45503Y56523D01*
X46099Y55927D01*
Y50622D01*
X46142Y50408D01*
X46263Y50226D01*
X47293Y49196D01*
Y42566D01*
X47175Y42518D01*
X44847Y44847D01*
X44665Y44968D01*
X44450Y45011D01*
X42142D01*
X41201Y45952D01*
Y47367D01*
X41389Y47511D01*
X41557Y47730D01*
X41663Y47986D01*
X41699Y48260D01*
X41663Y48534D01*
X41557Y48790D01*
X41389Y49009D01*
X41170Y49177D01*
X40914Y49283D01*
X40640Y49319D01*
X40366Y49283D01*
X40110Y49177D01*
X39891Y49009D01*
X39723Y48790D01*
X39617Y48534D01*
X39581Y48260D01*
X39617Y47986D01*
X39723Y47730D01*
X39891Y47511D01*
X40079Y47367D01*
Y45720D01*
X40122Y45505D01*
X40243Y45323D01*
X41513Y44053D01*
X41695Y43932D01*
X41910Y43889D01*
X44218D01*
X46451Y41656D01*
X46440Y41561D01*
X46317Y41505D01*
X46250Y41557D01*
X45994Y41663D01*
X45720Y41699D01*
X45446Y41663D01*
X45190Y41557D01*
X44971Y41389D01*
X44803Y41170D01*
X44697Y40914D01*
X44661Y40640D01*
X44697Y40366D01*
X44803Y40110D01*
X44952Y39916D01*
X43861Y38826D01*
X40309D01*
X40094Y38783D01*
X39912Y38662D01*
X37068Y35818D01*
X36947Y35636D01*
X36904Y35421D01*
Y33887D01*
X36446Y33429D01*
X36350Y33513D01*
X36521Y33735D01*
X36632Y34003D01*
X36669Y34290D01*
X36632Y34577D01*
X36521Y34845D01*
X36345Y35075D01*
X36115Y35251D01*
X35847Y35362D01*
X35560Y35399D01*
X35273Y35362D01*
X35005Y35251D01*
X34775Y35075D01*
X34604Y34851D01*
X33655D01*
X33440Y34808D01*
X33258Y34687D01*
X31158Y32586D01*
X31041Y32635D01*
Y39747D01*
X31229Y39891D01*
X31397Y40110D01*
X31503Y40366D01*
X31539Y40640D01*
X31503Y40914D01*
X31397Y41170D01*
X31229Y41389D01*
X31010Y41557D01*
X30754Y41663D01*
X30480Y41699D01*
X30206Y41663D01*
X29950Y41557D01*
X29731Y41389D01*
X29563Y41170D01*
X29457Y40914D01*
X29421Y40640D01*
X29457Y40366D01*
X29563Y40110D01*
X29731Y39891D01*
X29919Y39747D01*
Y25353D01*
X24368Y19802D01*
X24247Y19620D01*
X24204Y19406D01*
Y6252D01*
X23733Y5782D01*
X23612Y5600D01*
X23592Y5497D01*
X23373Y5329D01*
X23202Y5108D01*
X23095Y4849D01*
X23059Y4572D01*
Y3048D01*
X23095Y2771D01*
X23202Y2512D01*
X23373Y2291D01*
X23594Y2120D01*
X23853Y2013D01*
X24130Y1977D01*
X24407Y2013D01*
X24666Y2120D01*
X24887Y2291D01*
X25058Y2512D01*
X25165Y2771D01*
X25201Y3048D01*
Y4572D01*
X25165Y4849D01*
X25058Y5108D01*
X24887Y5329D01*
X24886Y5348D01*
X25162Y5623D01*
X25283Y5805D01*
X25326Y6020D01*
Y6100D01*
X25443Y6149D01*
X26020Y5572D01*
X26009Y5403D01*
X25913Y5329D01*
X25742Y5108D01*
X25635Y4849D01*
X25599Y4572D01*
Y3048D01*
X25635Y2771D01*
X25742Y2512D01*
X25913Y2291D01*
X26134Y2120D01*
X26393Y2013D01*
X26670Y1977D01*
X26947Y2013D01*
X27206Y2120D01*
X27427Y2291D01*
X27598Y2512D01*
X27705Y2771D01*
X27741Y3048D01*
Y4572D01*
X27705Y4849D01*
X27598Y5108D01*
X27427Y5329D01*
X27231Y5480D01*
Y5715D01*
X27188Y5930D01*
X27067Y6112D01*
X26126Y7052D01*
Y18842D01*
X26809Y19525D01*
X26916Y19453D01*
X26868Y19337D01*
X26857Y19250D01*
X27740D01*
Y20133D01*
X27653Y20122D01*
X27537Y20074D01*
X27465Y20181D01*
X29802Y22518D01*
X29919Y22469D01*
Y20006D01*
X29695Y19835D01*
X29519Y19605D01*
X29408Y19337D01*
X29371Y19050D01*
X29408Y18763D01*
X29519Y18495D01*
X29695Y18265D01*
X29919Y18094D01*
Y16742D01*
X29473Y16296D01*
X28460D01*
X28343Y16273D01*
X28244Y16206D01*
X28177Y16107D01*
X28154Y15990D01*
Y14490D01*
X28177Y14373D01*
X28244Y14274D01*
X28343Y14207D01*
X28460Y14184D01*
X29960D01*
X30077Y14207D01*
X30176Y14274D01*
X30243Y14373D01*
X30266Y14490D01*
Y15503D01*
X30877Y16113D01*
X30998Y16295D01*
X31041Y16510D01*
Y18094D01*
X31265Y18265D01*
X31436Y18489D01*
X34464D01*
X38809Y14144D01*
Y2540D01*
X38852Y2325D01*
X38973Y2143D01*
X39503Y1614D01*
X39454Y1497D01*
X35618D01*
X34989Y2126D01*
X34998Y2252D01*
X35047Y2291D01*
X35218Y2512D01*
X35325Y2771D01*
X35361Y3048D01*
Y4572D01*
X35325Y4849D01*
X35218Y5108D01*
X35047Y5329D01*
X34826Y5500D01*
X34567Y5607D01*
X34290Y5643D01*
X34013Y5607D01*
X33754Y5500D01*
X33533Y5329D01*
X33362Y5108D01*
X33255Y4849D01*
X33219Y4572D01*
Y3048D01*
X33255Y2771D01*
X33362Y2512D01*
X33533Y2291D01*
X33729Y2140D01*
Y2032D01*
X33772Y1817D01*
X33893Y1635D01*
X34967Y562D01*
X34934Y435D01*
X435D01*
Y21222D01*
X559Y21253D01*
X578Y21216D01*
X866Y20866D01*
X1216Y20578D01*
X1616Y20365D01*
X1843Y20296D01*
X1852Y20160D01*
X1613Y19977D01*
X1404Y19706D01*
X1273Y19389D01*
X1229Y19050D01*
X1273Y18711D01*
X1404Y18394D01*
X1613Y18123D01*
X1884Y17914D01*
X2201Y17783D01*
X2540Y17739D01*
X2879Y17783D01*
X3196Y17914D01*
X3467Y18123D01*
X3676Y18394D01*
X3807Y18711D01*
X3851Y19050D01*
X3807Y19389D01*
X3676Y19706D01*
X3467Y19977D01*
X3206Y20178D01*
X3199Y20256D01*
X3202Y20309D01*
X3384Y20365D01*
X3784Y20578D01*
X4134Y20866D01*
X4367Y21149D01*
X4494Y21104D01*
Y10185D01*
X4537Y9971D01*
X4658Y9789D01*
X6424Y8023D01*
Y2667D01*
X6467Y2452D01*
X6588Y2270D01*
X7858Y1000D01*
X8040Y879D01*
X8255Y836D01*
X13335D01*
X13550Y879D01*
X13732Y1000D01*
X14367Y1635D01*
X14488Y1817D01*
X14531Y2032D01*
Y2140D01*
X14727Y2291D01*
X14898Y2512D01*
X15005Y2771D01*
X15041Y3048D01*
Y4572D01*
X15005Y4849D01*
X14898Y5108D01*
X14727Y5329D01*
X14506Y5500D01*
X14247Y5607D01*
X13970Y5643D01*
X13693Y5607D01*
X13434Y5500D01*
X13213Y5329D01*
X13042Y5108D01*
X12935Y4849D01*
X12899Y4572D01*
Y3048D01*
X12935Y2771D01*
X13042Y2512D01*
X13213Y2291D01*
X13262Y2252D01*
X13271Y2126D01*
X13103Y1958D01*
X11905D01*
X11880Y2085D01*
X11966Y2120D01*
X12187Y2291D01*
X12358Y2512D01*
X12465Y2771D01*
X12501Y3048D01*
Y4572D01*
X12465Y4849D01*
X12358Y5108D01*
X12187Y5329D01*
X11966Y5500D01*
X11707Y5607D01*
X11430Y5643D01*
X11153Y5607D01*
X10894Y5500D01*
X10673Y5329D01*
X10502Y5108D01*
X10395Y4849D01*
X10359Y4572D01*
Y3048D01*
X10395Y2771D01*
X10502Y2512D01*
X10673Y2291D01*
X10894Y2120D01*
X10980Y2085D01*
X10955Y1958D01*
X9365D01*
X9340Y2085D01*
X9426Y2120D01*
X9647Y2291D01*
X9818Y2512D01*
X9925Y2771D01*
X9961Y3048D01*
Y4572D01*
X9925Y4849D01*
X9818Y5108D01*
X9647Y5329D01*
X9451Y5480D01*
Y7561D01*
X9408Y7776D01*
X9287Y7958D01*
X6428Y10816D01*
Y20006D01*
X6548Y20033D01*
X6659Y19765D01*
X6835Y19535D01*
X7065Y19359D01*
X7333Y19248D01*
X7620Y19211D01*
X7900Y19247D01*
X8329Y18818D01*
Y16346D01*
X8090D01*
X7973Y16323D01*
X7874Y16256D01*
X7807Y16157D01*
X7784Y16040D01*
Y14440D01*
X7807Y14323D01*
X7874Y14224D01*
X7973Y14157D01*
X8090Y14134D01*
X9690D01*
X9807Y14157D01*
X9906Y14224D01*
X9973Y14323D01*
X9996Y14440D01*
Y16040D01*
X9973Y16157D01*
X9906Y16256D01*
X9807Y16323D01*
X9690Y16346D01*
X9451D01*
Y19050D01*
X9408Y19265D01*
X9287Y19447D01*
X9292Y19453D01*
X9339Y19507D01*
X9375Y19535D01*
X9464Y19468D01*
X9605Y19359D01*
X9873Y19248D01*
X9960Y19237D01*
Y20120D01*
X9077D01*
X9088Y20033D01*
X9199Y19765D01*
X9309Y19623D01*
X9334Y19512D01*
X9328Y19506D01*
X9211Y19522D01*
X8693Y20040D01*
X8729Y20320D01*
X8692Y20607D01*
X8581Y20875D01*
X8405Y21105D01*
X8175Y21281D01*
X7907Y21392D01*
X7620Y21429D01*
X7333Y21392D01*
X7065Y21281D01*
X6835Y21105D01*
X6659Y20875D01*
X6548Y20607D01*
X6428Y20634D01*
Y25363D01*
X6385Y25578D01*
X6264Y25759D01*
X2631Y29393D01*
Y31391D01*
X2758Y31416D01*
X2849Y31195D01*
X3025Y30965D01*
X3255Y30789D01*
X3523Y30678D01*
X3810Y30641D01*
X4097Y30678D01*
X4365Y30789D01*
X4595Y30965D01*
X4771Y31195D01*
X4882Y31463D01*
X4919Y31750D01*
X4882Y32037D01*
X4771Y32305D01*
X4595Y32535D01*
X4365Y32711D01*
X4097Y32822D01*
X3810Y32859D01*
X3523Y32822D01*
X3255Y32711D01*
X3025Y32535D01*
X2849Y32305D01*
X2758Y32084D01*
X2631Y32109D01*
Y41551D01*
X2758Y41576D01*
X2849Y41355D01*
X3025Y41125D01*
X3255Y40949D01*
X3523Y40838D01*
X3810Y40801D01*
X4097Y40838D01*
X4365Y40949D01*
X4595Y41125D01*
X4771Y41355D01*
X4882Y41623D01*
X4919Y41910D01*
X4882Y42197D01*
X4771Y42465D01*
X4595Y42695D01*
X4365Y42871D01*
X4097Y42982D01*
X3810Y43019D01*
X3523Y42982D01*
X3255Y42871D01*
X3025Y42695D01*
X2849Y42465D01*
X2758Y42244D01*
X2631Y42269D01*
Y45361D01*
X2758Y45386D01*
X2849Y45165D01*
X3025Y44935D01*
X3255Y44759D01*
X3523Y44648D01*
X3810Y44611D01*
X4097Y44648D01*
X4365Y44759D01*
X4595Y44935D01*
X4771Y45165D01*
X4882Y45433D01*
X4919Y45720D01*
X4882Y46007D01*
X4771Y46275D01*
X4595Y46505D01*
X4365Y46681D01*
X4097Y46792D01*
X3810Y46829D01*
X3523Y46792D01*
X3255Y46681D01*
X3033Y46510D01*
X2949Y46606D01*
X4042Y47699D01*
X7481D01*
X7696Y47742D01*
X7878Y47863D01*
X11827Y51812D01*
X11948Y51994D01*
X11991Y52209D01*
Y71434D01*
X12215Y71605D01*
X12391Y71835D01*
X12502Y72103D01*
X12539Y72390D01*
X12503Y72670D01*
X15637Y75803D01*
X15758Y75985D01*
X15801Y76200D01*
Y76514D01*
X16025Y76685D01*
X16201Y76915D01*
X16312Y77183D01*
X16349Y77470D01*
X16312Y77757D01*
X16201Y78025D01*
X16032Y78245D01*
X16034Y78256D01*
X16140Y78338D01*
X16223Y78303D01*
X16510Y78266D01*
X16797Y78303D01*
X16880Y78338D01*
X16986Y78256D01*
X16988Y78245D01*
X16819Y78025D01*
X16708Y77757D01*
X16697Y77670D01*
X17580D01*
Y78553D01*
X17493Y78542D01*
X17410Y78507D01*
X17304Y78589D01*
X17302Y78600D01*
X17471Y78820D01*
X17582Y79088D01*
X17619Y79375D01*
X17582Y79662D01*
X17471Y79930D01*
X17295Y80160D01*
X17065Y80336D01*
X16797Y80447D01*
X16510Y80484D01*
X16223Y80447D01*
X15955Y80336D01*
X15725Y80160D01*
X15549Y79930D01*
X15438Y79662D01*
X15401Y79375D01*
X15438Y79088D01*
X15549Y78820D01*
X15718Y78600D01*
X15716Y78589D01*
X15610Y78507D01*
X15527Y78542D01*
X15240Y78579D01*
X14953Y78542D01*
X14685Y78431D01*
X14455Y78255D01*
X14279Y78025D01*
X14168Y77757D01*
X14131Y77470D01*
X14168Y77183D01*
X14279Y76915D01*
X14455Y76685D01*
X14641Y76543D01*
X14648Y76401D01*
X12316Y74069D01*
X12220Y74153D01*
X12282Y74234D01*
X12391Y74375D01*
X12502Y74643D01*
X12539Y74930D01*
X12502Y75217D01*
X12391Y75485D01*
X12215Y75715D01*
X11985Y75891D01*
X11717Y76002D01*
X11430Y76039D01*
X11143Y76002D01*
X10875Y75891D01*
X10645Y75715D01*
X10469Y75485D01*
X10358Y75217D01*
X10321Y74930D01*
X10358Y74643D01*
X10469Y74375D01*
X10645Y74145D01*
X10875Y73969D01*
X11143Y73858D01*
X11430Y73821D01*
X11717Y73858D01*
X11985Y73969D01*
X12126Y74078D01*
X12207Y74140D01*
X12291Y74044D01*
X11710Y73463D01*
X11430Y73499D01*
X11143Y73462D01*
X10875Y73351D01*
X10645Y73175D01*
X10469Y72945D01*
X10358Y72677D01*
X10321Y72390D01*
X10358Y72103D01*
X10469Y71835D01*
X10645Y71605D01*
X10869Y71434D01*
Y68056D01*
X10752Y68008D01*
X8346Y70414D01*
Y76133D01*
X11150Y78937D01*
X11430Y78901D01*
X11717Y78938D01*
X11985Y79049D01*
X12215Y79225D01*
X12391Y79455D01*
X12502Y79723D01*
X12539Y80010D01*
X12502Y80297D01*
X12391Y80565D01*
X12215Y80795D01*
X11985Y80971D01*
X11717Y81082D01*
X11430Y81119D01*
X11143Y81082D01*
X10875Y80971D01*
X10768Y80888D01*
X10641Y80951D01*
Y81609D01*
X10768Y81672D01*
X10875Y81589D01*
X11143Y81478D01*
X11430Y81441D01*
X11717Y81478D01*
X11985Y81589D01*
X12215Y81765D01*
X12378Y81979D01*
X12447Y82007D01*
X12516Y82021D01*
X13704Y80833D01*
X13886Y80711D01*
X14101Y80668D01*
X16459D01*
X16674Y80711D01*
X16856Y80833D01*
X17545Y81522D01*
X17780Y81491D01*
X18054Y81527D01*
X18310Y81633D01*
X18529Y81801D01*
X18697Y82020D01*
X18803Y82276D01*
X18839Y82550D01*
X18803Y82824D01*
X18697Y83080D01*
X18529Y83299D01*
X18310Y83467D01*
X18054Y83573D01*
X17780Y83609D01*
X17506Y83573D01*
X17250Y83467D01*
X17031Y83299D01*
X16863Y83080D01*
X16757Y82824D01*
X16721Y82550D01*
X16752Y82315D01*
X16413Y81976D01*
X16296Y82025D01*
Y83300D01*
X16273Y83417D01*
X16206Y83516D01*
X16107Y83583D01*
X15990Y83606D01*
X15801D01*
Y83820D01*
X15758Y84035D01*
X15637Y84217D01*
X14379Y85474D01*
X14463Y85570D01*
X14685Y85399D01*
X14953Y85288D01*
X15240Y85251D01*
X15527Y85288D01*
X15795Y85399D01*
X16025Y85575D01*
X16201Y85805D01*
X16312Y86073D01*
X16349Y86360D01*
X16312Y86647D01*
X16201Y86915D01*
X16025Y87145D01*
X15801Y87316D01*
Y90805D01*
X15758Y91020D01*
X15637Y91202D01*
X14531Y92307D01*
Y92874D01*
X14770D01*
X14887Y92897D01*
X14986Y92964D01*
X15053Y93063D01*
X15076Y93180D01*
Y94780D01*
X15053Y94897D01*
X14986Y94996D01*
X14887Y95063D01*
X14770Y95086D01*
X13170D01*
X13053Y95063D01*
X12954Y94996D01*
X12887Y94897D01*
X12864Y94780D01*
Y93180D01*
X12887Y93063D01*
X12954Y92964D01*
X13053Y92897D01*
X13170Y92874D01*
X13409D01*
Y92075D01*
X13438Y91928D01*
X13321Y91866D01*
X12716Y92472D01*
X12534Y92593D01*
X12319Y92636D01*
X8316D01*
X8234Y92741D01*
X8230Y92760D01*
X8305Y92941D01*
X8341Y93218D01*
Y94742D01*
X8305Y95019D01*
X8198Y95278D01*
X8027Y95499D01*
X7806Y95670D01*
X7547Y95777D01*
X7270Y95813D01*
X6993Y95777D01*
X6734Y95670D01*
X6513Y95499D01*
X6342Y95278D01*
X6235Y95019D01*
X6199Y94742D01*
Y93218D01*
X6235Y92941D01*
X6342Y92682D01*
X6513Y92461D01*
X6734Y92290D01*
X6993Y92183D01*
X7270Y92147D01*
X7367Y92160D01*
X7426Y92039D01*
X5318Y89932D01*
X5197Y89750D01*
X5154Y89535D01*
Y85322D01*
X2943Y83111D01*
X2226D01*
X2055Y83335D01*
X1825Y83511D01*
X1557Y83622D01*
X1270Y83659D01*
X983Y83622D01*
X715Y83511D01*
X562Y83394D01*
X435Y83456D01*
Y84184D01*
X562Y84246D01*
X715Y84129D01*
X983Y84018D01*
X1270Y83981D01*
X1557Y84018D01*
X1825Y84129D01*
X2055Y84305D01*
X2231Y84535D01*
X2342Y84803D01*
X2379Y85090D01*
X2342Y85377D01*
X2231Y85645D01*
X2055Y85875D01*
X1831Y86046D01*
Y86674D01*
X2055Y86845D01*
X2231Y87075D01*
X2342Y87343D01*
X2379Y87630D01*
X2342Y87917D01*
X2231Y88185D01*
X2055Y88415D01*
X1825Y88591D01*
X1557Y88702D01*
X1270Y88739D01*
X983Y88702D01*
X715Y88591D01*
X562Y88474D01*
X435Y88536D01*
Y89264D01*
X562Y89326D01*
X715Y89209D01*
X983Y89098D01*
X1270Y89061D01*
X1557Y89098D01*
X1825Y89209D01*
X2055Y89385D01*
X2231Y89615D01*
X2342Y89883D01*
X2379Y90170D01*
X2342Y90457D01*
X2231Y90725D01*
X2055Y90955D01*
X1869Y91097D01*
X1862Y91239D01*
X3578Y92955D01*
X3709Y92907D01*
X3802Y92682D01*
X3973Y92461D01*
X4194Y92290D01*
X4453Y92183D01*
X4730Y92147D01*
X5007Y92183D01*
X5266Y92290D01*
X5487Y92461D01*
X5658Y92682D01*
X5765Y92941D01*
X5801Y93218D01*
Y94742D01*
X5765Y95019D01*
X5658Y95278D01*
X5487Y95499D01*
X5266Y95670D01*
X5007Y95777D01*
X4730Y95813D01*
X4453Y95777D01*
X4194Y95670D01*
X3973Y95499D01*
X3802Y95278D01*
X3695Y95019D01*
X3659Y94742D01*
Y94511D01*
X3595Y94498D01*
X3413Y94377D01*
X873Y91837D01*
X752Y91655D01*
X709Y91440D01*
Y91126D01*
X562Y91014D01*
X435Y91076D01*
Y96222D01*
X559Y96253D01*
X578Y96216D01*
X866Y95866D01*
X1216Y95578D01*
X1616Y95365D01*
X2049Y95233D01*
X2500Y95189D01*
X2951Y95233D01*
X3384Y95365D01*
X3784Y95578D01*
X4134Y95866D01*
X4422Y96216D01*
X4635Y96616D01*
X4767Y97049D01*
X4811Y97500D01*
X4767Y97951D01*
X4635Y98384D01*
X4422Y98784D01*
X4134Y99134D01*
X3784Y99422D01*
X3747Y99441D01*
X3778Y99565D01*
X51222D01*
X51253Y99441D01*
D02*
G37*
%LPC*%
G36*
X46524Y25603D02*
X45771D01*
Y24850D01*
X45876Y24864D01*
X46092Y24954D01*
X46278Y25096D01*
X46420Y25282D01*
X46510Y25498D01*
X46524Y25603D01*
D02*
G37*
G36*
X45771Y26610D02*
Y25857D01*
X46524D01*
X46510Y25962D01*
X46420Y26179D01*
X46278Y26364D01*
X46092Y26507D01*
X45876Y26596D01*
X45771Y26610D01*
D02*
G37*
G36*
X49730Y5617D02*
Y4010D01*
X50601D01*
Y4572D01*
X50565Y4849D01*
X50458Y5108D01*
X50287Y5329D01*
X50066Y5500D01*
X49807Y5607D01*
X49730Y5617D01*
D02*
G37*
G36*
X49330D02*
X49253Y5607D01*
X48994Y5500D01*
X48773Y5329D01*
X48602Y5108D01*
X48495Y4849D01*
X48459Y4572D01*
Y4010D01*
X49330D01*
Y5617D01*
D02*
G37*
G36*
X49530Y82591D02*
X49191Y82547D01*
X48874Y82416D01*
X48603Y82207D01*
X48394Y81936D01*
X48263Y81619D01*
X48219Y81280D01*
X48263Y80941D01*
X48394Y80624D01*
X48603Y80353D01*
X48874Y80144D01*
X49191Y80013D01*
X49530Y79969D01*
X49869Y80013D01*
X50186Y80144D01*
X50457Y80353D01*
X50666Y80624D01*
X50797Y80941D01*
X50841Y81280D01*
X50797Y81619D01*
X50666Y81936D01*
X50457Y82207D01*
X50186Y82416D01*
X49869Y82547D01*
X49530Y82591D01*
D02*
G37*
G36*
X44250Y80025D02*
X44111Y80007D01*
X43794Y79876D01*
X43523Y79667D01*
X43314Y79396D01*
X43183Y79079D01*
X43165Y78940D01*
X44250D01*
Y80025D01*
D02*
G37*
G36*
X44650D02*
Y78940D01*
X45735D01*
X45717Y79079D01*
X45586Y79396D01*
X45377Y79667D01*
X45106Y79876D01*
X44789Y80007D01*
X44650Y80025D01*
D02*
G37*
G36*
X44250Y78540D02*
X43165D01*
X43183Y78401D01*
X43314Y78084D01*
X43523Y77813D01*
X43794Y77604D01*
X44111Y77473D01*
X44250Y77455D01*
Y78540D01*
D02*
G37*
G36*
X45735D02*
X44650D01*
Y77455D01*
X44789Y77473D01*
X45106Y77604D01*
X45377Y77813D01*
X45586Y78084D01*
X45717Y78401D01*
X45735Y78540D01*
D02*
G37*
G36*
X15040Y31563D02*
X14953Y31552D01*
X14685Y31441D01*
X14455Y31265D01*
X14279Y31035D01*
X14168Y30767D01*
X14157Y30680D01*
X15040D01*
Y31563D01*
D02*
G37*
G36*
X6350Y32859D02*
X6063Y32822D01*
X5795Y32711D01*
X5565Y32535D01*
X5389Y32305D01*
X5278Y32037D01*
X5241Y31750D01*
X5278Y31463D01*
X5389Y31195D01*
X5565Y30965D01*
X5795Y30789D01*
X6063Y30678D01*
X6350Y30641D01*
X6637Y30678D01*
X6905Y30789D01*
X7135Y30965D01*
X7311Y31195D01*
X7422Y31463D01*
X7459Y31750D01*
X7422Y32037D01*
X7311Y32305D01*
X7135Y32535D01*
X6905Y32711D01*
X6637Y32822D01*
X6350Y32859D01*
D02*
G37*
G36*
X16323Y30280D02*
X15440D01*
Y29397D01*
X15527Y29408D01*
X15795Y29519D01*
X16025Y29695D01*
X16201Y29925D01*
X16312Y30193D01*
X16323Y30280D01*
D02*
G37*
G36*
X15440Y31563D02*
Y30680D01*
X16323D01*
X16312Y30767D01*
X16201Y31035D01*
X16025Y31265D01*
X15795Y31441D01*
X15527Y31552D01*
X15440Y31563D01*
D02*
G37*
G36*
X10236Y36198D02*
X9992Y36166D01*
X9765Y36072D01*
X9569Y35922D01*
X9419Y35727D01*
X9325Y35499D01*
X9293Y35255D01*
X9325Y35011D01*
X9419Y34784D01*
X9569Y34588D01*
X9765Y34438D01*
X9992Y34344D01*
X10236Y34312D01*
X10480Y34344D01*
X10708Y34438D01*
X10903Y34588D01*
X10984Y34694D01*
X13408D01*
X14423Y33679D01*
X14323Y33550D01*
X14217Y33294D01*
X14181Y33020D01*
X14217Y32746D01*
X14323Y32490D01*
X14491Y32271D01*
X14710Y32103D01*
X14966Y31997D01*
X15240Y31961D01*
X15514Y31997D01*
X15770Y32103D01*
X15989Y32271D01*
X16157Y32490D01*
X16263Y32746D01*
X16299Y33020D01*
X16263Y33294D01*
X16157Y33550D01*
X15989Y33769D01*
X15770Y33937D01*
X15691Y33970D01*
X15637Y34052D01*
X14036Y35652D01*
X13854Y35773D01*
X13640Y35816D01*
X10984D01*
X10903Y35922D01*
X10708Y36072D01*
X10480Y36166D01*
X10236Y36198D01*
D02*
G37*
G36*
X11216Y32820D02*
X10360D01*
Y31964D01*
X10910D01*
X11027Y31987D01*
X11126Y32054D01*
X11193Y32153D01*
X11216Y32270D01*
Y32820D01*
D02*
G37*
G36*
X9960D02*
X9104D01*
Y32270D01*
X9127Y32153D01*
X9194Y32054D01*
X9293Y31987D01*
X9410Y31964D01*
X9960D01*
Y32820D01*
D02*
G37*
G36*
X10360Y21403D02*
Y20520D01*
X11243D01*
X11232Y20607D01*
X11121Y20875D01*
X10945Y21105D01*
X10715Y21281D01*
X10447Y21392D01*
X10360Y21403D01*
D02*
G37*
G36*
X28140Y20133D02*
Y19250D01*
X29023D01*
X29012Y19337D01*
X28901Y19605D01*
X28725Y19835D01*
X28495Y20011D01*
X28227Y20122D01*
X28140Y20133D01*
D02*
G37*
G36*
X9960Y21403D02*
X9873Y21392D01*
X9605Y21281D01*
X9375Y21105D01*
X9199Y20875D01*
X9088Y20607D01*
X9077Y20520D01*
X9960D01*
Y21403D01*
D02*
G37*
G36*
X12700Y34079D02*
X12426Y34043D01*
X12170Y33937D01*
X11951Y33769D01*
X11783Y33550D01*
X11677Y33294D01*
X11641Y33020D01*
X11677Y32746D01*
X11783Y32490D01*
X11951Y32271D01*
X12139Y32127D01*
Y31982D01*
X10473Y30316D01*
X9360D01*
X9243Y30293D01*
X9144Y30226D01*
X9077Y30127D01*
X9054Y30010D01*
Y28410D01*
X9077Y28293D01*
X9144Y28194D01*
X9243Y28127D01*
X9360Y28104D01*
X10960D01*
X11077Y28127D01*
X11176Y28194D01*
X11243Y28293D01*
X11266Y28410D01*
Y29523D01*
X11814Y30071D01*
X11909Y29987D01*
X11848Y29907D01*
X11739Y29765D01*
X11628Y29497D01*
X11590Y29210D01*
X11628Y28923D01*
X11739Y28655D01*
X11915Y28425D01*
X12145Y28249D01*
X12413Y28138D01*
X12700Y28100D01*
X12987Y28138D01*
X13255Y28249D01*
X13485Y28425D01*
X13661Y28655D01*
X13772Y28923D01*
X13810Y29210D01*
X13772Y29497D01*
X13661Y29765D01*
X13485Y29995D01*
X13255Y30171D01*
X12987Y30282D01*
X12700Y30320D01*
X12413Y30282D01*
X12145Y30171D01*
X12003Y30062D01*
X11923Y30001D01*
X11839Y30096D01*
X13097Y31353D01*
X13218Y31535D01*
X13261Y31750D01*
Y32127D01*
X13449Y32271D01*
X13617Y32490D01*
X13723Y32746D01*
X13759Y33020D01*
X13723Y33294D01*
X13617Y33550D01*
X13449Y33769D01*
X13230Y33937D01*
X12974Y34043D01*
X12700Y34079D01*
D02*
G37*
G36*
X15040Y30280D02*
X14157D01*
X14168Y30193D01*
X14279Y29925D01*
X14455Y29695D01*
X14685Y29519D01*
X14953Y29408D01*
X15040Y29397D01*
Y30280D01*
D02*
G37*
G36*
X18161Y73562D02*
X17917Y73530D01*
X17689Y73435D01*
X17494Y73285D01*
X17344Y73090D01*
X17250Y72863D01*
X17218Y72619D01*
X17250Y72375D01*
X17344Y72147D01*
X17494Y71952D01*
X17600Y71870D01*
Y69525D01*
X16113Y68038D01*
X15992Y67856D01*
X15949Y67641D01*
Y45669D01*
X15992Y45455D01*
X16113Y45273D01*
X19023Y42364D01*
Y37059D01*
X19065Y36844D01*
X19187Y36662D01*
X23620Y32229D01*
Y26267D01*
X18869Y21516D01*
X17145D01*
X16930Y21473D01*
X16748Y21352D01*
X14843Y19447D01*
X14722Y19265D01*
X14679Y19050D01*
Y6985D01*
X14722Y6770D01*
X14843Y6588D01*
X15860Y5572D01*
X15849Y5403D01*
X15753Y5329D01*
X15582Y5108D01*
X15475Y4849D01*
X15439Y4572D01*
Y3048D01*
X15475Y2771D01*
X15582Y2512D01*
X15753Y2291D01*
X15974Y2120D01*
X16233Y2013D01*
X16510Y1977D01*
X16787Y2013D01*
X17046Y2120D01*
X17267Y2291D01*
X17438Y2512D01*
X17545Y2771D01*
X17581Y3048D01*
Y4572D01*
X17545Y4849D01*
X17438Y5108D01*
X17267Y5329D01*
X17071Y5480D01*
Y5715D01*
X17028Y5930D01*
X16907Y6112D01*
X16711Y6307D01*
X16760Y6424D01*
X20088D01*
X20940Y5572D01*
X20929Y5403D01*
X20833Y5329D01*
X20662Y5108D01*
X20555Y4849D01*
X20519Y4572D01*
Y3048D01*
X20555Y2771D01*
X20662Y2512D01*
X20833Y2291D01*
X21054Y2120D01*
X21313Y2013D01*
X21590Y1977D01*
X21867Y2013D01*
X22126Y2120D01*
X22347Y2291D01*
X22518Y2512D01*
X22625Y2771D01*
X22661Y3048D01*
Y4572D01*
X22625Y4849D01*
X22518Y5108D01*
X22347Y5329D01*
X22151Y5480D01*
Y5715D01*
X22108Y5930D01*
X21987Y6112D01*
X20717Y7382D01*
X20535Y7503D01*
X20320Y7546D01*
X16742D01*
X16601Y7687D01*
Y9246D01*
X16728Y9254D01*
X16745Y9121D01*
X16852Y8862D01*
X17023Y8641D01*
X17244Y8470D01*
X17503Y8363D01*
X17780Y8327D01*
X18057Y8363D01*
X18316Y8470D01*
X18537Y8641D01*
X18708Y8862D01*
X18815Y9121D01*
X18851Y9398D01*
Y10922D01*
X18815Y11199D01*
X18708Y11458D01*
X18537Y11679D01*
X18341Y11830D01*
Y16110D01*
X18537Y16261D01*
X18708Y16482D01*
X18815Y16741D01*
X18851Y17018D01*
Y18542D01*
X18815Y18819D01*
X18708Y19078D01*
X18537Y19299D01*
X18319Y19467D01*
X18318Y19478D01*
X18347Y19594D01*
X19432D01*
X19647Y19637D01*
X19829Y19758D01*
X25377Y25307D01*
X25499Y25489D01*
X25542Y25704D01*
Y26438D01*
X26143Y27039D01*
X26350Y26953D01*
X26594Y26921D01*
X26838Y26953D01*
X27065Y27047D01*
X27261Y27197D01*
X27411Y27392D01*
X27505Y27620D01*
X27537Y27864D01*
X27505Y28108D01*
X27411Y28335D01*
X27261Y28531D01*
X27065Y28681D01*
X26838Y28775D01*
X26594Y28807D01*
X26350Y28775D01*
X26122Y28681D01*
X25927Y28531D01*
X25777Y28335D01*
X25723Y28206D01*
X24859Y27341D01*
X24742Y27390D01*
Y32461D01*
X24699Y32676D01*
X24577Y32858D01*
X20144Y37291D01*
Y42596D01*
X20101Y42810D01*
X19980Y42992D01*
X17071Y45901D01*
Y67409D01*
X18558Y68896D01*
X18679Y69078D01*
X18722Y69292D01*
Y71870D01*
X18828Y71952D01*
X18978Y72147D01*
X19072Y72375D01*
X19104Y72619D01*
X19072Y72863D01*
X18978Y73090D01*
X18828Y73285D01*
X18633Y73435D01*
X18405Y73530D01*
X18161Y73562D01*
D02*
G37*
G36*
X35560Y41699D02*
X35286Y41663D01*
X35030Y41557D01*
X34811Y41389D01*
X34643Y41170D01*
X34537Y40914D01*
X34501Y40640D01*
X34537Y40366D01*
X34643Y40110D01*
X34811Y39891D01*
X35030Y39723D01*
X35286Y39617D01*
X35560Y39581D01*
X35834Y39617D01*
X36090Y39723D01*
X36309Y39891D01*
X36477Y40110D01*
X36583Y40366D01*
X36619Y40640D01*
X36583Y40914D01*
X36477Y41170D01*
X36309Y41389D01*
X36090Y41557D01*
X35834Y41663D01*
X35560Y41699D01*
D02*
G37*
G36*
X38100D02*
X37826Y41663D01*
X37570Y41557D01*
X37351Y41389D01*
X37183Y41170D01*
X37077Y40914D01*
X37041Y40640D01*
X37077Y40366D01*
X37183Y40110D01*
X37351Y39891D01*
X37570Y39723D01*
X37826Y39617D01*
X38100Y39581D01*
X38374Y39617D01*
X38630Y39723D01*
X38849Y39891D01*
X39017Y40110D01*
X39123Y40366D01*
X39159Y40640D01*
X39123Y40914D01*
X39017Y41170D01*
X38849Y41389D01*
X38630Y41557D01*
X38374Y41663D01*
X38100Y41699D01*
D02*
G37*
G36*
X15240D02*
X14966Y41663D01*
X14710Y41557D01*
X14491Y41389D01*
X14323Y41170D01*
X14217Y40914D01*
X14181Y40640D01*
X14217Y40366D01*
X14323Y40110D01*
X14491Y39891D01*
X14710Y39723D01*
X14966Y39617D01*
X15240Y39581D01*
X15514Y39617D01*
X15770Y39723D01*
X15989Y39891D01*
X16157Y40110D01*
X16263Y40366D01*
X16299Y40640D01*
X16263Y40914D01*
X16157Y41170D01*
X15989Y41389D01*
X15770Y41557D01*
X15514Y41663D01*
X15240Y41699D01*
D02*
G37*
G36*
X38100Y49319D02*
X37826Y49283D01*
X37570Y49177D01*
X37351Y49009D01*
X37183Y48790D01*
X37077Y48534D01*
X37041Y48260D01*
X37077Y47986D01*
X37183Y47730D01*
X37351Y47511D01*
X37539Y47367D01*
Y45952D01*
X36598Y45011D01*
X34290D01*
X34075Y44968D01*
X33893Y44847D01*
X32623Y43577D01*
X32502Y43395D01*
X32459Y43180D01*
Y41533D01*
X32271Y41389D01*
X32103Y41170D01*
X31997Y40914D01*
X31961Y40640D01*
X31997Y40366D01*
X32103Y40110D01*
X32271Y39891D01*
X32490Y39723D01*
X32746Y39617D01*
X33020Y39581D01*
X33294Y39617D01*
X33550Y39723D01*
X33769Y39891D01*
X33937Y40110D01*
X34043Y40366D01*
X34079Y40640D01*
X34043Y40914D01*
X33937Y41170D01*
X33769Y41389D01*
X33581Y41533D01*
Y42948D01*
X34522Y43889D01*
X36830D01*
X37045Y43932D01*
X37227Y44053D01*
X38497Y45323D01*
X38618Y45505D01*
X38661Y45720D01*
Y47367D01*
X38849Y47511D01*
X39017Y47730D01*
X39123Y47986D01*
X39159Y48260D01*
X39123Y48534D01*
X39017Y48790D01*
X38849Y49009D01*
X38630Y49177D01*
X38374Y49283D01*
X38100Y49319D01*
D02*
G37*
G36*
X6350Y43019D02*
X6063Y42982D01*
X5795Y42871D01*
X5565Y42695D01*
X5389Y42465D01*
X5278Y42197D01*
X5241Y41910D01*
X5278Y41623D01*
X5389Y41355D01*
X5565Y41125D01*
X5795Y40949D01*
X6063Y40838D01*
X6350Y40801D01*
X6637Y40838D01*
X6905Y40949D01*
X7135Y41125D01*
X7311Y41355D01*
X7422Y41623D01*
X7459Y41910D01*
X7422Y42197D01*
X7311Y42465D01*
X7135Y42695D01*
X6905Y42871D01*
X6637Y42982D01*
X6350Y43019D01*
D02*
G37*
G36*
X24930Y43016D02*
X23330D01*
X23213Y42993D01*
X23114Y42926D01*
X23047Y42827D01*
X23024Y42710D01*
Y41110D01*
X23047Y40993D01*
X23114Y40894D01*
X23213Y40827D01*
X23330Y40804D01*
X24930D01*
X25047Y40827D01*
X25146Y40894D01*
X25213Y40993D01*
X25236Y41110D01*
Y42710D01*
X25213Y42827D01*
X25146Y42926D01*
X25047Y42993D01*
X24930Y43016D01*
D02*
G37*
G36*
X40640Y41699D02*
X40366Y41663D01*
X40110Y41557D01*
X39891Y41389D01*
X39723Y41170D01*
X39617Y40914D01*
X39581Y40640D01*
X39617Y40366D01*
X39723Y40110D01*
X39891Y39891D01*
X40110Y39723D01*
X40366Y39617D01*
X40640Y39581D01*
X40914Y39617D01*
X41170Y39723D01*
X41389Y39891D01*
X41557Y40110D01*
X41663Y40366D01*
X41699Y40640D01*
X41663Y40914D01*
X41557Y41170D01*
X41389Y41389D01*
X41170Y41557D01*
X40914Y41663D01*
X40640Y41699D01*
D02*
G37*
G36*
X43180D02*
X42906Y41663D01*
X42650Y41557D01*
X42431Y41389D01*
X42263Y41170D01*
X42157Y40914D01*
X42121Y40640D01*
X42157Y40366D01*
X42263Y40110D01*
X42431Y39891D01*
X42650Y39723D01*
X42906Y39617D01*
X43180Y39581D01*
X43454Y39617D01*
X43710Y39723D01*
X43929Y39891D01*
X44097Y40110D01*
X44203Y40366D01*
X44239Y40640D01*
X44203Y40914D01*
X44097Y41170D01*
X43929Y41389D01*
X43710Y41557D01*
X43454Y41663D01*
X43180Y41699D01*
D02*
G37*
G36*
X12700D02*
X12426Y41663D01*
X12170Y41557D01*
X11951Y41389D01*
X11783Y41170D01*
X11677Y40914D01*
X11641Y40640D01*
X11677Y40366D01*
X11783Y40110D01*
X11951Y39891D01*
X12170Y39723D01*
X12426Y39617D01*
X12700Y39581D01*
X12974Y39617D01*
X13230Y39723D01*
X13449Y39891D01*
X13617Y40110D01*
X13723Y40366D01*
X13759Y40640D01*
X13723Y40914D01*
X13617Y41170D01*
X13449Y41389D01*
X13230Y41557D01*
X12974Y41663D01*
X12700Y41699D01*
D02*
G37*
G36*
X17780D02*
X17506Y41663D01*
X17250Y41557D01*
X17031Y41389D01*
X16863Y41170D01*
X16757Y40914D01*
X16721Y40640D01*
X16757Y40366D01*
X16863Y40110D01*
X17031Y39891D01*
X17219Y39747D01*
Y36347D01*
X17262Y36133D01*
X17383Y35951D01*
X18642Y34693D01*
Y33808D01*
X18515Y33780D01*
X18341Y33913D01*
Y34214D01*
X18298Y34428D01*
X18177Y34610D01*
X15560Y37227D01*
X15378Y37348D01*
X15164Y37391D01*
X11662D01*
X10721Y38332D01*
Y39747D01*
X10909Y39891D01*
X11077Y40110D01*
X11183Y40366D01*
X11219Y40640D01*
X11183Y40914D01*
X11077Y41170D01*
X10909Y41389D01*
X10690Y41557D01*
X10434Y41663D01*
X10160Y41699D01*
X9886Y41663D01*
X9630Y41557D01*
X9411Y41389D01*
X9243Y41170D01*
X9137Y40914D01*
X9101Y40640D01*
X9137Y40366D01*
X9243Y40110D01*
X9411Y39891D01*
X9599Y39747D01*
Y38100D01*
X9642Y37885D01*
X9763Y37703D01*
X11033Y36433D01*
X11215Y36312D01*
X11430Y36269D01*
X14932D01*
X17177Y34023D01*
X17170Y33875D01*
X17031Y33769D01*
X16863Y33550D01*
X16757Y33294D01*
X16721Y33020D01*
X16757Y32746D01*
X16863Y32490D01*
X17031Y32271D01*
X17250Y32103D01*
X17506Y31997D01*
X17780Y31961D01*
X18054Y31997D01*
X18310Y32103D01*
X18470Y32226D01*
X18604Y32180D01*
X18615Y32108D01*
X18060Y31553D01*
X17780Y31589D01*
X17493Y31552D01*
X17225Y31441D01*
X16995Y31265D01*
X16819Y31035D01*
X16708Y30767D01*
X16671Y30480D01*
X16708Y30193D01*
X16819Y29925D01*
X16995Y29695D01*
X17225Y29519D01*
X17493Y29408D01*
X17780Y29371D01*
X18067Y29408D01*
X18335Y29519D01*
X18565Y29695D01*
X18741Y29925D01*
X18852Y30193D01*
X18889Y30480D01*
X18853Y30760D01*
X19599Y31506D01*
X19720Y31688D01*
X19763Y31902D01*
Y34925D01*
X19720Y35140D01*
X19599Y35322D01*
X18341Y36580D01*
Y39747D01*
X18529Y39891D01*
X18697Y40110D01*
X18803Y40366D01*
X18839Y40640D01*
X18803Y40914D01*
X18697Y41170D01*
X18529Y41389D01*
X18310Y41557D01*
X18054Y41663D01*
X17780Y41699D01*
D02*
G37*
G36*
X35560Y37939D02*
X35273Y37902D01*
X35005Y37791D01*
X34775Y37615D01*
X34599Y37385D01*
X34488Y37117D01*
X34451Y36830D01*
X34488Y36543D01*
X34599Y36275D01*
X34775Y36045D01*
X35005Y35869D01*
X35273Y35758D01*
X35560Y35721D01*
X35847Y35758D01*
X36115Y35869D01*
X36345Y36045D01*
X36521Y36275D01*
X36632Y36543D01*
X36669Y36830D01*
X36632Y37117D01*
X36521Y37385D01*
X36345Y37615D01*
X36115Y37791D01*
X35847Y37902D01*
X35560Y37939D01*
D02*
G37*
G36*
X9960Y34076D02*
X9410D01*
X9293Y34053D01*
X9194Y33986D01*
X9127Y33887D01*
X9104Y33770D01*
Y33220D01*
X9960D01*
Y34076D01*
D02*
G37*
G36*
X10910D02*
X10360D01*
Y33220D01*
X11216D01*
Y33770D01*
X11193Y33887D01*
X11126Y33986D01*
X11027Y34053D01*
X10910Y34076D01*
D02*
G37*
G36*
X23930Y40453D02*
X23843Y40442D01*
X23575Y40331D01*
X23345Y40155D01*
X23169Y39925D01*
X23058Y39657D01*
X23047Y39570D01*
X23930D01*
Y40453D01*
D02*
G37*
G36*
X24330D02*
Y39570D01*
X25213D01*
X25202Y39657D01*
X25091Y39925D01*
X24915Y40155D01*
X24685Y40331D01*
X24417Y40442D01*
X24330Y40453D01*
D02*
G37*
G36*
X23930Y39170D02*
X23047D01*
X23058Y39083D01*
X23169Y38815D01*
X23345Y38585D01*
X23575Y38409D01*
X23843Y38298D01*
X23930Y38287D01*
Y39170D01*
D02*
G37*
G36*
X25213D02*
X24330D01*
Y38287D01*
X24417Y38298D01*
X24685Y38409D01*
X24915Y38585D01*
X25091Y38815D01*
X25202Y39083D01*
X25213Y39170D01*
D02*
G37*
G36*
X5325Y7976D02*
X4572D01*
Y7223D01*
X4677Y7236D01*
X4893Y7326D01*
X5079Y7469D01*
X5222Y7654D01*
X5311Y7871D01*
X5325Y7976D01*
D02*
G37*
G36*
X27740Y8690D02*
X26857D01*
X26868Y8603D01*
X26979Y8335D01*
X27155Y8105D01*
X27385Y7929D01*
X27653Y7818D01*
X27740Y7807D01*
Y8690D01*
D02*
G37*
G36*
X2540Y10201D02*
X2201Y10157D01*
X1884Y10026D01*
X1613Y9817D01*
X1404Y9546D01*
X1273Y9229D01*
X1229Y8890D01*
X1273Y8551D01*
X1404Y8234D01*
X1613Y7963D01*
X1884Y7754D01*
X1979Y7715D01*
Y5480D01*
X1783Y5329D01*
X1612Y5108D01*
X1505Y4849D01*
X1469Y4572D01*
Y3048D01*
X1505Y2771D01*
X1612Y2512D01*
X1783Y2291D01*
X2004Y2120D01*
X2263Y2013D01*
X2540Y1977D01*
X2817Y2013D01*
X3076Y2120D01*
X3297Y2291D01*
X3468Y2512D01*
X3575Y2771D01*
X3611Y3048D01*
Y4572D01*
X3575Y4849D01*
X3468Y5108D01*
X3297Y5329D01*
X3101Y5480D01*
Y7715D01*
X3196Y7754D01*
X3441Y7943D01*
X3573Y7912D01*
X3579Y7871D01*
X3668Y7654D01*
X3811Y7469D01*
X3997Y7326D01*
X4213Y7236D01*
X4318Y7223D01*
Y8103D01*
Y8983D01*
X4213Y8969D01*
X3997Y8879D01*
X3963Y8853D01*
X3847Y8924D01*
X3807Y9229D01*
X3676Y9546D01*
X3467Y9817D01*
X3196Y10026D01*
X2879Y10157D01*
X2540Y10201D01*
D02*
G37*
G36*
X22860Y11993D02*
X22583Y11957D01*
X22324Y11850D01*
X22103Y11679D01*
X21932Y11458D01*
X21825Y11199D01*
X21789Y10922D01*
Y9398D01*
X21825Y9121D01*
X21932Y8862D01*
X22103Y8641D01*
X22324Y8470D01*
X22583Y8363D01*
X22860Y8327D01*
X23137Y8363D01*
X23396Y8470D01*
X23617Y8641D01*
X23788Y8862D01*
X23895Y9121D01*
X23931Y9398D01*
Y10922D01*
X23895Y11199D01*
X23788Y11458D01*
X23617Y11679D01*
X23396Y11850D01*
X23137Y11957D01*
X22860Y11993D01*
D02*
G37*
G36*
X20120Y9960D02*
X19249D01*
Y9398D01*
X19285Y9121D01*
X19392Y8862D01*
X19563Y8641D01*
X19784Y8470D01*
X20043Y8363D01*
X20120Y8353D01*
Y9960D01*
D02*
G37*
G36*
X29023Y8690D02*
X28140D01*
Y7807D01*
X28227Y7818D01*
X28495Y7929D01*
X28725Y8105D01*
X28901Y8335D01*
X29012Y8603D01*
X29023Y8690D01*
D02*
G37*
G36*
X4572Y8983D02*
Y8230D01*
X5325D01*
X5311Y8335D01*
X5222Y8551D01*
X5079Y8737D01*
X4893Y8879D01*
X4677Y8969D01*
X4572Y8983D01*
D02*
G37*
G36*
X5280Y5617D02*
Y4010D01*
X6151D01*
Y4572D01*
X6115Y4849D01*
X6008Y5108D01*
X5837Y5329D01*
X5616Y5500D01*
X5357Y5607D01*
X5280Y5617D01*
D02*
G37*
G36*
X31750Y5643D02*
X31473Y5607D01*
X31214Y5500D01*
X30993Y5329D01*
X30822Y5108D01*
X30715Y4849D01*
X30679Y4572D01*
Y3048D01*
X30715Y2771D01*
X30822Y2512D01*
X30993Y2291D01*
X31214Y2120D01*
X31473Y2013D01*
X31750Y1977D01*
X32027Y2013D01*
X32286Y2120D01*
X32507Y2291D01*
X32678Y2512D01*
X32785Y2771D01*
X32821Y3048D01*
Y4572D01*
X32785Y4849D01*
X32678Y5108D01*
X32507Y5329D01*
X32286Y5500D01*
X32027Y5607D01*
X31750Y5643D01*
D02*
G37*
G36*
X36830D02*
X36553Y5607D01*
X36294Y5500D01*
X36073Y5329D01*
X35902Y5108D01*
X35795Y4849D01*
X35759Y4572D01*
Y3048D01*
X35795Y2771D01*
X35902Y2512D01*
X36073Y2291D01*
X36294Y2120D01*
X36553Y2013D01*
X36830Y1977D01*
X37107Y2013D01*
X37366Y2120D01*
X37587Y2291D01*
X37758Y2512D01*
X37865Y2771D01*
X37901Y3048D01*
Y4572D01*
X37865Y4849D01*
X37758Y5108D01*
X37587Y5329D01*
X37366Y5500D01*
X37107Y5607D01*
X36830Y5643D01*
D02*
G37*
G36*
X19050D02*
X18773Y5607D01*
X18514Y5500D01*
X18293Y5329D01*
X18122Y5108D01*
X18015Y4849D01*
X17979Y4572D01*
Y3048D01*
X18015Y2771D01*
X18122Y2512D01*
X18293Y2291D01*
X18514Y2120D01*
X18773Y2013D01*
X19050Y1977D01*
X19327Y2013D01*
X19586Y2120D01*
X19807Y2291D01*
X19978Y2512D01*
X20085Y2771D01*
X20121Y3048D01*
Y4572D01*
X20085Y4849D01*
X19978Y5108D01*
X19807Y5329D01*
X19586Y5500D01*
X19327Y5607D01*
X19050Y5643D01*
D02*
G37*
G36*
X29210D02*
X28933Y5607D01*
X28674Y5500D01*
X28453Y5329D01*
X28282Y5108D01*
X28175Y4849D01*
X28139Y4572D01*
Y3048D01*
X28175Y2771D01*
X28282Y2512D01*
X28453Y2291D01*
X28674Y2120D01*
X28933Y2013D01*
X29210Y1977D01*
X29487Y2013D01*
X29746Y2120D01*
X29967Y2291D01*
X30138Y2512D01*
X30245Y2771D01*
X30281Y3048D01*
Y4572D01*
X30245Y4849D01*
X30138Y5108D01*
X29967Y5329D01*
X29746Y5500D01*
X29487Y5607D01*
X29210Y5643D01*
D02*
G37*
G36*
X4880Y5617D02*
X4803Y5607D01*
X4544Y5500D01*
X4323Y5329D01*
X4152Y5108D01*
X4045Y4849D01*
X4009Y4572D01*
Y4010D01*
X4880D01*
Y5617D01*
D02*
G37*
G36*
Y3610D02*
X4009D01*
Y3048D01*
X4045Y2771D01*
X4152Y2512D01*
X4323Y2291D01*
X4544Y2120D01*
X4803Y2013D01*
X4880Y2003D01*
Y3610D01*
D02*
G37*
G36*
X6151D02*
X5280D01*
Y2003D01*
X5357Y2013D01*
X5616Y2120D01*
X5837Y2291D01*
X6008Y2512D01*
X6115Y2771D01*
X6151Y3048D01*
Y3610D01*
D02*
G37*
G36*
X21391Y17580D02*
X20520D01*
Y15973D01*
X20597Y15983D01*
X20856Y16090D01*
X21077Y16261D01*
X21248Y16482D01*
X21355Y16741D01*
X21391Y17018D01*
Y17580D01*
D02*
G37*
G36*
X27740Y18850D02*
X26857D01*
X26868Y18763D01*
X26979Y18495D01*
X27155Y18265D01*
X27385Y18089D01*
X27653Y17978D01*
X27740Y17967D01*
Y18850D01*
D02*
G37*
G36*
X22860Y19613D02*
X22583Y19577D01*
X22324Y19470D01*
X22103Y19299D01*
X21932Y19078D01*
X21825Y18819D01*
X21789Y18542D01*
Y17018D01*
X21825Y16741D01*
X21932Y16482D01*
X22103Y16261D01*
X22324Y16090D01*
X22583Y15983D01*
X22860Y15947D01*
X23137Y15983D01*
X23396Y16090D01*
X23617Y16261D01*
X23788Y16482D01*
X23895Y16741D01*
X23931Y17018D01*
Y18542D01*
X23895Y18819D01*
X23788Y19078D01*
X23617Y19299D01*
X23396Y19470D01*
X23137Y19577D01*
X22860Y19613D01*
D02*
G37*
G36*
X20120Y17580D02*
X19249D01*
Y17018D01*
X19285Y16741D01*
X19392Y16482D01*
X19563Y16261D01*
X19784Y16090D01*
X20043Y15983D01*
X20120Y15973D01*
Y17580D01*
D02*
G37*
G36*
X20520Y19587D02*
Y17980D01*
X21391D01*
Y18542D01*
X21355Y18819D01*
X21248Y19078D01*
X21077Y19299D01*
X20856Y19470D01*
X20597Y19577D01*
X20520Y19587D01*
D02*
G37*
G36*
X11243Y20120D02*
X10360D01*
Y19237D01*
X10447Y19248D01*
X10715Y19359D01*
X10945Y19535D01*
X11121Y19765D01*
X11232Y20033D01*
X11243Y20120D01*
D02*
G37*
G36*
X29023Y18850D02*
X28140D01*
Y17967D01*
X28227Y17978D01*
X28495Y18089D01*
X28725Y18265D01*
X28901Y18495D01*
X29012Y18763D01*
X29023Y18850D01*
D02*
G37*
G36*
X20120Y19587D02*
X20043Y19577D01*
X19784Y19470D01*
X19563Y19299D01*
X19392Y19078D01*
X19285Y18819D01*
X19249Y18542D01*
Y17980D01*
X20120D01*
Y19587D01*
D02*
G37*
G36*
X20520Y11967D02*
Y10360D01*
X21391D01*
Y10922D01*
X21355Y11199D01*
X21248Y11458D01*
X21077Y11679D01*
X20856Y11850D01*
X20597Y11957D01*
X20520Y11967D01*
D02*
G37*
G36*
X9973Y9960D02*
X9090D01*
Y9077D01*
X9177Y9088D01*
X9445Y9199D01*
X9675Y9375D01*
X9851Y9605D01*
X9962Y9873D01*
X9973Y9960D01*
D02*
G37*
G36*
X27740Y9973D02*
X27653Y9962D01*
X27385Y9851D01*
X27155Y9675D01*
X26979Y9445D01*
X26868Y9177D01*
X26857Y9090D01*
X27740D01*
Y9973D01*
D02*
G37*
G36*
X21391Y9960D02*
X20520D01*
Y8353D01*
X20597Y8363D01*
X20856Y8470D01*
X21077Y8641D01*
X21248Y8862D01*
X21355Y9121D01*
X21391Y9398D01*
Y9960D01*
D02*
G37*
G36*
X8690D02*
X7807D01*
X7818Y9873D01*
X7929Y9605D01*
X8105Y9375D01*
X8335Y9199D01*
X8603Y9088D01*
X8690Y9077D01*
Y9960D01*
D02*
G37*
G36*
Y11243D02*
X8603Y11232D01*
X8335Y11121D01*
X8105Y10945D01*
X7929Y10715D01*
X7818Y10447D01*
X7807Y10360D01*
X8690D01*
Y11243D01*
D02*
G37*
G36*
X9090D02*
Y10360D01*
X9973D01*
X9962Y10447D01*
X9851Y10715D01*
X9675Y10945D01*
X9445Y11121D01*
X9177Y11232D01*
X9090Y11243D01*
D02*
G37*
G36*
X29210Y13759D02*
X28936Y13723D01*
X28680Y13617D01*
X28461Y13449D01*
X28293Y13230D01*
X28187Y12974D01*
X28151Y12700D01*
X28187Y12426D01*
X28293Y12170D01*
X28461Y11951D01*
X28649Y11807D01*
Y10160D01*
X28692Y9945D01*
X28813Y9763D01*
X28808Y9757D01*
X28761Y9703D01*
X28725Y9675D01*
X28636Y9742D01*
X28495Y9851D01*
X28227Y9962D01*
X28140Y9973D01*
Y9090D01*
X29023D01*
X29012Y9177D01*
X28901Y9445D01*
X28792Y9587D01*
X28766Y9698D01*
X28772Y9704D01*
X28889Y9688D01*
X29407Y9170D01*
X29371Y8890D01*
X29408Y8603D01*
X29519Y8335D01*
X29695Y8105D01*
X29925Y7929D01*
X30193Y7818D01*
X30480Y7781D01*
X30767Y7818D01*
X31035Y7929D01*
X31265Y8105D01*
X31441Y8335D01*
X31552Y8603D01*
X31589Y8890D01*
X31552Y9177D01*
X31441Y9445D01*
X31265Y9675D01*
X31035Y9851D01*
X30767Y9962D01*
X30480Y9999D01*
X30200Y9963D01*
X29771Y10392D01*
Y11807D01*
X29959Y11951D01*
X30127Y12170D01*
X30233Y12426D01*
X30269Y12700D01*
X30233Y12974D01*
X30127Y13230D01*
X29959Y13449D01*
X29740Y13617D01*
X29484Y13723D01*
X29210Y13759D01*
D02*
G37*
G36*
X20120Y11967D02*
X20043Y11957D01*
X19784Y11850D01*
X19563Y11679D01*
X19392Y11458D01*
X19285Y11199D01*
X19249Y10922D01*
Y10360D01*
X20120D01*
Y11967D01*
D02*
G37*
G36*
X33020Y83659D02*
X32733Y83622D01*
X32465Y83511D01*
X32235Y83335D01*
X32064Y83111D01*
X30480D01*
X30265Y83068D01*
X30083Y82947D01*
X27543Y80407D01*
X27422Y80225D01*
X27379Y80010D01*
Y77702D01*
X25168Y75491D01*
X23816D01*
X23645Y75715D01*
X23415Y75891D01*
X23147Y76002D01*
X22860Y76039D01*
X22573Y76002D01*
X22305Y75891D01*
X22075Y75715D01*
X21899Y75485D01*
X21788Y75217D01*
X21751Y74930D01*
X21788Y74643D01*
X21899Y74375D01*
X22075Y74145D01*
X22305Y73969D01*
X22573Y73858D01*
X22860Y73821D01*
X23147Y73858D01*
X23415Y73969D01*
X23645Y74145D01*
X23816Y74369D01*
X25168D01*
X27379Y72158D01*
Y69850D01*
X27422Y69635D01*
X27543Y69453D01*
X28813Y68183D01*
X28995Y68062D01*
X29210Y68019D01*
X32788D01*
X34864Y65943D01*
X34834Y65872D01*
X34803Y65824D01*
X34693Y65803D01*
X34594Y65736D01*
X34527Y65637D01*
X34504Y65520D01*
Y64020D01*
X34527Y63903D01*
X34594Y63804D01*
X34693Y63737D01*
X34810Y63714D01*
X36310D01*
X36427Y63737D01*
X36526Y63804D01*
X36593Y63903D01*
X36616Y64020D01*
Y65520D01*
X36593Y65637D01*
X36526Y65736D01*
X36427Y65803D01*
X36310Y65826D01*
X36121D01*
Y66040D01*
X36078Y66255D01*
X35957Y66437D01*
X33417Y68977D01*
X33235Y69098D01*
X33020Y69141D01*
X29442D01*
X28501Y70082D01*
Y72390D01*
X28458Y72605D01*
X28337Y72787D01*
X26193Y74930D01*
X28337Y77073D01*
X28458Y77255D01*
X28501Y77470D01*
Y79778D01*
X30712Y81989D01*
X32064D01*
X32235Y81765D01*
X32465Y81589D01*
X32733Y81478D01*
X33020Y81441D01*
X33307Y81478D01*
X33575Y81589D01*
X33805Y81765D01*
X33981Y81995D01*
X34092Y82263D01*
X34129Y82550D01*
X34092Y82837D01*
X33981Y83105D01*
X33805Y83335D01*
X33575Y83511D01*
X33307Y83622D01*
X33020Y83659D01*
D02*
G37*
G36*
X17580Y86160D02*
X16697D01*
X16708Y86073D01*
X16819Y85805D01*
X16995Y85575D01*
X17225Y85399D01*
X17493Y85288D01*
X17580Y85277D01*
Y86160D01*
D02*
G37*
G36*
X39170D02*
X38287D01*
X38298Y86073D01*
X38409Y85805D01*
X38585Y85575D01*
X38815Y85399D01*
X39083Y85288D01*
X39170Y85277D01*
Y86160D01*
D02*
G37*
G36*
X32820Y84890D02*
X31937D01*
X31948Y84803D01*
X32059Y84535D01*
X32235Y84305D01*
X32465Y84129D01*
X32733Y84018D01*
X32820Y84007D01*
Y84890D01*
D02*
G37*
G36*
X34103D02*
X33220D01*
Y84007D01*
X33307Y84018D01*
X33575Y84129D01*
X33805Y84305D01*
X33981Y84535D01*
X34092Y84803D01*
X34103Y84890D01*
D02*
G37*
G36*
X17580Y77270D02*
X16697D01*
X16708Y77183D01*
X16819Y76915D01*
X16995Y76685D01*
X17225Y76509D01*
X17493Y76398D01*
X17580Y76387D01*
Y77270D01*
D02*
G37*
G36*
X39170D02*
X38287D01*
X38298Y77183D01*
X38409Y76915D01*
X38585Y76685D01*
X38815Y76509D01*
X39083Y76398D01*
X39170Y76387D01*
Y77270D01*
D02*
G37*
G36*
X11430Y78529D02*
X11143Y78491D01*
X10875Y78380D01*
X10645Y78204D01*
X10469Y77974D01*
X10358Y77706D01*
X10321Y77419D01*
X10358Y77132D01*
X10469Y76864D01*
X10645Y76635D01*
X10875Y76458D01*
X11143Y76348D01*
X11430Y76310D01*
X11717Y76348D01*
X11985Y76458D01*
X12215Y76635D01*
X12391Y76864D01*
X12502Y77132D01*
X12539Y77419D01*
X12502Y77706D01*
X12391Y77974D01*
X12215Y78204D01*
X11985Y78380D01*
X11717Y78491D01*
X11430Y78529D01*
D02*
G37*
G36*
X33020Y78579D02*
X32733Y78542D01*
X32465Y78431D01*
X32235Y78255D01*
X32059Y78025D01*
X31948Y77757D01*
X31911Y77470D01*
X31948Y77183D01*
X32059Y76915D01*
X32235Y76685D01*
X32465Y76509D01*
X32733Y76398D01*
X33020Y76361D01*
X33307Y76398D01*
X33575Y76509D01*
X33805Y76685D01*
X33981Y76915D01*
X34092Y77183D01*
X34129Y77470D01*
X34092Y77757D01*
X33981Y78025D01*
X33805Y78255D01*
X33575Y78431D01*
X33307Y78542D01*
X33020Y78579D01*
D02*
G37*
G36*
X38100Y80484D02*
X37813Y80447D01*
X37545Y80336D01*
X37315Y80160D01*
X37139Y79930D01*
X37028Y79662D01*
X36991Y79375D01*
X37028Y79088D01*
X37139Y78820D01*
X37308Y78600D01*
X37306Y78589D01*
X37200Y78507D01*
X37117Y78542D01*
X36830Y78579D01*
X36543Y78542D01*
X36275Y78431D01*
X36045Y78255D01*
X35869Y78025D01*
X35758Y77757D01*
X35721Y77470D01*
X35758Y77183D01*
X35869Y76915D01*
X36045Y76685D01*
X36275Y76509D01*
X36543Y76398D01*
X36830Y76361D01*
X37117Y76398D01*
X37385Y76509D01*
X37615Y76685D01*
X37791Y76915D01*
X37902Y77183D01*
X37939Y77470D01*
X37902Y77757D01*
X37791Y78025D01*
X37622Y78245D01*
X37624Y78256D01*
X37730Y78338D01*
X37813Y78303D01*
X38100Y78266D01*
X38387Y78303D01*
X38470Y78338D01*
X38576Y78256D01*
X38578Y78245D01*
X38409Y78025D01*
X38298Y77757D01*
X38287Y77670D01*
X39170D01*
Y78553D01*
X39083Y78542D01*
X39000Y78507D01*
X38894Y78589D01*
X38892Y78600D01*
X39061Y78820D01*
X39172Y79088D01*
X39209Y79375D01*
X39172Y79662D01*
X39061Y79930D01*
X38885Y80160D01*
X38655Y80336D01*
X38387Y80447D01*
X38100Y80484D01*
D02*
G37*
G36*
X33020Y81119D02*
X32733Y81082D01*
X32465Y80971D01*
X32235Y80795D01*
X32059Y80565D01*
X31948Y80297D01*
X31911Y80010D01*
X31948Y79723D01*
X32059Y79455D01*
X32235Y79225D01*
X32465Y79049D01*
X32733Y78938D01*
X33020Y78901D01*
X33307Y78938D01*
X33575Y79049D01*
X33805Y79225D01*
X33981Y79455D01*
X34092Y79723D01*
X34129Y80010D01*
X34092Y80297D01*
X33981Y80565D01*
X33805Y80795D01*
X33575Y80971D01*
X33307Y81082D01*
X33020Y81119D01*
D02*
G37*
G36*
X18863Y86160D02*
X17980D01*
Y85277D01*
X18067Y85288D01*
X18335Y85399D01*
X18565Y85575D01*
X18741Y85805D01*
X18852Y86073D01*
X18863Y86160D01*
D02*
G37*
G36*
X20133Y93780D02*
X19250D01*
Y92897D01*
X19337Y92908D01*
X19605Y93019D01*
X19835Y93195D01*
X20011Y93425D01*
X20122Y93693D01*
X20133Y93780D01*
D02*
G37*
G36*
X40440D02*
X39557D01*
X39568Y93693D01*
X39679Y93425D01*
X39855Y93195D01*
X40085Y93019D01*
X40353Y92908D01*
X40440Y92897D01*
Y93780D01*
D02*
G37*
G36*
X51341D02*
X50470D01*
Y92173D01*
X50547Y92183D01*
X50806Y92290D01*
X51027Y92461D01*
X51198Y92682D01*
X51305Y92941D01*
X51341Y93218D01*
Y93780D01*
D02*
G37*
G36*
X18850D02*
X17967D01*
X17978Y93693D01*
X18089Y93425D01*
X18265Y93195D01*
X18495Y93019D01*
X18763Y92908D01*
X18850Y92897D01*
Y93780D01*
D02*
G37*
G36*
X19250Y95063D02*
Y94180D01*
X20133D01*
X20122Y94267D01*
X20011Y94535D01*
X19835Y94765D01*
X19605Y94941D01*
X19337Y95052D01*
X19250Y95063D01*
D02*
G37*
G36*
X50470Y95787D02*
Y94180D01*
X51341D01*
Y94742D01*
X51305Y95019D01*
X51198Y95278D01*
X51027Y95499D01*
X50806Y95670D01*
X50547Y95777D01*
X50470Y95787D01*
D02*
G37*
G36*
X50070D02*
X49993Y95777D01*
X49734Y95670D01*
X49513Y95499D01*
X49342Y95278D01*
X49235Y95019D01*
X49199Y94742D01*
Y94180D01*
X50070D01*
Y95787D01*
D02*
G37*
G36*
X18850Y95063D02*
X18763Y95052D01*
X18495Y94941D01*
X18265Y94765D01*
X18089Y94535D01*
X17978Y94267D01*
X17967Y94180D01*
X18850D01*
Y95063D01*
D02*
G37*
G36*
X33020Y91279D02*
X32733Y91242D01*
X32465Y91131D01*
X32235Y90955D01*
X32059Y90725D01*
X31948Y90457D01*
X31911Y90170D01*
X31948Y89883D01*
X32059Y89615D01*
X32235Y89385D01*
X32459Y89214D01*
Y88586D01*
X32235Y88415D01*
X32059Y88185D01*
X31948Y87917D01*
X31911Y87630D01*
X31948Y87343D01*
X32059Y87075D01*
X32235Y86845D01*
X32465Y86669D01*
X32733Y86558D01*
X33020Y86521D01*
X33307Y86558D01*
X33575Y86669D01*
X33805Y86845D01*
X33981Y87075D01*
X34092Y87343D01*
X34129Y87630D01*
X34092Y87917D01*
X33981Y88185D01*
X33805Y88415D01*
X33581Y88586D01*
Y89214D01*
X33805Y89385D01*
X33981Y89615D01*
X34092Y89883D01*
X34129Y90170D01*
X34092Y90457D01*
X33981Y90725D01*
X33805Y90955D01*
X33575Y91131D01*
X33307Y91242D01*
X33020Y91279D01*
D02*
G37*
G36*
X17580Y87443D02*
X17493Y87432D01*
X17225Y87321D01*
X16995Y87145D01*
X16819Y86915D01*
X16708Y86647D01*
X16697Y86560D01*
X17580D01*
Y87443D01*
D02*
G37*
G36*
X32820Y86173D02*
X32733Y86162D01*
X32465Y86051D01*
X32235Y85875D01*
X32059Y85645D01*
X31948Y85377D01*
X31937Y85290D01*
X32820D01*
Y86173D01*
D02*
G37*
G36*
X33220D02*
Y85290D01*
X34103D01*
X34092Y85377D01*
X33981Y85645D01*
X33805Y85875D01*
X33575Y86051D01*
X33307Y86162D01*
X33220Y86173D01*
D02*
G37*
G36*
X39570Y87443D02*
Y86560D01*
X40453D01*
X40442Y86647D01*
X40331Y86915D01*
X40155Y87145D01*
X39925Y87321D01*
X39657Y87432D01*
X39570Y87443D01*
D02*
G37*
G36*
X50070Y93780D02*
X49199D01*
Y93218D01*
X49235Y92941D01*
X49342Y92682D01*
X49513Y92461D01*
X49734Y92290D01*
X49993Y92183D01*
X50070Y92173D01*
Y93780D01*
D02*
G37*
G36*
X39170Y87443D02*
X39083Y87432D01*
X38815Y87321D01*
X38585Y87145D01*
X38409Y86915D01*
X38298Y86647D01*
X38287Y86560D01*
X39170D01*
Y87443D01*
D02*
G37*
G36*
X17980D02*
Y86560D01*
X18863D01*
X18852Y86647D01*
X18741Y86915D01*
X18565Y87145D01*
X18335Y87321D01*
X18067Y87432D01*
X17980Y87443D01*
D02*
G37*
G36*
X20335Y54410D02*
X19250D01*
Y53325D01*
X19389Y53343D01*
X19706Y53474D01*
X19977Y53683D01*
X20186Y53954D01*
X20317Y54271D01*
X20335Y54410D01*
D02*
G37*
G36*
X41910Y56989D02*
X41623Y56952D01*
X41355Y56841D01*
X41125Y56665D01*
X40949Y56435D01*
X40838Y56167D01*
X40801Y55880D01*
X40838Y55593D01*
X40949Y55325D01*
X41125Y55095D01*
X41355Y54919D01*
X41623Y54808D01*
X41910Y54771D01*
X42197Y54808D01*
X42465Y54919D01*
X42695Y55095D01*
X42871Y55325D01*
X42982Y55593D01*
X43019Y55880D01*
X42982Y56167D01*
X42871Y56435D01*
X42695Y56665D01*
X42465Y56841D01*
X42197Y56952D01*
X41910Y56989D01*
D02*
G37*
G36*
X30680Y49293D02*
Y48460D01*
X31513D01*
X31503Y48534D01*
X31397Y48790D01*
X31229Y49009D01*
X31010Y49177D01*
X30754Y49283D01*
X30680Y49293D01*
D02*
G37*
G36*
X18850Y54410D02*
X17765D01*
X17783Y54271D01*
X17914Y53954D01*
X18123Y53683D01*
X18394Y53474D01*
X18711Y53343D01*
X18850Y53325D01*
Y54410D01*
D02*
G37*
G36*
X27940Y58209D02*
X27666Y58173D01*
X27410Y58067D01*
X27191Y57899D01*
X27023Y57680D01*
X26917Y57424D01*
X26881Y57150D01*
X26917Y56876D01*
X27023Y56620D01*
X27191Y56401D01*
X27379Y56257D01*
Y56112D01*
X26950Y55683D01*
X26670Y55719D01*
X26383Y55682D01*
X26115Y55571D01*
X25885Y55395D01*
X25709Y55165D01*
X25598Y54897D01*
X25572Y54700D01*
X25565Y54643D01*
X25437D01*
X25429Y54700D01*
X25397Y54949D01*
X25266Y55266D01*
X25057Y55537D01*
X24786Y55746D01*
X24469Y55877D01*
X24130Y55921D01*
X23791Y55877D01*
X23474Y55746D01*
X23203Y55537D01*
X22994Y55266D01*
X22863Y54949D01*
X22819Y54610D01*
X22863Y54271D01*
X22994Y53954D01*
X23203Y53683D01*
X23474Y53474D01*
X23791Y53343D01*
X24130Y53299D01*
X24469Y53343D01*
X24786Y53474D01*
X25057Y53683D01*
X25266Y53954D01*
X25397Y54271D01*
X25429Y54520D01*
X25437Y54577D01*
X25565D01*
X25572Y54520D01*
X25598Y54323D01*
X25709Y54055D01*
X25885Y53825D01*
X26115Y53649D01*
X26383Y53538D01*
X26670Y53501D01*
X26957Y53538D01*
X27225Y53649D01*
X27455Y53825D01*
X27631Y54055D01*
X27742Y54323D01*
X27779Y54610D01*
X27743Y54890D01*
X28337Y55483D01*
X28458Y55665D01*
X28501Y55880D01*
Y56257D01*
X28689Y56401D01*
X28857Y56620D01*
X28963Y56876D01*
X28999Y57150D01*
X28963Y57424D01*
X28857Y57680D01*
X28689Y57899D01*
X28470Y58067D01*
X28214Y58173D01*
X27940Y58209D01*
D02*
G37*
G36*
X22860D02*
X22586Y58173D01*
X22330Y58067D01*
X22111Y57899D01*
X21943Y57680D01*
X21837Y57424D01*
X21801Y57150D01*
X21837Y56876D01*
X21943Y56620D01*
X22111Y56401D01*
X22330Y56233D01*
X22586Y56127D01*
X22860Y56091D01*
X23134Y56127D01*
X23390Y56233D01*
X23609Y56401D01*
X23777Y56620D01*
X23883Y56876D01*
X23919Y57150D01*
X23883Y57424D01*
X23777Y57680D01*
X23609Y57899D01*
X23390Y58067D01*
X23134Y58173D01*
X22860Y58209D01*
D02*
G37*
G36*
X18850Y55895D02*
X18711Y55877D01*
X18394Y55746D01*
X18123Y55537D01*
X17914Y55266D01*
X17783Y54949D01*
X17765Y54810D01*
X18850D01*
Y55895D01*
D02*
G37*
G36*
X19250D02*
Y54810D01*
X20335D01*
X20317Y54949D01*
X20186Y55266D01*
X19977Y55537D01*
X19706Y55746D01*
X19389Y55877D01*
X19250Y55895D01*
D02*
G37*
G36*
X33020Y58209D02*
X32746Y58173D01*
X32490Y58067D01*
X32271Y57899D01*
X32103Y57680D01*
X31997Y57424D01*
X31961Y57150D01*
X31997Y56876D01*
X32103Y56620D01*
X32271Y56401D01*
X32459Y56257D01*
Y49153D01*
X32271Y49009D01*
X32103Y48790D01*
X31997Y48534D01*
X31961Y48260D01*
X31997Y47986D01*
X32103Y47730D01*
X32271Y47511D01*
X32490Y47343D01*
X32746Y47237D01*
X33020Y47201D01*
X33294Y47237D01*
X33550Y47343D01*
X33769Y47511D01*
X33937Y47730D01*
X34043Y47986D01*
X34079Y48260D01*
X34043Y48534D01*
X33937Y48790D01*
X33769Y49009D01*
X33581Y49153D01*
Y56257D01*
X33769Y56401D01*
X33937Y56620D01*
X34043Y56876D01*
X34079Y57150D01*
X34043Y57424D01*
X33937Y57680D01*
X33769Y57899D01*
X33550Y58067D01*
X33294Y58173D01*
X33020Y58209D01*
D02*
G37*
G36*
X35560D02*
X35286Y58173D01*
X35030Y58067D01*
X34811Y57899D01*
X34643Y57680D01*
X34537Y57424D01*
X34501Y57150D01*
X34537Y56876D01*
X34643Y56620D01*
X34811Y56401D01*
X34950Y56295D01*
X34957Y56147D01*
X33893Y55083D01*
X33772Y54901D01*
X33729Y54686D01*
Y50165D01*
X33772Y49950D01*
X33893Y49768D01*
X34743Y48919D01*
X34643Y48790D01*
X34537Y48534D01*
X34501Y48260D01*
X34537Y47986D01*
X34643Y47730D01*
X34811Y47511D01*
X35030Y47343D01*
X35286Y47237D01*
X35560Y47201D01*
X35834Y47237D01*
X36090Y47343D01*
X36309Y47511D01*
X36477Y47730D01*
X36583Y47986D01*
X36619Y48260D01*
X36583Y48534D01*
X36477Y48790D01*
X36309Y49009D01*
X36090Y49177D01*
X36011Y49210D01*
X35957Y49292D01*
X34851Y50397D01*
Y54454D01*
X35957Y55560D01*
X36078Y55742D01*
X36121Y55956D01*
Y56257D01*
X36309Y56401D01*
X36477Y56620D01*
X36583Y56876D01*
X36619Y57150D01*
X36583Y57424D01*
X36477Y57680D01*
X36309Y57899D01*
X36090Y58067D01*
X35834Y58173D01*
X35560Y58209D01*
D02*
G37*
G36*
X6350Y46829D02*
X6063Y46792D01*
X5795Y46681D01*
X5565Y46505D01*
X5389Y46275D01*
X5278Y46007D01*
X5241Y45720D01*
X5278Y45433D01*
X5389Y45165D01*
X5565Y44935D01*
X5795Y44759D01*
X6063Y44648D01*
X6350Y44611D01*
X6637Y44648D01*
X6905Y44759D01*
X7135Y44935D01*
X7311Y45165D01*
X7422Y45433D01*
X7459Y45720D01*
X7422Y46007D01*
X7311Y46275D01*
X7135Y46505D01*
X6905Y46681D01*
X6637Y46792D01*
X6350Y46829D01*
D02*
G37*
G36*
X8890D02*
X8603Y46792D01*
X8335Y46681D01*
X8105Y46505D01*
X7929Y46275D01*
X7818Y46007D01*
X7781Y45720D01*
X7818Y45433D01*
X7929Y45165D01*
X8105Y44935D01*
X8335Y44759D01*
X8603Y44648D01*
X8890Y44611D01*
X9177Y44648D01*
X9445Y44759D01*
X9675Y44935D01*
X9851Y45165D01*
X9962Y45433D01*
X9999Y45720D01*
X9962Y46007D01*
X9851Y46275D01*
X9675Y46505D01*
X9445Y46681D01*
X9177Y46792D01*
X8890Y46829D01*
D02*
G37*
G36*
X21590Y50841D02*
X21251Y50797D01*
X20934Y50666D01*
X20663Y50457D01*
X20454Y50186D01*
X20323Y49869D01*
X20279Y49530D01*
X20323Y49191D01*
X20454Y48874D01*
X20663Y48603D01*
X20934Y48394D01*
X21251Y48263D01*
X21590Y48219D01*
X21929Y48263D01*
X22246Y48394D01*
X22517Y48603D01*
X22726Y48874D01*
X22857Y49191D01*
X22901Y49530D01*
X22857Y49869D01*
X22726Y50186D01*
X22517Y50457D01*
X22246Y50666D01*
X21929Y50797D01*
X21590Y50841D01*
D02*
G37*
G36*
X30280Y49293D02*
X30206Y49283D01*
X29950Y49177D01*
X29731Y49009D01*
X29563Y48790D01*
X29457Y48534D01*
X29447Y48460D01*
X30280D01*
Y49293D01*
D02*
G37*
G36*
Y48060D02*
X29447D01*
X29457Y47986D01*
X29563Y47730D01*
X29731Y47511D01*
X29950Y47343D01*
X30206Y47237D01*
X30280Y47227D01*
Y48060D01*
D02*
G37*
G36*
X31513D02*
X30680D01*
Y47227D01*
X30754Y47237D01*
X31010Y47343D01*
X31229Y47511D01*
X31397Y47730D01*
X31503Y47986D01*
X31513Y48060D01*
D02*
G37*
G36*
X25400Y58209D02*
X25126Y58173D01*
X24870Y58067D01*
X24651Y57899D01*
X24483Y57680D01*
X24377Y57424D01*
X24341Y57150D01*
X24377Y56876D01*
X24483Y56620D01*
X24651Y56401D01*
X24870Y56233D01*
X25126Y56127D01*
X25400Y56091D01*
X25674Y56127D01*
X25930Y56233D01*
X26149Y56401D01*
X26317Y56620D01*
X26423Y56876D01*
X26459Y57150D01*
X26423Y57424D01*
X26317Y57680D01*
X26149Y57899D01*
X25930Y58067D01*
X25674Y58173D01*
X25400Y58209D01*
D02*
G37*
G36*
X33020Y73499D02*
X32733Y73462D01*
X32465Y73351D01*
X32235Y73175D01*
X32059Y72945D01*
X31948Y72677D01*
X31911Y72390D01*
X31948Y72103D01*
X32059Y71835D01*
X32235Y71605D01*
X32465Y71429D01*
X32733Y71318D01*
X33020Y71281D01*
X33307Y71318D01*
X33575Y71429D01*
X33805Y71605D01*
X33981Y71835D01*
X34092Y72103D01*
X34129Y72390D01*
X34092Y72677D01*
X33981Y72945D01*
X33805Y73175D01*
X33575Y73351D01*
X33307Y73462D01*
X33020Y73499D01*
D02*
G37*
G36*
X22660Y72190D02*
X21777D01*
X21788Y72103D01*
X21899Y71835D01*
X22075Y71605D01*
X22305Y71429D01*
X22573Y71318D01*
X22660Y71307D01*
Y72190D01*
D02*
G37*
G36*
X41910Y67149D02*
X41623Y67112D01*
X41355Y67001D01*
X41125Y66825D01*
X40949Y66595D01*
X40838Y66327D01*
X40801Y66040D01*
X40838Y65753D01*
X40949Y65485D01*
X41125Y65255D01*
X41355Y65079D01*
X41623Y64968D01*
X41910Y64931D01*
X42197Y64968D01*
X42465Y65079D01*
X42695Y65255D01*
X42871Y65485D01*
X42982Y65753D01*
X43019Y66040D01*
X42982Y66327D01*
X42871Y66595D01*
X42695Y66825D01*
X42465Y67001D01*
X42197Y67112D01*
X41910Y67149D01*
D02*
G37*
G36*
X44450D02*
X44163Y67112D01*
X43895Y67001D01*
X43665Y66825D01*
X43489Y66595D01*
X43378Y66327D01*
X43341Y66040D01*
X43378Y65753D01*
X43489Y65485D01*
X43665Y65255D01*
X43895Y65079D01*
X44163Y64968D01*
X44450Y64931D01*
X44737Y64968D01*
X45005Y65079D01*
X45235Y65255D01*
X45411Y65485D01*
X45522Y65753D01*
X45559Y66040D01*
X45522Y66327D01*
X45411Y66595D01*
X45235Y66825D01*
X45005Y67001D01*
X44737Y67112D01*
X44450Y67149D01*
D02*
G37*
G36*
X23060Y73473D02*
Y72590D01*
X23943D01*
X23932Y72677D01*
X23821Y72945D01*
X23645Y73175D01*
X23415Y73351D01*
X23147Y73462D01*
X23060Y73473D01*
D02*
G37*
G36*
X33020Y76039D02*
X32733Y76002D01*
X32465Y75891D01*
X32235Y75715D01*
X32059Y75485D01*
X31948Y75217D01*
X31911Y74930D01*
X31948Y74643D01*
X32059Y74375D01*
X32235Y74145D01*
X32465Y73969D01*
X32733Y73858D01*
X33020Y73821D01*
X33307Y73858D01*
X33575Y73969D01*
X33805Y74145D01*
X33981Y74375D01*
X34092Y74643D01*
X34129Y74930D01*
X34092Y75217D01*
X33981Y75485D01*
X33805Y75715D01*
X33575Y75891D01*
X33307Y76002D01*
X33020Y76039D01*
D02*
G37*
G36*
X23943Y72190D02*
X23060D01*
Y71307D01*
X23147Y71318D01*
X23415Y71429D01*
X23645Y71605D01*
X23821Y71835D01*
X23932Y72103D01*
X23943Y72190D01*
D02*
G37*
G36*
X22660Y73473D02*
X22573Y73462D01*
X22305Y73351D01*
X22075Y73175D01*
X21899Y72945D01*
X21788Y72677D01*
X21777Y72590D01*
X22660D01*
Y73473D01*
D02*
G37*
G36*
X30280Y58183D02*
X30206Y58173D01*
X29950Y58067D01*
X29731Y57899D01*
X29563Y57680D01*
X29457Y57424D01*
X29447Y57350D01*
X30280D01*
Y58183D01*
D02*
G37*
G36*
X30680D02*
Y57350D01*
X31513D01*
X31503Y57424D01*
X31397Y57680D01*
X31229Y57899D01*
X31010Y58067D01*
X30754Y58173D01*
X30680Y58183D01*
D02*
G37*
G36*
X30280Y56950D02*
X29447D01*
X29457Y56876D01*
X29563Y56620D01*
X29731Y56401D01*
X29950Y56233D01*
X30206Y56127D01*
X30280Y56117D01*
Y56950D01*
D02*
G37*
G36*
X31513D02*
X30680D01*
Y56117D01*
X30754Y56127D01*
X31010Y56233D01*
X31229Y56401D01*
X31397Y56620D01*
X31503Y56876D01*
X31513Y56950D01*
D02*
G37*
G36*
X27940Y65829D02*
X27666Y65793D01*
X27410Y65687D01*
X27191Y65519D01*
X27023Y65300D01*
X26917Y65044D01*
X26881Y64770D01*
X26917Y64496D01*
X27023Y64240D01*
X27191Y64021D01*
X27410Y63853D01*
X27666Y63747D01*
X27940Y63711D01*
X28214Y63747D01*
X28470Y63853D01*
X28689Y64021D01*
X28857Y64240D01*
X28963Y64496D01*
X28999Y64770D01*
X28963Y65044D01*
X28857Y65300D01*
X28689Y65519D01*
X28470Y65687D01*
X28214Y65793D01*
X27940Y65829D01*
D02*
G37*
G36*
X30480D02*
X30206Y65793D01*
X29950Y65687D01*
X29731Y65519D01*
X29563Y65300D01*
X29457Y65044D01*
X29421Y64770D01*
X29457Y64496D01*
X29563Y64240D01*
X29731Y64021D01*
X29950Y63853D01*
X30206Y63747D01*
X30480Y63711D01*
X30754Y63747D01*
X31010Y63853D01*
X31229Y64021D01*
X31397Y64240D01*
X31503Y64496D01*
X31539Y64770D01*
X31503Y65044D01*
X31397Y65300D01*
X31229Y65519D01*
X31010Y65687D01*
X30754Y65793D01*
X30480Y65829D01*
D02*
G37*
G36*
X20320D02*
X20046Y65793D01*
X19790Y65687D01*
X19571Y65519D01*
X19403Y65300D01*
X19297Y65044D01*
X19261Y64770D01*
X19297Y64496D01*
X19403Y64240D01*
X19571Y64021D01*
X19790Y63853D01*
X20046Y63747D01*
X20320Y63711D01*
X20594Y63747D01*
X20850Y63853D01*
X21069Y64021D01*
X21237Y64240D01*
X21343Y64496D01*
X21379Y64770D01*
X21343Y65044D01*
X21237Y65300D01*
X21069Y65519D01*
X20850Y65687D01*
X20594Y65793D01*
X20320Y65829D01*
D02*
G37*
G36*
X25400D02*
X25126Y65793D01*
X24870Y65687D01*
X24651Y65519D01*
X24483Y65300D01*
X24377Y65044D01*
X24341Y64770D01*
X24377Y64496D01*
X24483Y64240D01*
X24651Y64021D01*
X24870Y63853D01*
X25126Y63747D01*
X25400Y63711D01*
X25674Y63747D01*
X25930Y63853D01*
X26149Y64021D01*
X26317Y64240D01*
X26423Y64496D01*
X26459Y64770D01*
X26423Y65044D01*
X26317Y65300D01*
X26149Y65519D01*
X25930Y65687D01*
X25674Y65793D01*
X25400Y65829D01*
D02*
G37*
%LPD*%
D10*
X53340Y87630D02*
Y90170D01*
Y82550D02*
Y87630D01*
X33020Y48260D02*
Y57150D01*
X45720Y34290D02*
Y36830D01*
X22860Y85090D02*
Y87630D01*
Y80010D02*
Y82550D01*
X8890Y55880D02*
Y59690D01*
X6350Y55880D02*
Y59690D01*
X3810Y55880D02*
Y59690D01*
X1270Y85090D02*
Y87630D01*
Y80010D02*
Y82550D01*
Y77419D02*
Y80010D01*
X2540Y3810D02*
Y8890D01*
X17780Y10160D02*
Y17780D01*
X20320Y10160D02*
Y17780D01*
X33020Y87630D02*
Y90170D01*
X11430Y87630D02*
Y90170D01*
X49530Y36830D02*
Y39370D01*
X35560Y55956D02*
Y57150D01*
X34290Y54686D02*
X35560Y55956D01*
X17780Y86360D02*
X19101Y85039D01*
X37440Y84430D02*
X39370Y86360D01*
X36195Y84430D02*
X37440D01*
X34925Y83160D02*
X36195Y84430D01*
X47041Y40081D02*
Y41859D01*
X38100Y45720D02*
Y48260D01*
X11430Y72390D02*
X15240Y76200D01*
Y77470D01*
X26230Y91440D02*
Y93980D01*
X24960Y90170D02*
X26230Y91440D01*
X22860Y90170D02*
X24960D01*
X15164Y36830D02*
X17780Y34214D01*
Y33020D02*
Y34214D01*
X8687Y21793D02*
X10160Y20320D01*
X8687Y21793D02*
Y31547D01*
X10160Y33020D01*
X7620Y20320D02*
X8890Y19050D01*
Y15240D02*
Y19050D01*
X36830Y82550D02*
X38151Y83871D01*
X41656Y91719D02*
X42012Y92075D01*
Y94920D01*
X41275Y95656D02*
X42012Y94920D01*
X22860Y74930D02*
X25400D01*
X22860Y80010D02*
X22974Y79896D01*
Y77584D02*
Y79896D01*
X22860Y77470D02*
X22974Y77584D01*
X4445Y8103D02*
X5080Y7468D01*
Y3810D02*
Y7468D01*
X50825Y64465D02*
X52527Y62763D01*
Y30328D02*
Y62763D01*
X49936Y27737D02*
X52527Y30328D01*
X52244Y936D02*
X53391Y2083D01*
X35386Y936D02*
X52244D01*
X34290Y2032D02*
X35386Y936D01*
X34290Y2032D02*
Y3810D01*
X16510D02*
Y5715D01*
X19583Y37059D02*
X24181Y32461D01*
X19583Y37059D02*
Y42596D01*
X48438Y53848D02*
Y72390D01*
Y53848D02*
X50902Y51384D01*
Y32487D02*
Y51384D01*
X48260Y29845D02*
X50902Y32487D01*
X45720Y29845D02*
X48260D01*
X44450Y28575D02*
X45720Y29845D01*
X44450Y3810D02*
Y28575D01*
X24130Y3810D02*
Y5385D01*
X30480Y25121D02*
Y40640D01*
X43180Y48260D02*
X44450Y49530D01*
Y55880D01*
X29210Y10160D02*
X30480Y8890D01*
X29210Y10160D02*
Y12700D01*
X46660Y50622D02*
X47854Y49428D01*
Y33325D02*
Y49428D01*
X46838Y32309D02*
X47854Y33325D01*
X36830Y54610D02*
Y55778D01*
X44501Y58318D02*
X47142Y60960D01*
Y81432D01*
X5867Y10584D02*
X8890Y7561D01*
Y3810D02*
Y7561D01*
X1270Y28829D02*
X5055Y25044D01*
X13335Y1397D02*
X13970Y2032D01*
Y3810D01*
X26670Y54610D02*
X27940Y55880D01*
Y57150D01*
X5766Y68504D02*
Y82245D01*
X10160Y29210D02*
X12700Y31750D01*
Y33020D01*
X17780Y30480D02*
X19202Y31902D01*
X19940Y87250D02*
X22860Y90170D01*
X39370Y86360D02*
X40640Y87630D01*
Y93980D01*
X11430Y87630D02*
X12780Y86280D01*
Y82550D02*
Y86280D01*
Y82550D02*
X14101Y81229D01*
X16459D01*
X17780Y82550D01*
X39370D02*
X40843Y81077D01*
X29210Y15240D02*
X30480Y16510D01*
Y19050D01*
X52070Y3048D02*
Y3810D01*
X50758Y1736D02*
X52070Y3048D01*
X30480Y19050D02*
X34696D01*
X10160Y20320D02*
X10795Y19685D01*
Y12065D02*
Y19685D01*
X8890Y10160D02*
X10795Y12065D01*
X5055Y10185D02*
X6985Y8255D01*
Y2667D02*
Y8255D01*
Y2667D02*
X8255Y1397D01*
X5055Y10185D02*
Y25044D01*
X8255Y1397D02*
X13335D01*
X19101Y20955D02*
X24181Y26035D01*
X17145Y20955D02*
X19101D01*
X15240Y19050D02*
X17145Y20955D01*
X15240Y6985D02*
Y19050D01*
Y6985D02*
X16510Y5715D01*
X24181Y26035D02*
Y32461D01*
X20320Y6985D02*
X21590Y5715D01*
X16510Y6985D02*
X20320D01*
X16040Y7455D02*
X16510Y6985D01*
X16040Y7455D02*
Y18719D01*
X17476Y20155D01*
X19432D01*
X24981Y25704D01*
X21590Y3810D02*
Y5715D01*
X26175Y27864D02*
X26594D01*
X24981Y26670D02*
X26175Y27864D01*
X24981Y25704D02*
Y26670D01*
X1270Y74930D02*
X2642Y73558D01*
X1270Y68580D02*
X2642Y69952D01*
X1270Y28829D02*
Y68580D01*
X2642Y69952D02*
Y73558D01*
X8890Y62230D02*
Y67945D01*
X6985Y69850D02*
X8890Y67945D01*
X1270Y90170D02*
Y91440D01*
X3810Y93980D01*
X4730D01*
X7785Y70181D02*
Y76365D01*
X11430Y80010D01*
X5944Y50063D02*
X8153D01*
X10630Y52540D01*
X7785Y70181D02*
X10630Y67336D01*
Y52540D02*
Y67336D01*
X10080Y79791D02*
Y86280D01*
X6985Y76696D02*
X10080Y79791D01*
Y86280D02*
X11430Y87630D01*
X6985Y69850D02*
Y76696D01*
X5715Y89535D02*
X8255Y92075D01*
X3175Y82550D02*
X5715Y85090D01*
X1270Y82550D02*
X3175D01*
X8255Y92075D02*
X12319D01*
X5715Y85090D02*
Y89535D01*
X15240Y86360D02*
Y90805D01*
X13970Y92075D02*
X15240Y90805D01*
X13970Y92075D02*
Y93980D01*
X12319Y92075D02*
X13580Y90814D01*
X15240Y82550D02*
Y83820D01*
X13580Y85480D02*
X15240Y83820D01*
X13580Y85480D02*
Y90814D01*
X19050Y92075D02*
Y93980D01*
X17780Y90805D02*
X19050Y92075D01*
X17780Y86360D02*
Y90805D01*
Y77470D02*
X17860Y77550D01*
Y79404D01*
X19101Y80645D01*
Y85039D01*
X16510Y45669D02*
X19583Y42596D01*
X17310Y56350D02*
X19050Y54610D01*
X22860Y64770D02*
Y66675D01*
X17780Y74930D02*
X19346Y73364D01*
X17780Y74930D02*
Y77470D01*
X20146Y69389D02*
X22860Y66675D01*
X19940Y80265D02*
Y87250D01*
X19130Y74711D02*
X20146Y73695D01*
Y69389D02*
Y73695D01*
X19130Y79455D02*
X19940Y80265D01*
X19930Y77080D02*
X21133Y78283D01*
X19130Y74711D02*
Y79455D01*
X19930Y75043D02*
Y77080D01*
Y75043D02*
X20946Y74027D01*
Y69720D02*
Y74027D01*
X17310Y67310D02*
X19346Y69346D01*
Y73364D01*
X17310Y56350D02*
Y67310D01*
X16510Y67641D02*
X18161Y69292D01*
X16510Y45669D02*
Y67641D01*
X18161Y69292D02*
Y72619D01*
X31750Y67310D02*
X33020Y66040D01*
Y64770D02*
Y66040D01*
X20946Y69720D02*
X23356Y67310D01*
X31750D01*
X30480Y82550D02*
X33020D01*
X27940Y80010D02*
X30480Y82550D01*
X27940Y77470D02*
Y80010D01*
X25400Y74930D02*
X27940Y77470D01*
X35560Y64770D02*
Y66040D01*
X29210Y68580D02*
X33020D01*
X27940Y69850D02*
X29210Y68580D01*
X27940Y69850D02*
Y72390D01*
X25400Y74930D02*
X27940Y72390D01*
X33020Y68580D02*
X35560Y66040D01*
X36830Y86360D02*
Y89535D01*
X35560Y90805D02*
X36830Y89535D01*
X35560Y90805D02*
Y93980D01*
X30480Y93345D02*
X32791Y95656D01*
X27305Y82550D02*
X30480Y85725D01*
X22860Y82550D02*
X27305D01*
X32791Y95656D02*
X41275D01*
X30480Y85725D02*
Y93345D01*
X39370Y76835D02*
Y77470D01*
X38100Y75565D02*
X39370Y76835D01*
X35560Y75565D02*
X38100D01*
X34925Y76200D02*
X35560Y75565D01*
X34925Y76200D02*
Y83160D01*
X39370Y83871D02*
X41656Y86157D01*
X38151Y83871D02*
X39370D01*
X41656Y86157D02*
Y91719D01*
X44450Y83820D02*
Y86360D01*
X43180Y87630D02*
X44450Y86360D01*
X41910Y81280D02*
X44450Y83820D01*
X39370Y66040D02*
Y67742D01*
X40843Y69215D01*
Y81077D01*
X43180Y90170D02*
X46460D01*
X47730Y91440D01*
Y93980D01*
X51435Y81915D02*
X53340Y80010D01*
X51435Y81915D02*
Y85195D01*
X46460Y90170D02*
X51435Y85195D01*
X53340Y74828D02*
Y80010D01*
X49632Y71120D02*
X53340Y74828D01*
X49632Y58445D02*
Y71120D01*
X44501Y58318D02*
X46660Y56159D01*
Y50622D02*
Y56159D01*
X39370Y58318D02*
X44501D01*
X36830Y55778D02*
X39370Y58318D01*
X41910Y69850D02*
X43180Y68580D01*
X41910Y69850D02*
Y81280D01*
X45085Y68580D02*
X46342Y67323D01*
Y61582D02*
Y67323D01*
X43180Y68580D02*
X45085D01*
X35560Y48260D02*
Y48895D01*
X34290Y50165D02*
X35560Y48895D01*
X34290Y50165D02*
Y54686D01*
X30480Y55880D02*
Y57150D01*
Y55880D02*
X31750Y54610D01*
X30480Y48260D02*
Y48895D01*
X31750Y50165D01*
Y54610D01*
X21653Y59118D02*
X43878D01*
X20320Y57785D02*
X21653Y59118D01*
X20320Y57150D02*
Y57785D01*
X43878Y59118D02*
X46342Y61582D01*
X33020Y40640D02*
Y43180D01*
X34290Y44450D01*
X36830D01*
X38100Y45720D01*
X22860Y39370D02*
X24130D01*
X20955Y41275D02*
X22860Y39370D01*
X20955Y41275D02*
Y43815D01*
X25400Y48260D01*
X30480D01*
X40640Y45720D02*
Y48260D01*
Y45720D02*
X41910Y44450D01*
X44450D01*
X47041Y41859D01*
X33655Y34290D02*
X35560D01*
X40640Y37465D02*
X44425D01*
X38265Y35090D02*
X40640Y37465D01*
X44425D02*
X47041Y40081D01*
X39370Y2540D02*
X40174Y1736D01*
X39370Y2540D02*
Y14376D01*
X40174Y1736D02*
X50758D01*
X34696Y19050D02*
X39370Y14376D01*
X49936Y10795D02*
X53391Y7341D01*
Y2083D02*
Y7341D01*
X49936Y10795D02*
Y27737D01*
X45644Y11506D02*
X49530Y7620D01*
X45644Y11506D02*
Y25730D01*
X49530Y3810D02*
Y7620D01*
X38265Y19050D02*
X41910Y15405D01*
Y3810D02*
Y15405D01*
X38265Y19050D02*
Y35090D01*
X24765Y6020D02*
Y19406D01*
X24130Y5385D02*
X24765Y6020D01*
Y19406D02*
X30480Y25121D01*
X25565Y6820D02*
X26670Y5715D01*
Y3810D02*
Y5715D01*
X26365Y10465D02*
X27940Y8890D01*
X26365Y10465D02*
Y17475D01*
X27940Y19050D01*
X25565Y19074D02*
X31280Y24789D01*
Y31915D01*
X25565Y6820D02*
Y19074D01*
X31280Y31915D02*
X33655Y34290D01*
X30480Y22858D02*
X32080Y24458D01*
Y30810D01*
X33655Y32385D01*
X36195D01*
X37465Y33655D01*
X30480Y19050D02*
Y22858D01*
X45720Y39892D02*
Y40640D01*
X40309Y38265D02*
X44093D01*
X37465Y35421D02*
X40309Y38265D01*
X37465Y33655D02*
Y35421D01*
X44093Y38265D02*
X45720Y39892D01*
X10160Y38100D02*
Y40640D01*
Y38100D02*
X11430Y36830D01*
X15164D01*
X17780Y36347D02*
X19202Y34925D01*
X17780Y36347D02*
Y40640D01*
X19202Y31902D02*
Y34925D01*
X15240Y33020D02*
Y33655D01*
X13640Y35255D02*
X15240Y33655D01*
X10236Y35255D02*
X13640D01*
X5867Y10584D02*
Y25363D01*
X2070Y29160D02*
X5867Y25363D01*
X2070Y29160D02*
Y46520D01*
X3810Y48260D01*
X7481D01*
X11430Y52209D01*
Y72390D01*
D11*
X2500Y97500D02*
D03*
X52500D02*
D03*
X2500Y22500D02*
D03*
X52500D02*
D03*
D12*
X53340Y80010D02*
D03*
Y82550D02*
D03*
X1270Y90170D02*
D03*
X11430D02*
D03*
X1270Y72390D02*
D03*
X11430D02*
D03*
Y74930D02*
D03*
X1270D02*
D03*
X11430Y77419D02*
D03*
X1270D02*
D03*
X11430Y80010D02*
D03*
X1270D02*
D03*
X11430Y82550D02*
D03*
X1270D02*
D03*
X11430Y85090D02*
D03*
X1270D02*
D03*
Y87630D02*
D03*
X11430D02*
D03*
X17780Y77470D02*
D03*
X16510Y79375D02*
D03*
X15240Y77470D02*
D03*
X17780Y86360D02*
D03*
X15240D02*
D03*
X22860Y90170D02*
D03*
X33020D02*
D03*
X22860Y87630D02*
D03*
X33020D02*
D03*
Y85090D02*
D03*
X22860D02*
D03*
X33020Y82550D02*
D03*
X22860D02*
D03*
X33020Y80010D02*
D03*
X22860D02*
D03*
X33020Y77470D02*
D03*
X22860D02*
D03*
X33020Y74930D02*
D03*
X22860D02*
D03*
Y72390D02*
D03*
X33020D02*
D03*
X39370Y86360D02*
D03*
X36830D02*
D03*
X39370Y77470D02*
D03*
X38100Y79375D02*
D03*
X36830Y77470D02*
D03*
X43180Y87630D02*
D03*
X53340D02*
D03*
X43180Y90170D02*
D03*
X53340D02*
D03*
X39370Y55880D02*
D03*
Y66040D02*
D03*
X41910Y55880D02*
D03*
Y66040D02*
D03*
X44450Y55880D02*
D03*
Y66040D02*
D03*
X49530Y49530D02*
D03*
Y39370D02*
D03*
X35560Y36830D02*
D03*
X45720D02*
D03*
X35560Y34290D02*
D03*
X45720D02*
D03*
X3810Y45720D02*
D03*
Y55880D02*
D03*
X6350Y45720D02*
D03*
Y55880D02*
D03*
X8890Y45720D02*
D03*
Y55880D02*
D03*
X3810Y31750D02*
D03*
Y41910D02*
D03*
X6350Y31750D02*
D03*
Y41910D02*
D03*
X15240Y30480D02*
D03*
X17780D02*
D03*
X10160Y20320D02*
D03*
X7620D02*
D03*
X27940Y19050D02*
D03*
X30480D02*
D03*
X27940Y8890D02*
D03*
X30480D02*
D03*
X26670Y54610D02*
D03*
X36830D02*
D03*
D13*
X3810Y62230D02*
D03*
X6350D02*
D03*
X8890D02*
D03*
X17780Y82550D02*
D03*
X39370D02*
D03*
X30480Y40640D02*
D03*
X33020D02*
D03*
X35560D02*
D03*
X38100D02*
D03*
X40640D02*
D03*
X43180D02*
D03*
X45720D02*
D03*
X30480Y48260D02*
D03*
X33020D02*
D03*
X35560D02*
D03*
X38100D02*
D03*
X40640D02*
D03*
X43180D02*
D03*
X49530Y36830D02*
D03*
X29210Y12700D02*
D03*
D14*
X3810Y59690D02*
D03*
X6350D02*
D03*
X8890D02*
D03*
X45720Y48260D02*
D03*
X49530Y34290D02*
D03*
X29210Y15240D02*
D03*
D15*
X17780Y10160D02*
D03*
X20320D02*
D03*
X22860D02*
D03*
X17780Y17780D02*
D03*
X20320D02*
D03*
X22860D02*
D03*
X7270Y93980D02*
D03*
X4730D02*
D03*
X28770D02*
D03*
X26230D02*
D03*
X50270D02*
D03*
X47730D02*
D03*
X24130Y3810D02*
D03*
X21590D02*
D03*
X19050D02*
D03*
X26670D02*
D03*
X29210D02*
D03*
X16510D02*
D03*
X36830D02*
D03*
X34290D02*
D03*
X31750D02*
D03*
X13970D02*
D03*
X11430D02*
D03*
X8890D02*
D03*
X5080D02*
D03*
X2540D02*
D03*
X41910D02*
D03*
X44450D02*
D03*
X52070D02*
D03*
X49530D02*
D03*
X46990D02*
D03*
D16*
X35560Y93980D02*
D03*
X13970D02*
D03*
X10160Y29210D02*
D03*
D17*
X40640Y93980D02*
D03*
X19050D02*
D03*
X24130Y39370D02*
D03*
X12700Y29210D02*
D03*
X8890Y10160D02*
D03*
D18*
X15240Y82550D02*
D03*
X36830D02*
D03*
D19*
X44450Y78740D02*
D03*
Y83820D02*
D03*
X49530Y81280D02*
D03*
X2540Y8890D02*
D03*
Y19050D02*
D03*
X19050Y54610D02*
D03*
X24130D02*
D03*
X21590Y49530D02*
D03*
D20*
X35560Y64770D02*
D03*
X10160Y33020D02*
D03*
D21*
X33020Y64770D02*
D03*
X30480D02*
D03*
X27940D02*
D03*
X25400D02*
D03*
X22860D02*
D03*
X20320D02*
D03*
X35560Y57150D02*
D03*
X33020D02*
D03*
X30480D02*
D03*
X27940D02*
D03*
X25400D02*
D03*
X22860D02*
D03*
X20320D02*
D03*
X12700Y33020D02*
D03*
X15240D02*
D03*
X17780D02*
D03*
X10160Y40640D02*
D03*
X12700D02*
D03*
X15240D02*
D03*
X17780D02*
D03*
D22*
X24130Y41910D02*
D03*
X8890Y15240D02*
D03*
D23*
X4445Y8103D02*
D03*
X50825Y64465D02*
D03*
X10236Y35255D02*
D03*
X48438Y72390D02*
D03*
X26594Y27864D02*
D03*
X46838Y32309D02*
D03*
X47142Y81432D02*
D03*
X21133Y78283D02*
D03*
X5944Y50063D02*
D03*
X5766Y82245D02*
D03*
Y68504D02*
D03*
X49632Y58445D02*
D03*
X45644Y25730D02*
D03*
X18161Y72619D02*
D03*
M02*
